<svg width="306" height="251" viewBox="0 0 306 251" fill="none" xmlns="http://www.w3.org/2000/svg">
<mask id="path-1-inside-1_449_43392" fill="white">
<path fill-rule="evenodd" clip-rule="evenodd" d="M20 11.7539C8.95431 11.7539 0 20.7082 0 31.7539V212.451C0 220.735 6.71573 227.451 15 227.451H104.399C115.144 227.451 123.616 237.229 131.622 244.396C135.868 248.197 141.476 250.508 147.623 250.508H248.623C255.4 250.508 261.521 247.699 265.886 243.181C272.673 236.156 280.33 227.449 290.098 227.449C298.382 227.449 305.098 220.733 305.098 212.449V49.457C305.098 41.1728 298.382 34.457 290.098 34.457H220.764C220.345 34.457 219.93 34.4742 219.52 34.5078H147.623C143.432 34.5078 139.493 35.5818 136.064 37.4696C135.511 37.7744 134.81 37.3859 134.81 36.7539C134.81 22.9468 123.618 11.7539 109.81 11.7539H20Z"/>
</mask>
<path fill-rule="evenodd" clip-rule="evenodd" d="M20 11.7539C8.95431 11.7539 0 20.7082 0 31.7539V212.451C0 220.735 6.71573 227.451 15 227.451H104.399C115.144 227.451 123.616 237.229 131.622 244.396C135.868 248.197 141.476 250.508 147.623 250.508H248.623C255.4 250.508 261.521 247.699 265.886 243.181C272.673 236.156 280.33 227.449 290.098 227.449C298.382 227.449 305.098 220.733 305.098 212.449V49.457C305.098 41.1728 298.382 34.457 290.098 34.457H220.764C220.345 34.457 219.93 34.4742 219.52 34.5078H147.623C143.432 34.5078 139.493 35.5818 136.064 37.4696C135.511 37.7744 134.81 37.3859 134.81 36.7539C134.81 22.9468 123.618 11.7539 109.81 11.7539H20Z" fill="black"/>
<path d="M219.52 34.5078V35.5078H219.561L219.602 35.5045L219.52 34.5078ZM136.064 37.4696L136.546 38.3456L136.064 37.4696ZM265.886 243.181L265.166 242.486L265.886 243.181ZM131.622 244.396L130.955 245.141L131.622 244.396ZM1 31.7539C1 21.2605 9.50659 12.7539 20 12.7539V10.7539C8.40202 10.7539 -1 20.1559 -1 31.7539H1ZM1 212.451V31.7539H-1V212.451H1ZM15 226.451C7.26801 226.451 1 220.183 1 212.451H-1C-1 221.287 6.16344 228.451 15 228.451V226.451ZM104.399 226.451H15V228.451H104.399V226.451ZM147.623 249.508C141.731 249.508 136.359 247.294 132.289 243.651L130.955 245.141C135.378 249.099 141.22 251.508 147.623 251.508V249.508ZM248.623 249.508H147.623V251.508H248.623V249.508ZM265.166 242.486C260.983 246.817 255.118 249.508 248.623 249.508V251.508C255.683 251.508 262.06 248.58 266.605 243.876L265.166 242.486ZM304.098 212.449C304.098 220.181 297.83 226.449 290.098 226.449V228.449C298.934 228.449 306.098 221.285 306.098 212.449H304.098ZM304.098 49.457V212.449H306.098V49.457H304.098ZM290.098 35.457C297.83 35.457 304.098 41.725 304.098 49.457H306.098C306.098 40.6205 298.934 33.457 290.098 33.457V35.457ZM220.764 35.457H290.098V33.457H220.764V35.457ZM219.602 35.5045C219.985 35.4731 220.372 35.457 220.764 35.457V33.457C220.318 33.457 219.876 33.4753 219.439 33.5112L219.602 35.5045ZM147.623 35.5078H219.52V33.5078H147.623V35.5078ZM136.546 38.3456C139.831 36.5371 143.605 35.5078 147.623 35.5078V33.5078C143.26 33.5078 139.154 34.6266 135.582 36.5936L136.546 38.3456ZM109.81 12.7539C123.065 12.7539 133.81 23.4991 133.81 36.7539H135.81C135.81 22.3945 124.17 10.7539 109.81 10.7539V12.7539ZM20 12.7539H109.81V10.7539H20V12.7539ZM135.582 36.5936C135.633 36.5654 135.689 36.5739 135.722 36.5925C135.739 36.6023 135.761 36.6201 135.78 36.6505C135.8 36.684 135.81 36.7222 135.81 36.7539H133.81C133.81 38.1971 135.371 38.9928 136.546 38.3456L135.582 36.5936ZM266.605 243.876C270.028 240.333 273.574 236.472 277.482 233.474C281.38 230.485 285.524 228.449 290.098 228.449V226.449C284.903 226.449 280.335 228.766 276.265 231.887C272.207 234.999 268.53 239.005 265.166 242.486L266.605 243.876ZM104.399 228.451C109.458 228.451 114.05 230.751 118.438 234.036C122.856 237.344 126.877 241.491 130.955 245.141L132.289 243.651C128.361 240.134 124.143 235.809 119.637 232.435C115.102 229.04 110.085 226.451 104.399 226.451V228.451Z" fill="black" mask="url(#path-1-inside-1_449_43392)"/>
<mask id="path-3-inside-2_449_43392" fill="white">
<path fill-rule="evenodd" clip-rule="evenodd" d="M20.377 0C9.33126 0 0.376953 8.9543 0.376953 20V200.697C0.376953 208.981 7.09268 215.697 15.377 215.697H104.776C115.521 215.697 123.993 225.475 131.999 232.642C136.245 236.443 141.853 238.754 148 238.754H249C255.777 238.754 261.898 235.945 266.263 231.427C273.05 224.402 280.707 215.695 290.475 215.695C298.759 215.695 305.475 208.979 305.475 200.695V37.7031C305.475 29.4189 298.759 22.7031 290.475 22.7031H221.141C220.722 22.7031 220.307 22.7203 219.897 22.7539H143C139.181 22.7539 135.012 20.1362 133.72 16.5421C130.254 6.89729 121.026 0 110.187 0H20.377Z"/>
</mask>
<path fill-rule="evenodd" clip-rule="evenodd" d="M20.377 0C9.33126 0 0.376953 8.9543 0.376953 20V200.697C0.376953 208.981 7.09268 215.697 15.377 215.697H104.776C115.521 215.697 123.993 225.475 131.999 232.642C136.245 236.443 141.853 238.754 148 238.754H249C255.777 238.754 261.898 235.945 266.263 231.427C273.05 224.402 280.707 215.695 290.475 215.695C298.759 215.695 305.475 208.979 305.475 200.695V37.7031C305.475 29.4189 298.759 22.7031 290.475 22.7031H221.141C220.722 22.7031 220.307 22.7203 219.897 22.7539H143C139.181 22.7539 135.012 20.1362 133.72 16.5421C130.254 6.89729 121.026 0 110.187 0H20.377Z" fill="#94BDEB"/>
<path d="M219.897 22.7539V23.7539H219.938L219.979 23.7506L219.897 22.7539ZM133.72 16.5421L134.661 16.2038L133.72 16.5421ZM266.263 231.427L265.543 230.733L266.263 231.427ZM131.999 232.642L131.332 233.387L131.999 232.642ZM1.37695 20C1.37695 9.50658 9.88354 1 20.377 1V-1C8.77897 -1 -0.623047 8.40201 -0.623047 20H1.37695ZM1.37695 200.697V20H-0.623047V200.697H1.37695ZM15.377 214.697C7.64497 214.697 1.37695 208.429 1.37695 200.697H-0.623047C-0.623047 209.533 6.5404 216.697 15.377 216.697V214.697ZM104.776 214.697H15.377V216.697H104.776V214.697ZM148 237.754C142.108 237.754 136.736 235.54 132.666 231.897L131.332 233.387C135.754 237.346 141.597 239.754 148 239.754V237.754ZM249 237.754H148V239.754H249V237.754ZM265.543 230.733C261.36 235.063 255.495 237.754 249 237.754V239.754C256.059 239.754 262.437 236.827 266.982 232.122L265.543 230.733ZM304.475 200.695C304.475 208.427 298.207 214.695 290.475 214.695V216.695C299.311 216.695 306.475 209.531 306.475 200.695H304.475ZM304.475 37.7031V200.695H306.475V37.7031H304.475ZM290.475 23.7031C298.207 23.7031 304.475 29.9711 304.475 37.7031H306.475C306.475 28.8666 299.311 21.7031 290.475 21.7031V23.7031ZM221.141 23.7031H290.475V21.7031H221.141V23.7031ZM219.979 23.7506C220.362 23.7192 220.749 23.7031 221.141 23.7031V21.7031C220.695 21.7031 220.253 21.7214 219.816 21.7573L219.979 23.7506ZM143 23.7539H219.897V21.7539H143V23.7539ZM110.187 1C120.591 1 129.451 7.61994 132.779 16.8804L134.661 16.2038C131.056 6.17465 121.461 -1 110.187 -1V1ZM20.377 1H110.187V-1H20.377V1ZM143 21.7539C139.55 21.7539 135.793 19.3531 134.661 16.2038L132.779 16.8804C134.231 20.9192 138.812 23.7539 143 23.7539V21.7539ZM266.982 232.122C270.405 228.579 273.951 224.718 277.859 221.72C281.757 218.731 285.901 216.695 290.475 216.695V214.695C285.28 214.695 280.712 217.012 276.642 220.133C272.584 223.246 268.907 227.251 265.543 230.733L266.982 232.122ZM104.776 216.697C109.835 216.697 114.427 218.997 118.815 222.282C123.233 225.59 127.254 229.737 131.332 233.387L132.666 231.897C128.738 228.38 124.52 224.055 120.014 220.681C115.478 217.286 110.462 214.697 104.776 214.697V216.697Z" fill="black" mask="url(#path-3-inside-2_449_43392)"/>
</svg>
