<svg width="196" height="24" viewBox="0 0 196 24" fill="none" xmlns="http://www.w3.org/2000/svg">
<path d="M196 1.39657H191.967V12.1754H191.131V1.39657H187.072V0.69043H196V1.39657Z" fill="white"/>
<path d="M185.854 10.2421C185.908 10.2421 185.954 10.2611 185.992 10.299L186.317 10.648C186.079 10.9023 185.819 11.1323 185.538 11.3379C185.262 11.5381 184.956 11.7112 184.62 11.8573C184.29 11.998 183.925 12.1062 183.525 12.182C183.13 12.2632 182.694 12.3038 182.218 12.3038C181.422 12.3038 180.692 12.1658 180.026 11.8898C179.366 11.6084 178.798 11.2134 178.322 10.7048C177.846 10.1907 177.475 9.57117 177.21 8.84609C176.95 8.12101 176.82 7.31477 176.82 6.42736C176.82 5.55618 176.956 4.76076 177.226 4.04109C177.497 3.32142 177.875 2.70456 178.362 2.19051C178.849 1.67105 179.434 1.27063 180.116 0.989261C180.797 0.702475 181.55 0.559082 182.372 0.559082C183.157 0.559082 183.852 0.680831 184.458 0.924328C185.064 1.16782 185.616 1.51143 186.114 1.95513L185.862 2.32038C185.819 2.38531 185.751 2.41778 185.659 2.41778C185.594 2.41778 185.489 2.35825 185.343 2.23921C185.197 2.12017 184.994 1.9903 184.734 1.84962C184.474 1.70352 184.15 1.57095 183.76 1.4519C183.376 1.33286 182.913 1.27334 182.372 1.27334C181.679 1.27334 181.044 1.39238 180.465 1.63047C179.891 1.86855 179.396 2.20945 178.979 2.65316C178.568 3.09686 178.246 3.63797 178.013 4.27647C177.781 4.91497 177.664 5.63194 177.664 6.42736C177.664 7.23901 177.781 7.96409 178.013 8.6026C178.252 9.2411 178.576 9.7822 178.987 10.2259C179.399 10.6642 179.883 11.0024 180.44 11.2405C181.003 11.4732 181.609 11.5895 182.258 11.5895C182.67 11.5895 183.035 11.5624 183.354 11.5083C183.679 11.4542 183.976 11.3731 184.247 11.2648C184.518 11.1566 184.769 11.024 185.002 10.8671C185.234 10.7102 185.464 10.5262 185.692 10.3152C185.719 10.2935 185.746 10.2773 185.773 10.2665C185.8 10.2503 185.827 10.2421 185.854 10.2421Z" fill="white"/>
<path d="M175.303 11.4855L175.287 12.1754H168.404V0.69043H175.287V1.38034H169.24V6.02301H174.273V6.69669H169.24V11.4855H175.303Z" fill="white"/>
<path d="M165.014 0.69043V12.1754H164.624C164.554 12.1754 164.494 12.1645 164.446 12.1429C164.402 12.1158 164.359 12.0726 164.316 12.013L156.857 2.0459C156.873 2.20823 156.881 2.36244 156.881 2.50854V12.1754H156.15V0.69043H156.564C156.64 0.69043 156.697 0.701252 156.735 0.722896C156.778 0.739129 156.824 0.779712 156.873 0.844645L164.316 10.7874C164.299 10.6251 164.291 10.4709 164.291 10.3248V0.69043H165.014Z" fill="white"/>
<path d="M152.76 0.69043V12.1754H152.37C152.3 12.1754 152.24 12.1645 152.192 12.1429C152.148 12.1158 152.105 12.0726 152.062 12.013L144.603 2.0459C144.619 2.20823 144.627 2.36244 144.627 2.50854V12.1754H143.896V0.69043H144.31C144.386 0.69043 144.443 0.701252 144.481 0.722896C144.524 0.739129 144.57 0.779712 144.619 0.844645L152.062 10.7874C152.046 10.6251 152.037 10.4709 152.037 10.3248V0.69043H152.76Z" fill="white"/>
<path d="M141.256 6.42736C141.256 7.31477 141.123 8.12101 140.858 8.84609C140.593 9.56576 140.22 10.1826 139.738 10.6967C139.257 11.2053 138.678 11.6003 138.001 11.8817C137.33 12.1577 136.589 12.2956 135.777 12.2956C134.966 12.2956 134.224 12.1577 133.553 11.8817C132.882 11.6003 132.306 11.2053 131.824 10.6967C131.343 10.1826 130.969 9.56576 130.704 8.84609C130.439 8.12101 130.307 7.31477 130.307 6.42736C130.307 5.54536 130.439 4.74452 130.704 4.02485C130.969 3.29978 131.343 2.68292 131.824 2.17428C132.306 1.66023 132.882 1.26252 133.553 0.981144C134.224 0.699769 134.966 0.559082 135.777 0.559082C136.589 0.559082 137.33 0.699769 138.001 0.981144C138.678 1.25711 139.257 1.65211 139.738 2.16616C140.22 2.68021 140.593 3.29978 140.858 4.02485C141.123 4.74452 141.256 5.54536 141.256 6.42736ZM140.396 6.42736C140.396 5.62652 140.285 4.90685 140.063 4.26835C139.841 3.62985 139.527 3.08874 139.121 2.64504C138.715 2.20133 138.228 1.86314 137.66 1.63047C137.092 1.39238 136.464 1.27334 135.777 1.27334C135.095 1.27334 134.47 1.39238 133.902 1.63047C133.334 1.86314 132.844 2.20133 132.433 2.64504C132.027 3.08874 131.711 3.62985 131.484 4.26835C131.262 4.90685 131.151 5.62652 131.151 6.42736C131.151 7.2336 131.262 7.95598 131.484 8.59448C131.711 9.22757 132.027 9.76597 132.433 10.2097C132.844 10.6534 133.334 10.9916 133.902 11.2242C134.47 11.4569 135.095 11.5733 135.777 11.5733C136.464 11.5733 137.092 11.4569 137.66 11.2242C138.228 10.9916 138.715 10.6534 139.121 10.2097C139.527 9.76597 139.841 9.22757 140.063 8.59448C140.285 7.95598 140.396 7.2336 140.396 6.42736Z" fill="white"/>
<path d="M128.561 10.2421C128.615 10.2421 128.661 10.2611 128.699 10.299L129.024 10.648C128.786 10.9023 128.526 11.1323 128.245 11.3379C127.969 11.5381 127.663 11.7112 127.327 11.8573C126.997 11.998 126.632 12.1062 126.232 12.182C125.837 12.2632 125.401 12.3038 124.925 12.3038C124.129 12.3038 123.399 12.1658 122.733 11.8898C122.073 11.6084 121.505 11.2134 121.029 10.7048C120.553 10.1907 120.182 9.57117 119.917 8.84609C119.657 8.12101 119.527 7.31477 119.527 6.42736C119.527 5.55618 119.663 4.76076 119.933 4.04109C120.204 3.32142 120.582 2.70456 121.069 2.19051C121.556 1.67105 122.141 1.27063 122.823 0.989261C123.504 0.702475 124.257 0.559082 125.079 0.559082C125.864 0.559082 126.559 0.680831 127.165 0.924328C127.771 1.16782 128.323 1.51143 128.821 1.95513L128.569 2.32038C128.526 2.38531 128.458 2.41778 128.366 2.41778C128.301 2.41778 128.196 2.35825 128.05 2.23921C127.904 2.12017 127.701 1.9903 127.441 1.84962C127.181 1.70352 126.857 1.57095 126.467 1.4519C126.083 1.33286 125.62 1.27334 125.079 1.27334C124.386 1.27334 123.751 1.39238 123.172 1.63047C122.598 1.86855 122.103 2.20945 121.686 2.65316C121.275 3.09686 120.953 3.63797 120.72 4.27647C120.488 4.91497 120.371 5.63194 120.371 6.42736C120.371 7.23901 120.488 7.96409 120.72 8.6026C120.959 9.2411 121.283 9.7822 121.694 10.2259C122.106 10.6642 122.59 11.0024 123.147 11.2405C123.71 11.4732 124.316 11.5895 124.965 11.5895C125.377 11.5895 125.742 11.5624 126.061 11.5083C126.386 11.4542 126.683 11.3731 126.954 11.2648C127.225 11.1566 127.476 11.024 127.709 10.8671C127.942 10.7102 128.171 10.5262 128.399 10.3152C128.426 10.2935 128.453 10.2773 128.48 10.2665C128.507 10.2503 128.534 10.2421 128.561 10.2421Z" fill="white"/>
<path d="M113.32 2.75161C113.239 2.88147 113.152 2.97887 113.06 3.0438C112.974 3.10873 112.86 3.1412 112.72 3.1412C112.595 3.1412 112.46 3.10332 112.314 3.02757C112.173 2.9464 112.011 2.85712 111.827 2.75972C111.648 2.66232 111.443 2.57575 111.21 2.49999C110.977 2.41883 110.712 2.37824 110.414 2.37824C109.9 2.37824 109.516 2.48917 109.262 2.71102C109.013 2.92746 108.889 3.22237 108.889 3.59573C108.889 3.83381 108.964 4.03132 109.116 4.18824C109.267 4.34516 109.465 4.48043 109.708 4.59407C109.957 4.7077 110.239 4.81321 110.552 4.91061C110.872 5.0026 111.196 5.10811 111.526 5.22716C111.856 5.34079 112.178 5.47607 112.492 5.63299C112.812 5.78991 113.093 5.99011 113.336 6.23361C113.585 6.47711 113.785 6.77472 113.937 7.12643C114.089 7.47274 114.164 7.8921 114.164 8.3845C114.164 8.93102 114.07 9.44236 113.88 9.91853C113.691 10.3947 113.415 10.8114 113.052 11.1685C112.695 11.5202 112.251 11.7989 111.721 12.0045C111.196 12.2047 110.598 12.3048 109.927 12.3048C109.559 12.3048 109.183 12.2669 108.799 12.1912C108.42 12.1154 108.052 12.0099 107.695 11.8746C107.338 11.7339 107.003 11.5689 106.689 11.3795C106.375 11.1901 106.102 10.9791 105.869 10.7464L106.681 9.464C106.746 9.37202 106.83 9.29626 106.932 9.23674C107.041 9.17181 107.157 9.13934 107.281 9.13934C107.444 9.13934 107.606 9.19075 107.768 9.29356C107.936 9.39637 108.123 9.51 108.328 9.63445C108.539 9.75891 108.78 9.87254 109.051 9.97535C109.321 10.0782 109.641 10.1296 110.009 10.1296C110.506 10.1296 110.893 10.0213 111.169 9.8049C111.445 9.58305 111.583 9.23403 111.583 8.75786C111.583 8.4819 111.507 8.25734 111.356 8.08419C111.204 7.91104 111.004 7.76764 110.755 7.65401C110.512 7.54038 110.233 7.44027 109.919 7.3537C109.605 7.26712 109.284 7.17243 108.953 7.06962C108.623 6.9614 108.301 6.83153 107.988 6.68002C107.674 6.5231 107.392 6.32019 107.143 6.07128C106.9 5.81696 106.702 5.50312 106.551 5.12976C106.399 4.75099 106.324 4.28564 106.324 3.73371C106.324 3.29 106.413 2.85712 106.592 2.43506C106.77 2.013 107.033 1.63693 107.379 1.30686C107.725 0.976784 108.15 0.714348 108.653 0.519551C109.156 0.319342 109.733 0.219238 110.382 0.219238C110.744 0.219238 111.096 0.248999 111.437 0.308521C111.783 0.362631 112.111 0.446502 112.419 0.560133C112.728 0.668355 113.014 0.800925 113.28 0.957845C113.55 1.10935 113.791 1.28251 114.002 1.47731L113.32 2.75161Z" fill="white"/>
<path d="M105.384 9.98299V12.1745H98.2578V0.348633H101.001V9.98299H105.384Z" fill="white"/>
<path d="M96.8568 9.98299V12.1745H89.7305V0.348633H92.4739V9.98299H96.8568Z" fill="white"/>
<path d="M87.4471 12.1745H84.6875V0.348633H87.4471V12.1745Z" fill="white"/>
<path d="M75.97 5.1374H76.4083C76.8141 5.1374 77.1063 5.01024 77.2848 4.75593L79.9471 0.892442C80.104 0.686822 80.2717 0.546135 80.4503 0.470381C80.6343 0.389216 80.8615 0.348633 81.1321 0.348633H83.5184L80.012 5.12929C79.7631 5.45936 79.4953 5.69745 79.2085 5.84355C79.4141 5.9193 79.6008 6.02482 79.7685 6.16009C79.9363 6.29537 80.0932 6.47123 80.2393 6.68767L83.8106 12.1745H81.3594C81.2024 12.1745 81.0672 12.1636 80.9535 12.142C80.8453 12.1204 80.7506 12.0879 80.6695 12.0446C80.5883 12.0013 80.5179 11.9499 80.4584 11.8904C80.3989 11.8255 80.3421 11.7524 80.288 11.6712L77.6095 7.55614C77.5121 7.40463 77.3877 7.29912 77.2361 7.23959C77.09 7.17466 76.8898 7.1422 76.6355 7.1422H75.97V12.1745H73.2266V0.348633H75.97V5.1374Z" fill="white"/>
<path d="M70.7713 2.75161C70.6902 2.88147 70.6036 2.97887 70.5116 3.0438C70.425 3.10873 70.3114 3.1412 70.1707 3.1412C70.0462 3.1412 69.911 3.10332 69.7649 3.02757C69.6242 2.9464 69.4618 2.85712 69.2779 2.75972C69.0993 2.66232 68.8937 2.57575 68.661 2.49999C68.4283 2.41883 68.1632 2.37824 67.8656 2.37824C67.3515 2.37824 66.9674 2.48917 66.713 2.71102C66.4641 2.92746 66.3397 3.22237 66.3397 3.59573C66.3397 3.83381 66.4154 4.03132 66.5669 4.18824C66.7184 4.34516 66.9159 4.48043 67.1594 4.59407C67.4084 4.7077 67.6897 4.81321 68.0036 4.91061C68.3228 5.0026 68.6475 5.10811 68.9776 5.22716C69.3076 5.34079 69.6296 5.47607 69.9434 5.63299C70.2627 5.78991 70.5441 5.99011 70.7875 6.23361C71.0365 6.47711 71.2367 6.77472 71.3882 7.12643C71.5397 7.47274 71.6154 7.8921 71.6154 8.3845C71.6154 8.93102 71.5207 9.44236 71.3314 9.91853C71.142 10.3947 70.866 10.8114 70.5035 11.1685C70.1463 11.5202 69.7026 11.7989 69.1724 12.0045C68.6475 12.2047 68.0496 12.3048 67.3786 12.3048C67.0106 12.3048 66.6346 12.2669 66.2504 12.1912C65.8716 12.1154 65.5037 12.0099 65.1465 11.8746C64.7894 11.7339 64.4539 11.5689 64.1401 11.3795C63.8262 11.1901 63.553 10.9791 63.3203 10.7464L64.132 9.464C64.1969 9.37202 64.2808 9.29626 64.3836 9.23674C64.4918 9.17181 64.6081 9.13934 64.7326 9.13934C64.8949 9.13934 65.0573 9.19075 65.2196 9.29356C65.3873 9.39637 65.574 9.51 65.7796 9.63445C65.9907 9.75891 66.2315 9.87254 66.502 9.97535C66.7726 10.0782 67.0918 10.1296 67.4598 10.1296C67.9576 10.1296 68.3445 10.0213 68.6204 9.8049C68.8964 9.58305 69.0344 9.23403 69.0344 8.75786C69.0344 8.4819 68.9586 8.25734 68.8071 8.08419C68.6556 7.91104 68.4554 7.76764 68.2065 7.65401C67.963 7.54038 67.6843 7.44027 67.3705 7.3537C67.0566 7.26712 66.7347 7.17243 66.4046 7.06962C66.0745 6.9614 65.7526 6.83153 65.4387 6.68002C65.1249 6.5231 64.8435 6.32019 64.5946 6.07128C64.3511 5.81696 64.1536 5.50312 64.0021 5.12976C63.8506 4.75099 63.7748 4.28564 63.7748 3.73371C63.7748 3.29 63.8641 2.85712 64.0427 2.43506C64.2213 2.013 64.4837 1.63693 64.83 1.30686C65.1763 0.976784 65.6011 0.714348 66.1043 0.519551C66.6075 0.319342 67.1838 0.219238 67.8331 0.219238C68.1957 0.219238 68.5474 0.248999 68.8883 0.308521C69.2346 0.362631 69.5619 0.446502 69.8704 0.560133C70.1788 0.668355 70.4656 0.800925 70.7307 0.957845C71.0013 1.10935 71.2421 1.28251 71.4531 1.47731L70.7713 2.75161Z" fill="white"/>
<path d="M125.419 19.7007V23.3354H125.173C125.134 23.3354 125.102 23.3286 125.074 23.3151C125.049 23.3016 125.024 23.2787 124.998 23.2466L122.896 20.5073C122.899 20.5495 122.902 20.591 122.903 20.6316C122.905 20.6721 122.906 20.7102 122.906 20.7457V23.3354H122.475V19.7007H122.728C122.75 19.7007 122.769 19.7024 122.784 19.7058C122.799 19.7074 122.813 19.7117 122.825 19.7184C122.836 19.7235 122.848 19.732 122.86 19.7438C122.872 19.7539 122.885 19.7675 122.898 19.7844L125.001 22.5212C124.998 22.4772 124.994 22.435 124.991 22.3944C124.989 22.3521 124.988 22.3124 124.988 22.2752V19.7007H125.419Z" fill="white"/>
<path d="M121.77 21.5189C121.77 21.7911 121.726 22.0414 121.64 22.2697C121.554 22.4962 121.432 22.6915 121.275 22.8556C121.118 23.0196 120.928 23.1473 120.707 23.2386C120.487 23.3282 120.243 23.373 119.976 23.373C119.709 23.373 119.466 23.3282 119.246 23.2386C119.026 23.1473 118.837 23.0196 118.68 22.8556C118.523 22.6915 118.401 22.4962 118.315 22.2697C118.229 22.0414 118.186 21.7911 118.186 21.5189C118.186 21.2466 118.229 20.9972 118.315 20.7706C118.401 20.5423 118.523 20.3462 118.68 20.1822C118.837 20.0165 119.026 19.8879 119.246 19.7966C119.466 19.7053 119.709 19.6597 119.976 19.6597C120.243 19.6597 120.487 19.7053 120.707 19.7966C120.928 19.8879 121.118 20.0165 121.275 20.1822C121.432 20.3462 121.554 20.5423 121.64 20.7706C121.726 20.9972 121.77 21.2466 121.77 21.5189ZM121.265 21.5189C121.265 21.2957 121.234 21.0953 121.173 20.9177C121.113 20.7402 121.026 20.5905 120.915 20.4688C120.803 20.3453 120.668 20.2507 120.509 20.1847C120.35 20.1188 120.172 20.0858 119.976 20.0858C119.782 20.0858 119.605 20.1188 119.446 20.1847C119.287 20.2507 119.151 20.3453 119.038 20.4688C118.926 20.5905 118.84 20.7402 118.779 20.9177C118.718 21.0953 118.688 21.2957 118.688 21.5189C118.688 21.7421 118.718 21.9425 118.779 22.12C118.84 22.2959 118.926 22.4455 119.038 22.5689C119.151 22.6907 119.287 22.7845 119.446 22.8505C119.605 22.9147 119.782 22.9469 119.976 22.9469C120.172 22.9469 120.35 22.9147 120.509 22.8505C120.668 22.7845 120.803 22.6907 120.915 22.5689C121.026 22.4455 121.113 22.2959 121.173 22.12C121.234 21.9425 121.265 21.7421 121.265 21.5189Z" fill="white"/>
<path d="M117.482 23.3354H116.99V19.7007H117.482V23.3354Z" fill="white"/>
<path d="M116.449 20.1141H115.272V23.3354H114.783V20.1141H113.604V19.7007H116.449V20.1141Z" fill="white"/>
<path d="M111.665 22.9448C111.816 22.9448 111.95 22.9194 112.068 22.8687C112.187 22.818 112.287 22.7469 112.368 22.6556C112.451 22.5643 112.513 22.4552 112.555 22.3284C112.599 22.2016 112.621 22.0621 112.621 21.9099V19.7007H113.111V21.9099C113.111 22.1196 113.077 22.314 113.009 22.4933C112.943 22.6725 112.848 22.8281 112.723 22.96C112.599 23.0902 112.448 23.1925 112.269 23.2669C112.09 23.3413 111.888 23.3785 111.665 23.3785C111.442 23.3785 111.241 23.3413 111.061 23.2669C110.882 23.1925 110.73 23.0902 110.605 22.96C110.48 22.8281 110.383 22.6725 110.316 22.4933C110.25 22.314 110.217 22.1196 110.217 21.9099V19.7007H110.706V21.9074C110.706 22.0596 110.727 22.1991 110.77 22.3259C110.814 22.4527 110.876 22.5618 110.957 22.6531C111.04 22.7444 111.141 22.8163 111.259 22.8687C111.379 22.9194 111.515 22.9448 111.665 22.9448Z" fill="white"/>
<path d="M109.853 22.9219V23.3354H107.791V19.7007H108.281V22.9219H109.853Z" fill="white"/>
<path d="M107.086 21.5189C107.086 21.7911 107.043 22.0414 106.957 22.2697C106.87 22.4962 106.749 22.6915 106.591 22.8556C106.434 23.0196 106.245 23.1473 106.023 23.2386C105.803 23.3282 105.56 23.373 105.293 23.373C105.025 23.373 104.782 23.3282 104.562 23.2386C104.342 23.1473 104.154 23.0196 103.997 22.8556C103.839 22.6915 103.718 22.4962 103.631 22.2697C103.545 22.0414 103.502 21.7911 103.502 21.5189C103.502 21.2466 103.545 20.9972 103.631 20.7706C103.718 20.5423 103.839 20.3462 103.997 20.1822C104.154 20.0165 104.342 19.8879 104.562 19.7966C104.782 19.7053 105.025 19.6597 105.293 19.6597C105.56 19.6597 105.803 19.7053 106.023 19.7966C106.245 19.8879 106.434 20.0165 106.591 20.1822C106.749 20.3462 106.87 20.5423 106.957 20.7706C107.043 20.9972 107.086 21.2466 107.086 21.5189ZM106.581 21.5189C106.581 21.2957 106.551 21.0953 106.49 20.9177C106.429 20.7402 106.343 20.5905 106.231 20.4688C106.12 20.3453 105.984 20.2507 105.825 20.1847C105.666 20.1188 105.489 20.0858 105.293 20.0858C105.098 20.0858 104.922 20.1188 104.763 20.1847C104.604 20.2507 104.467 20.3453 104.354 20.4688C104.243 20.5905 104.156 20.7402 104.095 20.9177C104.035 21.0953 104.004 21.2957 104.004 21.5189C104.004 21.7421 104.035 21.9425 104.095 22.12C104.156 22.2959 104.243 22.4455 104.354 22.5689C104.467 22.6907 104.604 22.7845 104.763 22.8505C104.922 22.9147 105.098 22.9469 105.293 22.9469C105.489 22.9469 105.666 22.9147 105.825 22.8505C105.984 22.7845 106.12 22.6907 106.231 22.5689C106.343 22.4455 106.429 22.2959 106.49 22.12C106.551 21.9425 106.581 21.7421 106.581 21.5189Z" fill="white"/>
<path d="M102.832 20.2684C102.817 20.2938 102.8 20.3132 102.781 20.3267C102.764 20.3386 102.743 20.3445 102.718 20.3445C102.689 20.3445 102.655 20.3301 102.616 20.3014C102.577 20.2726 102.528 20.2414 102.469 20.2075C102.412 20.172 102.341 20.1399 102.259 20.1112C102.177 20.0824 102.078 20.068 101.962 20.068C101.852 20.068 101.755 20.0833 101.67 20.1137C101.587 20.1424 101.517 20.1822 101.46 20.2329C101.404 20.2836 101.361 20.3437 101.333 20.413C101.304 20.4806 101.29 20.5542 101.29 20.6337C101.29 20.7351 101.314 20.8197 101.363 20.8873C101.414 20.9532 101.48 21.0099 101.561 21.0572C101.644 21.1046 101.737 21.146 101.84 21.1815C101.945 21.2153 102.051 21.2509 102.16 21.2881C102.269 21.3253 102.376 21.3675 102.479 21.4149C102.584 21.4605 102.677 21.5189 102.758 21.5899C102.841 21.6609 102.907 21.748 102.956 21.8511C103.007 21.9543 103.032 22.0811 103.032 22.2316C103.032 22.3906 103.005 22.5402 102.951 22.6806C102.897 22.8192 102.817 22.9401 102.713 23.0433C102.609 23.1464 102.482 23.2276 102.33 23.2868C102.179 23.3459 102.007 23.3755 101.815 23.3755C101.578 23.3755 101.363 23.3333 101.17 23.2487C100.978 23.1625 100.813 23.0466 100.676 22.9012L100.818 22.6679C100.831 22.6493 100.847 22.6341 100.866 22.6222C100.886 22.6087 100.908 22.6019 100.932 22.6019C100.954 22.6019 100.978 22.6112 101.006 22.6298C101.034 22.6467 101.066 22.6687 101.102 22.6958C101.137 22.7228 101.178 22.7524 101.224 22.7845C101.269 22.8167 101.321 22.8463 101.378 22.8733C101.438 22.9004 101.504 22.9232 101.579 22.9418C101.653 22.9587 101.737 22.9672 101.83 22.9672C101.947 22.9672 102.051 22.9511 102.142 22.919C102.233 22.8868 102.31 22.842 102.373 22.7845C102.437 22.7254 102.486 22.6552 102.52 22.574C102.554 22.4929 102.57 22.4024 102.57 22.3026C102.57 22.1927 102.545 22.1031 102.494 22.0338C102.445 21.9627 102.38 21.9036 102.299 21.8562C102.218 21.8089 102.125 21.7691 102.02 21.737C101.915 21.7032 101.809 21.6694 101.7 21.6355C101.592 21.6 101.486 21.5595 101.381 21.5138C101.276 21.4681 101.183 21.409 101.102 21.3362C101.021 21.2635 100.955 21.1731 100.904 21.0648C100.855 20.9549 100.831 20.8197 100.831 20.659C100.831 20.5305 100.855 20.4062 100.904 20.2862C100.955 20.1661 101.027 20.0596 101.122 19.9666C101.219 19.8736 101.336 19.7992 101.475 19.7434C101.615 19.6876 101.776 19.6597 101.957 19.6597C102.16 19.6597 102.344 19.6918 102.51 19.7561C102.677 19.8203 102.824 19.9133 102.951 20.0351L102.832 20.2684Z" fill="white"/>
<path d="M98.9223 21.5874V22.9824C98.7397 23.1143 98.5444 23.2132 98.3364 23.2791C98.1301 23.3434 97.9035 23.3755 97.6566 23.3755C97.3641 23.3755 97.1003 23.3307 96.8652 23.2411C96.6302 23.1498 96.429 23.023 96.2616 22.8606C96.0959 22.6966 95.9682 22.5005 95.8786 22.2722C95.789 22.0439 95.7441 21.7928 95.7441 21.5189C95.7441 21.2416 95.7873 20.9888 95.8735 20.7605C95.9614 20.5322 96.0857 20.3369 96.2464 20.1746C96.407 20.0105 96.6023 19.8837 96.8323 19.7941C97.0622 19.7045 97.3193 19.6597 97.6033 19.6597C97.7471 19.6597 97.8807 19.6707 98.0041 19.6926C98.1275 19.7129 98.2417 19.7434 98.3465 19.784C98.4514 19.8228 98.5486 19.871 98.6382 19.9285C98.7278 19.9843 98.8115 20.0477 98.8893 20.1188L98.7498 20.342C98.7278 20.3758 98.6991 20.3978 98.6636 20.4079C98.6297 20.4164 98.5917 20.4079 98.5494 20.3825C98.5088 20.3589 98.4623 20.3301 98.4099 20.2963C98.3575 20.2625 98.2932 20.2304 98.2172 20.1999C98.1428 20.1678 98.054 20.1407 97.9508 20.1188C97.8494 20.0968 97.7285 20.0858 97.5881 20.0858C97.3835 20.0858 97.1984 20.1196 97.0326 20.1872C96.8669 20.2532 96.7257 20.3487 96.6091 20.4739C96.4924 20.5973 96.4028 20.7478 96.3402 20.9253C96.2776 21.1012 96.2464 21.299 96.2464 21.5189C96.2464 21.7471 96.2785 21.9518 96.3427 22.1327C96.4087 22.3119 96.5017 22.465 96.6217 22.5918C96.7435 22.7169 96.8906 22.8124 97.0631 22.8784C97.2356 22.9443 97.4292 22.9773 97.6439 22.9773C97.813 22.9773 97.9627 22.9587 98.0929 22.9215C98.2248 22.8826 98.3533 22.8294 98.4784 22.7617V21.9627H97.9128C97.8807 21.9627 97.8544 21.9534 97.8342 21.9348C97.8156 21.9162 97.8063 21.8934 97.8063 21.8664V21.5874H98.9223Z" fill="white"/>
<path d="M95.0424 19.7007V23.3354H94.7964C94.7575 23.3354 94.7245 23.3286 94.6975 23.3151C94.6721 23.3016 94.6468 23.2787 94.6214 23.2466L92.5187 20.5073C92.5221 20.5495 92.5246 20.591 92.5263 20.6316C92.528 20.6721 92.5288 20.7102 92.5288 20.7457V23.3354H92.0977V19.7007H92.3513C92.3733 19.7007 92.3919 19.7024 92.4071 19.7058C92.4223 19.7074 92.4358 19.7117 92.4477 19.7184C92.4595 19.7235 92.4714 19.732 92.4832 19.7438C92.495 19.7539 92.5077 19.7675 92.5212 19.7844L94.6239 22.5212C94.6206 22.4772 94.6172 22.435 94.6138 22.3944C94.6121 22.3521 94.6113 22.3124 94.6113 22.2752V19.7007H95.0424Z" fill="white"/>
<path d="M91.1678 23.3354H90.6758V19.7007H91.1678V23.3354Z" fill="white"/>
<path d="M89.7456 19.7007V23.3354H89.4995C89.4606 23.3354 89.4277 23.3286 89.4006 23.3151C89.3753 23.3016 89.3499 23.2787 89.3245 23.2466L87.2218 20.5073C87.2252 20.5495 87.2277 20.591 87.2294 20.6316C87.2311 20.6721 87.232 20.7102 87.232 20.7457V23.3354H86.8008V19.7007H87.0544C87.0764 19.7007 87.095 19.7024 87.1102 19.7058C87.1254 19.7074 87.139 19.7117 87.1508 19.7184C87.1626 19.7235 87.1745 19.732 87.1863 19.7438C87.1982 19.7539 87.2108 19.7675 87.2244 19.7844L89.3271 22.5212C89.3237 22.4772 89.3203 22.435 89.3169 22.3944C89.3152 22.3521 89.3144 22.3124 89.3144 22.2752V19.7007H89.7456Z" fill="white"/>
<path d="M84.6261 21.461C84.7681 21.461 84.8933 21.4441 85.0015 21.4102C85.1114 21.3747 85.2027 21.3257 85.2754 21.2631C85.3498 21.1989 85.4056 21.1228 85.4428 21.0348C85.48 20.9469 85.4986 20.8497 85.4986 20.7432C85.4986 20.5267 85.4276 20.3635 85.2856 20.2536C85.1435 20.1437 84.9305 20.0888 84.6464 20.0888H84.1087V21.461H84.6261ZM86.3052 23.3354H85.8689C85.7793 23.3354 85.7134 23.3007 85.6711 23.2314L84.7276 21.9327C84.6988 21.8922 84.6675 21.8634 84.6337 21.8465C84.6016 21.8279 84.5509 21.8186 84.4815 21.8186H84.1087V23.3354H83.6191V19.7007H84.6464C84.8764 19.7007 85.075 19.7244 85.2425 19.7717C85.4099 19.8174 85.5477 19.8842 85.6559 19.9721C85.7658 20.06 85.847 20.1665 85.8994 20.2917C85.9518 20.4151 85.978 20.5538 85.978 20.7076C85.978 20.8362 85.9577 20.9562 85.9171 21.0678C85.8766 21.1794 85.8174 21.28 85.7396 21.3697C85.6635 21.4576 85.5697 21.5328 85.458 21.5954C85.3481 21.658 85.223 21.7053 85.0827 21.7374C85.1452 21.7729 85.1993 21.8245 85.245 21.8922L86.3052 23.3354Z" fill="white"/>
<path d="M82.1155 21.986L81.5448 20.5073C81.5279 20.4633 81.5101 20.4126 81.4915 20.3551C81.4729 20.2959 81.4552 20.2333 81.4383 20.1674C81.4028 20.3044 81.3664 20.4185 81.3292 20.5098L80.7585 21.986H82.1155ZM83.1402 23.3354H82.7597C82.7158 23.3354 82.6803 23.3244 82.6532 23.3024C82.6262 23.2804 82.6059 23.2525 82.5923 23.2187L82.2525 22.3411H80.6215L80.2817 23.2187C80.2715 23.2491 80.2521 23.2762 80.2233 23.2999C80.1946 23.3235 80.1591 23.3354 80.1168 23.3354H79.7363L81.1897 19.7007H81.6868L83.1402 23.3354Z" fill="white"/>
<path d="M79.502 22.9346L79.4994 23.3354H77.2598V19.7007H79.4994V20.1014H77.7518V21.3088H79.1672V21.6943H77.7518V22.9346H79.502Z" fill="white"/>
<path d="M76.7145 22.9219V23.3354H74.6523V19.7007H75.1419V22.9219H76.7145Z" fill="white"/>
<path d="M72.6699 22.9346L72.6674 23.3354H70.4277V19.7007H72.6674V20.1014H70.9198V21.3088H72.3351V21.6943H70.9198V22.9346H72.6699Z" fill="white"/>
<path d="M69.4995 19.7007V23.3354H69.0074V21.6816H67.0468V23.3354H66.5547V19.7007H67.0468V21.3215H69.0074V19.7007H69.4995Z" fill="white"/>
<path d="M66.0138 20.1141H64.8369V23.3354H64.3474V20.1141H63.168V19.7007H66.0138V20.1141Z" fill="white"/>
<path d="M28.7069 0.00195312C28.7069 0.00195312 24.8992 1.70746 22.7212 5.96612H9.67176C9.67176 5.96612 7.69691 5.96612 7.69691 7.42604C7.69691 7.42604 7.69691 8.7413 9.62779 8.7413H23.2622C23.2622 8.7413 29.3575 8.7413 31.8299 13.4047C31.8299 13.4047 33.0857 17.7393 38.8566 17.4386H51.0883L55.2523 23.4243C55.2523 23.4243 39.1459 23.4243 37.1789 23.4243C35.2119 23.4243 29.1062 22.7421 25.9073 16.3835C25.9073 16.3835 24.6935 14.7433 23.2417 14.706C21.7899 14.6687 6.97618 14.706 6.97618 14.706C6.97618 14.706 0.339844 14.3529 0.339844 6.77728C0.339844 6.77728 0.359603 0.00195312 9.18829 0.00195312H28.1864H28.7069Z" fill="white"/>
<path fill-rule="evenodd" clip-rule="evenodd" d="M7.69691 7.42604C7.69691 5.96612 9.67176 5.96612 9.67176 5.96612H22.7212C24.6841 2.12808 27.9707 0.363757 28.6007 0.0526816C28.6698 0.0185904 28.7069 0.00195312 28.7069 0.00195312H9.18829C0.359603 0.00195312 0.339844 6.77728 0.339844 6.77728C0.339844 14.3529 6.97618 14.706 6.97618 14.706C6.97618 14.706 21.7899 14.6687 23.2417 14.706C24.6935 14.7433 25.9073 16.3835 25.9073 16.3835C29.1062 22.7421 35.2119 23.4243 37.1789 23.4243L55.2523 23.4243L51.0883 17.4386H38.8566C33.0857 17.7393 31.8299 13.4047 31.8299 13.4047C29.3575 8.7413 23.2622 8.7413 23.2622 8.7413H9.62779C7.69691 8.7413 7.69691 7.42604 7.69691 7.42604ZM31.7827 13.4241C30.5548 11.1115 28.4284 9.95294 26.6035 9.37257C25.6908 9.0823 24.8549 8.93712 24.2472 8.86454C23.9434 8.82825 23.6967 8.81012 23.5262 8.80107C23.441 8.79654 23.3747 8.79428 23.3299 8.79315C23.3075 8.79259 23.2905 8.79231 23.2791 8.79217L23.2663 8.79205L23.2631 8.79203L23.2624 8.79203H9.62779C8.64956 8.79203 8.15012 8.45801 7.89738 8.11369C7.77191 7.94276 7.70919 7.77186 7.67781 7.64361C7.66211 7.57944 7.65421 7.52578 7.65023 7.48784C7.64824 7.46887 7.64723 7.4538 7.64672 7.44329C7.64646 7.43803 7.64633 7.43391 7.64626 7.43101L7.6462 7.42758L7.64619 7.42657C7.64619 7.42653 7.64618 7.42604 7.69691 7.42604H7.64618C7.64618 7.04837 7.77436 6.76257 7.96781 6.54805C8.16029 6.33461 8.41528 6.19398 8.66675 6.10103C8.91845 6.00799 9.16943 5.96169 9.35699 5.93858C9.4509 5.92701 9.52923 5.92121 9.58423 5.91831C9.61174 5.91686 9.63343 5.91613 9.64833 5.91576L9.66549 5.91544L9.67003 5.91539L9.67125 5.91539C9.67129 5.91539 9.67176 5.91539 9.67176 5.96612V5.91539H22.6902C23.7822 3.79258 25.2765 2.30489 26.4995 1.3471C27.1138 0.866081 27.6598 0.518512 28.0525 0.291082C28.2326 0.186801 28.3804 0.107761 28.4879 0.0526816H9.18829C4.78923 0.0526816 2.59395 1.73935 1.49576 3.4174C0.94567 4.25793 0.66926 5.09873 0.530422 5.72954C0.461019 6.04488 0.426048 6.30749 0.408433 6.491C0.399626 6.58275 0.395159 6.6547 0.392895 6.70354C0.391763 6.72796 0.391182 6.74661 0.390884 6.75906L0.390616 6.77304L0.390578 6.77646L0.390573 6.77725C0.390573 10.5469 2.04004 12.5131 3.68486 13.5395C4.50865 14.0535 5.33281 14.3326 5.95125 14.4831C6.26038 14.5584 6.51785 14.6015 6.6978 14.6257C6.78776 14.6379 6.85833 14.6453 6.90626 14.6496C6.93022 14.6518 6.94852 14.6533 6.96076 14.6541L6.97452 14.6551L6.97755 14.6552L7.61542 14.6537C8.02332 14.6528 8.60766 14.6515 9.3134 14.65C10.7249 14.6471 12.622 14.6436 14.5644 14.6412C18.4487 14.6366 22.5162 14.6366 23.243 14.6553C23.9866 14.6744 24.6642 15.103 25.1519 15.5202C25.3966 15.7294 25.5954 15.9374 25.733 16.093C25.8018 16.1709 25.8554 16.2357 25.8919 16.2812C25.9102 16.304 25.9241 16.3219 25.9336 16.3341L25.9443 16.3483L25.9471 16.352L25.9478 16.3529C25.9478 16.353 25.9481 16.3533 25.9403 16.3591L25.9478 16.3529L25.9507 16.3568L25.9527 16.3607C29.1386 22.6937 35.2193 23.3736 37.1789 23.3736L55.1552 23.3736L51.0618 17.4893H38.8579C35.9585 17.64 34.1882 16.626 33.1431 15.5701C32.6211 15.0427 32.281 14.5058 32.0712 14.1006C31.9663 13.898 31.894 13.7281 31.8478 13.6087C31.8247 13.549 31.8081 13.5018 31.7973 13.4694C31.7919 13.4533 31.7879 13.4408 31.7852 13.4322L31.7827 13.4241Z" fill="white"/>
<path d="M51.3167 5.98657L55.4807 0.000861481H36.9524C36.9524 0.000861481 29.7892 -0.226569 26.0371 6.70918C26.0371 6.70918 30.3577 7.39139 31.9496 9.7791C31.9496 9.7791 33.0866 5.68587 39.2152 5.98657H51.3167Z" fill="white"/>
<path fill-rule="evenodd" clip-rule="evenodd" d="M31.9691 9.71735C31.9556 9.75743 31.9496 9.7791 31.9496 9.7791C31.9375 9.76108 31.9254 9.74315 31.913 9.72532C30.3989 7.5347 26.5834 6.8044 26.09 6.71811C26.0554 6.71207 26.0371 6.70918 26.0371 6.70918C26.0456 6.69341 26.0542 6.67768 26.0628 6.66198C29.8218 -0.225536 36.9524 0.000861477 36.9524 0.000861477L36.9507 0.0515634L36.9497 0.0515322L36.946 0.051437L36.9309 0.0511427C36.9175 0.0509284 36.8975 0.0507155 36.8711 0.0507291C36.8182 0.0507564 36.7401 0.0516899 36.6391 0.055331C36.4372 0.0626135 36.1441 0.0807253 35.7805 0.124068C35.0533 0.210763 34.0445 0.398351 32.9189 0.801868C30.6817 1.60387 27.9833 3.25863 26.1156 6.67112C26.1463 6.67657 26.1865 6.68393 26.2355 6.69334C26.3573 6.71678 26.533 6.7529 26.7487 6.80371C27.1801 6.90531 27.7719 7.06574 28.4139 7.30112C29.6649 7.75984 31.1159 8.50664 31.9333 9.66572C31.9415 9.6426 31.9514 9.61576 31.9631 9.58551C32.0068 9.47247 32.076 9.31186 32.1782 9.12035C32.3827 8.73733 32.7195 8.23039 33.2494 7.73309C34.3103 6.73742 36.1401 5.78519 39.2164 5.93584H51.2902L55.3836 0.05159L36.9507 0.0515634L36.9524 0.000861477H55.4807L51.3167 5.98657H39.2152C33.5325 5.70775 32.1415 9.20667 31.9691 9.71735Z" fill="white"/>
<path d="M0 23.4222L4.26425 17.4365H22.7402C22.7402 17.4365 24.1046 20.9208 28.6526 23.4222C28.6526 23.4222 26.234 23.4222 24.7868 23.4222L0 23.4222Z" fill="white"/>
<path fill-rule="evenodd" clip-rule="evenodd" d="M22.7402 17.4365H4.26425L0 23.4222L28.6526 23.4222C28.6219 23.4054 28.5914 23.3884 28.5611 23.3715C24.0862 20.874 22.7402 17.4365 22.7402 17.4365ZM28.4575 23.3715C26.2729 22.1367 24.8409 20.6808 23.9507 19.5223C23.4941 18.928 23.18 18.4121 22.9799 18.0443C22.8798 17.8604 22.8082 17.7135 22.7616 17.6124C22.7383 17.5618 22.7212 17.5227 22.7099 17.4961C22.7086 17.493 22.7073 17.49 22.7062 17.4873H4.2904L0.0984245 23.3715L28.4575 23.3715Z" fill="white"/>
</svg>
