<svg width="196" height="23" viewBox="0 0 196 23" fill="none" xmlns="http://www.w3.org/2000/svg">
<path d="M196 1.37321H192.034V11.9701H191.212V1.37321H187.222V0.678986H196V1.37321Z" fill="#2747C2"/>
<path d="M186.021 10.0699C186.074 10.0699 186.119 10.0886 186.157 10.1258L186.476 10.4689C186.242 10.7189 185.987 10.945 185.71 11.1472C185.439 11.344 185.138 11.5142 184.808 11.6579C184.484 11.7962 184.125 11.9026 183.731 11.9771C183.343 12.0569 182.914 12.0968 182.446 12.0968C181.664 12.0968 180.946 11.9611 180.292 11.6898C179.643 11.4132 179.084 11.0248 178.616 10.5248C178.148 10.0194 177.783 9.41029 177.523 8.69744C177.267 7.9846 177.14 7.19196 177.14 6.31952C177.14 5.46304 177.273 4.68104 177.539 3.97352C177.805 3.26599 178.177 2.65954 178.656 2.15416C179.135 1.64347 179.709 1.24981 180.379 0.973182C181.05 0.691236 181.789 0.550262 182.598 0.550262C183.369 0.550262 184.053 0.669957 184.649 0.909345C185.244 1.14873 185.787 1.48654 186.276 1.92276L186.029 2.28184C185.987 2.34568 185.92 2.37759 185.83 2.37759C185.766 2.37759 185.662 2.31908 185.518 2.20204C185.375 2.08501 185.175 1.95733 184.92 1.81902C184.665 1.67539 184.345 1.54505 183.962 1.42802C183.585 1.31099 183.13 1.25247 182.598 1.25247C181.917 1.25247 181.292 1.3695 180.723 1.60357C180.159 1.83764 179.672 2.17278 179.262 2.609C178.858 3.04522 178.542 3.57719 178.313 4.20492C178.084 4.83265 177.97 5.53752 177.97 6.31952C177.97 7.11748 178.084 7.83033 178.313 8.45806C178.547 9.08578 178.866 9.61776 179.27 10.054C179.675 10.4849 180.151 10.8174 180.699 11.0514C181.252 11.2802 181.848 11.3946 182.486 11.3946C182.89 11.3946 183.249 11.368 183.563 11.3148C183.883 11.2616 184.175 11.1818 184.441 11.0754C184.707 10.969 184.954 10.8386 185.183 10.6844C185.412 10.5301 185.638 10.3492 185.861 10.1418C185.888 10.1205 185.915 10.1045 185.941 10.0939C185.968 10.0779 185.994 10.0699 186.021 10.0699Z" fill="#2747C2"/>
<path d="M175.648 11.2919L175.632 11.9701H168.865V0.678986H175.632V1.35725H169.687V5.92159H174.634V6.5839H169.687V11.2919H175.648Z" fill="#2747C2"/>
<path d="M165.532 0.678986V11.9701H165.149C165.08 11.9701 165.022 11.9595 164.974 11.9382C164.931 11.9116 164.889 11.8691 164.846 11.8105L157.513 2.01158C157.529 2.17117 157.537 2.32279 157.537 2.46642V11.9701H156.819V0.678986H157.225C157.3 0.678986 157.356 0.689625 157.393 0.710905C157.436 0.726863 157.481 0.766761 157.529 0.830599L164.846 10.6056C164.83 10.446 164.822 10.2944 164.822 10.1508V0.678986H165.532Z" fill="#2747C2"/>
<path d="M153.485 0.678986V11.9701H153.102C153.032 11.9701 152.974 11.9595 152.926 11.9382C152.884 11.9116 152.841 11.8691 152.798 11.8105L145.465 2.01158C145.481 2.17117 145.489 2.32279 145.489 2.46642V11.9701H144.771V0.678986H145.178C145.252 0.678986 145.308 0.689625 145.345 0.710905C145.388 0.726863 145.433 0.766761 145.481 0.830599L152.798 10.6056C152.782 10.446 152.774 10.2944 152.774 10.1508V0.678986H153.485Z" fill="#2747C2"/>
<path d="M142.178 6.31952C142.178 7.19196 142.047 7.9846 141.787 8.69744C141.526 9.40497 141.159 10.0114 140.685 10.5168C140.212 11.0169 139.643 11.4052 138.978 11.6818C138.318 11.9531 137.589 12.0888 136.791 12.0888C135.993 12.0888 135.265 11.9531 134.605 11.6818C133.945 11.4052 133.379 11.0169 132.905 10.5168C132.432 10.0114 132.065 9.40497 131.804 8.69744C131.543 7.9846 131.413 7.19196 131.413 6.31952C131.413 5.4524 131.543 4.66508 131.804 3.95756C132.065 3.24471 132.432 2.63826 132.905 2.1382C133.379 1.63283 133.945 1.24183 134.605 0.965203C135.265 0.688576 135.993 0.550262 136.791 0.550262C137.589 0.550262 138.318 0.688576 138.978 0.965203C139.643 1.23651 140.212 1.62485 140.685 2.13023C141.159 2.6356 141.526 3.24471 141.787 3.95756C142.047 4.66508 142.178 5.4524 142.178 6.31952ZM141.332 6.31952C141.332 5.5322 141.223 4.82467 141.005 4.19694C140.787 3.56922 140.478 3.03724 140.079 2.60102C139.68 2.1648 139.201 1.83232 138.643 1.60357C138.084 1.3695 137.467 1.25247 136.791 1.25247C136.121 1.25247 135.507 1.3695 134.948 1.60357C134.39 1.83232 133.908 2.1648 133.504 2.60102C133.105 3.03724 132.794 3.56922 132.57 4.19694C132.352 4.82467 132.243 5.5322 132.243 6.31952C132.243 7.11216 132.352 7.82235 132.57 8.45008C132.794 9.07249 133.105 9.6018 133.504 10.038C133.908 10.4742 134.39 10.8067 134.948 11.0355C135.507 11.2642 136.121 11.3786 136.791 11.3786C137.467 11.3786 138.084 11.2642 138.643 11.0355C139.201 10.8067 139.68 10.4742 140.079 10.038C140.478 9.6018 140.787 9.07249 141.005 8.45008C141.223 7.82235 141.332 7.11216 141.332 6.31952Z" fill="#2747C2"/>
<path d="M129.696 10.0699C129.749 10.0699 129.794 10.0886 129.832 10.1258L130.151 10.4689C129.917 10.7189 129.661 10.945 129.385 11.1472C129.113 11.344 128.813 11.5142 128.483 11.6579C128.159 11.7962 127.799 11.9026 127.406 11.9771C127.017 12.0569 126.589 12.0968 126.121 12.0968C125.339 12.0968 124.621 11.9611 123.967 11.6898C123.318 11.4132 122.759 11.0248 122.291 10.5248C121.823 10.0194 121.458 9.41029 121.198 8.69744C120.942 7.9846 120.815 7.19196 120.815 6.31952C120.815 5.46304 120.948 4.68104 121.214 3.97352C121.48 3.26599 121.852 2.65954 122.331 2.15416C122.81 1.64347 123.384 1.24981 124.054 0.973182C124.725 0.691236 125.464 0.550262 126.273 0.550262C127.044 0.550262 127.728 0.669957 128.323 0.909345C128.919 1.14873 129.462 1.48654 129.951 1.92276L129.704 2.28184C129.661 2.34568 129.595 2.37759 129.504 2.37759C129.441 2.37759 129.337 2.31908 129.193 2.20204C129.05 2.08501 128.85 1.95733 128.595 1.81902C128.339 1.67539 128.02 1.54505 127.637 1.42802C127.26 1.31099 126.805 1.25247 126.273 1.25247C125.592 1.25247 124.967 1.3695 124.397 1.60357C123.834 1.83764 123.347 2.17278 122.937 2.609C122.533 3.04522 122.216 3.57719 121.988 4.20492C121.759 4.83265 121.645 5.53752 121.645 6.31952C121.645 7.11748 121.759 7.83033 121.988 8.45806C122.222 9.08578 122.541 9.61776 122.945 10.054C123.349 10.4849 123.826 10.8174 124.374 11.0514C124.927 11.2802 125.523 11.3946 126.161 11.3946C126.565 11.3946 126.924 11.368 127.238 11.3148C127.557 11.2616 127.85 11.1818 128.116 11.0754C128.382 10.969 128.629 10.8386 128.858 10.6844C129.087 10.5301 129.313 10.3492 129.536 10.1418C129.563 10.1205 129.59 10.1045 129.616 10.0939C129.643 10.0779 129.669 10.0699 129.696 10.0699Z" fill="#2747C2"/>
<path d="M114.713 2.70451C114.633 2.83219 114.548 2.92794 114.457 2.99178C114.372 3.05562 114.261 3.08753 114.122 3.08753C114 3.08753 113.867 3.0503 113.723 2.97582C113.585 2.89602 113.425 2.80825 113.244 2.71249C113.069 2.61674 112.867 2.53162 112.638 2.45714C112.409 2.37735 112.149 2.33745 111.856 2.33745C111.351 2.33745 110.973 2.44651 110.723 2.66461C110.478 2.8774 110.356 3.16733 110.356 3.53439C110.356 3.76846 110.43 3.96263 110.579 4.1169C110.728 4.27118 110.922 4.40417 111.162 4.51588C111.406 4.6276 111.683 4.73133 111.992 4.82709C112.306 4.91752 112.625 5.02126 112.949 5.13829C113.274 5.25001 113.59 5.383 113.899 5.53727C114.213 5.69155 114.489 5.88838 114.729 6.12776C114.973 6.36715 115.17 6.65974 115.319 7.00552C115.468 7.34599 115.543 7.75827 115.543 8.24236C115.543 8.77966 115.449 9.28237 115.263 9.75051C115.077 10.2186 114.806 10.6283 114.449 10.9794C114.098 11.3252 113.662 11.5991 113.141 11.8013C112.625 11.9981 112.037 12.0965 111.377 12.0965C111.015 12.0965 110.646 12.0593 110.268 11.9848C109.896 11.9103 109.534 11.8066 109.183 11.6736C108.832 11.5353 108.502 11.373 108.193 11.1868C107.885 11.0006 107.616 10.7932 107.387 10.5644L108.185 9.30365C108.249 9.21321 108.332 9.13874 108.433 9.08022C108.539 9.01638 108.654 8.98446 108.776 8.98446C108.935 8.98446 109.095 9.035 109.255 9.13608C109.42 9.23715 109.603 9.34887 109.805 9.47122C110.013 9.59358 110.249 9.70529 110.515 9.80637C110.781 9.90744 111.095 9.95798 111.457 9.95798C111.946 9.95798 112.327 9.85158 112.598 9.63879C112.869 9.42068 113.005 9.07756 113.005 8.60942C113.005 8.33812 112.931 8.11735 112.782 7.94712C112.633 7.77689 112.436 7.63591 112.191 7.5242C111.952 7.41248 111.678 7.31407 111.369 7.22895C111.061 7.14384 110.744 7.05074 110.42 6.94967C110.095 6.84327 109.779 6.7156 109.47 6.56664C109.162 6.41237 108.885 6.21288 108.64 5.96817C108.401 5.71814 108.207 5.4096 108.058 5.04254C107.909 4.67016 107.834 4.21266 107.834 3.67004C107.834 3.23383 107.922 2.80825 108.098 2.39331C108.273 1.97837 108.531 1.60865 108.872 1.28414C109.212 0.959637 109.63 0.70163 110.124 0.510119C110.619 0.313289 111.186 0.214874 111.824 0.214874C112.181 0.214874 112.526 0.244133 112.861 0.30265C113.202 0.355848 113.524 0.438303 113.827 0.550017C114.13 0.656413 114.412 0.786746 114.673 0.941018C114.939 1.08997 115.176 1.2602 115.383 1.45171L114.713 2.70451Z" fill="#2747C2"/>
<path d="M106.91 9.8154V11.9699H99.9039V0.343597H102.601V9.8154H106.91Z" fill="#2747C2"/>
<path d="M98.5254 9.8154V11.9699H91.5193V0.343597H94.2164V9.8154H98.5254Z" fill="#2747C2"/>
<path d="M89.2761 11.9699H86.5631V0.343597H89.2761V11.9699Z" fill="#2747C2"/>
<path d="M77.9918 5.05157H78.4227C78.8217 5.05157 79.1089 4.92655 79.2845 4.67653L81.9018 0.878231C82.0561 0.676081 82.221 0.537767 82.3965 0.463291C82.5774 0.383495 82.8008 0.343597 83.0668 0.343597H85.4128L81.9656 5.04359C81.7209 5.36809 81.4576 5.60216 81.1757 5.74579C81.3778 5.82027 81.5613 5.92401 81.7262 6.057C81.8912 6.18999 82.0454 6.36288 82.1891 6.57567L85.7001 11.9699H83.2902C83.136 11.9699 83.003 11.9593 82.8913 11.938C82.7849 11.9167 82.6918 11.8848 82.612 11.8422C82.5322 11.7997 82.463 11.7491 82.4045 11.6906C82.346 11.6268 82.2901 11.5549 82.2369 11.4752L79.6037 7.42949C79.5079 7.28054 79.3856 7.1768 79.2366 7.11829C79.093 7.05445 78.8961 7.02253 78.6461 7.02253H77.9918V11.9699H75.2947V0.343597H77.9918V5.05157Z" fill="#2747C2"/>
<path d="M72.882 2.70451C72.8022 2.83219 72.717 2.92794 72.6266 2.99178C72.5415 3.05562 72.4298 3.08753 72.2915 3.08753C72.1691 3.08753 72.0361 3.0503 71.8925 2.97582C71.7542 2.89602 71.5946 2.80825 71.4137 2.71249C71.2382 2.61674 71.036 2.53162 70.8073 2.45714C70.5785 2.37735 70.3178 2.33745 70.0253 2.33745C69.5199 2.33745 69.1422 2.44651 68.8921 2.66461C68.6474 2.8774 68.5251 3.16733 68.5251 3.53439C68.5251 3.76846 68.5996 3.96263 68.7485 4.1169C68.8975 4.27118 69.0916 4.40417 69.331 4.51588C69.5757 4.6276 69.8524 4.73133 70.1609 4.82709C70.4748 4.91752 70.794 5.02126 71.1185 5.13829C71.443 5.25001 71.7595 5.383 72.068 5.53727C72.3819 5.69155 72.6585 5.88838 72.8979 6.12776C73.1426 6.36715 73.3395 6.65974 73.4884 7.00552C73.6374 7.34599 73.7118 7.75827 73.7118 8.24236C73.7118 8.77966 73.6187 9.28237 73.4325 9.75051C73.2464 10.2186 72.975 10.6283 72.6186 10.9794C72.2675 11.3252 71.8313 11.5991 71.31 11.8013C70.794 11.9981 70.2061 12.0965 69.5465 12.0965C69.1847 12.0965 68.815 12.0593 68.4373 11.9848C68.0649 11.9103 67.7032 11.8066 67.3521 11.6736C67.001 11.5353 66.6712 11.373 66.3626 11.1868C66.0541 11.0006 65.7854 10.7932 65.5567 10.5644L66.3546 9.30365C66.4185 9.21321 66.5009 9.13874 66.602 9.08022C66.7084 9.01638 66.8228 8.98446 66.9451 8.98446C67.1047 8.98446 67.2643 9.035 67.4239 9.13608C67.5888 9.23715 67.7723 9.34887 67.9745 9.47122C68.182 9.59358 68.4187 9.70529 68.6847 9.80637C68.9507 9.90744 69.2645 9.95798 69.6263 9.95798C70.1157 9.95798 70.4961 9.85158 70.7674 9.63879C71.0387 9.42068 71.1743 9.07756 71.1743 8.60942C71.1743 8.33812 71.0998 8.11735 70.9509 7.94712C70.8019 7.77689 70.6051 7.63591 70.3604 7.5242C70.121 7.41248 69.847 7.31407 69.5385 7.22895C69.23 7.14384 68.9134 7.05074 68.5889 6.94967C68.2644 6.84327 67.9479 6.7156 67.6393 6.56664C67.3308 6.41237 67.0542 6.21288 66.8095 5.96817C66.5701 5.71814 66.3759 5.4096 66.227 5.04254C66.078 4.67016 66.0035 4.21266 66.0035 3.67004C66.0035 3.23383 66.0913 2.80825 66.2669 2.39331C66.4424 1.97837 66.7004 1.60865 67.0409 1.28414C67.3813 0.959637 67.7989 0.70163 68.2937 0.510119C68.7884 0.313289 69.355 0.214874 69.9933 0.214874C70.3498 0.214874 70.6955 0.244133 71.0307 0.30265C71.3711 0.355848 71.693 0.438303 71.9962 0.550017C72.2994 0.656413 72.5814 0.786746 72.8421 0.941018C73.108 1.08997 73.3448 1.2602 73.5522 1.45171L72.882 2.70451Z" fill="#2747C2"/>
<path d="M126.607 19.3693V22.9427H126.366C126.327 22.9427 126.295 22.936 126.268 22.9227C126.243 22.9094 126.218 22.887 126.194 22.8554L124.126 20.1623C124.13 20.2038 124.132 20.2446 124.134 20.2845C124.135 20.3244 124.136 20.3618 124.136 20.3967V22.9427H123.712V19.3693H123.962C123.983 19.3693 124.002 19.371 124.017 19.3743C124.032 19.3759 124.045 19.3801 124.056 19.3867C124.068 19.3917 124.08 19.4 124.091 19.4117C124.103 19.4217 124.115 19.435 124.129 19.4516L126.196 22.1422C126.193 22.099 126.189 22.0574 126.186 22.0175C126.184 21.976 126.184 21.9369 126.184 21.9003V19.3693H126.607Z" fill="#08099A"/>
<path d="M123.021 21.1565C123.021 21.4241 122.978 21.6702 122.894 21.8946C122.809 22.1174 122.689 22.3094 122.534 22.4706C122.38 22.6319 122.194 22.7574 121.976 22.8472C121.76 22.9353 121.52 22.9793 121.258 22.9793C120.995 22.9793 120.756 22.9353 120.54 22.8472C120.323 22.7574 120.138 22.6319 119.983 22.4706C119.829 22.3094 119.709 22.1174 119.624 21.8946C119.54 21.6702 119.497 21.4241 119.497 21.1565C119.497 20.8888 119.54 20.6436 119.624 20.4209C119.709 20.1964 119.829 20.0036 119.983 19.8423C120.138 19.6794 120.323 19.5531 120.54 19.4633C120.756 19.3735 120.995 19.3286 121.258 19.3286C121.52 19.3286 121.76 19.3735 121.976 19.4633C122.194 19.5531 122.38 19.6794 122.534 19.8423C122.689 20.0036 122.809 20.1964 122.894 20.4209C122.978 20.6436 123.021 20.8888 123.021 21.1565ZM122.524 21.1565C122.524 20.937 122.495 20.74 122.435 20.5655C122.375 20.3909 122.29 20.2438 122.18 20.1241C122.071 20.0028 121.938 19.9097 121.781 19.8448C121.625 19.78 121.451 19.7476 121.258 19.7476C121.067 19.7476 120.893 19.78 120.737 19.8448C120.58 19.9097 120.446 20.0028 120.335 20.1241C120.225 20.2438 120.141 20.3909 120.081 20.5655C120.021 20.74 119.991 20.937 119.991 21.1565C119.991 21.3759 120.021 21.5729 120.081 21.7475C120.141 21.9204 120.225 22.0675 120.335 22.1888C120.446 22.3085 120.58 22.4008 120.737 22.4656C120.893 22.5288 121.067 22.5604 121.258 22.5604C121.451 22.5604 121.625 22.5288 121.781 22.4656C121.938 22.4008 122.071 22.3085 122.18 22.1888C122.29 22.0675 122.375 21.9204 122.435 21.7475C122.495 21.5729 122.524 21.3759 122.524 21.1565Z" fill="#08099A"/>
<path d="M118.805 22.9427H118.321V19.3693H118.805V22.9427Z" fill="#08099A"/>
<path d="M117.791 19.7758H116.634V22.9427H116.153V19.7758H114.993V19.3693H117.791V19.7758Z" fill="#08099A"/>
<path d="M113.086 22.5586C113.234 22.5586 113.366 22.5337 113.483 22.4838C113.599 22.434 113.697 22.3641 113.777 22.2744C113.858 22.1846 113.92 22.0774 113.961 21.9527C114.005 21.828 114.026 21.6909 114.026 21.5412V19.3693H114.507V21.5412C114.507 21.7474 114.474 21.9386 114.408 22.1148C114.343 22.291 114.249 22.4439 114.126 22.5736C114.005 22.7016 113.856 22.8022 113.68 22.8753C113.503 22.9485 113.306 22.9851 113.086 22.9851C112.867 22.9851 112.669 22.9485 112.493 22.8753C112.316 22.8022 112.167 22.7016 112.044 22.5736C111.921 22.4439 111.826 22.291 111.759 22.1148C111.695 21.9386 111.662 21.7474 111.662 21.5412V19.3693H112.144V21.5387C112.144 21.6884 112.164 21.8255 112.206 21.9502C112.249 22.0749 112.311 22.1821 112.39 22.2719C112.472 22.3616 112.571 22.4323 112.687 22.4838C112.805 22.5337 112.938 22.5586 113.086 22.5586Z" fill="#08099A"/>
<path d="M111.304 22.5362V22.9427H109.276V19.3693H109.758V22.5362H111.304Z" fill="#08099A"/>
<path d="M108.585 21.1565C108.585 21.4241 108.542 21.6702 108.458 21.8946C108.373 22.1174 108.253 22.3094 108.098 22.4706C107.944 22.6319 107.758 22.7574 107.54 22.8472C107.324 22.9353 107.084 22.9793 106.822 22.9793C106.559 22.9793 106.32 22.9353 106.104 22.8472C105.887 22.7574 105.702 22.6319 105.548 22.4706C105.393 22.3094 105.273 22.1174 105.188 21.8946C105.104 21.6702 105.061 21.4241 105.061 21.1565C105.061 20.8888 105.104 20.6436 105.188 20.4209C105.273 20.1964 105.393 20.0036 105.548 19.8423C105.702 19.6794 105.887 19.5531 106.104 19.4633C106.32 19.3735 106.559 19.3286 106.822 19.3286C107.084 19.3286 107.324 19.3735 107.54 19.4633C107.758 19.5531 107.944 19.6794 108.098 19.8423C108.253 20.0036 108.373 20.1964 108.458 20.4209C108.542 20.6436 108.585 20.8888 108.585 21.1565ZM108.089 21.1565C108.089 20.937 108.059 20.74 107.999 20.5655C107.939 20.3909 107.854 20.2438 107.744 20.1241C107.635 20.0028 107.502 19.9097 107.345 19.8448C107.189 19.78 107.015 19.7476 106.822 19.7476C106.631 19.7476 106.457 19.78 106.301 19.8448C106.144 19.9097 106.01 20.0028 105.899 20.1241C105.789 20.2438 105.705 20.3909 105.645 20.5655C105.585 20.74 105.555 20.937 105.555 21.1565C105.555 21.3759 105.585 21.5729 105.645 21.7475C105.705 21.9204 105.789 22.0675 105.899 22.1888C106.01 22.3085 106.144 22.4008 106.301 22.4656C106.457 22.5288 106.631 22.5604 106.822 22.5604C107.015 22.5604 107.189 22.5288 107.345 22.4656C107.502 22.4008 107.635 22.3085 107.744 22.1888C107.854 22.0675 107.939 21.9204 107.999 21.7475C108.059 21.5729 108.089 21.3759 108.089 21.1565Z" fill="#08099A"/>
<path d="M104.403 19.9271C104.388 19.9521 104.371 19.9712 104.353 19.9845C104.336 19.9961 104.316 20.0019 104.291 20.0019C104.262 20.0019 104.229 19.9878 104.191 19.9595C104.153 19.9313 104.105 19.9005 104.046 19.8673C103.99 19.8324 103.921 19.8008 103.839 19.7725C103.76 19.7442 103.662 19.7301 103.548 19.7301C103.44 19.7301 103.344 19.7451 103.261 19.775C103.179 19.8033 103.11 19.8423 103.054 19.8922C102.999 19.9421 102.957 20.0011 102.929 20.0693C102.901 20.1357 102.887 20.2081 102.887 20.2862C102.887 20.3859 102.911 20.4691 102.959 20.5356C103.009 20.6004 103.074 20.6561 103.154 20.7026C103.235 20.7492 103.326 20.7899 103.428 20.8248C103.531 20.8581 103.636 20.893 103.742 20.9296C103.85 20.9661 103.955 21.0077 104.056 21.0542C104.159 21.0991 104.251 21.1565 104.331 21.2263C104.412 21.2961 104.477 21.3817 104.525 21.4831C104.575 21.5845 104.6 21.7092 104.6 21.8572C104.6 22.0135 104.573 22.1606 104.52 22.2986C104.467 22.4349 104.389 22.5537 104.286 22.6551C104.184 22.7566 104.059 22.8363 103.909 22.8945C103.761 22.9527 103.592 22.9818 103.403 22.9818C103.17 22.9818 102.959 22.9402 102.77 22.8571C102.58 22.7723 102.418 22.6585 102.283 22.5155L102.423 22.2861C102.436 22.2678 102.452 22.2528 102.47 22.2412C102.49 22.2279 102.512 22.2213 102.535 22.2213C102.557 22.2213 102.581 22.2304 102.607 22.2487C102.636 22.2653 102.667 22.2869 102.702 22.3135C102.737 22.3401 102.777 22.3692 102.822 22.4008C102.867 22.4324 102.918 22.4615 102.974 22.4881C103.032 22.5147 103.098 22.5371 103.171 22.5554C103.244 22.572 103.326 22.5803 103.418 22.5803C103.533 22.5803 103.635 22.5645 103.725 22.533C103.814 22.5014 103.89 22.4573 103.952 22.4008C104.015 22.3426 104.063 22.2736 104.096 22.1938C104.129 22.114 104.146 22.0251 104.146 21.927C104.146 21.8189 104.121 21.7308 104.071 21.6627C104.023 21.5929 103.959 21.5347 103.879 21.4881C103.799 21.4416 103.708 21.4025 103.605 21.3709C103.502 21.3377 103.397 21.3044 103.291 21.2712C103.184 21.2363 103.08 21.1964 102.977 21.1515C102.873 21.1066 102.782 21.0484 102.702 20.9769C102.622 20.9054 102.558 20.8165 102.508 20.7101C102.46 20.6021 102.435 20.4691 102.435 20.3111C102.435 20.1848 102.46 20.0626 102.508 19.9446C102.558 19.8265 102.629 19.7218 102.722 19.6304C102.817 19.5389 102.932 19.4658 103.069 19.4109C103.207 19.3561 103.365 19.3286 103.543 19.3286C103.742 19.3286 103.923 19.3602 104.086 19.4234C104.251 19.4866 104.395 19.578 104.52 19.6977L104.403 19.9271Z" fill="#08099A"/>
<path d="M100.559 21.2238V22.5953C100.38 22.725 100.188 22.8222 99.9831 22.8871C99.7803 22.9502 99.5575 22.9818 99.3148 22.9818C99.0272 22.9818 98.7679 22.9378 98.5368 22.8496C98.3057 22.7599 98.1079 22.6352 97.9433 22.4756C97.7804 22.3143 97.6549 22.1215 97.5668 21.8971C97.4787 21.6727 97.4346 21.4258 97.4346 21.1565C97.4346 20.8838 97.477 20.6353 97.5618 20.4109C97.6483 20.1865 97.7704 19.9944 97.9284 19.8349C98.0863 19.6736 98.2783 19.5489 98.5044 19.4608C98.7305 19.3727 98.9832 19.3286 99.2625 19.3286C99.4038 19.3286 99.5351 19.3394 99.6565 19.3611C99.7778 19.381 99.89 19.4109 99.9931 19.4508C100.096 19.4891 100.192 19.5364 100.28 19.593C100.368 19.6478 100.45 19.7102 100.527 19.78L100.39 19.9994C100.368 20.0327 100.34 20.0543 100.305 20.0643C100.272 20.0726 100.234 20.0643 100.193 20.0393C100.153 20.0161 100.107 19.9878 100.055 19.9545C100.004 19.9213 99.9407 19.8897 99.8659 19.8598C99.7928 19.8282 99.7055 19.8016 99.6041 19.78C99.5043 19.7584 99.3855 19.7476 99.2475 19.7476C99.0463 19.7476 98.8643 19.7808 98.7014 19.8473C98.5385 19.9122 98.3997 20.0061 98.285 20.1291C98.1703 20.2505 98.0821 20.3984 98.0206 20.573C97.9591 20.7459 97.9284 20.9404 97.9284 21.1565C97.9284 21.3809 97.96 21.5821 98.0231 21.7599C98.088 21.9361 98.1794 22.0866 98.2974 22.2113C98.4171 22.3343 98.5618 22.4282 98.7313 22.4931C98.9009 22.5579 99.0912 22.5903 99.3024 22.5903C99.4686 22.5903 99.6157 22.572 99.7437 22.5355C99.8734 22.4972 99.9997 22.4448 100.123 22.3784V21.5929H99.5667C99.5351 21.5929 99.5093 21.5837 99.4894 21.5654C99.4711 21.5471 99.462 21.5247 99.462 21.4981V21.2238H100.559Z" fill="#08099A"/>
<path d="M96.743 19.3693V22.9427H96.5011C96.4629 22.9427 96.4304 22.936 96.4038 22.9227C96.3789 22.9094 96.354 22.887 96.329 22.8554L94.2618 20.1623C94.2651 20.2038 94.2676 20.2446 94.2693 20.2845C94.271 20.3244 94.2718 20.3618 94.2718 20.3967V22.9427H93.8479V19.3693H94.0972C94.1188 19.3693 94.1371 19.371 94.1521 19.3743C94.1671 19.3759 94.1804 19.3801 94.192 19.3867C94.2036 19.3917 94.2153 19.4 94.2269 19.4117C94.2385 19.4217 94.251 19.435 94.2643 19.4516L96.3315 22.1422C96.3282 22.099 96.3249 22.0574 96.3215 22.0175C96.3199 21.976 96.3191 21.9369 96.3191 21.9003V19.3693H96.743Z" fill="#08099A"/>
<path d="M92.9334 22.9427H92.4496V19.3693H92.9334V22.9427Z" fill="#08099A"/>
<path d="M91.5361 19.3693V22.9427H91.2942C91.2559 22.9427 91.2235 22.936 91.1969 22.9227C91.172 22.9094 91.1471 22.887 91.1221 22.8554L89.0549 20.1623C89.0582 20.2038 89.0607 20.2446 89.0624 20.2845C89.064 20.3244 89.0649 20.3618 89.0649 20.3967V22.9427H88.641V19.3693H88.8903C88.9119 19.3693 88.9302 19.371 88.9452 19.3743C88.9601 19.3759 88.9734 19.3801 88.9851 19.3867C88.9967 19.3917 89.0084 19.4 89.02 19.4117C89.0316 19.4217 89.0441 19.435 89.0574 19.4516L91.1246 22.1422C91.1213 22.099 91.118 22.0574 91.1146 22.0175C91.113 21.976 91.1121 21.9369 91.1121 21.9003V19.3693H91.5361Z" fill="#08099A"/>
<path d="M86.5041 21.0999C86.6437 21.0999 86.7667 21.0832 86.8731 21.05C86.9812 21.0151 87.071 20.9669 87.1424 20.9054C87.2156 20.8422 87.2704 20.7674 87.307 20.6809C87.3436 20.5945 87.3619 20.4989 87.3619 20.3942C87.3619 20.1814 87.2921 20.021 87.1524 19.9129C87.0128 19.8048 86.8033 19.7508 86.524 19.7508H85.9954V21.0999H86.5041ZM88.1549 22.9427H87.7259C87.6378 22.9427 87.573 22.9086 87.5314 22.8404L86.6038 21.5637C86.5756 21.5238 86.5448 21.4955 86.5116 21.4789C86.48 21.4606 86.4301 21.4515 86.3619 21.4515H85.9954V22.9427H85.5141V19.3693H86.524C86.7501 19.3693 86.9454 19.3926 87.11 19.4391C87.2746 19.484 87.4101 19.5497 87.5165 19.6361C87.6245 19.7226 87.7043 19.8273 87.7559 19.9503C87.8074 20.0717 87.8332 20.208 87.8332 20.3593C87.8332 20.4856 87.8132 20.6036 87.7733 20.7134C87.7334 20.8231 87.6752 20.922 87.5988 21.0101C87.524 21.0965 87.4317 21.1705 87.322 21.232C87.2139 21.2935 87.0909 21.3401 86.9529 21.3717C87.0144 21.4066 87.0676 21.4573 87.1125 21.5238L88.1549 22.9427Z" fill="#08099A"/>
<path d="M84.0368 21.6161L83.4758 20.1623C83.4591 20.119 83.4417 20.0692 83.4234 20.0126C83.4051 19.9545 83.3877 19.893 83.371 19.8281C83.3361 19.9628 83.3004 20.075 83.2638 20.1648L82.7027 21.6161H84.0368ZM85.0443 22.9427H84.6702C84.627 22.9427 84.5921 22.9319 84.5655 22.9102C84.5389 22.8886 84.5189 22.8612 84.5056 22.828L84.1715 21.9652H82.5681L82.2339 22.828C82.224 22.8579 82.2049 22.8845 82.1766 22.9078C82.1483 22.931 82.1134 22.9427 82.0719 22.9427H81.6978L83.1267 19.3693H83.6154L85.0443 22.9427Z" fill="#08099A"/>
<path d="M81.4647 22.5487L81.4622 22.9427H79.2603V19.3693H81.4622V19.7633H79.7441V20.9503H81.1356V21.3293H79.7441V22.5487H81.4647Z" fill="#08099A"/>
<path d="M78.7266 22.5362V22.9427H76.6992V19.3693H77.1805V22.5362H78.7266Z" fill="#08099A"/>
<path d="M74.7486 22.5487L74.7461 22.9427H72.5442V19.3693H74.7461V19.7633H73.028V20.9503H74.4194V21.3293H73.028V22.5487H74.7486Z" fill="#08099A"/>
<path d="M71.6306 19.3693V22.9427H71.1469V21.3168H69.2193V22.9427H68.7355V19.3693H69.2193V20.9627H71.1469V19.3693H71.6306Z" fill="#08099A"/>
<path d="M68.2058 19.7758H67.0488V22.9427H66.5675V19.7758H65.408V19.3693H68.2058V19.7758Z" fill="#08099A"/>
<path d="M28.6448 0C28.6448 0 24.8455 1.67043 22.6723 5.84148H9.65174C9.65174 5.84148 7.68126 5.84148 7.68126 7.27137C7.68126 7.27137 7.68126 8.55957 9.60786 8.55957H23.2121C23.2121 8.55957 29.294 8.55957 31.7609 13.1271C31.7609 13.1271 33.0139 17.3724 38.7721 17.0779H50.9767L55.1315 22.9405C55.1315 22.9405 39.0607 22.9405 37.0981 22.9405C35.1354 22.9405 29.0432 22.2724 25.8514 16.0446C25.8514 16.0446 24.6403 14.4381 23.1917 14.4015C21.7431 14.365 6.96212 14.4015 6.96212 14.4015C6.96212 14.4015 0.340454 14.0558 0.340454 6.63596C0.340454 6.63596 0.360171 0 9.16934 0H28.1255H28.6448Z" fill="url(#paint0_linear_1_1508)"/>
<path fill-rule="evenodd" clip-rule="evenodd" d="M7.68126 7.27137C7.68126 5.84148 9.65174 5.84148 9.65174 5.84148H22.6723C24.6305 2.08316 27.9088 0.35507 28.5385 0.0498725C28.6076 0.0163561 28.6448 0 28.6448 0H9.16934C0.360171 0 0.340454 6.63596 0.340454 6.63596C0.340454 14.0558 6.96212 14.4015 6.96212 14.4015C6.96212 14.4015 21.7431 14.365 23.1917 14.4015C24.6403 14.4381 25.8514 16.0446 25.8514 16.0446C29.0432 22.2724 35.1354 22.9405 37.0981 22.9405L55.1315 22.9405L50.9767 17.0779H38.7721C33.0139 17.3724 31.7609 13.1271 31.7609 13.1271C29.294 8.55957 23.2121 8.55957 23.2121 8.55957H9.60786C7.68126 8.55957 7.68126 7.27137 7.68126 7.27137ZM31.7146 13.1464C30.4894 10.8815 28.3677 9.74664 26.5465 9.17812C25.6358 8.89378 24.8016 8.75158 24.1951 8.68047C23.892 8.64493 23.6458 8.62717 23.4757 8.6183C23.3906 8.61386 23.3245 8.61165 23.2798 8.61055C23.2574 8.60999 23.2404 8.60972 23.229 8.60958L23.2162 8.60946L23.2131 8.60945L23.2123 8.60945H9.60786C8.63234 8.60945 8.1343 8.28254 7.88214 7.94534C7.75693 7.7779 7.69431 7.61043 7.66297 7.48471C7.64729 7.42182 7.6394 7.36922 7.63543 7.33202C7.63344 7.31341 7.63243 7.29863 7.63192 7.28832C7.63166 7.28316 7.63153 7.27912 7.63146 7.27627L7.6314 7.27289L7.63139 7.2719C7.63139 7.27185 7.63139 7.27137 7.68126 7.27137H7.63139C7.63139 6.90114 7.75941 6.62106 7.95242 6.41097C8.14443 6.20197 8.39873 6.06431 8.64949 5.97333C8.9005 5.88226 9.1508 5.83693 9.33786 5.81431C9.43152 5.80298 9.50965 5.79731 9.56449 5.79446C9.59192 5.79304 9.61354 5.79233 9.6284 5.79197L9.6455 5.79165L9.65002 5.79161L9.65124 5.79161C9.65127 5.79161 9.65174 5.7916 9.65174 5.84148V5.7916H22.6421C23.7317 3.71227 25.2229 2.25513 26.4431 1.31706C27.056 0.845951 27.6007 0.505553 27.9926 0.28282C28.1716 0.181023 28.3188 0.103788 28.4259 0.0498725H9.16934C4.77937 0.0498725 2.58869 1.70215 1.49295 3.34564C0.944116 4.16884 0.668351 4.99226 0.529842 5.61C0.460603 5.9188 0.425715 6.17597 0.408142 6.35567C0.399357 6.44551 0.394902 6.51596 0.392643 6.56378C0.391514 6.58769 0.390934 6.60595 0.390637 6.61814L0.39037 6.63182L0.390333 6.63516L0.390327 6.63593C0.390327 10.3275 2.03588 12.2533 3.67733 13.2586C4.49941 13.7622 5.32188 14.0356 5.93907 14.1831C6.24758 14.2568 6.50453 14.299 6.68413 14.3228C6.77392 14.3346 6.84435 14.3419 6.8922 14.3462C6.91612 14.3483 6.9344 14.3497 6.94662 14.3506L6.96036 14.3515L6.96344 14.3517L7.59995 14.3502C8.00695 14.3492 8.58999 14.348 9.29417 14.3465C10.7025 14.3437 12.5954 14.3403 14.5336 14.338C18.4093 14.3334 22.4678 14.3334 23.1929 14.3517C23.9343 14.3704 24.6101 14.79 25.0968 15.1986C25.341 15.4035 25.5393 15.6072 25.6766 15.7596C25.7453 15.8359 25.7988 15.8994 25.8352 15.9439C25.8534 15.9662 25.8673 15.9837 25.8767 15.9958L25.8875 16.0096L25.8902 16.0132L25.891 16.0142C25.891 16.0142 25.8912 16.0145 25.8514 16.0446L25.891 16.0142L25.8938 16.018L25.8958 16.0218C29.0747 22.2245 35.1423 22.8907 37.0981 22.8907L55.035 22.8906L50.9509 17.1278H38.7733C35.8808 17.2754 34.1148 16.2825 33.072 15.2484C32.5512 14.7318 32.2118 14.206 32.0025 13.8091C31.8979 13.6106 31.8257 13.4442 31.7796 13.3272C31.7565 13.2687 31.74 13.2225 31.7292 13.1908C31.7238 13.1749 31.7198 13.1627 31.7171 13.1543L31.7146 13.1464Z" fill="#060698"/>
<path d="M51.2033 5.86342L55.3581 0.000843756H36.8707C36.8707 0.000843756 29.7234 -0.221908 25.9796 6.57117C25.9796 6.57117 30.2907 7.23934 31.879 9.57794C31.879 9.57794 33.0135 5.56891 39.1285 5.86342H51.2033Z" fill="url(#paint1_linear_1_1508)"/>
<path fill-rule="evenodd" clip-rule="evenodd" d="M31.8983 9.51798C31.8849 9.5569 31.879 9.57794 31.879 9.57794C31.8671 9.56051 31.8551 9.54317 31.843 9.52593C30.3319 7.37905 26.5219 6.6639 26.0318 6.57982C25.9976 6.57396 25.9796 6.57117 25.9796 6.57117C25.9881 6.55567 25.9967 6.54021 26.0053 6.52479C29.756 -0.220893 36.8707 0.000843758 36.8707 0.000843758L36.8691 0.0506911L36.8681 0.0506603L36.8644 0.050567L36.8493 0.0502785C36.836 0.0500685 36.8159 0.0498598 36.7896 0.0498732C36.7369 0.0498999 36.6588 0.0508145 36.5581 0.0543815C36.3565 0.0615155 36.0641 0.0792579 35.7013 0.121715C34.9756 0.206638 33.9689 0.390389 32.8457 0.785647C30.6133 1.5712 27.921 3.19189 26.0574 6.53365C26.088 6.53899 26.1283 6.54621 26.1772 6.55544C26.2987 6.57839 26.474 6.61376 26.6892 6.66352C27.1196 6.76302 27.7101 6.92014 28.3505 7.15065C29.5993 7.60009 31.0476 8.3319 31.863 9.46801C31.8713 9.44503 31.8813 9.41824 31.8932 9.38797C31.9369 9.27723 32.0059 9.1199 32.108 8.9323C32.312 8.55713 32.6481 8.0606 33.1768 7.57356C34.2353 6.59848 36.0607 5.66601 39.1297 5.81355H51.1775L55.2616 0.0507163L36.8691 0.0506911L36.8707 0.000843758H55.3581L51.2033 5.86342H39.1285C33.4565 5.59025 32.0695 9.01966 31.8983 9.51798Z" fill="#3564D4"/>
<path d="M0 22.9435L4.25482 17.0809H22.6899C22.6899 17.0809 24.0513 20.4935 28.5893 22.9435C28.5893 22.9435 26.176 22.9435 24.732 22.9435L0 22.9435Z" fill="url(#paint2_linear_1_1508)"/>
<path fill-rule="evenodd" clip-rule="evenodd" d="M0 22.9435L28.5893 22.9435C28.5586 22.9269 28.528 22.9103 28.4976 22.8936C24.0329 20.4475 22.6899 17.0809 22.6899 17.0809H4.25482L0 22.9435ZM0.0978185 22.8936L28.3943 22.8936C26.2152 21.6844 24.7867 20.2588 23.8986 19.1242C23.443 18.5422 23.1296 18.0368 22.9299 17.6766C22.8301 17.4964 22.7586 17.3526 22.7121 17.2535C22.6888 17.204 22.6718 17.1657 22.6605 17.1396C22.6592 17.1365 22.6579 17.1336 22.6567 17.1308H4.28025L0.0978185 22.8936Z" fill="#3564D4"/>
<defs>
<linearGradient id="paint0_linear_1_1508" x1="3.70904" y1="1.11358" x2="61.5504" y2="27.2059" gradientUnits="userSpaceOnUse">
<stop stop-color="#060698"/>
<stop offset="1" stop-color="#3D75DF"/>
</linearGradient>
<linearGradient id="paint1_linear_1_1508" x1="27.7858" y1="0.464932" x2="52.4923" y2="14.2774" gradientUnits="userSpaceOnUse">
<stop stop-color="#060698"/>
<stop offset="1" stop-color="#3D75DF"/>
</linearGradient>
<linearGradient id="paint2_linear_1_1508" x1="1.75769" y1="17.3655" x2="19.3874" y2="33.0352" gradientUnits="userSpaceOnUse">
<stop stop-color="#060698"/>
<stop offset="1" stop-color="#3D75DF"/>
</linearGradient>
</defs>
</svg>
