<svg width="1297" height="979" viewBox="0 0 1297 979" fill="none" xmlns="http://www.w3.org/2000/svg">
<path d="M637.879 353.456C637.879 362.874 634.071 371.402 627.908 377.572C621.744 383.743 613.227 387.556 603.823 387.556H431.18C412.368 387.556 397.122 372.291 397.122 353.456C397.122 344.04 400.929 335.51 407.093 329.342C413.256 323.171 421.773 319.358 431.178 319.358H434.895C434.767 318.202 434.699 317.024 434.699 315.822C434.699 297.645 449.426 282.902 467.578 282.902C473.037 282.902 478.184 284.231 482.721 286.611C492.554 264.507 514.677 249.103 540.404 249.103C575.258 249.103 603.51 277.402 603.51 312.298C603.51 314.69 603.382 317.048 603.117 319.358H603.823C622.632 319.358 637.879 334.621 637.879 353.456Z" fill="white"/>
<path d="M303.754 111.294H299.774V141.335H303.754V111.294Z" fill="white"/>
<path d="M392.625 31.4434V0L210.904 0V31.4434L392.625 31.4434Z" fill="white"/>
<path d="M361.528 21.5365C358.321 21.5365 355.722 18.9327 355.722 15.7223C355.722 12.5098 358.321 9.90799 361.528 9.90799C364.735 9.90799 367.335 12.5118 367.335 15.7223C367.335 18.9346 364.733 21.5365 361.528 21.5365Z" fill="#94BDEB" stroke="#94BDEB"/>
<path d="M345.076 15.7223V15.7226C345.078 18.9345 342.477 21.5365 339.269 21.5365C336.062 21.5365 333.463 18.9327 333.463 15.7223C333.463 12.5099 336.064 9.90799 339.269 9.90799C342.476 9.90799 345.076 12.5118 345.076 15.7223Z" fill="#94BDEB" stroke="#94BDEB"/>
<path d="M322.817 15.7223V15.7226C322.819 18.9345 320.217 21.5365 317.01 21.5365C313.803 21.5365 311.203 18.9327 311.203 15.7223C311.203 12.5098 313.803 9.90799 317.01 9.90799C320.217 9.90799 322.817 12.5118 322.817 15.7223Z" fill="#94BDEB" stroke="#94BDEB"/>
<path d="M238.87 5.8306L243.06 5.8306V25.6134H238.87V5.8306Z" fill="#94BDEB" stroke="#94BDEB"/>
<path d="M230.655 5.8306L234.844 5.8306V25.6134H230.655V5.8306Z" fill="#94BDEB" stroke="#94BDEB"/>
<path d="M222.438 5.82986L226.628 5.82986V25.6127H222.438V5.82986Z" fill="#94BDEB" stroke="#94BDEB"/>
<path d="M392.625 73.4407V41.9973L210.904 41.9973V73.4407L392.625 73.4407Z" fill="white"/>
<path d="M361.528 63.5338C358.321 63.5338 355.722 60.9321 355.722 57.7196C355.722 54.5071 358.321 51.9053 361.528 51.9053C364.735 51.9053 367.335 54.5071 367.335 57.7196C367.335 60.9319 364.733 63.5338 361.528 63.5338Z" fill="#94BDEB" stroke="#94BDEB"/>
<path d="M345.074 57.7196V57.7199C345.076 60.9318 342.475 63.5338 339.268 63.5338C336.06 63.5338 333.461 60.9321 333.461 57.7196C333.461 54.5072 336.063 51.9053 339.268 51.9053C342.475 51.9053 345.074 54.5071 345.074 57.7196Z" fill="#94BDEB" stroke="#94BDEB"/>
<path d="M322.816 57.7196V57.7199C322.818 60.9318 320.217 63.5338 317.01 63.5338C313.803 63.5338 311.203 60.9321 311.203 57.7196C311.203 54.5071 313.803 51.9053 317.01 51.9053C320.217 51.9053 322.816 54.5071 322.816 57.7196Z" fill="#94BDEB" stroke="#94BDEB"/>
<path d="M238.87 47.8279H243.059V67.6107H238.87V47.8279Z" fill="#94BDEB" stroke="#94BDEB"/>
<path d="M230.653 47.8279H234.843V67.6107H230.653V47.8279Z" fill="#94BDEB" stroke="#94BDEB"/>
<path d="M222.438 47.8272H226.627V67.61H222.438V47.8272Z" fill="#94BDEB" stroke="#94BDEB"/>
<path d="M392.625 115.439V83.9955L210.904 83.9955V115.439L392.625 115.439Z" fill="white"/>
<path d="M361.528 105.532C358.321 105.532 355.722 102.928 355.722 99.7178C355.722 96.5053 358.321 93.9035 361.528 93.9035C364.735 93.9035 367.335 96.5074 367.335 99.7178C367.335 102.928 364.733 105.532 361.528 105.532Z" fill="#94BDEB" stroke="#94BDEB"/>
<path d="M345.076 99.7178V99.7181C345.078 102.928 342.476 105.532 339.269 105.532C336.062 105.532 333.462 102.928 333.462 99.7178C333.462 96.5054 336.064 93.9035 339.269 93.9035C342.476 93.9035 345.076 96.5074 345.076 99.7178Z" fill="#94BDEB" stroke="#94BDEB"/>
<path d="M322.816 99.7178V99.7181C322.818 102.928 320.217 105.532 317.01 105.532C313.803 105.532 311.203 102.928 311.203 99.7178C311.203 96.5053 313.803 93.9035 317.01 93.9035C320.217 93.9035 322.816 96.5074 322.816 99.7178Z" fill="#94BDEB" stroke="#94BDEB"/>
<path d="M238.87 89.8268H243.059V109.61H238.87V89.8268Z" fill="#94BDEB" stroke="#94BDEB"/>
<path d="M230.653 89.8261H234.843V109.609H230.653V89.8261Z" fill="#94BDEB" stroke="#94BDEB"/>
<path d="M222.438 89.8254H226.627V109.608H222.438V89.8254Z" fill="#94BDEB" stroke="#94BDEB"/>
<path d="M359.413 139.172H244.114V143.501H359.413V139.172Z" fill="white"/>
<path d="M310.107 141.337C310.107 145.95 306.372 149.69 301.764 149.69C297.156 149.69 293.421 145.95 293.421 141.337C293.421 136.723 297.156 132.984 301.764 132.984C306.372 132.984 310.107 136.723 310.107 141.337Z" fill="white"/>
<path d="M301.764 146.206C304.45 146.206 306.628 144.026 306.628 141.337C306.628 138.648 304.45 136.468 301.764 136.468C299.078 136.468 296.901 138.648 296.901 141.337C296.901 144.026 299.078 146.206 301.764 146.206Z" fill="white"/>
<path d="M210.904 115.44H392.625" stroke="#94BDEB" stroke-width="3" stroke-miterlimit="10" stroke-linecap="round"/>
<path d="M210.904 73.4417H392.625" stroke="#94BDEB" stroke-width="3" stroke-miterlimit="10" stroke-linecap="round"/>
<path d="M210.904 31.4435H392.625" stroke="#94BDEB" stroke-width="3" stroke-miterlimit="10" stroke-linecap="round"/>
<path d="M945.842 121.304H789.094C784.993 121.304 781.668 117.975 781.668 113.869V14.1998C781.668 10.094 784.993 6.76477 789.094 6.76477H945.842C949.943 6.76477 953.268 10.094 953.268 14.1998V113.869C953.268 117.975 949.945 121.304 945.842 121.304Z" fill="white"/>
<path d="M945.842 121.304H789.094C784.993 121.304 781.668 117.975 781.668 113.869V98.7824C781.668 94.6766 784.993 91.3474 789.094 91.3474H945.842C949.943 91.3474 953.268 94.6766 953.268 98.7824V113.869C953.268 117.975 949.945 121.304 945.842 121.304Z" fill="white" stroke="#94BDEB" stroke-width="2" stroke-miterlimit="10"/>
<path d="M802.767 20.602C802.767 24.2667 799.8 27.2347 796.143 27.2347C792.484 27.2347 789.519 24.2646 789.519 20.602C789.519 16.9373 792.486 13.9692 796.143 13.9692C799.799 13.9692 802.767 16.9394 802.767 20.602Z" fill="#94BDEB" stroke="#94BDEB"/>
<path d="M511.894 451.605L512.149 387.556" stroke="#A8C5E2" stroke-miterlimit="10"/>
<path d="M540.402 249.103V197.671H302.346V161.791" stroke="#A8C5E2" stroke-miterlimit="10"/>
<path d="M540.402 197.671H870.556V128.521" stroke="#A8C5E2" stroke-miterlimit="10"/>
<path d="M293.728 168.328V161.791H309.801V168.328C309.801 172.771 306.203 176.374 301.765 176.374C297.327 176.374 293.728 172.771 293.728 168.328Z" fill="#2C4C7C"/>
<path d="M862.704 134.641V128.104H878.776V134.641C878.776 139.084 875.178 142.687 870.74 142.687C866.302 142.687 862.704 139.084 862.704 134.641Z" fill="#2C4C7C"/>
<path d="M548.438 241.836V248.373H532.365V241.836C532.365 237.392 535.964 233.789 540.402 233.789C544.842 233.789 548.438 237.392 548.438 241.836Z" fill="#2C4C7C"/>
<path d="M520.152 456.306V462.843H504.079V456.306C504.079 451.863 507.678 448.26 512.116 448.26C516.553 448.26 520.152 451.863 520.152 456.306Z" fill="#2C4C7C"/>
<path d="M318.42 460.174L318.42 295.928L151.67 295.928L151.67 460.174H318.42Z" fill="white"/>
<path d="M201.011 339.288V328.712H295.822V339.288H201.011Z" fill="#94BDEB" stroke="#94BDEB"/>
<path d="M201.011 368.655V358.079H295.822V368.655H201.011Z" fill="#94BDEB" stroke="#94BDEB"/>
<path d="M201.011 398.02V387.444H295.822V398.02H201.011Z" fill="#94BDEB" stroke="#94BDEB"/>
<path d="M201.011 427.388V416.812H295.822V427.388H201.011Z" fill="#94BDEB" stroke="#94BDEB"/>
<path d="M184.83 334.001C184.83 336.923 182.464 339.291 179.548 339.291C176.631 339.291 174.266 336.923 174.266 334.001C174.266 331.08 176.631 328.712 179.548 328.712C182.464 328.712 184.83 331.08 184.83 334.001Z" fill="#94BDEB" stroke="#94BDEB"/>
<path d="M184.827 363.368C184.827 366.29 182.461 368.658 179.545 368.658C176.629 368.658 174.263 366.29 174.263 363.368C174.263 360.447 176.629 358.079 179.545 358.079C182.461 358.079 184.827 360.445 184.827 363.368Z" fill="#94BDEB" stroke="#94BDEB"/>
<path d="M184.83 392.733C184.83 395.655 182.465 398.023 179.548 398.023C176.631 398.023 174.266 395.655 174.266 392.733C174.266 389.812 176.631 387.444 179.548 387.444C182.465 387.444 184.83 389.812 184.83 392.733Z" fill="#94BDEB" stroke="#94BDEB"/>
<path d="M184.83 422.101C184.83 425.023 182.465 427.39 179.548 427.39C176.631 427.39 174.266 425.023 174.266 422.101C174.266 419.179 176.631 416.812 179.548 416.812C182.465 416.812 184.83 419.179 184.83 422.101Z" fill="#94BDEB" stroke="#94BDEB"/>
<path d="M816.84 25.1469V20.5715H940.745V25.1469H816.84Z" fill="#94BDEB" stroke="#94BDEB"/>
<path d="M816.84 44.1032V39.5278H940.745V44.1032H816.84Z" fill="#94BDEB" stroke="#94BDEB"/>
<path d="M816.84 63.0594V58.4841H940.745V63.0594H816.84Z" fill="#94BDEB" stroke="#94BDEB"/>
<path d="M816.84 82.0157V77.4403H940.745V82.0157H816.84Z" fill="#94BDEB" stroke="#94BDEB"/>
<path d="M878.704 250.162C878.704 250.162 871.648 312.25 825.777 336.407C779.905 312.25 772.847 250.162 772.847 250.162C772.847 250.162 808.025 244.018 825.777 225.245C843.526 244.018 878.704 250.162 878.704 250.162Z" fill="#6885A5"/>
<path d="M861.067 260.382C861.067 260.382 856.362 301.779 825.777 317.885C795.191 301.779 790.487 260.382 790.487 260.382C790.487 260.382 813.941 256.285 825.777 243.769C837.612 256.285 861.067 260.382 861.067 260.382Z" fill="#94BDEB"/>
<path d="M809.183 276.355L822.12 289.24L846.344 266.125" stroke="white" stroke-width="5" stroke-miterlimit="10"/>
<path d="M672.799 3.38239H545.067V80.6141H672.799V3.38239Z" fill="white"/>
<path d="M545.067 3.38239L608.933 41.9983L672.799 3.38239" stroke="#94BDEB" stroke-width="2" stroke-miterlimit="10" stroke-linecap="round"/>
<path d="M597.263 34.9404L545.067 80.614" stroke="#94BDEB" stroke-width="2" stroke-miterlimit="10" stroke-linecap="round"/>
<path d="M622.314 34.9404L672.798 80.614" stroke="#94BDEB" stroke-width="2" stroke-miterlimit="10" stroke-linecap="round"/>
<path d="M466.6 197.671V51.404H540.402" stroke="#A8C5E2" stroke-miterlimit="10"/>
<path d="M538.539 43.3578H545.068V59.4502H538.539C534.101 59.4502 530.503 55.8474 530.503 51.404C530.503 46.9606 534.101 43.3578 538.539 43.3578Z" fill="#2C4C7C"/>
<path d="M1005.83 160.95C987.296 160.95 972.261 176.003 972.261 194.569C972.261 213.123 987.294 228.177 1005.83 228.177C1024.37 228.177 1039.41 213.126 1039.41 194.569C1039.41 176.001 1024.37 160.95 1005.83 160.95ZM1005.83 211.235C996.641 211.235 989.18 203.778 989.18 194.567C989.18 185.356 996.639 177.89 1005.83 177.89C1015.03 177.89 1022.48 185.358 1022.48 194.567C1022.48 203.776 1015.03 211.235 1005.83 211.235Z" fill="white"/>
<path d="M1016.13 194.564C1016.13 200.259 1011.52 204.87 1005.83 204.87C1000.15 204.87 995.538 200.259 995.538 194.564C995.538 188.87 1000.15 184.253 1005.83 184.253C1011.52 184.253 1016.13 188.87 1016.13 194.564Z" fill="#94BDEB"/>
<path d="M1013.89 166.049H997.762V154.583C997.762 150.181 1001.32 146.614 1005.72 146.614H1005.92C1010.32 146.614 1013.89 150.181 1013.89 154.583V166.049Z" fill="white"/>
<path d="M995.609 166.755L982.566 176.244L975.836 166.969C973.252 163.408 974.04 158.424 977.597 155.836L977.76 155.717C981.317 153.129 986.295 153.919 988.879 157.48L995.609 166.755Z" fill="white"/>
<path d="M981.237 178.086L976.255 193.437L965.365 189.894C961.185 188.535 958.895 184.036 960.255 179.851L960.317 179.659C961.676 175.474 966.167 173.181 970.347 174.543L981.237 178.086Z" fill="white"/>
<path d="M976.262 195.707L981.245 211.058L970.355 214.601C966.172 215.962 961.681 213.67 960.324 209.485L960.262 209.293C958.903 205.105 961.192 200.609 965.372 199.25L976.262 195.707Z" fill="white"/>
<path d="M982.582 212.894L995.625 222.383L988.895 231.658C986.31 235.219 981.333 236.009 977.776 233.421L977.613 233.302C974.056 230.714 973.268 225.73 975.852 222.169L982.582 212.894Z" fill="white"/>
<path d="M997.783 223.076H1013.91V234.542C1013.91 238.943 1010.34 242.513 1005.95 242.513H1005.74C1001.35 242.513 997.786 238.945 997.786 234.542V223.076H997.783Z" fill="white"/>
<path d="M1016.06 222.367L1029.1 212.88L1035.84 222.155C1038.42 225.716 1037.63 230.7 1034.08 233.288L1033.91 233.407C1030.36 235.995 1025.38 235.205 1022.79 231.644L1016.06 222.367Z" fill="white"/>
<path d="M1030.43 211.038L1035.42 195.687L1046.31 199.231C1050.49 200.592 1052.78 205.088 1051.42 209.273L1051.36 209.465C1050 213.651 1045.5 215.943 1041.32 214.582L1030.43 211.038Z" fill="white"/>
<path d="M1035.41 193.417L1030.43 178.066L1041.32 174.523C1045.5 173.162 1049.99 175.454 1051.35 179.639L1051.41 179.831C1052.77 184.019 1050.48 188.515 1046.3 189.874L1035.41 193.417Z" fill="white"/>
<path d="M1029.09 176.231L1016.04 166.744L1022.77 157.469C1025.36 153.908 1030.34 153.118 1033.89 155.706L1034.06 155.825C1037.61 158.413 1038.4 163.397 1035.82 166.958L1029.09 176.231Z" fill="white"/>
<path d="M1068.72 290.503C1044.05 290.503 1024.03 310.545 1024.03 335.263C1024.03 359.969 1044.05 380.011 1068.72 380.011C1093.41 380.011 1113.43 359.969 1113.43 335.263C1113.43 310.543 1093.41 290.503 1068.72 290.503ZM1068.72 357.454C1056.49 357.454 1046.56 347.524 1046.56 335.261C1046.56 322.999 1056.49 313.055 1068.72 313.055C1080.97 313.055 1090.9 322.999 1090.9 335.261C1090.9 347.524 1080.97 357.454 1068.72 357.454Z" fill="white"/>
<path d="M1082.44 335.259C1082.44 342.842 1076.3 348.98 1068.73 348.98C1061.16 348.98 1055.02 342.84 1055.02 335.259C1055.02 327.678 1061.16 321.53 1068.73 321.53C1076.3 321.53 1082.44 327.678 1082.44 335.259Z" fill="#94BDEB"/>
<path d="M1079.45 297.29H1057.98V279.384C1057.98 274.983 1061.54 271.413 1065.94 271.413H1071.49C1075.88 271.413 1079.45 274.98 1079.45 279.384V297.29Z" fill="white"/>
<path d="M1055.11 298.234L1037.75 310.867L1027.23 296.381C1024.65 292.82 1025.44 287.836 1028.99 285.248L1033.48 281.985C1037.04 279.397 1042.01 280.187 1044.6 283.748L1055.11 298.234Z" fill="white"/>
<path d="M1035.98 313.318L1029.34 333.759L1012.34 328.226C1008.15 326.864 1005.87 322.368 1007.23 318.183L1008.94 312.903C1010.3 308.716 1014.79 306.426 1018.97 307.787L1035.98 313.318Z" fill="white"/>
<path d="M1029.35 336.782L1035.99 357.222L1018.98 362.756C1014.8 364.117 1010.3 361.825 1008.95 357.639L1007.23 352.36C1005.87 348.172 1008.16 343.676 1012.34 342.317L1029.35 336.782Z" fill="white"/>
<path d="M1037.77 359.663L1055.13 372.296L1044.62 386.782C1042.04 390.343 1037.06 391.132 1033.5 388.545L1029.02 385.282C1025.46 382.694 1024.67 377.71 1027.26 374.149L1037.77 359.663Z" fill="white"/>
<path d="M1058.01 373.222H1079.48V391.128C1079.48 395.529 1075.91 399.099 1071.52 399.099H1065.97C1061.57 399.099 1058.01 395.531 1058.01 391.128V373.222H1058.01Z" fill="white"/>
<path d="M1082.34 372.278L1099.71 359.645L1110.22 374.131C1112.81 377.692 1112.02 382.676 1108.46 385.264L1103.98 388.527C1100.42 391.115 1095.44 390.325 1092.86 386.764L1082.34 372.278Z" fill="white"/>
<path d="M1101.48 357.193L1108.11 336.753L1125.12 342.286C1129.3 343.647 1131.59 348.143 1130.23 352.329L1128.52 357.608C1127.16 361.796 1122.67 364.086 1118.49 362.725L1101.48 357.193Z" fill="white"/>
<path d="M1108.1 333.73L1101.47 313.29L1118.48 307.756C1122.66 306.395 1127.15 308.687 1128.51 312.873L1130.23 318.152C1131.58 322.337 1129.3 326.836 1125.12 328.195L1108.1 333.73Z" fill="white"/>
<path d="M1099.69 310.849L1082.32 298.216L1092.84 283.73C1095.42 280.169 1100.4 279.38 1103.96 281.967L1108.44 285.231C1112 287.818 1112.79 292.802 1110.2 296.363L1099.69 310.849Z" fill="white"/>
<path d="M630.153 492.16C630.153 492.16 647.829 494.954 666.435 515.446C685.04 535.937 713.881 656.094 713.881 656.094C713.881 656.094 739.929 598.344 753.884 591.825C767.84 585.304 793.888 588.1 805.982 606.728C818.077 625.356 795.749 668.203 780.864 687.763C765.979 707.324 726.907 740.855 704.579 737.13C682.251 733.405 645.04 718.502 645.04 718.502L630.153 492.16Z" fill="#94BDEB"/>
<path d="M477.338 762.367C477.338 762.367 465.378 787.405 465.378 813.533C465.378 839.661 470.852 923.814 470.852 923.814H662.215C662.215 923.814 666.529 791.761 653.482 766.721C605.64 775.43 477.338 762.367 477.338 762.367Z" fill="#263238"/>
<path opacity="0.25" d="M659.847 796.667C622.809 805.726 551.167 815.748 468.522 788.487C472.052 773.421 477.338 762.371 477.338 762.371C477.338 762.371 605.64 775.429 653.484 766.718C656.384 772.293 658.422 783.144 659.847 796.667Z" fill="#4A2D3E"/>
<path d="M547.163 480.416C547.163 480.416 495.823 482.666 487.363 500.083C478.902 517.501 461.497 730.797 465.728 741.683C469.958 752.57 477.361 754.746 477.361 754.746C477.361 754.746 472.073 771.075 478.419 775.43C484.764 779.784 621.196 800.468 659.271 778.696C662.444 773.254 657.156 754.746 657.156 754.746C657.156 754.746 659.271 761.279 666.675 746.037C674.078 730.797 669.129 550.344 647.701 503.859C641.129 489.608 594.755 478.239 547.163 480.416Z" fill="#94BDEB"/>
<path opacity="0.25" d="M497.243 624.102C504.589 658.833 570.598 691.007 570.598 691.007C570.598 691.007 494.117 670.127 487.58 669.183L497.243 624.102Z" fill="#6B8BD1"/>
<path d="M544.243 485.706C555.539 501.727 594.672 507.989 600.608 503.038C603.495 500.632 603.92 490.97 603.616 481.672C603.273 471.868 602.082 462.448 602.082 462.448C602.082 462.448 575.694 455.838 558.716 445.529C555.424 443.548 549.038 437.457 546.716 435.212C544.243 453.034 538.31 477.29 544.243 485.706Z" fill="#FFBE9D"/>
<path opacity="0.46" d="M552.639 444.115C552.639 444.115 556.111 459.478 570.445 471.343C579.733 479.044 594.43 481.148 603.616 481.672C603.273 471.868 602.082 462.448 602.082 462.448C602.082 462.448 575.694 455.838 558.716 445.529L552.639 444.115Z" fill="#FFBE9D"/>
<path d="M644.069 374.71C647.334 389.394 647.707 447.659 632.253 461.449C609.509 481.745 554.266 465.418 539.301 428.283C526.607 396.782 527.978 343.09 562.778 333.043C605.085 320.826 637.337 344.44 644.069 374.71Z" fill="#FFBE9D"/>
<path d="M551.661 414.422C551.661 414.422 566.493 390.66 560.56 356.008C575.888 365.415 640.657 364.919 650.051 362.939C659.446 360.96 652.029 340.662 614.453 324.822C576.877 308.981 543.749 322.842 543.256 337.692C538.31 322.842 533.861 322.346 530.894 328.286C527.928 334.226 541.277 340.166 541.277 340.166C541.277 340.166 526.939 350.067 525.455 374.323C523.972 398.581 539.3 436.202 551.661 414.422Z" fill="#2F3E46"/>
<path d="M610.991 392.764C610.991 392.764 619.149 417.267 616.183 422.837C613.217 428.406 603.946 426.551 601.349 423.209" stroke="#DB7665" stroke-miterlimit="10" stroke-linecap="round"/>
<path d="M637.319 372.715C631.88 366.404 621.745 366.032 616.183 368.632C610.62 371.23 614.329 380.512 618.778 379.399C623.228 378.285 631.015 377.172 635.093 378.657C639.173 380.142 639.212 374.912 637.319 372.715Z" fill="#2F3E46"/>
<path d="M569.352 374.2C574.791 367.889 584.926 367.517 590.488 370.117C596.049 372.717 592.342 381.997 587.893 380.884C583.443 379.77 575.656 378.655 571.577 380.14C567.497 381.627 567.459 376.397 569.352 374.2Z" fill="#2F3E46"/>
<path d="M619.521 395.364C619.521 398.644 621.513 401.304 623.97 401.304C626.428 401.304 628.42 398.644 628.42 395.364C628.42 392.083 626.428 389.424 623.97 389.424C621.513 389.424 619.521 392.082 619.521 395.364Z" fill="black"/>
<path d="M579.842 396.849C579.842 400.129 581.834 402.789 584.292 402.789C586.749 402.789 588.741 400.129 588.741 396.849C588.741 393.569 586.749 390.909 584.292 390.909C581.836 390.909 579.842 393.567 579.842 396.849Z" fill="black"/>
<path d="M610.25 435.832C610.25 435.832 600.237 435.832 595.047 433.234C589.855 430.636 587.631 431.006 586.888 433.976C586.148 436.946 590.967 443.257 598.013 444.742C605.058 446.227 610.25 443.629 612.845 439.916C615.441 436.202 612.845 436.202 610.25 435.832Z" fill="white"/>
<path d="M547.952 403.532C547.952 403.532 541.648 391.652 532.006 395.735C523.571 399.308 524.961 407.987 527.557 414.671C530.152 421.354 537.939 428.036 543.502 427.666C549.066 427.296 554.627 420.239 547.952 403.532Z" fill="#FFBE9D"/>
<path d="M544.614 419.867C548.199 416.526 545.378 404.747 539.053 401.304C533.367 398.209 530.894 406.131 530.894 406.131" stroke="#DB7665" stroke-miterlimit="10" stroke-linecap="round"/>
<path opacity="0.46" d="M546.098 417.269C546.098 417.269 536.827 421.352 534.602 408.359C533.118 401.305 539.051 401.305 539.051 401.305C539.051 401.305 546.469 406.872 546.098 417.269Z" fill="#FFBE9D"/>
<path d="M544.243 407.119C544.243 407.119 537.817 406.378 537.074 412.318" stroke="#DB7665" stroke-miterlimit="10" stroke-linecap="round"/>
<path d="M602.585 470.607C602.585 470.607 563.031 470.607 546.22 440.41" stroke="#DB7665" stroke-miterlimit="10" stroke-linecap="round"/>
<path d="M527.354 492.391C527.354 492.391 532.432 464.779 541.37 463.059C547.438 461.891 555.337 469.357 574.859 472.083C596.376 475.09 602.223 470.52 607.348 475.785C611.531 480.081 609.769 512.147 609.769 512.147C609.769 512.147 551.275 520.695 527.354 492.391Z" fill="#94BDEB"/>
<path d="M530.473 488.513C530.473 488.513 562.903 517.538 610.722 501.175" stroke="#4264A0" stroke-miterlimit="10" stroke-linecap="round"/>
<path d="M478.417 753.354C478.417 753.354 574.056 772.747 643.061 755.779" stroke="#4264A0" stroke-miterlimit="10" stroke-linecap="round"/>
<path d="M501.933 489.024C474.862 499.432 449.795 529.811 441.292 562.651C432.789 595.49 414.853 702.058 422.141 725.167C429.43 748.277 537.55 783.549 566.705 773.819C595.861 764.09 599.505 745.845 598.29 719.086C597.075 692.328 539.979 677.732 486.527 670.434C508.393 605.972 501.933 489.024 501.933 489.024Z" fill="#94BDEB"/>
<path d="M486.222 761.81C517.807 772.301 552.127 778.686 566.703 773.821C595.859 764.091 599.503 745.846 598.288 719.088C597.074 692.33 539.978 677.733 486.526 670.436C508.393 605.972 503.436 497.199 503.436 497.199" stroke="#4264A0" stroke-miterlimit="10" stroke-linecap="round"/>
<path d="M487.58 669.182C473.86 677.299 467.115 692.306 467.115 692.306" stroke="#4264A0" stroke-miterlimit="10" stroke-linecap="round"/>
<path d="M670.318 717.155H809.506C817.134 717.155 825.121 710.963 827.344 703.325L849.955 625.668C852.179 618.031 847.797 611.839 840.169 611.839H700.981C693.353 611.839 685.365 618.031 683.143 625.668L660.532 703.325C658.308 710.963 662.689 717.155 670.318 717.155Z" fill="#87A1CF"/>
<path d="M674.8 717.155H813.988C821.616 717.155 829.604 710.963 831.826 703.325L854.438 625.668C856.662 618.031 852.28 611.839 844.652 611.839H705.465C697.837 611.839 689.85 618.031 687.627 625.668L665.016 703.325C662.79 710.963 667.171 717.155 674.8 717.155Z" fill="#AAC2E5"/>
<path d="M617.52 717.155H817.402C821.157 717.155 824.2 720.203 824.2 723.961C824.2 727.721 821.156 730.767 817.402 730.767H617.52C613.767 730.767 610.722 727.719 610.722 723.961C610.722 720.203 613.767 717.155 617.52 717.155Z" fill="#87A1CF"/>
<path d="M655.905 717.155H817.402C821.157 717.155 824.2 720.203 824.2 723.961C824.2 727.721 821.156 730.767 817.402 730.767H655.905C652.149 730.767 649.107 727.719 649.107 723.961C649.107 720.203 652.151 717.155 655.905 717.155Z" fill="#AAC2E5"/>
<path d="M813.987 717.155H674.8" stroke="#4E6989" stroke-miterlimit="10"/>
<path d="M598.25 716.473C598.25 716.473 587.359 719.904 587.291 733.399C587.223 746.892 590.687 748.236 590.687 748.236C590.687 748.236 630.438 753.109 642.284 751.338C654.132 749.57 698.644 741.177 700.215 733.037C701.788 724.899 664.93 733.077 638.143 727.663C625.463 722.35 631.028 716.753 635.978 711.713C640.928 706.672 645.519 696.921 640.94 694.349C636.361 691.779 630.824 696.79 627.634 701.917C624.444 707.044 598.25 716.473 598.25 716.473Z" fill="#FFBE9D"/>
<path d="M642.248 506.132C642.248 506.132 666.435 596.482 667.366 668.203" stroke="#4264A0" stroke-miterlimit="10" stroke-linecap="round"/>
<path d="M766.544 594.974C766.544 594.974 774.614 612.751 800.44 608.711C810.125 600.631 824.652 580.429 829.495 570.733C834.337 561.036 848.057 525.482 845.636 518.21C843.215 510.937 828.688 502.049 819.81 503.665C810.932 505.281 793.177 534.371 789.949 539.219C786.72 544.067 785.913 535.987 784.299 527.906C782.685 519.826 778.65 510.129 772.193 512.554C765.737 514.978 764.93 515.786 768.965 527.098C773 538.411 767.351 552.956 768.158 561.844C768.965 570.733 771.386 575.581 771.386 582.045C771.386 588.51 766.544 594.974 766.544 594.974Z" fill="#FFBE9D"/>
<path d="M786.976 539.549C791.477 549.793 789.632 561.342 789.632 561.342" stroke="#DB7665" stroke-miterlimit="10" stroke-linecap="round"/>
<path d="M824.956 504.463L800.898 546.105" stroke="#DB7665" stroke-miterlimit="10" stroke-linecap="round"/>
<path d="M832.703 506.504L811.499 552.227" stroke="#DB7665" stroke-miterlimit="10" stroke-linecap="round"/>
<path d="M838.818 510.994L821.285 557.127" stroke="#DB7665" stroke-miterlimit="10" stroke-linecap="round"/>
<path d="M579.964 871.701V923.446" stroke="#4264A0" stroke-miterlimit="10" stroke-linecap="round"/>
<path d="M1297 913.246H46.8392L0 932.202V979H1297V913.246Z" fill="#C0CBD7"/>
<path d="M1297 913.246H46.8392L0 932.202H1297V913.246Z" fill="#7D8D9C"/>
<ellipse cx="941" cy="735" rx="25" ry="6" fill="#687581"/>
<path d="M1045.8 829.223C1065.27 785.565 1040.81 751.911 1066.67 718.663C1092.53 685.416 1103.06 654.292 1103.06 654.292C1103.06 654.292 1138.13 690.702 1109.03 731.212C1079.93 771.722 1081.99 812.79 1055.1 834.599L1045.8 829.223Z" fill="#8EC098"/>
<path d="M1103.06 654.294C1110.01 686.466 1101.67 707.291 1081.79 728.996C1061.91 750.702 1075.8 771.253 1066.6 796.123C1057.4 820.995 1050.38 831.873 1050.38 831.873" stroke="#B8D8BD" stroke-miterlimit="10"/>
<path d="M1041.19 826.313C1050.05 771.32 1012.44 740.761 1031.61 695.571C1050.78 650.38 1053.33 612.178 1053.33 612.178C1053.33 612.178 1103.7 642.658 1083.06 696.998C1062.42 751.337 1077.02 796.958 1053.27 829.58L1041.19 826.313Z" fill="#76A87E"/>
<path d="M1053.33 612.176C1070.78 646.316 1067.62 672.265 1051.73 702.665C1035.84 733.067 1057.63 752.042 1054.71 782.806C1051.79 813.57 1047.14 827.922 1047.14 827.922" stroke="#B8D8BD" stroke-miterlimit="10"/>
<path d="M1032.14 825.825C1026.37 770.422 982.104 750.741 988.84 702.109C995.577 653.477 988.086 615.931 988.086 615.931C988.086 615.931 1044.66 632.203 1038.88 690.052C1033.11 747.901 1059.09 788.131 1044.66 825.827L1032.14 825.825Z" fill="#8EC098"/>
<path d="M988.084 615.931C1013.82 644.333 1017.53 670.207 1010.11 703.706C1002.69 737.204 1028.66 749.834 1033.86 780.296C1039.05 810.757 1038.31 825.825 1038.31 825.825" stroke="#B8D8BD" stroke-miterlimit="10"/>
<path d="M1077.3 921.618V819.58C1077.3 819.58 1066.62 825.351 1050.42 825.351C1034.22 825.351 1021.54 819.58 1021.54 819.58V921.618C1021.54 921.618 1036.46 925.512 1049.86 925.512C1063.27 925.512 1077.3 921.618 1077.3 921.618Z" fill="#6885A5"/>
</svg>
