<svg width="27" height="27" viewBox="0 0 27 27" fill="none" xmlns="http://www.w3.org/2000/svg">
<circle cx="13.5" cy="13.5" r="13" stroke="#173E88"/>
<path d="M11 16L11 17.6667C11 18.2897 11 18.6013 10.866 18.8333C10.7783 18.9854 10.652 19.1116 10.5 19.1994C10.2679 19.3333 9.95641 19.3333 9.33333 19.3333V19.3333C8.71026 19.3333 8.39872 19.3333 8.16667 19.1994C8.01465 19.1116 7.88841 18.9854 7.80064 18.8333C7.66667 18.6013 7.66667 18.2897 7.66667 17.6667V17.6667C7.66667 17.0436 7.66667 16.7321 7.80064 16.5C7.88841 16.348 8.01465 16.2217 8.16667 16.134C8.39872 16 8.71026 16 9.33333 16L11 16Z" stroke="#173E88"/>
<path d="M15 8.66667L18.3333 8.66667L18.3333 12" stroke="#173E88"/>
<path d="M18.3333 8.66699L11 16.0003" stroke="#173E88"/>
</svg>
