<svg width="36" height="36" viewBox="0 0 36 36" fill="none" xmlns="http://www.w3.org/2000/svg">
<circle cx="18" cy="18" r="17.5" stroke="#173E88"/>
<path d="M19.9961 15.9961L19.9961 13.5517C19.9961 12.6088 19.9961 12.1374 20.289 11.8445C20.5819 11.5516 21.0533 11.5516 21.9961 11.5516L22.4405 11.5516C23.3833 11.5516 23.8548 11.5516 24.1476 11.8445C24.4405 12.1374 24.4405 12.6088 24.4405 13.5516L24.4405 13.9961C24.4405 14.9389 24.4405 15.4103 24.1476 15.7032C23.8548 15.9961 23.3833 15.9961 22.4405 15.9961L19.9961 15.9961Z" stroke="#173E88"/>
<path d="M14.6641 25.7735L10.2196 25.7735L10.2196 21.3291" stroke="#173E88"/>
<path d="M10.2183 25.7734L19.9961 15.9957" stroke="#173E88"/>
</svg>
