<svg width="18" height="15" viewBox="0 0 18 15" fill="none" xmlns="http://www.w3.org/2000/svg">
<path fill-rule="evenodd" clip-rule="evenodd" d="M18 0H0V3C1.10457 3 2 3.89543 2 5V9C2 11.8284 2 13.2426 2.87868 14.1213C3.75736 15 5.17157 15 8 15H10C12.8284 15 14.2426 15 15.1213 14.1213C16 13.2426 16 11.8284 16 9V5C16 3.89543 16.8954 3 18 3V0ZM7.5 5C7.5 4.44772 7.05228 4 6.5 4C5.94772 4 5.5 4.44772 5.5 5V10C5.5 10.5523 5.94772 11 6.5 11C7.05228 11 7.5 10.5523 7.5 10V5ZM12.5 5C12.5 4.44772 12.0523 4 11.5 4C10.9477 4 10.5 4.44772 10.5 5V10C10.5 10.5523 10.9477 11 11.5 11C12.0523 11 12.5 10.5523 12.5 10V5Z" fill="#173E88"/>
</svg>
