<svg width="18" height="18" viewBox="0 0 18 18" fill="none" xmlns="http://www.w3.org/2000/svg">
<path fill-rule="evenodd" clip-rule="evenodd" d="M14.2047 7.79619L16.0007 6.00019C16.546 5.45494 16.8186 5.18231 16.9644 4.88822C17.2416 4.32866 17.2416 3.67171 16.9644 3.11215C16.8186 2.81806 16.546 2.54544 16.0007 2.00019C15.4555 1.45494 15.1829 1.18231 14.8888 1.03658C14.3292 0.759293 13.6723 0.759293 13.1127 1.03658C12.8186 1.18231 12.546 1.45494 12.0007 2.00019L10.1821 3.81884C11.146 5.46944 12.5321 6.845 14.2047 7.79619ZM8.72764 5.2733L1.85713 12.1438C1.43207 12.5689 1.21954 12.7814 1.0798 13.0425C0.940068 13.3036 0.881123 13.5983 0.763232 14.1878L0.147836 17.2648C0.0813141 17.5974 0.048053 17.7637 0.142661 17.8583C0.237269 17.9529 0.403574 17.9196 0.736185 17.8531L3.81316 17.2377C4.40262 17.1198 4.69734 17.0609 4.95844 16.9211C5.21954 16.7814 5.43207 16.5689 5.85713 16.1438L12.7465 9.25441C11.1249 8.23876 9.75317 6.87646 8.72764 5.2733Z" fill="#173E88"/>
</svg>
