<svg width="134" height="19" viewBox="0 0 134 19" fill="none" xmlns="http://www.w3.org/2000/svg">
<path d="M76.89 14C76.666 14 76.4933 13.9393 76.372 13.818C76.2507 13.6967 76.19 13.524 76.19 13.3V4.83C76.19 4.606 76.2507 4.43333 76.372 4.312C76.4933 4.19067 76.666 4.13 76.89 4.13H82.042C82.2193 4.13 82.3547 4.17667 82.448 4.27C82.5507 4.354 82.602 4.48 82.602 4.648C82.602 4.82533 82.5507 4.96067 82.448 5.054C82.3547 5.14733 82.2193 5.194 82.042 5.194H77.45V8.456H81.748C81.9253 8.456 82.0607 8.50267 82.154 8.596C82.2473 8.68933 82.294 8.82 82.294 8.988C82.294 9.16533 82.2473 9.30067 82.154 9.394C82.0607 9.478 81.9253 9.52 81.748 9.52H77.45V12.936H82.042C82.2193 12.936 82.3547 12.9827 82.448 13.076C82.5507 13.16 82.602 13.2907 82.602 13.468C82.602 13.6453 82.5507 13.7807 82.448 13.874C82.3547 13.958 82.2193 14 82.042 14H76.89ZM84.3651 14.084C84.2251 14.084 84.1038 14.042 84.0011 13.958C83.8985 13.874 83.8425 13.762 83.8331 13.622C83.8331 13.482 83.8938 13.3327 84.0151 13.174L86.4371 10.164V10.794L84.1691 7.994C84.0385 7.83533 83.9778 7.686 83.9871 7.546C83.9965 7.406 84.0478 7.294 84.1411 7.21C84.2438 7.126 84.3698 7.084 84.5191 7.084C84.6778 7.084 84.8085 7.112 84.9111 7.168C85.0231 7.224 85.1258 7.31267 85.2191 7.434L87.1511 9.884H86.7031L88.6351 7.434C88.7285 7.31267 88.8265 7.224 88.9291 7.168C89.0411 7.112 89.1718 7.084 89.3211 7.084C89.4705 7.084 89.5918 7.126 89.6851 7.21C89.7878 7.294 89.8391 7.406 89.8391 7.546C89.8485 7.686 89.7925 7.83533 89.6711 7.994L87.4171 10.766V10.206L89.8251 13.174C89.9558 13.3233 90.0165 13.468 90.0071 13.608C89.9978 13.748 89.9418 13.8647 89.8391 13.958C89.7458 14.042 89.6245 14.084 89.4751 14.084C89.3165 14.084 89.1811 14.056 89.0691 14C88.9665 13.944 88.8685 13.8553 88.7751 13.734L86.6891 11.116H87.1231L85.0651 13.734C84.9718 13.846 84.8691 13.9347 84.7571 14C84.6545 14.056 84.5238 14.084 84.3651 14.084ZM94.4389 14.126C93.7482 14.126 93.1509 13.9813 92.6469 13.692C92.1429 13.3933 91.7556 12.978 91.4849 12.446C91.2142 11.9047 91.0789 11.27 91.0789 10.542C91.0789 10.0007 91.1536 9.51533 91.3029 9.086C91.4616 8.65667 91.6856 8.29267 91.9749 7.994C92.2642 7.686 92.6142 7.45267 93.0249 7.294C93.4449 7.13533 93.9162 7.056 94.4389 7.056C94.7656 7.056 95.1109 7.10733 95.4749 7.21C95.8389 7.31267 96.1749 7.48067 96.4829 7.714C96.5856 7.78867 96.6509 7.87733 96.6789 7.98C96.7069 8.07333 96.7069 8.17133 96.6789 8.274C96.6602 8.37667 96.6136 8.46533 96.5389 8.54C96.4736 8.60533 96.3849 8.64267 96.2729 8.652C96.1702 8.66133 96.0582 8.62867 95.9369 8.554C95.7129 8.386 95.4749 8.26467 95.2229 8.19C94.9802 8.11533 94.7469 8.078 94.5229 8.078C94.1776 8.078 93.8696 8.134 93.5989 8.246C93.3376 8.358 93.1136 8.52133 92.9269 8.736C92.7496 8.94133 92.6142 9.198 92.5209 9.506C92.4276 9.80467 92.3809 10.1547 92.3809 10.556C92.3809 11.3493 92.5676 11.9747 92.9409 12.432C93.3142 12.88 93.8416 13.104 94.5229 13.104C94.7469 13.104 94.9802 13.0713 95.2229 13.006C95.4656 12.9313 95.7036 12.81 95.9369 12.642C96.0582 12.5673 96.1702 12.5393 96.2729 12.558C96.3756 12.5673 96.4596 12.6093 96.5249 12.684C96.5996 12.7493 96.6462 12.8333 96.6649 12.936C96.6836 13.0293 96.6742 13.1273 96.6369 13.23C96.6089 13.3327 96.5436 13.4167 96.4409 13.482C96.1422 13.706 95.8156 13.8693 95.4609 13.972C95.1062 14.0747 94.7656 14.126 94.4389 14.126ZM101.006 14.126C100.269 14.126 99.634 13.986 99.102 13.706C98.5793 13.4167 98.1733 13.0107 97.884 12.488C97.5947 11.956 97.45 11.3307 97.45 10.612C97.45 9.90267 97.59 9.282 97.87 8.75C98.1593 8.218 98.5513 7.80267 99.046 7.504C99.55 7.20533 100.124 7.056 100.768 7.056C101.225 7.056 101.636 7.13533 102 7.294C102.373 7.44333 102.691 7.66267 102.952 7.952C103.213 8.24133 103.409 8.596 103.54 9.016C103.68 9.42667 103.75 9.89333 103.75 10.416C103.75 10.5653 103.703 10.682 103.61 10.766C103.526 10.8407 103.4 10.878 103.232 10.878H98.444V10.066H102.91L102.672 10.262C102.672 9.77667 102.597 9.366 102.448 9.03C102.308 8.68467 102.098 8.42333 101.818 8.246C101.547 8.06867 101.207 7.98 100.796 7.98C100.348 7.98 99.9653 8.08733 99.648 8.302C99.3307 8.50733 99.088 8.80133 98.92 9.184C98.752 9.55733 98.668 9.99133 98.668 10.486V10.57C98.668 11.41 98.8687 12.0447 99.27 12.474C99.6713 12.9033 100.25 13.118 101.006 13.118C101.305 13.118 101.608 13.0807 101.916 13.006C102.233 12.9313 102.537 12.796 102.826 12.6C102.966 12.516 103.092 12.4787 103.204 12.488C103.325 12.488 103.423 12.5253 103.498 12.6C103.573 12.6653 103.619 12.7493 103.638 12.852C103.657 12.9453 103.643 13.048 103.596 13.16C103.549 13.272 103.461 13.37 103.33 13.454C103.022 13.6687 102.653 13.8367 102.224 13.958C101.804 14.07 101.398 14.126 101.006 14.126ZM107.477 14.126C106.777 14.126 106.245 13.9207 105.881 13.51C105.517 13.09 105.335 12.488 105.335 11.704V4.676C105.335 4.46133 105.391 4.30267 105.503 4.2C105.615 4.088 105.769 4.032 105.965 4.032C106.17 4.032 106.329 4.088 106.441 4.2C106.553 4.30267 106.609 4.46133 106.609 4.676V11.606C106.609 12.0913 106.707 12.4553 106.903 12.698C107.108 12.9313 107.397 13.048 107.771 13.048C107.855 13.048 107.929 13.048 107.995 13.048C108.06 13.0387 108.125 13.0293 108.191 13.02C108.293 13.0107 108.368 13.0387 108.415 13.104C108.461 13.1693 108.485 13.3 108.485 13.496C108.485 13.6733 108.443 13.8133 108.359 13.916C108.284 14.0093 108.158 14.07 107.981 14.098C107.897 14.1073 107.813 14.112 107.729 14.112C107.645 14.1213 107.561 14.126 107.477 14.126ZM111.687 14.126C110.987 14.126 110.455 13.9207 110.091 13.51C109.727 13.09 109.545 12.488 109.545 11.704V4.676C109.545 4.46133 109.601 4.30267 109.713 4.2C109.825 4.088 109.979 4.032 110.175 4.032C110.381 4.032 110.539 4.088 110.651 4.2C110.763 4.30267 110.819 4.46133 110.819 4.676V11.606C110.819 12.0913 110.917 12.4553 111.113 12.698C111.319 12.9313 111.608 13.048 111.981 13.048C112.065 13.048 112.14 13.048 112.205 13.048C112.271 13.0387 112.336 13.0293 112.401 13.02C112.504 13.0107 112.579 13.0387 112.625 13.104C112.672 13.1693 112.695 13.3 112.695 13.496C112.695 13.6733 112.653 13.8133 112.569 13.916C112.495 14.0093 112.369 14.07 112.191 14.098C112.107 14.1073 112.023 14.112 111.939 14.112C111.855 14.1213 111.771 14.126 111.687 14.126ZM116.838 14.126C116.101 14.126 115.466 13.986 114.934 13.706C114.411 13.4167 114.005 13.0107 113.716 12.488C113.427 11.956 113.282 11.3307 113.282 10.612C113.282 9.90267 113.422 9.282 113.702 8.75C113.991 8.218 114.383 7.80267 114.878 7.504C115.382 7.20533 115.956 7.056 116.6 7.056C117.057 7.056 117.468 7.13533 117.832 7.294C118.205 7.44333 118.523 7.66267 118.784 7.952C119.045 8.24133 119.241 8.596 119.372 9.016C119.512 9.42667 119.582 9.89333 119.582 10.416C119.582 10.5653 119.535 10.682 119.442 10.766C119.358 10.8407 119.232 10.878 119.064 10.878H114.276V10.066H118.742L118.504 10.262C118.504 9.77667 118.429 9.366 118.28 9.03C118.14 8.68467 117.93 8.42333 117.65 8.246C117.379 8.06867 117.039 7.98 116.628 7.98C116.18 7.98 115.797 8.08733 115.48 8.302C115.163 8.50733 114.92 8.80133 114.752 9.184C114.584 9.55733 114.5 9.99133 114.5 10.486V10.57C114.5 11.41 114.701 12.0447 115.102 12.474C115.503 12.9033 116.082 13.118 116.838 13.118C117.137 13.118 117.44 13.0807 117.748 13.006C118.065 12.9313 118.369 12.796 118.658 12.6C118.798 12.516 118.924 12.4787 119.036 12.488C119.157 12.488 119.255 12.5253 119.33 12.6C119.405 12.6653 119.451 12.7493 119.47 12.852C119.489 12.9453 119.475 13.048 119.428 13.16C119.381 13.272 119.293 13.37 119.162 13.454C118.854 13.6687 118.485 13.8367 118.056 13.958C117.636 14.07 117.23 14.126 116.838 14.126ZM121.797 14.098C121.601 14.098 121.447 14.042 121.335 13.93C121.223 13.818 121.167 13.6547 121.167 13.44V7.728C121.167 7.51333 121.223 7.35467 121.335 7.252C121.447 7.14 121.601 7.084 121.797 7.084C121.993 7.084 122.142 7.14 122.245 7.252C122.357 7.35467 122.413 7.51333 122.413 7.728V8.876L122.259 8.666C122.455 8.134 122.772 7.73267 123.211 7.462C123.659 7.19133 124.167 7.056 124.737 7.056C125.287 7.056 125.74 7.154 126.095 7.35C126.449 7.546 126.715 7.84467 126.893 8.246C127.07 8.64733 127.159 9.156 127.159 9.772V13.44C127.159 13.6547 127.103 13.818 126.991 13.93C126.888 14.042 126.734 14.098 126.529 14.098C126.323 14.098 126.165 14.042 126.053 13.93C125.941 13.818 125.885 13.6547 125.885 13.44V9.842C125.885 9.23533 125.768 8.792 125.535 8.512C125.301 8.232 124.928 8.092 124.415 8.092C123.817 8.092 123.337 8.27867 122.973 8.652C122.618 9.016 122.441 9.51067 122.441 10.136V13.44C122.441 13.8787 122.226 14.098 121.797 14.098ZM132.006 14.126C131.456 14.126 130.994 14.028 130.62 13.832C130.256 13.636 129.981 13.3513 129.794 12.978C129.617 12.6047 129.528 12.1473 129.528 11.606V8.162H128.632C128.464 8.162 128.334 8.12 128.24 8.036C128.147 7.94267 128.1 7.82133 128.1 7.672C128.1 7.51333 128.147 7.392 128.24 7.308C128.334 7.224 128.464 7.182 128.632 7.182H129.528V5.656C129.528 5.44133 129.584 5.28267 129.696 5.18C129.808 5.068 129.967 5.012 130.172 5.012C130.378 5.012 130.532 5.068 130.634 5.18C130.746 5.28267 130.802 5.44133 130.802 5.656V7.182H132.496C132.674 7.182 132.809 7.224 132.902 7.308C132.996 7.392 133.042 7.51333 133.042 7.672C133.042 7.82133 132.996 7.94267 132.902 8.036C132.809 8.12 132.674 8.162 132.496 8.162H130.802V11.494C130.802 12.0073 130.91 12.3947 131.124 12.656C131.339 12.9173 131.694 13.048 132.188 13.048C132.366 13.048 132.515 13.034 132.636 13.006C132.758 12.9687 132.865 12.95 132.958 12.95C133.042 12.9407 133.112 12.9687 133.168 13.034C133.234 13.0993 133.266 13.2207 133.266 13.398C133.266 13.5287 133.243 13.65 133.196 13.762C133.159 13.8647 133.08 13.9347 132.958 13.972C132.846 14.0093 132.697 14.042 132.51 14.07C132.324 14.1073 132.156 14.126 132.006 14.126Z" fill="#030303"/>
<rect y="6" width="60" height="4" rx="2" fill="#D9D9D9"/>
<rect y="6" width="60" height="4" rx="2" fill="#BBCA56"/>
</svg>
