<svg width="24" height="18" viewBox="0 0 24 18" fill="none" xmlns="http://www.w3.org/2000/svg">
<path fill-rule="evenodd" clip-rule="evenodd" d="M20.5285 1.88905C20.9606 1.45689 20.9606 0.756256 20.5285 0.324105C20.0963 -0.108035 19.3957 -0.108035 18.9635 0.324105L14.2485 5.03914C13.5896 4.64975 12.8208 4.4263 12 4.4263C9.55538 4.4263 7.57366 6.40802 7.57366 8.8526C7.57366 9.67346 7.79711 10.4422 8.18651 11.1012L3.47147 15.8162C3.03933 16.2483 3.03933 16.949 3.47147 17.3811C3.90362 17.8132 4.60426 17.8132 5.03641 17.3811L9.75144 12.6661C10.4104 13.0555 11.1791 13.2789 12 13.2789C14.4445 13.2789 16.4263 11.2971 16.4263 8.8526C16.4263 8.03174 16.2028 7.26301 15.8134 6.60407L20.5285 1.88905ZM12.5732 6.71437C12.3904 6.66557 12.1983 6.63945 12 6.63945C10.7776 6.63945 9.78681 7.63028 9.78681 8.8526C9.78681 9.0509 9.81293 9.243 9.86173 9.42581L12.5732 6.71437ZM11.4268 10.9908L14.1382 8.2794C14.187 8.4622 14.2131 8.6543 14.2131 8.8526C14.2131 10.0749 13.2223 11.0658 12 11.0658C11.8017 11.0658 11.6096 11.0396 11.4268 10.9908ZM16.1663 0.908166C14.9088 0.354647 13.5132 0 12 0C8.8435 0 6.19838 1.54325 4.25186 3.21565C2.29827 4.89412 0.942589 6.79172 0.340944 7.71261C-0.113648 8.40831 -0.113648 9.29689 0.340944 9.9926C0.84874 10.7699 1.89368 12.2428 3.38189 13.6927L4.94694 12.1276C3.65141 10.8698 2.71739 9.57531 2.23999 8.8526C2.80477 7.99766 4.00863 6.34242 5.69411 4.89432C7.43426 3.39923 9.58292 2.21315 12 2.21315C12.8541 2.21315 13.6748 2.36127 14.4558 2.6188L16.1663 0.908166ZM12 15.4921C11.1459 15.4921 10.3253 15.3439 9.54429 15.0864L7.83366 16.797C9.09118 17.3505 10.4868 17.7052 12 17.7052C15.1565 17.7052 17.8016 16.162 19.7482 14.4896C21.7018 12.811 23.0574 10.9135 23.6591 9.9926C24.1136 9.29689 24.1136 8.40831 23.6591 7.71261C23.1513 6.93535 22.1063 5.46235 20.6181 4.01256L19.0531 5.57762C20.3486 6.83543 21.2827 8.1299 21.7601 8.8526C21.1953 9.70754 19.9914 11.3628 18.3059 12.8109C16.5658 14.306 14.4171 15.4921 12 15.4921Z" fill="#173E88"/>
</svg>
