<svg width="45" height="44" viewBox="0 0 45 44" fill="none" xmlns="http://www.w3.org/2000/svg">
<ellipse cx="22.0393" cy="22" rx="22.0393" ry="22" fill="white"/>
<g clip-path="url(#clip0_716_2444)">
<path d="M28.7037 22.8925C28.7037 22.8925 26.075 20.217 22.4525 20.217C18.9131 20.217 15.4143 22.8925 15.4143 22.8925L13.4491 22.0736V24.4759C13.7588 24.581 13.9855 24.8656 13.9855 25.2102C13.9855 25.5582 13.7542 25.8433 13.4399 25.9462L14.0209 27.5639H12.3059L12.8921 25.9325C12.6104 25.813 12.4135 25.5353 12.4135 25.2102C12.4135 24.8919 12.6047 24.621 12.8778 24.4976V21.8353L10.0195 20.6456L22.5957 15.0107L34.1339 20.7165L28.7037 22.8925ZM22.3094 21.5725C25.9536 21.5725 27.7397 23.4982 27.7397 23.4982V27.4925C27.7397 27.4925 25.8821 28.9902 22.0238 28.9902C18.1655 28.9902 16.8792 27.4925 16.8792 27.4925V23.4982C16.8792 23.4982 18.6652 21.5725 22.3094 21.5725ZM22.2379 28.1342C24.7635 28.1342 26.8112 27.6227 26.8112 26.993C26.8112 26.3633 24.7635 25.8519 22.2379 25.8519C19.7122 25.8519 17.6652 26.3633 17.6652 26.993C17.6652 27.6227 19.7122 28.1342 22.2379 28.1342Z" fill="black"/>
</g>
<defs>
<clipPath id="clip0_716_2444">
<rect width="24.0429" height="24" fill="white" transform="translate(10.0195 10)"/>
</clipPath>
</defs>
</svg>
