<svg width="24" height="24" viewBox="0 0 24 24" fill="none" xmlns="http://www.w3.org/2000/svg">
<path fill-rule="evenodd" clip-rule="evenodd" d="M2.0186 7.49624C2 8.22441 2 9.05307 2 10.0008V12.0008H10.0971C9.76426 11.8442 9.40022 11.7409 9.01534 11.7024L7 11.5008H6.99999C5.68663 11.3695 5.02995 11.3038 4.49718 11.0878C3.36574 10.6291 2.50574 9.67885 2.1619 8.50739C2.0787 8.22391 2.03826 7.91181 2.0186 7.49624ZM21.8742 5.77539L21.5 17.0008C20.5396 17.0008 19.6185 16.6193 18.9393 15.9402L17.8123 14.8132C17.4423 14.4431 17.2572 14.2581 17.0697 14.1393C16.4165 13.7259 15.5835 13.7259 14.9303 14.1393C14.7428 14.2581 14.5577 14.4431 14.1877 14.8132L13.4145 15.5863C12.8925 16.1083 12 15.7386 12 15.0004V22.0008H14C17.7712 22.0008 19.6569 22.0008 20.8284 20.8293C22 19.6577 22 17.7721 22 14.0008V10.0008C22 8.20826 22 6.84172 21.8742 5.77539Z" fill="#173E88"/>
<path d="M3 10C3 8.08611 3.00212 6.75129 3.13753 5.74416C3.26907 4.76579 3.50966 4.2477 3.87868 3.87868C4.2477 3.50966 4.76579 3.26907 5.74416 3.13753C6.75129 3.00212 8.08611 3 10 3H14C15.9139 3 17.2487 3.00212 18.2558 3.13753C19.2342 3.26907 19.7523 3.50966 20.1213 3.87868L20.8112 3.18882L20.1213 3.87868C20.4903 4.2477 20.7309 4.76579 20.8625 5.74416C20.9979 6.75129 21 8.08611 21 10V14C21 15.9139 20.9979 17.2487 20.8625 18.2558C20.7309 19.2342 20.4903 19.7523 20.1213 20.1213C19.7523 20.4903 19.2342 20.7309 18.2558 20.8625C17.2487 20.9979 15.9139 21 14 21H13V14C13 13.9818 13 13.9637 13 13.9456C13.0001 13.5215 13.0002 13.1094 12.9545 12.7695C12.903 12.3863 12.7774 11.949 12.4142 11.5858C12.051 11.2226 11.6137 11.097 11.2305 11.0455C10.8906 10.9998 10.4785 10.9999 10.0544 11C10.0363 11 10.0182 11 10 11H3V10Z" stroke="#173E88" stroke-width="2"/>
<circle cx="16" cy="8" r="2" fill="#173E88"/>
<path d="M8 16V15H9V16H8ZM3.62469 20.7809C3.19343 21.1259 2.56414 21.056 2.21913 20.6247C1.87412 20.1934 1.94404 19.5641 2.37531 19.2191L3.62469 20.7809ZM7 21V16H9V21H7ZM8 17H3V15H8V17ZM8.6247 16.7809L3.62469 20.7809L2.37531 19.2191L7.3753 15.2191L8.6247 16.7809Z" fill="#173E88"/>
</svg>
