<svg width="152" height="125" viewBox="0 0 152 125" fill="none" xmlns="http://www.w3.org/2000/svg">
<g clip-path="url(#clip0_449_43379)">
<path fill-rule="evenodd" clip-rule="evenodd" d="M9.93464 5.85547C4.44789 5.85547 0 10.3148 0 15.8156V105.804C0 109.93 3.33592 113.274 7.45098 113.274H51.8578C57.1957 113.274 61.4035 118.144 65.3809 121.714C67.49 123.607 70.2757 124.757 73.3291 124.757H123.499C126.865 124.757 129.906 123.359 132.074 121.109C135.445 117.61 139.248 113.274 144.1 113.274C148.215 113.274 151.551 109.93 151.551 105.804V24.6327C151.551 20.5071 148.215 17.1626 144.1 17.1626H109.66C109.453 17.1626 109.249 17.1711 109.047 17.1876H73.3291C71.2478 17.1876 69.2906 17.7224 67.5878 18.6623C67.3127 18.8142 66.9644 18.6206 66.9644 18.3057C66.9644 11.4296 61.405 5.85547 54.5461 5.85547H9.93464Z" fill="black"/>
<mask id="mask0_449_43379" style="mask-type:luminance" maskUnits="userSpaceOnUse" x="0" y="5" width="152" height="120">
<path fill-rule="evenodd" clip-rule="evenodd" d="M9.93464 5.85547C4.44789 5.85547 0 10.3148 0 15.8156V105.804C0 109.93 3.33592 113.274 7.45098 113.274H51.8578C57.1957 113.274 61.4035 118.144 65.3809 121.714C67.49 123.607 70.2757 124.757 73.3291 124.757H123.499C126.865 124.757 129.906 123.359 132.074 121.109C135.445 117.61 139.248 113.274 144.1 113.274C148.215 113.274 151.551 109.93 151.551 105.804V24.6327C151.551 20.5071 148.215 17.1626 144.1 17.1626H109.66C109.453 17.1626 109.249 17.1711 109.047 17.1876H73.3291C71.2478 17.1876 69.2906 17.7224 67.5878 18.6623C67.3127 18.8142 66.9644 18.6206 66.9644 18.3057C66.9644 11.4296 61.405 5.85547 54.5461 5.85547H9.93464Z" fill="white"/>
</mask>
<g mask="url(#mask0_449_43379)">
<path d="M109.047 17.1895V17.6875H109.067L109.087 17.6859L109.047 17.1895ZM0.496882 15.8175C0.496882 10.5917 4.72238 6.35539 9.93479 6.35539V5.35938C4.1737 5.35938 -0.496582 10.0416 -0.496582 15.8175H0.496882ZM0.496882 105.806V15.8175H-0.496582V105.806H0.496882ZM7.45113 112.778C3.6104 112.778 0.496882 109.657 0.496882 105.806H-0.496582C-0.496582 110.207 3.06173 113.774 7.45113 113.774V112.778ZM51.858 112.778H7.45113V113.774H51.858V112.778ZM73.3292 124.261C70.4025 124.261 67.734 123.159 65.7123 121.344L65.0497 122.087C67.2462 124.058 70.1487 125.257 73.3292 125.257V124.261ZM123.499 124.261H73.3292V125.257H123.499V124.261ZM131.717 120.764C129.639 122.921 126.725 124.261 123.499 124.261V125.257C127.006 125.257 130.174 123.799 132.431 121.457L131.717 120.764ZM151.055 105.806C151.055 109.656 147.941 112.778 144.101 112.778V113.774C148.49 113.774 152.048 110.207 152.048 105.806H151.055ZM151.055 24.6346V105.806H152.048V24.6346H151.055ZM144.101 17.6625C147.941 17.6625 151.055 20.784 151.055 24.6346H152.048C152.048 20.234 148.49 16.6665 144.101 16.6665V17.6625ZM109.66 17.6625H144.101V16.6665H109.66V17.6625ZM109.087 17.6859C109.276 17.6704 109.467 17.6625 109.66 17.6625V16.6665C109.44 16.6665 109.222 16.6755 109.006 16.6931L109.087 17.6859ZM73.3292 17.6875H109.047V16.6915H73.3292V17.6875ZM67.8274 19.1005C69.4592 18.2 71.3338 17.6875 73.3292 17.6875V16.6915C71.162 16.6915 69.1229 17.2485 67.3486 18.228L67.8274 19.1005ZM54.5463 6.35539C61.1305 6.35539 66.4679 11.7065 66.4679 18.3076H67.4613C67.4613 11.1565 61.6794 5.35938 54.5463 5.35938V6.35539ZM9.93479 6.35539H54.5463V5.35938H9.93479V6.35539ZM67.3486 18.228C67.3739 18.214 67.4012 18.2182 67.4176 18.2274C67.4261 18.2323 67.437 18.2411 67.4464 18.2562C67.4564 18.2728 67.4613 18.2918 67.4613 18.3076H66.4679C66.4679 19.0265 67.2438 19.4229 67.8274 19.1005L67.3486 18.228ZM132.431 121.457C134.132 119.692 135.893 117.769 137.834 116.276C139.77 114.788 141.829 113.774 144.101 113.774V112.778C141.521 112.778 139.251 113.932 137.23 115.486C135.214 117.036 133.388 119.031 131.717 120.764L132.431 121.457ZM51.858 113.774C54.3709 113.774 56.6519 114.92 58.8321 116.556C61.0267 118.203 63.024 120.268 65.0497 122.087L65.7123 121.344C63.7607 119.593 61.666 117.439 59.4272 115.758C57.1745 114.068 54.6829 112.778 51.858 112.778V113.774Z" fill="black"/>
</g>
<path fill-rule="evenodd" clip-rule="evenodd" d="M10.1217 0C4.6349 0 0.187012 4.45931 0.187012 9.96016V99.9487C0.187012 104.074 3.52293 107.419 7.63801 107.419H52.0449C57.3827 107.419 61.5906 112.289 65.5679 115.858C67.677 117.751 70.4627 118.902 73.5161 118.902H123.686C127.052 118.902 130.093 117.503 132.261 115.253C135.632 111.754 139.435 107.418 144.287 107.418C148.402 107.418 151.738 104.074 151.738 99.9482V18.7772C151.738 14.6516 148.402 11.3071 144.287 11.3071H109.847C109.64 11.3071 109.436 11.3156 109.234 11.3321H71.0324C69.1354 11.3321 67.0645 10.0284 66.4233 8.23855C64.7011 3.43513 60.1173 0 54.7332 0H10.1217Z" fill="#8DD1FF"/>
<mask id="mask1_449_43379" style="mask-type:luminance" maskUnits="userSpaceOnUse" x="0" y="-1" width="152" height="119">
<path fill-rule="evenodd" clip-rule="evenodd" d="M10.1217 -1C4.6349 -1 0.187012 3.45931 0.187012 8.96016V98.9487C0.187012 103.074 3.52293 106.419 7.63801 106.419H52.0449C57.3827 106.419 61.5906 111.289 65.5679 114.858C67.677 116.751 70.4627 117.902 73.5161 117.902H123.686C127.052 117.902 130.093 116.503 132.261 114.253C135.632 110.754 139.435 106.418 144.287 106.418C148.402 106.418 151.738 103.074 151.738 98.9482V17.7772C151.738 13.6516 148.402 10.3071 144.287 10.3071H109.847C109.64 10.3071 109.436 10.3156 109.234 10.3321H71.0324C69.1354 10.3321 67.0645 9.02844 66.4233 7.23855C64.7011 2.43513 60.1173 -1 54.7332 -1H10.1217Z" fill="white"/>
</mask>
<g mask="url(#mask1_449_43379)">
<path d="M109.234 11.334V11.832H109.254L109.274 11.8304L109.234 11.334ZM0.683892 9.96207C0.683892 4.73627 4.90939 0.499922 10.1218 0.499922V-0.496094C4.36071 -0.496094 -0.30957 4.18618 -0.30957 9.96207H0.683892ZM0.683892 99.9506V9.96207H-0.30957V99.9506H0.683892ZM7.63817 106.923C3.79742 106.923 0.683892 103.801 0.683892 99.9506H-0.30957C-0.30957 104.351 3.24874 107.919 7.63817 107.919V106.923ZM52.045 106.923H7.63817V107.919H52.045V106.923ZM73.5163 118.406C70.5895 118.406 67.9211 117.303 65.8994 115.489L65.2367 116.231C67.4333 118.203 70.3357 119.402 73.5163 119.402V118.406ZM123.686 118.406H73.5163V119.402H123.686V118.406ZM131.904 114.909C129.826 117.066 126.912 118.406 123.686 118.406V119.402C127.193 119.402 130.361 117.944 132.618 115.601L131.904 114.909ZM151.242 99.9501C151.242 103.801 148.128 106.922 144.288 106.922V107.918C148.677 107.918 152.235 104.351 152.235 99.9501H151.242ZM151.242 18.7792V99.9501H152.235V18.7792H151.242ZM144.288 11.807C148.128 11.807 151.242 14.9286 151.242 18.7792H152.235C152.235 14.3785 148.677 10.811 144.288 10.811V11.807ZM109.847 11.807H144.288V10.811H109.847V11.807ZM109.274 11.8304C109.463 11.815 109.654 11.807 109.847 11.807V10.811C109.627 10.811 109.409 10.82 109.193 10.8377L109.274 11.8304ZM71.0326 11.832H109.234V10.836H71.0326V11.832ZM54.7333 0.499922C59.9013 0.499922 64.3024 3.79692 65.956 8.40894L66.8908 8.07203C65.1001 3.07717 60.3335 -0.496094 54.7333 -0.496094V0.499922ZM10.1218 0.499922H54.7333V-0.496094H10.1218V0.499922ZM71.0326 10.836C69.3189 10.836 67.4531 9.64036 66.8908 8.07203L65.956 8.40894C66.6768 10.4203 68.9523 11.832 71.0326 11.832V10.836ZM132.618 115.601C134.319 113.837 136.08 111.914 138.021 110.421C139.957 108.933 142.016 107.918 144.288 107.918V106.922C141.708 106.922 139.438 108.077 137.417 109.63C135.401 111.181 133.575 113.175 131.904 114.909L132.618 115.601ZM52.045 107.919C54.558 107.919 56.839 109.064 59.0191 110.701C61.2137 112.348 63.2111 114.413 65.2367 116.231L65.8994 115.489C63.9477 113.737 61.8525 111.583 59.6142 109.903C57.3615 108.212 54.8699 106.923 52.045 106.923V107.919Z" fill="black"/>
</g>
</g>
<defs>
<clipPath id="clip0_449_43379">
<rect width="152" height="125" fill="white"/>
</clipPath>
</defs>
</svg>
