<svg width="234" height="242" viewBox="0 0 234 242" fill="none" xmlns="http://www.w3.org/2000/svg">
<path d="M199.679 126.485C154.155 100.203 80.5877 100.203 35.3607 126.486C-9.8699 152.771 -9.62982 195.384 35.8934 221.667C81.4197 247.952 154.987 247.952 200.217 221.666C245.445 195.383 245.205 152.77 199.679 126.485Z" fill="#F5F5F5"/>
<path d="M168.828 192.245C180.6 199.042 180.662 210.06 168.967 216.856C157.272 223.652 138.25 223.652 126.478 216.856C114.707 210.06 114.645 199.041 126.341 192.245C138.035 185.45 157.057 185.45 168.828 192.245Z" fill="#E6E6E6"/>
<path d="M178.348 174.309C187.085 179.354 201.204 179.354 209.884 174.309C214.224 171.787 216.383 168.482 216.364 165.176C216.345 161.871 214.15 158.565 209.781 156.043C201.044 150.998 186.926 150.999 178.246 156.043C173.906 158.565 171.747 161.871 171.766 165.176C171.784 168.482 173.98 171.787 178.348 174.309Z" fill="#E6E6E6"/>
<path d="M13.8034 184.006C18.8924 186.944 27.1165 186.944 32.1728 184.006C34.7004 182.537 35.958 180.611 35.9471 178.686C35.9362 176.761 34.6573 174.835 32.1125 173.366C27.0235 170.428 18.7994 170.428 13.7436 173.366C11.2155 174.835 9.95791 176.761 9.96882 178.686C9.97973 180.611 11.2586 182.537 13.8034 184.006Z" fill="#E6E6E6"/>
<path d="M32.7498 195.263L35.6874 196.979C36.3484 197.365 37.1653 197.369 37.83 196.99L118.149 151.153C118.507 150.949 118.51 150.433 118.154 150.225L115.216 148.509C114.555 148.123 113.738 148.119 113.074 148.498L32.7545 194.335C32.3964 194.54 32.3938 195.055 32.7498 195.263Z" fill="#E6E6E6"/>
<path d="M136.934 4.6376L138.74 3.58789L138.634 57.6413L136.828 58.691L136.934 4.6376Z" fill="#F0F0F0"/>
<path d="M136.828 58.6903L138.634 57.6406L159.428 69.5767L157.622 70.6264L136.828 58.6903Z" fill="#F5F5F5"/>
<path d="M134.862 1.05078L159.812 15.3861L159.692 74.2152L134.742 59.8798L134.862 1.05078ZM157.621 70.628L157.727 16.574L136.933 4.63799L136.827 58.6914L157.621 70.628Z" fill="#E0E0E0"/>
<path d="M134.859 1.04971L136.666 0L161.615 14.3358L159.809 15.3856L134.859 1.04971Z" fill="#F5F5F5"/>
<path d="M159.814 15.3856L161.621 14.3359L161.501 73.165L159.695 74.2147L159.814 15.3856Z" fill="#F0F0F0"/>
<path d="M136.828 24.7001L138.634 23.6504L157.724 34.6308V36.7193L136.828 24.7001Z" fill="#F5F5F5"/>
<path d="M136.832 24.6992L157.728 36.7184V39.1037L136.828 27.0959L136.832 24.6992Z" fill="#E0E0E0"/>
<path d="M168.746 22.9364L170.552 21.8867L170.446 75.9406L168.641 76.9903L168.746 22.9364Z" fill="#F0F0F0"/>
<path d="M168.641 76.9911L170.446 75.9414L191.24 87.8775L189.434 88.9267L168.641 76.9911Z" fill="#F5F5F5"/>
<path d="M166.674 19.3477L191.624 33.683L191.505 92.512L166.555 78.1767L166.674 19.3477ZM189.433 88.9248L189.539 34.8714L168.746 22.9354L168.64 76.9888L189.433 88.9248Z" fill="#E0E0E0"/>
<path d="M166.672 19.3485L168.478 18.2988L193.428 32.6347L191.621 33.6844L166.672 19.3485Z" fill="#F5F5F5"/>
<path d="M191.62 33.6845L193.426 32.6348L193.306 91.4638L191.5 92.5135L191.62 33.6845Z" fill="#F0F0F0"/>
<path d="M168.641 43.0009L170.447 41.9512L189.536 52.9311V55.0196L168.641 43.0009Z" fill="#F5F5F5"/>
<path d="M168.644 43L189.54 55.0187V57.4039L168.641 45.3961L168.644 43Z" fill="#E0E0E0"/>
<path d="M200.551 41.2372L202.358 40.1875L202.252 94.2409L200.445 95.2906L200.551 41.2372Z" fill="#F0F0F0"/>
<path d="M200.445 95.2899L202.252 94.2402L223.045 106.176L221.239 107.226L200.445 95.2899Z" fill="#F5F5F5"/>
<path d="M198.479 37.6484L223.429 51.9838L223.309 110.813L198.359 96.4775L198.479 37.6484ZM221.238 107.226L221.344 53.1722L200.551 41.2362L200.445 95.2896L221.238 107.226Z" fill="#E0E0E0"/>
<path d="M198.477 37.6493L200.283 36.5996L225.233 50.9349L223.426 51.9846L198.477 37.6493Z" fill="#F5F5F5"/>
<path d="M223.432 51.9853L225.238 50.9355L225.119 109.765L223.312 110.815L223.432 51.9853Z" fill="#F0F0F0"/>
<path d="M200.445 61.2997L202.252 60.25L221.341 71.2299V73.3184L200.445 61.2997Z" fill="#F5F5F5"/>
<path d="M200.449 61.3008L221.345 73.3195V75.7052L200.445 63.6974L200.449 61.3008Z" fill="#E0E0E0"/>
<path d="M32.276 161.504L22.4129 161.791L12.5497 161.504C12.1247 168.164 13.4254 174.953 15.2182 178.268L15.225 178.267C15.5461 178.995 16.1915 179.685 17.1773 180.254C20.0874 181.934 24.7908 181.934 27.6822 180.254C28.6846 179.671 29.3295 178.962 29.6335 178.216C31.4123 174.882 32.6985 168.132 32.276 161.504Z" fill="white"/>
<path d="M29.3613 157.464C33.226 159.695 33.2463 163.312 29.407 165.543C25.5678 167.775 19.323 167.775 15.4583 165.543C11.5941 163.312 11.5739 159.695 15.4131 157.464C19.2524 155.233 25.4966 155.233 29.3613 157.464Z" fill="#EBEBEB"/>
<path d="M27.8365 158.353C30.8515 160.093 30.8671 162.915 27.8723 164.656C24.877 166.397 20.0047 166.397 16.9902 164.656C13.9756 162.915 13.9595 160.093 16.9548 158.353C19.9496 156.612 24.8219 156.612 27.8365 158.353Z" fill="#E0E0E0"/>
<g opacity="0.15">
<path d="M27.8365 158.353C30.8515 160.093 30.8671 162.915 27.8723 164.656C24.877 166.397 20.0047 166.397 16.9902 164.656C13.9756 162.915 13.9595 160.093 16.9548 158.353C19.9496 156.612 24.8219 156.612 27.8365 158.353Z" fill="black"/>
</g>
<path d="M38.6304 119.416C16.4035 126.694 16.2024 141.563 21.213 152.152C22.4768 154.296 26.301 155.447 29.6299 142.278L23.7921 143.026L30.5954 139.578L32.3628 134.295L26.6902 134.717L33.8906 131.688C36.5429 123.664 38.6304 119.416 38.6304 119.416Z" fill="#2969B1"/>
<path opacity="0.2" d="M38.6304 119.416C16.4035 126.694 16.2024 141.563 21.213 152.152C22.4768 154.296 26.301 155.447 29.6299 142.278L23.7921 143.026L30.5954 139.578L32.3628 134.295L26.6902 134.717L33.8906 131.688C36.5429 123.664 38.6304 119.416 38.6304 119.416Z" fill="black"/>
<path d="M32.3427 123.135C20.6213 132.031 19.5632 142.23 22.8745 152.878C21.7032 143.502 20.4373 134.022 32.3427 123.135Z" fill="white"/>
<path d="M0.984375 134.521C22.8937 137.606 25.5518 151.421 22.6448 162.115C21.8243 164.322 18.4538 166.029 13.1652 154.317L18.7266 154.045L11.8177 151.963L9.29425 147.337L14.6473 146.787L7.43802 145.163C3.63412 138.131 0.984375 134.521 0.984375 134.521Z" fill="#2969B1"/>
<path opacity="0.2" d="M0.984375 134.521C22.8937 137.606 25.5518 151.421 22.6448 162.115C21.8243 164.322 18.4538 166.029 13.1652 154.317L18.7266 154.045L11.8177 151.963L9.29425 147.337L14.6473 146.787L7.43802 145.163C3.63412 138.131 0.984375 134.521 0.984375 134.521Z" fill="white"/>
<path d="M7.45312 136.939C19.8475 143.277 22.5274 152.6 21.2127 163.066C20.746 154.14 20.35 145.101 7.45312 136.939Z" fill="white"/>
<path d="M45.0448 139.697C24.9522 140.026 21.0106 152.18 22.4339 162.144C22.9266 164.224 25.7738 166.141 31.8507 156.176L26.8687 155.308L33.3291 154.206L36.1212 150.319L31.358 149.224L38.0372 148.567C42.2527 142.654 45.0448 139.697 45.0448 139.697Z" fill="#2969B1"/>
<path d="M38.943 141.152C27.0626 145.477 23.6037 153.58 23.6172 163.161C25.0369 155.168 26.4057 147.065 38.943 141.152Z" fill="white"/>
<path d="M192.625 145.617C192.768 161.144 192.933 176.094 192.933 176.094C192.934 176.262 193.045 176.429 193.267 176.557C193.71 176.813 194.426 176.813 194.866 176.557C195.086 176.429 195.195 176.262 195.194 176.094C195.194 176.094 195.359 161.148 195.502 145.623C194.544 145.657 193.583 145.655 192.625 145.617Z" fill="#E0E0E0"/>
<path d="M173.758 164.892C173.759 165.06 173.87 165.227 174.091 165.355C174.534 165.611 175.25 165.611 175.69 165.355C175.91 165.227 176.02 165.059 176.019 164.892C176.019 164.892 176.739 154.213 177.772 141.517C176.735 140.873 175.833 140.183 175.065 139.459C174.231 153.043 173.758 164.892 173.758 164.892Z" fill="#E0E0E0"/>
<path d="M212.108 164.892C212.107 165.06 212.217 165.227 212.436 165.355C212.877 165.611 213.593 165.611 214.035 165.355C214.257 165.227 214.369 165.059 214.369 164.892C214.369 164.892 213.898 153.082 213.066 139.525C212.298 140.247 211.396 140.934 210.359 141.574C211.39 154.245 212.108 164.892 212.108 164.892Z" fill="#E0E0E0"/>
<path opacity="0.1" d="M192.625 145.617C192.768 161.144 192.933 176.094 192.933 176.094C192.934 176.262 193.045 176.429 193.267 176.557C193.71 176.813 194.426 176.813 194.866 176.557C195.086 176.429 195.195 176.262 195.194 176.094C195.194 176.094 195.359 161.148 195.502 145.623C194.544 145.657 193.583 145.655 192.625 145.617Z" fill="black"/>
<path opacity="0.1" d="M173.758 164.892C173.759 165.06 173.87 165.227 174.091 165.355C174.534 165.611 175.25 165.611 175.69 165.355C175.91 165.227 176.02 165.059 176.019 164.892C176.019 164.892 176.739 154.213 177.772 141.517C176.735 140.873 175.833 140.183 175.065 139.459C174.231 153.043 173.758 164.892 173.758 164.892Z" fill="black"/>
<path opacity="0.1" d="M212.108 164.892C212.107 165.06 212.217 165.227 212.436 165.355C212.877 165.611 213.593 165.611 214.035 165.355C214.257 165.227 214.369 165.059 214.369 164.892C214.369 164.892 213.898 153.082 213.066 139.525C212.298 140.247 211.396 140.934 210.359 141.574C211.39 154.245 212.108 164.892 212.108 164.892Z" fill="black"/>
<path d="M216.364 130.221C216.383 133.527 214.224 136.832 209.884 139.354C201.204 144.399 187.085 144.399 178.348 139.354C173.98 136.832 171.784 133.527 171.766 130.221V132.732C171.779 135.067 172.883 137.4 175.067 139.459C175.835 140.183 176.737 140.873 177.773 141.517C177.962 141.634 178.15 141.751 178.348 141.865C182.33 144.165 187.431 145.412 192.626 145.615C193.584 145.653 194.545 145.655 195.503 145.621C200.745 145.436 205.89 144.186 209.884 141.865C210.048 141.77 210.203 141.671 210.361 141.574C211.397 140.933 212.3 140.247 213.067 139.525C215.275 137.45 216.377 135.092 216.364 132.732V130.221Z" fill="#E0E0E0"/>
<path opacity="0.1" d="M216.364 130.221C216.383 133.527 214.224 136.832 209.884 139.354C201.204 144.399 187.085 144.399 178.348 139.354C173.98 136.832 171.784 133.527 171.766 130.221V132.732C171.779 135.067 172.883 137.4 175.067 139.459C175.835 140.183 176.737 140.873 177.773 141.517C177.962 141.634 178.15 141.751 178.348 141.865C182.33 144.165 187.431 145.412 192.626 145.615C193.584 145.653 194.545 145.655 195.503 145.621C200.745 145.436 205.89 144.186 209.884 141.865C210.048 141.77 210.203 141.671 210.361 141.574C211.397 140.933 212.3 140.247 213.067 139.525C215.275 137.45 216.377 135.092 216.364 132.732V130.221Z" fill="black"/>
<path d="M178.348 139.354C187.085 144.399 201.204 144.399 209.884 139.354C214.224 136.832 216.383 133.527 216.364 130.221C216.345 126.916 214.15 123.61 209.781 121.088C201.044 116.043 186.926 116.044 178.246 121.088C173.906 123.61 171.747 126.916 171.766 130.221C171.784 133.527 173.98 136.832 178.348 139.354Z" fill="#E0E0E0"/>
<g opacity="0.3">
<path d="M192.625 145.617C192.634 146.656 192.644 147.692 192.654 148.722C193.593 148.757 194.535 148.76 195.473 148.728C195.483 147.698 195.492 146.662 195.502 145.623C194.544 145.657 193.583 145.655 192.625 145.617Z" fill="black"/>
<path d="M175.067 139.459C175.007 140.45 174.948 141.431 174.891 142.399C175.638 143.128 176.521 143.824 177.536 144.474C177.614 143.503 177.693 142.517 177.774 141.517C176.738 140.873 175.836 140.183 175.067 139.459Z" fill="black"/>
<path d="M213.066 139.525C212.298 140.247 211.396 140.934 210.359 141.574C210.441 142.575 210.52 143.561 210.597 144.532C211.614 143.885 212.495 143.192 213.242 142.465C213.185 141.496 213.127 140.516 213.066 139.525Z" fill="black"/>
</g>
<g opacity="0.5">
<path d="M192.625 145.617C192.768 161.144 192.933 176.094 192.933 176.094C192.934 176.262 193.045 176.429 193.267 176.557C193.71 176.813 194.426 176.813 194.866 176.557C195.086 176.429 195.195 176.262 195.194 176.094C195.194 176.094 195.359 161.148 195.502 145.623C194.544 145.657 193.583 145.655 192.625 145.617Z" fill="#E0E0E0"/>
<path d="M173.758 164.892C173.759 165.06 173.87 165.227 174.091 165.355C174.534 165.611 175.25 165.611 175.69 165.355C175.91 165.227 176.02 165.059 176.019 164.892C176.019 164.892 176.739 154.213 177.772 141.517C176.735 140.873 175.833 140.183 175.065 139.459C174.231 153.043 173.758 164.892 173.758 164.892Z" fill="#E0E0E0"/>
<path d="M212.108 164.892C212.107 165.06 212.217 165.227 212.436 165.355C212.877 165.611 213.593 165.611 214.035 165.355C214.257 165.227 214.369 165.059 214.369 164.892C214.369 164.892 213.898 153.082 213.066 139.525C212.298 140.247 211.396 140.934 210.359 141.574C211.39 154.245 212.108 164.892 212.108 164.892Z" fill="#E0E0E0"/>
<path d="M216.364 130.221C216.383 133.527 214.224 136.832 209.884 139.354C201.204 144.399 187.085 144.399 178.348 139.354C173.98 136.832 171.784 133.527 171.766 130.221V132.732C171.779 135.067 172.883 137.4 175.067 139.459C175.835 140.183 176.737 140.873 177.773 141.517C177.962 141.634 178.15 141.751 178.348 141.865C182.33 144.165 187.431 145.412 192.626 145.615C193.584 145.653 194.545 145.655 195.503 145.621C200.745 145.436 205.89 144.186 209.884 141.865C210.048 141.77 210.203 141.671 210.361 141.574C211.397 140.933 212.3 140.247 213.067 139.525C215.275 137.45 216.377 135.092 216.364 132.732V130.221Z" fill="white"/>
<path d="M178.348 139.354C187.085 144.399 201.204 144.399 209.884 139.354C214.224 136.832 216.383 133.527 216.364 130.221C216.345 126.916 214.15 123.61 209.781 121.088C201.044 116.043 186.926 116.044 178.246 121.088C173.906 123.61 171.747 126.916 171.766 130.221C171.784 133.527 173.98 136.832 178.348 139.354Z" fill="white"/>
</g>
<path d="M201.538 116.445L194.022 116.664L186.507 116.445C186.183 121.52 187.174 126.693 188.54 129.219L188.546 129.219C188.79 129.773 189.282 130.298 190.033 130.732C192.251 132.013 195.834 132.013 198.038 130.732C198.802 130.289 199.293 129.748 199.524 129.179C200.88 126.639 201.86 121.495 201.538 116.445Z" fill="white"/>
<path d="M199.32 113.367C202.264 115.066 202.28 117.823 199.355 119.523C196.429 121.223 191.671 121.223 188.726 119.523C185.782 117.823 185.766 115.067 188.692 113.367C191.618 111.667 196.376 111.667 199.32 113.367Z" fill="#EBEBEB"/>
<path d="M198.152 114.043C200.45 115.37 200.462 117.52 198.179 118.847C195.897 120.173 192.185 120.173 189.887 118.847C187.59 117.52 187.578 115.37 189.86 114.044C192.143 112.717 195.855 112.717 198.152 114.043Z" fill="#E0E0E0"/>
<g opacity="0.15">
<path d="M198.152 114.043C200.45 115.37 200.462 117.52 198.179 118.847C195.897 120.173 192.185 120.173 189.887 118.847C187.59 117.52 187.578 115.37 189.86 114.044C192.143 112.717 195.855 112.717 198.152 114.043Z" fill="black"/>
</g>
<path d="M193.398 116.658C194.66 117.692 196.35 118.076 197.806 117.66C199.259 117.247 200.442 116.049 200.896 114.537C199.977 114.137 199.253 113.549 198.483 112.862C199.557 112.579 200.804 112.623 201.898 112.983C202.49 112.08 202.642 110.779 202.156 109.726C200.86 109.157 199.372 109.051 198.082 109.444C199.224 108.455 200.675 107.996 202.201 108.145C202.352 104.452 201.212 101.816 201.212 101.816C198.41 101.962 195.693 103.17 194.777 104.038C194.621 105.159 195.087 107.015 195.087 107.015C193.807 106.305 193.785 105.09 193.785 105.09C192.032 105.529 191.282 106.404 191.008 107.072C191.137 108.17 192.151 110.005 192.668 110.434C191.021 109.937 190.354 108.103 190.354 108.103C188.735 111.94 189.044 116.284 193.398 116.658Z" fill="#2969B1"/>
<path opacity="0.2" d="M193.398 116.658C194.66 117.692 196.35 118.076 197.806 117.66C199.259 117.247 200.442 116.049 200.896 114.537C199.977 114.137 199.253 113.549 198.483 112.862C199.557 112.579 200.804 112.623 201.898 112.983C202.49 112.08 202.642 110.779 202.156 109.726C200.86 109.157 199.372 109.051 198.082 109.444C199.224 108.455 200.675 107.996 202.201 108.145C202.352 104.452 201.212 101.816 201.212 101.816C198.41 101.962 195.693 103.17 194.777 104.038C194.621 105.159 195.087 107.015 195.087 107.015C193.807 106.305 193.785 105.09 193.785 105.09C192.032 105.529 191.282 106.404 191.008 107.072C191.137 108.17 192.151 110.005 192.668 110.434C191.021 109.937 190.354 108.103 190.354 108.103C188.735 111.94 189.044 116.284 193.398 116.658Z" fill="black"/>
<path opacity="0.3" d="M193.398 116.658C194.66 117.692 196.35 118.076 197.806 117.66C199.259 117.247 200.442 116.049 200.896 114.537C199.977 114.137 199.253 113.549 198.483 112.862C199.557 112.579 200.804 112.623 201.898 112.983C202.49 112.08 202.642 110.779 202.156 109.726C200.86 109.157 199.372 109.051 198.082 109.444C199.224 108.455 200.675 107.996 202.201 108.145C202.352 104.452 201.212 101.816 201.212 101.816C198.41 101.962 195.693 103.17 194.777 104.038C194.621 105.159 195.087 107.015 195.087 107.015C193.807 106.305 193.785 105.09 193.785 105.09C192.032 105.529 191.282 106.404 191.008 107.072C191.137 108.17 192.151 110.005 192.668 110.434C191.021 109.937 190.354 108.103 190.354 108.103C188.735 111.94 189.044 116.284 193.398 116.658Z" fill="white"/>
<path d="M193.303 117.073C193.299 117.073 193.294 117.073 193.29 117.073C193.201 117.066 193.134 116.989 193.141 116.899C193.409 113.361 195.433 107.519 200.26 102.702C200.323 102.639 200.426 102.638 200.489 102.702C200.552 102.766 200.552 102.868 200.489 102.931C195.725 107.686 193.727 113.441 193.464 116.924C193.458 117.009 193.386 117.073 193.303 117.073Z" fill="#F5F5F5"/>
<path d="M194.621 118.552C193.502 119.465 191.939 119.804 190.542 119.437C189.145 119.069 187.951 118.005 187.425 116.66C188.27 116.307 188.918 115.786 189.603 115.178C188.57 114.922 187.392 114.957 186.375 115.274C185.755 114.467 185.528 113.306 185.923 112.368C187.118 111.868 188.524 111.783 189.769 112.141C188.626 111.253 187.221 110.834 185.779 110.957C185.4 107.654 186.318 105.307 186.318 105.307C188.989 105.469 191.633 106.575 192.55 107.357C192.766 108.355 192.442 110.001 192.442 110.001C193.602 109.381 193.548 108.301 193.548 108.301C195.221 108.706 195.976 109.488 196.273 110.082C196.219 111.053 195.383 112.672 194.924 113.05C196.435 112.618 196.948 110.999 196.948 110.999C198.689 114.399 198.662 118.226 194.621 118.552Z" fill="#2969B1"/>
<path opacity="0.3" d="M194.621 118.552C193.502 119.465 191.939 119.804 190.542 119.437C189.145 119.069 187.951 118.005 187.425 116.66C188.27 116.307 188.918 115.786 189.603 115.178C188.57 114.922 187.392 114.957 186.375 115.274C185.755 114.467 185.528 113.306 185.923 112.368C187.118 111.868 188.524 111.783 189.769 112.141C188.626 111.253 187.221 110.834 185.779 110.957C185.4 107.654 186.318 105.307 186.318 105.307C188.989 105.469 191.633 106.575 192.55 107.357C192.766 108.355 192.442 110.001 192.442 110.001C193.602 109.381 193.548 108.301 193.548 108.301C195.221 108.706 195.976 109.488 196.273 110.082C196.219 111.053 195.383 112.672 194.924 113.05C196.435 112.618 196.948 110.999 196.948 110.999C198.689 114.399 198.662 118.226 194.621 118.552Z" fill="white"/>
<path d="M194.732 118.938C194.653 118.938 194.584 118.88 194.572 118.8C194.113 115.719 191.874 110.605 187.077 106.332C187.011 106.272 187.005 106.17 187.064 106.103C187.124 106.036 187.225 106.031 187.293 106.09C192.154 110.421 194.425 115.618 194.893 118.752C194.905 118.841 194.845 118.923 194.756 118.936C194.748 118.937 194.74 118.938 194.732 118.938Z" fill="white"/>
<path d="M118.692 11.6617L118.696 11.6575C118.562 11.1846 118.42 10.7632 118.196 10.4083C117.702 9.62772 116.807 9.17198 114.707 9.21356C114.596 9.21252 114.047 9.26864 113.849 9.38141L34.9326 54.2665C33.9234 54.8407 33.1444 55.7028 32.6513 56.7109C32.2771 57.4753 32.0625 58.3208 32.0625 59.2011V187.59C32.0625 189.881 33.4074 190.745 34.9014 190.842C35.5406 190.883 36.2068 190.787 36.807 190.597C36.8163 190.594 36.8221 190.585 36.8309 190.58C36.9073 190.553 36.9842 190.531 37.0585 190.488L115.977 145.548C117.75 144.538 118.844 142.655 118.844 140.615V12.2806C118.844 12.0519 118.783 11.8467 118.692 11.6617Z" fill="#2969B1"/>
<path opacity="0.2" d="M118.692 11.6617L118.696 11.6575C118.562 11.1846 118.42 10.7632 118.196 10.4083C117.702 9.62772 116.807 9.17198 114.707 9.21356C114.596 9.21252 114.047 9.26864 113.849 9.38141L34.9326 54.2665C33.9234 54.8407 33.1444 55.7028 32.6513 56.7109C32.2771 57.4753 32.0625 58.3208 32.0625 59.2011V187.59C32.0625 189.881 33.4074 190.745 34.9014 190.842C35.5406 190.883 36.2068 190.787 36.807 190.597C36.8163 190.594 36.8221 190.585 36.8309 190.58C36.9073 190.553 36.9842 190.531 37.0585 190.488L115.977 145.548C117.75 144.538 118.844 142.655 118.844 140.615V12.2806C118.844 12.0519 118.783 11.8467 118.692 11.6617Z" fill="black"/>
<path opacity="0.2" d="M32.6513 56.7119C32.2771 57.4763 32.0625 58.3218 32.0625 59.2021V187.591C32.0625 189.882 33.4074 190.746 34.9014 190.843C34.546 190.34 34.3246 189.657 34.3246 188.739V60.35C34.3246 59.4697 34.5387 58.6243 34.9134 57.8598C34.9767 57.7299 35.0583 57.6099 35.1316 57.4852L32.9386 56.2188C32.8383 56.3804 32.7349 56.5409 32.6513 56.7119Z" fill="black"/>
<path opacity="0.2" d="M114.706 9.21356C114.596 9.21252 114.046 9.26864 113.848 9.38141L34.932 54.2665C34.0943 54.743 33.4265 55.4248 32.9375 56.2173L35.1305 57.4837C35.6236 56.6403 36.3148 55.9143 37.194 55.4144L116.11 10.5293C116.309 10.4166 116.858 10.3604 116.968 10.3615C117.436 10.3521 117.838 10.3703 118.195 10.4088C117.701 9.62773 116.807 9.17198 114.706 9.21356Z" fill="white"/>
<path d="M115.242 15.6719L38.0781 60.2061V181.272L115.242 136.737V15.6719Z" fill="#455A64"/>
<path d="M80.6269 158.757C79.2036 159.579 77.9029 161.458 77.7111 162.956C77.5199 164.455 78.5099 165.012 79.9332 164.19C81.3498 163.372 82.6573 161.489 82.849 159.991C83.0402 158.492 82.0441 157.939 80.6269 158.757Z" fill="#2969B1"/>
<g opacity="0.4">
<path d="M80.6269 158.757C79.2036 159.579 77.9029 161.458 77.7111 162.956C77.5199 164.455 78.5099 165.012 79.9332 164.19C81.3498 163.372 82.6573 161.489 82.849 159.991C83.0402 158.492 82.0441 157.939 80.6269 158.757Z" fill="black"/>
</g>
<path d="M122.652 9.3304V5.40073C122.652 5.19963 122.599 5.01878 122.519 4.85561L122.523 4.85197C122.404 4.43573 122.279 4.06417 122.082 3.75186C121.647 3.06435 120.859 2.66317 119.009 2.69954C118.912 2.69903 118.428 2.74787 118.253 2.84765L48.7469 42.3807C47.8583 42.8864 47.1718 43.6461 46.7374 44.5337C46.4079 45.2072 46.2188 45.9518 46.2188 46.7272V51.2279L48.2111 52.3759L122.652 9.3304Z" fill="#2969B1"/>
<path d="M48.2111 52.376L46.2188 51.2281V163.737C46.2188 165.754 47.4036 166.516 48.7194 166.601C49.2821 166.637 49.8688 166.552 50.3979 166.385C50.4062 166.383 50.4108 166.374 50.4192 166.371C50.4862 166.346 50.5543 166.327 50.6192 166.29L120.128 126.708C121.689 125.818 122.653 124.16 122.653 122.363V9.33008L48.2111 52.376Z" fill="#2969B1"/>
<path opacity="0.2" d="M46.7369 44.534C46.4074 45.2075 46.2188 45.9522 46.2188 46.7275V163.737C46.2188 165.754 47.4036 166.516 48.7188 166.601C48.406 166.158 48.2111 165.557 48.2111 164.748V47.7383C48.2111 46.9629 48.3998 46.2183 48.7297 45.5448C48.7859 45.4305 48.8576 45.3244 48.922 45.2148L46.9904 44.0996C46.9016 44.2425 46.8106 44.3833 46.7369 44.534Z" fill="black"/>
<path opacity="0.2" d="M119.01 2.7015C118.913 2.70098 118.429 2.75035 118.255 2.8496L48.7486 42.3822C48.0107 42.802 47.4225 43.4028 46.9922 44.1007L48.9238 45.2159C49.3582 44.4733 49.9667 43.8336 50.741 43.3929L120.247 3.86034C120.422 3.76108 120.905 3.7112 121.003 3.71223C121.415 3.70392 121.769 3.72003 122.083 3.75381C121.649 3.0663 120.861 2.66512 119.01 2.7015Z" fill="white"/>
<path opacity="0.05" d="M122.652 9.3304V5.40073C122.652 5.19963 122.599 5.01878 122.519 4.85561L122.523 4.85197C122.404 4.43573 122.279 4.06417 122.082 3.75186C121.647 3.06435 120.859 2.66317 119.009 2.69954C118.912 2.69903 118.428 2.74787 118.253 2.84765L48.7469 42.3807C47.8583 42.8864 47.1718 43.6461 46.7374 44.5337C46.4079 45.2072 46.2188 45.9518 46.2188 46.7272V51.2279L48.2111 52.3759L122.652 9.3304Z" fill="white"/>
<path opacity="0.3" d="M48.2111 52.376L46.2188 51.2281V163.737C46.2188 165.754 47.4036 166.516 48.7194 166.601C49.2821 166.637 49.8688 166.552 50.3979 166.385C50.4062 166.383 50.4108 166.374 50.4192 166.371C50.4862 166.346 50.5543 166.327 50.6192 166.29L120.128 126.708C121.689 125.818 122.653 124.16 122.653 122.363V9.33008L48.2111 52.376Z" fill="white"/>
<path d="M84.6164 50.3672L54.0547 68.0018V119.024L84.6164 101.389V50.3672Z" fill="white"/>
<path d="M55.75 68.9822L82.9178 53.3066V100.41L55.75 116.086V68.9822Z" fill="#455A64"/>
<path opacity="0.3" d="M55.75 68.9822L82.9178 53.3066V100.41L55.75 116.086V68.9822Z" fill="white"/>
<path d="M82.9178 100.446L55.75 116.122V98.1025L63.6519 91.8941L73.8383 88.0273L76.3581 87.397C78.6202 86.8311 81.0169 87.2821 82.9183 88.6322L82.9178 100.446Z" fill="#E0E0E0"/>
<path d="M67.2349 87.3224C67.2349 87.3224 67.2344 87.3214 67.2344 87.3203C67.2365 87.3214 67.2385 87.3224 67.2406 87.3234L67.2349 87.3224Z" fill="#FFA8A7"/>
<path d="M61.8962 78.2223C61.1074 75.5773 61.2788 72.5409 62.8586 70.2778C63.8683 68.831 65.3914 67.7834 67.0507 67.1848C68.7105 66.5861 70.5033 66.4172 72.265 66.5102C73.653 66.5835 75.0592 66.8252 76.2861 67.4784C77.7848 68.2766 78.9452 69.688 79.4378 71.3129C79.9305 72.9379 79.7501 74.7562 78.9473 76.2523C78.3138 77.433 77.3322 78.3865 76.3142 79.2575C74.289 80.9905 72.0561 82.4794 69.6791 83.6855C69.0852 83.9869 68.4818 84.2712 67.8707 84.5367C67.455 84.7175 66.6677 85.2278 66.2037 85.1353C65.7339 85.0418 65.2465 84.1698 64.9658 83.8133C64.561 83.2983 64.1739 82.7683 63.8143 82.2206C63.0005 80.9817 62.3208 79.6462 61.8962 78.2223Z" fill="#263238"/>
<path d="M76.0952 100.421C75.7398 99.0368 75.284 98.1035 75.284 98.1035L73.9844 98.4127C74.08 99.1366 74.133 99.8963 74.1574 100.65C74.1741 101.168 74.1148 103.094 74.0208 105.582L76.9319 103.902C76.6752 102.762 76.3977 101.598 76.0952 100.421Z" fill="#2969B1"/>
<path opacity="0.2" d="M74.0135 98.6871C74.0031 98.5962 73.9958 98.5026 73.9844 98.4127L75.284 98.1035C75.284 98.1035 75.3121 98.1747 75.3578 98.2958C75.1458 98.4813 74.8964 98.6247 74.621 98.684C74.4204 98.7271 74.2151 98.7193 74.0135 98.6871Z" fill="black"/>
<path d="M73.2902 95.0095L72.267 94.3516L69.8828 95.6512C70.9284 96.6084 72.6947 96.7649 72.6947 96.7649L73.2902 95.0095Z" fill="#2969B1"/>
<path d="M74.8672 94.757L75.179 94.0586L76.381 94.8111C76.1466 95.5926 75.5999 95.9548 75.5999 95.9548L74.8672 94.757Z" fill="#2969B1"/>
<path opacity="0.2" d="M73.2902 95.0095L72.267 94.3516L69.8828 95.6512C70.9284 96.6084 72.6947 96.7649 72.6947 96.7649L73.2902 95.0095Z" fill="black"/>
<path opacity="0.2" d="M74.8672 94.757L75.179 94.0586L76.381 94.8111C76.1466 95.5926 75.5999 95.9548 75.5999 95.9548L74.8672 94.757Z" fill="black"/>
<path d="M72.6953 96.7658C72.7966 96.1614 72.9983 95.5492 73.2908 95.0104C73.8162 94.9262 74.3416 94.842 74.8675 94.7578C75.1538 95.1226 75.4059 95.5342 75.6002 95.9556C75.6776 97.0786 75.2869 98.1044 75.2869 98.1044C74.7007 98.4365 73.9872 98.4136 73.9872 98.4136C73.0487 97.8311 72.6953 96.7658 72.6953 96.7658Z" fill="#2969B1"/>
<path d="M66.0234 82.8086V90.0246C67.4603 92.0019 73.4941 94.5139 73.8433 94.4542C74.2824 94.3793 73.8511 90.4912 73.8511 90.1545L73.8438 87.2309C72.6714 87.0532 71.5214 86.8453 70.4863 86.6291C68.4258 86.1983 66.7536 84.7459 66.0234 82.8086Z" fill="#C29696"/>
<path d="M71.2146 88.3401C72.0726 88.5776 72.9545 88.7075 73.8405 88.8057V87.2306C72.6681 87.0529 71.5181 86.845 70.483 86.6288C68.5457 86.2235 66.9623 84.9093 66.1719 83.1445C66.3771 84.3538 66.9025 85.5116 67.7459 86.3986C68.6699 87.3709 69.9217 87.982 71.2146 88.3401Z" fill="#803E3E"/>
<path d="M78.3494 71.4531C77.2716 72.559 75.5032 73.2844 73.9593 73.3015C72.4154 73.3187 70.9203 72.8094 69.4315 72.3989C69.3031 73.116 68.9383 73.7895 68.4078 74.2889C67.8772 74.7883 67.0249 75.1219 66.3011 75.2071C66.5141 76.5993 66.5089 78.0247 66.2844 79.4148C66.2366 79.7095 66.0381 79.9781 65.7518 80.0618C65.2503 80.2078 64.9177 79.6939 64.6735 79.2782C64.3955 78.8047 64.052 78.3537 63.5858 78.0642C63.1197 77.7748 62.5117 77.6708 62.0149 77.9037C61.6091 78.0938 61.3206 78.4867 61.1866 78.9144C61.0525 79.3421 61.0577 79.803 61.1216 80.2468C61.2282 80.9868 61.5025 81.7143 61.9863 82.2844C62.4701 82.8539 63.1764 83.2525 63.9236 83.2826C64.6704 83.3128 65.414 83.0124 65.7856 82.3634L65.8183 82.4995C65.8723 82.7225 65.9425 82.9386 66.022 83.1496C66.6872 84.9149 68.2113 86.2385 70.0889 86.6313C71.032 86.8288 72.0802 87.018 73.1481 87.1796C73.6729 87.2591 74.2014 87.3344 74.7273 87.3963C76.7348 87.6343 78.5822 86.2733 78.9345 84.283C79.6537 80.2172 79.8922 75.481 78.3494 71.4531Z" fill="#C29696"/>
<path d="M75.2716 76.5889H74.8284H74.3544C72.4338 75.324 70.1431 75.0762 68.0234 75.9435V76.908L68.2776 77.0431C68.46 77.6386 68.4496 78.3178 68.5124 78.9383C68.5753 79.5593 68.7484 80.213 69.2119 80.6173C69.716 81.0569 70.4341 81.0969 71.0962 81.1052C71.6288 81.1125 72.1818 81.1089 72.665 80.8787C73.2351 80.6074 73.6358 80.0472 73.8603 79.4444C74.0847 78.8421 74.0479 78.4929 74.3285 77.7675C74.4631 77.4193 74.8289 77.4307 74.8289 77.4307C74.8289 77.4307 75.1708 77.4193 75.2971 77.7675C75.5601 78.4929 75.5252 78.8421 75.7352 79.4444C75.9451 80.0467 76.3198 80.6069 76.8535 80.8787C77.3056 81.1089 77.8227 81.1125 78.321 81.1052C78.9399 81.0964 79.6118 81.0569 80.0837 80.6173C80.5171 80.213 80.6792 79.5587 80.7379 78.9383C80.7967 78.3178 80.7868 77.6381 80.9578 77.0431L81.1952 76.908V75.9435C79.2122 75.0762 77.0686 75.324 75.2716 76.5889ZM73.8925 77.0841L73.8561 77.4287C73.802 77.94 73.629 78.6218 73.3946 79.2521C73.2756 79.5717 72.994 80.147 72.4483 80.4068C72.1126 80.5669 71.7089 80.5887 71.3228 80.5887L71.1159 80.5871C70.536 80.5793 69.9379 80.5445 69.5585 80.2135C69.2633 79.9563 69.0882 79.5161 69.0227 78.8671C69.0061 78.706 68.9952 78.5402 68.9843 78.3734C68.9536 77.9125 68.9791 76.9012 69.0201 76.1711C69.5471 76.024 70.0849 75.9502 70.6259 75.9502C71.7473 75.9502 72.8594 76.2745 73.8545 76.8898C73.9086 76.9235 73.8925 77.0841 73.8925 77.0841ZM80.2962 78.3739C80.2858 78.5407 80.2755 78.7065 80.2599 78.8676C80.1985 79.5166 80.0343 79.9568 79.7584 80.214C79.4035 80.5451 78.8438 80.5799 78.3013 80.5877L78.1079 80.5892C77.7468 80.5892 77.369 80.5674 77.0551 80.4073C76.5443 80.1475 76.2813 79.5722 76.1696 79.2527C75.9498 78.6218 75.7882 77.9405 75.7378 77.4292L75.704 77.0846C75.704 77.0846 75.6895 76.9241 75.7393 76.8908C76.6706 76.2755 77.7109 75.9513 78.7601 75.9513C79.2663 75.9513 79.7693 76.0256 80.2625 76.1721C80.3009 76.9017 80.3248 77.913 80.2962 78.3739Z" fill="#37474F"/>
<path d="M68.0212 75.9453L62.8672 77.7984C63.365 77.9174 63.6633 78.0847 63.8764 78.2713C63.932 78.3196 68.0217 76.9098 68.0217 76.9098V75.9453H68.0212Z" fill="#37474F"/>
<path d="M74.8125 77.5098L77.4124 80.6589L75.0266 81.5018L74.8125 77.5098Z" fill="#C29696"/>
<path d="M74.8125 77.5098L77.4124 80.6589L75.0266 81.5018L74.8125 77.5098Z" fill="#803E3E"/>
<path d="M71.1328 77.9032C71.1302 78.2977 71.4483 78.6193 71.8427 78.6219C72.2371 78.6245 72.5588 78.3065 72.5614 77.9121C72.564 77.5176 72.2459 77.196 71.8515 77.1934C71.4571 77.1908 71.1354 77.5088 71.1328 77.9032Z" fill="#263238"/>
<path d="M77.1328 77.7099C77.1302 78.1043 77.4483 78.426 77.8427 78.4286C78.2371 78.4312 78.5588 78.1131 78.5614 77.7187C78.564 77.3243 78.2459 77.0026 77.8515 77C77.4571 76.9974 77.1354 77.3154 77.1328 77.7099Z" fill="#263238"/>
<path d="M76.7578 74.5406C77.3954 74.6129 78.0331 74.6851 78.6707 74.7568C78.6312 74.352 78.2679 73.9934 77.8683 73.9155C77.4692 73.8375 76.9475 74.1805 76.7578 74.5406Z" fill="#263238"/>
<path d="M72.5654 74.7097C71.9237 74.704 71.2824 74.6982 70.6406 74.6925C70.729 74.2955 71.1333 73.9837 71.5391 73.9546C71.945 73.9255 72.4215 74.3293 72.5654 74.7097Z" fill="#263238"/>
<path d="M72.2791 82.7656C73.1952 83.0473 74.1109 83.3289 75.0271 83.6106C74.7454 84.2487 73.8479 84.6468 73.1755 84.4623C72.5025 84.2778 72.1954 83.4578 72.2791 82.7656Z" fill="#C29696"/>
<path d="M72.2791 82.7656C73.1952 83.0473 74.1109 83.3289 75.0271 83.6106C74.7454 84.2487 73.8479 84.6468 73.1755 84.4623C72.5025 84.2778 72.1954 83.4578 72.2791 82.7656Z" fill="#5E2828"/>
<path d="M74.0741 84.4086C73.7753 84.5104 73.4557 84.5401 73.174 84.4626C72.6461 84.3176 72.3467 83.7814 72.2812 83.2222C72.6445 83.1676 73.0259 83.2295 73.3424 83.416C73.7072 83.6307 73.9681 83.9996 74.0741 84.4086Z" fill="#C29696"/>
<path d="M74.0741 84.4086C73.7753 84.5104 73.4557 84.5401 73.174 84.4626C72.6461 84.3176 72.3467 83.7814 72.2812 83.2222C72.6445 83.1676 73.0259 83.2295 73.3424 83.416C73.7072 83.6307 73.9681 83.9996 74.0741 84.4086Z" fill="#803E3E"/>
<path d="M73.8413 94.4545C71.3397 94.4114 70.9744 98.4621 68.6868 99.1429L62.8594 92.0495L64.6673 89.3618C65.0279 88.8255 65.4972 88.3708 66.0449 88.0273L66.0657 89.0007C66.0776 89.579 66.3899 90.1091 66.8899 90.4006L73.8413 94.4545Z" fill="#FAFAFA"/>
<path d="M73.8438 94.4545C75.2349 94.0221 77.3109 95.7609 77.3109 95.7609C76.5844 91.7382 74.3806 88.0273 73.8438 88.0273V94.4545Z" fill="#FAFAFA"/>
<path d="M71.8295 43.7675C72.5788 43.3346 73.0501 43.5092 73.0522 44.2284C73.0543 44.9445 72.5856 45.6616 71.8362 46.094L71.3602 46.3689L71.3628 47.1925L70.587 47.6405L70.5781 44.4898L71.8295 43.7675ZM71.79 45.4169C72.1101 45.2319 72.2686 44.9715 72.2675 44.681C72.2665 44.3905 72.1075 44.31 71.7874 44.495L71.3555 44.7444L71.3581 45.6663L71.79 45.4169Z" fill="white"/>
<path d="M75.3638 43.8889L75.9573 44.5375L75.1258 45.0176L74.627 44.4668L74.204 44.711L74.2066 45.5487L73.4307 45.9967L73.4219 42.846L74.6768 42.1216C75.4231 41.6908 75.8949 41.8648 75.897 42.5841C75.8975 43.0465 75.7042 43.5028 75.3638 43.8889ZM74.6337 43.773C74.9538 43.588 75.1154 43.3261 75.1144 43.0356C75.1134 42.7451 74.9512 42.6662 74.6311 42.8512L74.1993 43.1006L74.2019 44.0225L74.6337 43.773Z" fill="white"/>
<path d="M77.7049 40.3093C78.5837 39.8021 79.2322 40.1243 79.2348 41.0664C79.2374 42.0117 78.593 43.0806 77.7143 43.5883C76.8386 44.094 76.1901 43.7718 76.1875 42.826C76.1844 41.8839 76.8293 40.8149 77.7049 40.3093ZM77.7122 42.8489C78.1295 42.6077 78.4517 42.0668 78.4501 41.5196C78.4486 40.976 78.1243 40.8082 77.707 41.0488C77.2928 41.2878 76.9701 41.8293 76.9717 42.3729C76.9732 42.9201 77.298 43.0879 77.7122 42.8489Z" fill="white"/>
<path d="M81.792 38.0156L81.7941 38.7042L80.4186 39.4982L80.4206 40.1904L81.6314 39.4915L81.6335 40.1805L80.4227 40.8795L80.4258 41.9598L79.65 42.4078L79.6406 39.2576L81.792 38.0156Z" fill="white"/>
<path d="M82.9321 37.3594L82.9409 40.5096L82.1651 40.9575L82.1562 37.8073L82.9321 37.3594Z" fill="white"/>
<path d="M84.2602 36.5918L84.2675 39.0368L85.575 38.2817L85.577 38.9874L83.4937 40.1904L83.4844 37.0397L84.2602 36.5918Z" fill="white"/>
<path d="M88.0264 34.418L88.028 35.107L86.6467 35.9047L86.6482 36.4348L87.8653 35.7322L87.8668 36.3973L86.6503 37.0999L86.6519 37.6773L88.083 36.851L88.0851 37.5401L85.8838 38.8106L85.875 35.66L88.0264 34.418Z" fill="white"/>
<path d="M90.9445 32.7326C91.8554 32.2067 92.4775 32.4567 92.4801 33.4222C92.4827 34.3914 91.8643 35.3574 90.9533 35.8833L89.6573 36.6316L89.6484 33.4809L90.9445 32.7326ZM90.9221 35.188C91.3867 34.9199 91.7 34.421 91.6985 33.8738C91.6969 33.3302 91.3815 33.1941 90.9174 33.4622L90.4264 33.7455L90.431 35.4712L90.9221 35.188Z" fill="white"/>
<path d="M94.4893 30.6836L95.7121 33.1333L94.9071 33.5984L94.6878 33.1125L93.53 33.7808L93.317 34.5156L92.5234 34.9739L93.7254 31.1243L94.4893 30.6836ZM93.754 32.9924L94.4592 32.585L94.1037 31.7822L93.754 32.9924Z" fill="white"/>
<path d="M99.7836 27.6289L101.006 30.0786L100.201 30.5437L99.9847 30.0562L98.8238 30.7266L98.6107 31.4619L97.8203 31.9182L99.0192 28.0701L99.7836 27.6289ZM99.0483 29.9378L99.7534 29.5303L99.398 28.7275L99.0483 29.9378Z" fill="white"/>
<path d="M97.9851 28.668L97.9872 29.3737L97.1495 29.8575L97.1562 32.3025L96.3804 32.7504L96.3736 30.3054L95.5333 30.7908L95.5312 30.0851L97.9851 28.668Z" fill="white"/>
<path d="M75.2266 46.9307V49.0987L97.2024 36.418V34.25L75.2266 46.9307Z" fill="#2969B1"/>
<g opacity="0.6">
<path d="M75.2266 46.9307V49.0987L97.2024 36.418V34.25L75.2266 46.9307Z" fill="white"/>
</g>
<path d="M80.7188 47.6405V49.8085L93.505 42.3868V40.2188L80.7188 47.6405Z" fill="#2969B1"/>
<g opacity="0.6">
<path d="M80.7188 47.6405V49.8085L93.505 42.3868V40.2188L80.7188 47.6405Z" fill="white"/>
</g>
<path d="M87.4531 61.5626V63.7306L117.562 46.375V44.207L87.4531 61.5626Z" fill="#2969B1"/>
<path d="M87.4531 65.2801V67.4481L110.866 53.9551V51.7871L87.4531 65.2801Z" fill="#2969B1"/>
<path d="M87.4531 71.8692V74.0373L117.562 56.6817V54.5137L87.4531 71.8692Z" fill="#2969B1"/>
<path d="M87.4531 75.5878V77.7558L117.562 60.42V58.252L87.4531 75.5878Z" fill="#2969B1"/>
<path d="M87.4531 79.1777V81.3457L110.16 68.3028V66.1348L87.4531 79.1777Z" fill="#2969B1"/>
<path d="M87.4531 49.1138V52.8216L109.43 40.1414V36.4336L87.4531 49.1138Z" fill="#2969B1"/>
<path d="M87.4531 54.7227V57.0565L102.052 48.6702V46.3359L87.4531 54.7227Z" fill="#2969B1"/>
<g opacity="0.6">
<path d="M87.4531 61.5626V63.7306L117.562 46.375V44.207L87.4531 61.5626Z" fill="white"/>
<path d="M87.4531 65.2801V67.4481L110.866 53.9551V51.7871L87.4531 65.2801Z" fill="white"/>
<path d="M87.4531 71.8692V74.0373L117.562 56.6817V54.5137L87.4531 71.8692Z" fill="white"/>
<path d="M87.4531 75.5878V77.7558L117.562 60.42V58.252L87.4531 75.5878Z" fill="white"/>
<path d="M87.4531 79.1777V81.3457L110.16 68.3028V66.1348L87.4531 79.1777Z" fill="white"/>
<path d="M87.4531 49.1138V52.8216L109.43 40.1414V36.4336L87.4531 49.1138Z" fill="white"/>
<path d="M87.4531 54.7227V57.0565L102.052 48.6702V46.3359L87.4531 54.7227Z" fill="white"/>
</g>
<path d="M89.5206 83.6465L90.2024 84.8365L91.7198 84.2119L90.6264 86.078L90.8888 87.664L89.532 87.6271L88.1762 89.2302L88.4288 87.3465L87.3281 86.7478L88.844 85.6207L89.5206 83.6465Z" fill="#2969B1"/>
<path d="M96.0987 79.8477L96.7805 81.0377L98.2979 80.413L97.2045 82.2786L97.467 83.8651L96.1101 83.8282L94.7543 85.4314L95.01 83.5456L93.9062 82.949L95.4221 81.8218L96.0987 79.8477Z" fill="#2969B1"/>
<path d="M102.685 76.0469L103.366 77.2369L104.884 76.6123L103.79 78.4778L104.056 80.0623L102.696 80.0275L101.34 81.6301L101.596 79.7448L100.492 79.1477L102.008 78.0205L102.685 76.0469Z" fill="#2969B1"/>
<path d="M109.271 72.2461L109.952 73.4356L111.47 72.8115L110.376 74.6771L110.642 76.261L109.281 76.2262L107.926 77.8293L108.182 75.944L107.078 75.3469L108.598 74.2177L109.271 72.2461Z" fill="#2969B1"/>
<path d="M115.849 68.4453L116.53 69.6353L118.048 69.0107L116.955 70.8763L117.22 72.4607L115.86 72.4259L114.504 74.029L114.76 72.1432L113.656 71.5466L115.176 70.4174L115.849 68.4453Z" fill="#2969B1"/>
<path d="M89.5206 89.3867L90.2024 90.5767L91.7198 89.9521L90.6264 91.8177L90.8888 93.4042L89.532 93.3673L88.1762 94.9705L88.4288 93.0867L87.3281 92.488L88.844 91.3609L89.5206 89.3867Z" fill="#2969B1"/>
<path d="M96.0987 85.5859L96.7805 86.776L98.2979 86.1513L97.2045 88.0169L97.467 89.6034L96.1101 89.5665L94.7543 91.1692L95.01 89.2838L93.9062 88.6867L95.4221 87.5601L96.0987 85.5859Z" fill="#2969B1"/>
<path d="M102.685 81.7871L103.366 82.9766L104.884 82.3525L103.79 84.2181L104.056 85.802L102.696 85.7677L101.34 87.3703L101.596 85.485L100.492 84.8879L102.008 83.7608L102.685 81.7871Z" fill="#2969B1"/>
<path d="M109.271 77.9863L109.952 79.1758L111.47 78.5512L110.376 80.4173L110.642 82.0012L109.281 81.9664L107.926 83.5695L108.182 81.6837L107.078 81.0871L108.598 79.9579L109.271 77.9863Z" fill="#2969B1"/>
<path d="M115.849 74.1855L116.53 75.3756L118.048 74.7509L116.955 76.6165L117.22 78.2009L115.86 78.1661L114.504 79.7693L114.76 77.8834L113.656 77.2869L115.176 76.1577L115.849 74.1855Z" fill="#2969B1"/>
<path d="M89.5206 95.127L90.2024 96.317L91.7198 95.6923L90.6264 97.5579L90.8888 99.1444L89.532 99.1075L88.1762 100.711L88.4288 98.8269L87.3281 98.2283L88.844 97.1011L89.5206 95.127Z" fill="#2969B1"/>
<path d="M96.0987 91.3281L96.7805 92.5181L98.2979 91.8935L97.2045 93.7591L97.467 95.3451L96.1101 95.3087L94.7543 96.9113L95.01 95.026L93.9062 94.4289L95.4221 93.3018L96.0987 91.3281Z" fill="#2969B1"/>
<path d="M102.685 87.5273L103.366 88.7168L104.884 88.0927L103.79 89.9583L104.056 91.5422L102.696 91.5079L101.34 93.1106L101.596 91.2252L100.492 90.6282L102.008 89.501L102.685 87.5273Z" fill="#2969B1"/>
<path d="M109.271 83.7266L109.952 84.9166L111.47 84.292L110.376 86.158L110.642 87.742L109.281 87.7072L107.926 89.3103L108.182 87.4245L107.078 86.8279L108.598 85.6987L109.271 83.7266Z" fill="#2969B1"/>
<path d="M115.849 79.9258L116.53 81.1158L118.048 80.4912L116.955 82.3568L117.22 83.9412L115.86 83.9064L114.504 85.5095L114.76 83.6237L113.656 83.0271L115.176 81.8979L115.849 79.9258Z" fill="#2969B1"/>
<g opacity="0.8">
<path d="M89.5206 83.6484L90.2024 84.8385L91.7198 84.2138L90.6264 86.0799L90.8888 87.6659L89.532 87.629L88.1762 89.2322L88.4288 87.3484L87.3281 86.7498L88.844 85.6226L89.5206 83.6484Z" fill="white"/>
<path d="M96.0987 79.8477L96.7805 81.0377L98.2979 80.413L97.2045 82.2786L97.467 83.8651L96.1101 83.8282L94.7543 85.4314L95.01 83.5456L93.9062 82.949L95.4221 81.8218L96.0987 79.8477Z" fill="white"/>
<path d="M102.685 76.0469L103.366 77.2369L104.884 76.6123L103.79 78.4778L104.056 80.0623L102.696 80.0275L101.34 81.6301L101.596 79.7448L100.492 79.1477L102.008 78.0205L102.685 76.0469Z" fill="white"/>
</g>
<g opacity="0.8">
<path d="M89.5206 89.3867L90.2024 90.5767L91.7198 89.9521L90.6264 91.8177L90.8888 93.4042L89.532 93.3673L88.1762 94.9705L88.4288 93.0867L87.3281 92.488L88.844 91.3609L89.5206 89.3867Z" fill="white"/>
<path d="M96.0987 85.5859L96.7805 86.776L98.2979 86.1513L97.2045 88.0169L97.467 89.6034L96.1101 89.5665L94.7543 91.1692L95.01 89.2838L93.9062 88.6867L95.4221 87.5601L96.0987 85.5859Z" fill="white"/>
<path d="M102.685 81.7871L103.366 82.9766L104.884 82.3525L103.79 84.2181L104.056 85.802L102.696 85.7677L101.34 87.3703L101.596 85.485L100.492 84.8879L102.008 83.7608L102.685 81.7871Z" fill="white"/>
<path d="M109.271 77.9863L109.952 79.1758L111.47 78.5512L110.376 80.4173L110.642 82.0012L109.281 81.9664L107.926 83.5695L108.182 81.6837L107.078 81.0871L108.598 79.9579L109.271 77.9863Z" fill="white"/>
</g>
<g opacity="0.8">
<path d="M89.5206 95.127L90.2024 96.317L91.7198 95.6923L90.6264 97.5579L90.8888 99.1444L89.532 99.1075L88.1762 100.711L88.4288 98.8269L87.3281 98.2283L88.844 97.1011L89.5206 95.127Z" fill="white"/>
<path d="M96.0987 91.3281L96.7805 92.5181L98.2979 91.8935L97.2045 93.7591L97.467 95.3451L96.1101 95.3087L94.7543 96.9113L95.01 95.026L93.9062 94.4289L95.4221 93.3018L96.0987 91.3281Z" fill="white"/>
<path d="M102.685 87.5273L103.366 88.7168L104.884 88.0927L103.79 89.9583L104.056 91.5422L102.696 91.5079L101.34 93.1106L101.596 91.2252L100.492 90.6282L102.008 89.501L102.685 87.5273Z" fill="white"/>
</g>
<path d="M61.8335 119.145L54.0703 123.646V132.633L60.485 128.92L61.8335 126.13V119.145Z" fill="#2969B1"/>
<path opacity="0.1" d="M61.8335 119.145L54.0703 123.646V132.633L60.485 128.92L61.8335 126.13V119.145Z" fill="black"/>
<path d="M60.4844 128.921L61.8329 126.131L60.4844 126.911V128.921Z" fill="#2969B1"/>
<path opacity="0.3" d="M60.4844 128.921L61.8329 126.131L60.4844 126.911V128.921Z" fill="black"/>
<path d="M63.4219 118.239V120.135L84.6167 107.911V106.016L63.4219 118.239Z" fill="#2969B1"/>
<path d="M63.4219 121.491V123.387L84.6167 111.181V109.285L63.4219 121.491Z" fill="#2969B1"/>
<path d="M63.4219 124.629V126.525L78.1433 118.073V116.178L63.4219 124.629Z" fill="#2969B1"/>
<g opacity="0.6">
<path d="M63.4219 118.239V120.135L84.6167 107.911V106.016L63.4219 118.239Z" fill="white"/>
<path d="M63.4219 121.491V123.387L84.6167 111.181V109.285L63.4219 121.491Z" fill="white"/>
<path d="M63.4219 124.629V126.525L78.1433 118.073V116.178L63.4219 124.629Z" fill="white"/>
</g>
<path d="M61.8335 131.203L54.0703 135.705V144.691L60.485 140.978L61.8335 138.189V131.203Z" fill="#2969B1"/>
<path opacity="0.1" d="M61.8335 131.203L54.0703 135.705V144.691L60.485 140.978L61.8335 138.189V131.203Z" fill="black"/>
<path d="M60.4844 140.977L61.8329 138.188L60.4844 138.968V140.977Z" fill="#2969B1"/>
<path opacity="0.3" d="M60.4844 140.977L61.8329 138.188L60.4844 138.968V140.977Z" fill="black"/>
<path d="M63.4219 130.298V132.194L84.8464 119.843V117.947L63.4219 130.298Z" fill="#2969B1"/>
<path d="M63.4219 133.55V135.446L84.8464 123.113V121.217L63.4219 133.55Z" fill="#2969B1"/>
<path d="M63.4219 136.689V138.586L68.0645 135.974V134.078L63.4219 136.689Z" fill="#2969B1"/>
<g opacity="0.6">
<path d="M63.4219 130.298V132.194L84.8464 119.843V117.947L63.4219 130.298Z" fill="white"/>
<path d="M63.4219 133.55V135.446L84.8464 123.113V121.217L63.4219 133.55Z" fill="white"/>
<path d="M63.4219 136.689V138.586L68.0645 135.974V134.078L63.4219 136.689Z" fill="white"/>
</g>
<path d="M61.8335 143.262L54.0703 147.763V156.75L60.485 153.037L61.8335 150.247V143.262Z" fill="#2969B1"/>
<path opacity="0.1" d="M61.8335 143.262L54.0703 147.763V156.75L60.485 153.037L61.8335 150.247V143.262Z" fill="black"/>
<path d="M60.4844 153.038L61.8329 150.248L60.4844 151.028V153.038Z" fill="#2969B1"/>
<path opacity="0.3" d="M60.4844 153.038L61.8329 150.248L60.4844 151.028V153.038Z" fill="black"/>
<path d="M63.4219 142.358V144.254L85.0501 131.695V129.799L63.4219 142.358Z" fill="#2969B1"/>
<path d="M63.4219 145.61V147.506L85.0501 134.964V133.068L63.4219 145.61Z" fill="#2969B1"/>
<path d="M63.4219 148.75V150.646L85.0501 138.131V136.234L63.4219 148.75Z" fill="#2969B1"/>
<g opacity="0.6">
<path d="M63.4219 142.358V144.254L85.0501 131.695V129.799L63.4219 142.358Z" fill="white"/>
<path d="M63.4219 145.61V147.506L85.0501 134.964V133.068L63.4219 145.61Z" fill="white"/>
<path d="M63.4219 148.75V150.646L85.0501 138.131V136.234L63.4219 148.75Z" fill="white"/>
</g>
<path d="M117.198 122.364L88.333 139.021C87.9557 139.239 87.4844 138.966 87.4844 138.531V105.962C87.4844 105.355 87.8081 104.795 88.333 104.492L117.198 87.8344C117.575 87.6167 118.047 87.889 118.047 88.3245V120.894C118.047 121.5 117.723 122.06 117.198 122.364Z" fill="#2969B1"/>
<path d="M97.7319 101.844L89.9688 106.346V115.332L96.3834 111.62L97.7319 108.83V101.844Z" fill="#2969B1"/>
<path opacity="0.3" d="M97.7319 101.844L89.9688 106.346V115.332L96.3834 111.62L97.7319 108.83V101.844Z" fill="black"/>
<path d="M96.3828 111.62L97.7313 108.83L96.3828 109.611V111.62Z" fill="#2969B1"/>
<path opacity="0.5" d="M96.3828 111.62L97.7313 108.83L96.3828 109.611V111.62Z" fill="black"/>
<path d="M99.5625 102.034V103.295L116.359 93.6025V92.3418L99.5625 102.034Z" fill="#2969B1"/>
<path d="M99.5625 105.457L116.359 95.7768V94.5156L99.5625 104.196V105.457Z" fill="#2969B1"/>
<path d="M99.5625 107.691L116.359 97.9995V96.7383L99.5625 106.43V107.691Z" fill="#2969B1"/>
<path d="M108.734 103.295L99.5625 108.592V109.853L108.734 104.556V103.295Z" fill="#2969B1"/>
<path d="M89.9688 118.532L116.36 103.36V102.1L89.9688 117.272V118.532Z" fill="#2969B1"/>
<path d="M109.548 108.199L89.9688 119.435V120.695L109.548 109.46V108.199Z" fill="#2969B1"/>
<path d="M89.9688 128.743L116.36 113.571V112.31L89.9688 127.482V128.743Z" fill="#2969B1"/>
<path d="M104.634 121.229L89.9688 129.644V130.905L104.634 122.489V121.229Z" fill="#2969B1"/>
<path d="M89.9688 133.138L116.36 117.966V116.705L89.9688 131.877V133.138Z" fill="#2969B1"/>
<path d="M89.9688 135.3L103.164 127.72V126.459L89.9688 134.039V135.3Z" fill="#2969B1"/>
<path d="M104.984 126.672L109.121 124.296V123.035L104.984 125.412V126.672Z" fill="#2969B1"/>
<path d="M89.9688 122.929L116.36 107.757V106.496L89.9688 121.668V122.929Z" fill="#2969B1"/>
<path d="M99.1771 118.539L89.9688 123.829V125.09L99.1771 119.8V118.539Z" fill="#2969B1"/>
<g opacity="0.3">
<path d="M99.5625 102.034V103.295L116.359 93.6025V92.3418L99.5625 102.034Z" fill="white"/>
<path d="M99.5625 105.457L116.359 95.7768V94.5156L99.5625 104.196V105.457Z" fill="white"/>
<path d="M99.5625 107.691L116.359 97.9995V96.7383L99.5625 106.43V107.691Z" fill="white"/>
<path d="M108.734 103.295L99.5625 108.592V109.853L108.734 104.556V103.295Z" fill="white"/>
<path d="M89.9688 118.532L116.36 103.36V102.1L89.9688 117.272V118.532Z" fill="white"/>
<path d="M109.548 108.199L89.9688 119.435V120.695L109.548 109.46V108.199Z" fill="white"/>
<path d="M89.9688 128.743L116.36 113.571V112.31L89.9688 127.482V128.743Z" fill="white"/>
<path d="M104.634 121.229L89.9688 129.644V130.905L104.634 122.489V121.229Z" fill="white"/>
<path d="M89.9688 133.138L116.36 117.966V116.705L89.9688 131.877V133.138Z" fill="white"/>
<path d="M89.9688 135.3L103.164 127.72V126.459L89.9688 134.039V135.3Z" fill="white"/>
<path d="M104.984 126.672L109.121 124.296V123.035L104.984 125.412V126.672Z" fill="white"/>
<path d="M89.9688 122.929L116.36 107.757V106.496L89.9688 121.668V122.929Z" fill="white"/>
<path d="M99.1771 118.539L89.9688 123.829V125.09L99.1771 119.8V118.539Z" fill="white"/>
</g>
<path d="M126.393 200.936C127.514 202.113 129.211 202.611 130.836 202.569C132.46 202.528 134.033 202.002 135.536 201.384C137.039 200.766 138.926 199.036 140.551 199.069C142.052 199.099 143.824 198.905 145.304 198.744C145.449 195.464 144.629 192.306 144.629 192.306L137.041 192.105C134.993 194.911 131.01 197.245 127.997 198.12C127.029 198.401 126.314 199.187 126.125 200.115C126.128 200.131 126.127 200.147 126.131 200.163C126.237 200.649 126.393 200.936 126.393 200.936Z" fill="#37474F"/>
<path d="M140.555 199.069C138.93 199.036 137.043 200.766 135.54 201.384C134.037 202.002 132.464 202.528 130.84 202.569C129.215 202.611 127.518 202.112 126.397 200.936C126.397 200.936 126.241 200.649 126.134 200.163C126.131 200.147 126.132 200.132 126.128 200.116C126.062 200.44 126.058 200.782 126.134 201.126C126.241 201.612 126.397 201.899 126.397 201.899C127.518 203.076 129.215 203.574 130.84 203.532C132.464 203.491 134.037 202.965 135.54 202.347C137.043 201.729 138.93 199.999 140.555 200.032C142.226 200.065 143.669 199.929 145.234 199.762C145.271 199.423 145.293 199.083 145.308 198.744C143.828 198.905 142.056 199.099 140.555 199.069Z" fill="#263238"/>
<path d="M163.931 205.16C163.924 205.991 163.866 206.818 163.687 207.629C163.373 209.047 162.643 210.431 161.429 211.229C160.384 211.917 159.092 212.108 157.842 212.184C156.737 212.251 155.598 212.236 154.561 211.845C153.773 211.548 153.051 210.997 152.641 210.277C152.644 210.291 152.645 210.305 152.648 210.319C152.895 211.399 153.821 212.229 154.859 212.62C155.895 213.011 157.034 213.026 158.14 212.959C159.389 212.883 160.681 212.692 161.726 212.004C162.94 211.206 163.67 209.822 163.984 208.403C164.163 207.593 164.221 206.765 164.228 205.934C164.237 204.785 164.714 203.701 165.552 202.916C165.756 202.725 165.951 202.527 166.129 202.321C166.387 202.025 166.512 201.636 166.482 201.245C166.471 201.091 166.454 200.941 166.435 200.793C166.137 201.142 165.432 201.975 165.255 202.141C164.417 202.927 163.94 204.011 163.931 205.16Z" fill="#263238"/>
<path d="M157.7 196.559C158.014 198.234 157.709 199.985 157.066 201.564C156.424 203.143 155.457 204.569 154.417 205.921C153.918 206.57 153.397 207.211 153.031 207.944C152.671 208.663 152.471 209.492 152.637 210.278C153.048 210.999 153.77 211.55 154.558 211.846C155.594 212.237 156.733 212.252 157.839 212.185C159.088 212.109 160.38 211.919 161.426 211.231C162.639 210.432 163.369 209.048 163.683 207.63C163.863 206.82 163.921 205.992 163.928 205.161C163.936 204.013 164.414 202.928 165.251 202.143C165.428 201.977 166.133 201.144 166.431 200.795C166.164 198.751 165.213 197.302 165.213 197.302L157.7 196.559Z" fill="#37474F"/>
<path d="M136.053 125.589C136.053 125.589 134.038 150.791 134.214 157.801C134.389 164.811 135.128 192.517 135.128 192.517C139.25 194.812 145.206 193.101 145.206 193.101C145.688 170.986 147.877 166.229 146.388 158.135C147.439 152.126 148.888 138.124 148.888 138.124C150.943 154.964 152.432 163.643 152.432 163.643L157.337 197.357C161.366 199.36 166.446 197.357 166.446 197.357C166.446 178.14 166.884 170.01 164.782 157.326C164.67 137.798 162.709 123.809 162.709 123.809L136.053 125.589Z" fill="#455A64"/>
<path opacity="0.2" d="M140.922 132.098C142.328 135.38 146.736 135.38 146.736 135.38L147.525 139.113L147.231 152.387C148.078 145.93 148.886 138.123 148.886 138.123L148.342 134.128C144.634 134.268 141.939 132.876 140.922 132.098Z" fill="black"/>
<path d="M142.778 86.5039C135.894 86.5039 134.765 89.1817 133.028 93.6201C131.291 98.0585 129.938 105.982 129.938 105.982L136.597 104.549L139.208 89.5554L142.778 86.5039Z" fill="#455A64"/>
<path d="M136.596 103.475C134.863 103.357 133.102 103.677 131.522 104.396C130.908 104.676 130.305 105.029 129.898 105.567C129.491 106.106 129.318 106.863 129.615 107.469C128.981 108.63 129.04 110.361 129.17 111.789C129.195 112.062 129.229 112.34 129.345 112.589C129.461 112.838 129.671 113.057 129.939 113.118L136.596 107.131V103.475Z" fill="#37474F"/>
<path opacity="0.2" d="M134.313 104.951C131.949 104.764 130.236 106.127 129.469 106.824C129.472 107.046 129.514 107.266 129.614 107.469C130.159 106.642 132.484 105.141 134.313 104.951Z" fill="black"/>
<path opacity="0.2" d="M131.727 107.207C133.197 106.358 134.896 105.917 136.594 105.929V105.381C134.84 105.378 133.076 106.086 131.727 107.207Z" fill="black"/>
<path d="M154.279 81.9078L154.28 81.9062C154.278 81.9073 154.276 81.9083 154.273 81.9094L154.279 81.9078Z" fill="#FFA8A7"/>
<path d="M161.864 86.9586L158.63 86.6146L142.78 86.5039C137.227 86.5039 136.515 93.339 136.195 99.3863C135.874 105.434 136.901 117.604 135.523 125.73L142.135 130L143.994 128.003L146.955 130.758C157.009 130.758 162.932 125.18 163.689 124.216L161.864 86.9586Z" fill="#2969B1"/>
<path opacity="0.2" d="M161.864 86.9586L158.63 86.6146L142.78 86.5039C137.227 86.5039 136.515 93.339 136.195 99.3863C135.874 105.434 136.901 117.604 135.523 125.73L142.135 130L143.994 128.003L146.955 130.758C157.009 130.758 162.932 125.18 163.689 124.216L161.864 86.9586Z" fill="white"/>
<path d="M145.369 88.6118C143.888 93.3282 144.818 99.905 145.369 102.866C149.122 97.7012 152.634 92.5238 153.736 90.4987L148.502 87.957L145.369 88.6118Z" fill="#455A64"/>
<path opacity="0.2" d="M144.868 103.219L143.163 105.504C142.696 106.13 142.466 106.9 142.513 107.679L143.654 126.693L141.69 107.83C141.577 106.753 142 105.69 142.82 104.983L144.868 103.219Z" fill="black"/>
<path d="M161.862 86.957L164.012 87.3005C166.609 87.7152 168.654 89.7071 169.19 92.282C171.176 101.82 170.59 110.526 170.59 110.526L160.777 106.007C159.744 98.3371 157.729 92.0014 161.862 86.957Z" fill="#455A64"/>
<path d="M160.453 106.302C160.453 105.916 160.772 105.608 161.158 105.613C165.6 105.672 169.916 107.784 171.093 110.27C171.575 111.303 171.093 112.672 171.093 112.672C171.885 113.705 171.471 114.222 171.058 114.97C170.645 115.719 171.265 117.398 169.922 117.32L170.237 116.685C167.581 111.533 160.883 109.418 160.883 109.418L160.843 108.565C160.836 108.409 160.766 108.262 160.649 108.158C160.524 108.047 160.453 107.889 160.453 107.723V106.302Z" fill="#37474F"/>
<path opacity="0.2" d="M165.477 108.422C167.582 109.228 169.911 111.177 171.09 112.671C171.09 112.671 171.21 112.331 171.27 111.864C170.536 110.941 168.937 109.251 165.477 108.422Z" fill="black"/>
<path opacity="0.2" d="M160.484 107.895C160.516 107.995 160.571 108.087 160.651 108.157C160.768 108.261 160.838 108.408 160.846 108.565L160.849 108.633C163.929 109.099 166.851 110.574 169.045 112.786C166.993 109.809 162.484 108.286 160.484 107.895Z" fill="black"/>
<path d="M160.879 109.416L160.842 108.632C153.314 106.026 140.045 106.531 136.169 106.502C133.309 106.473 129.314 111.067 129.609 112.876C129.905 114.684 129.935 116.237 133.428 116.536C135.898 116.692 140.654 115.744 140.654 115.744C153.762 119.775 166.408 119.059 168.371 118.7C169.303 118.566 169.918 117.318 169.918 117.318L170.233 116.683C167.577 111.531 160.879 109.416 160.879 109.416Z" fill="#F4C6C6"/>
<path d="M165.857 113.146C165.628 112.397 165.28 111.798 164.928 111.337C162.764 110.01 160.881 109.415 160.881 109.415L160.844 108.631C160.683 108.576 160.517 108.524 160.351 108.471L160.451 109.439C158.314 109.585 145.759 114.723 140.656 115.743C141.655 116.05 142.65 116.327 143.639 116.581C149.343 114.6 157.21 110.702 160.841 110.145C163.371 110.795 164.67 111.467 165.857 113.146Z" fill="#803E3E"/>
<path d="M159.587 72.8544C160.372 70.2229 160.201 67.2011 158.629 64.9489C157.624 63.5094 156.109 62.467 154.457 61.8709C152.806 61.2754 151.022 61.107 149.269 61.1995C147.887 61.2723 146.488 61.5129 145.267 62.163C143.776 62.957 142.621 64.3616 142.131 65.9788C141.641 67.596 141.82 69.4049 142.62 70.8938C143.25 72.0687 144.227 73.0171 145.24 73.8839C147.255 75.6081 149.477 77.0897 151.842 78.2901C152.433 78.5899 153.034 78.8726 153.642 79.1366C154.055 79.3164 154.839 79.8241 155.3 79.7321C155.768 79.6391 156.253 78.7718 156.532 78.4164C156.935 77.904 157.32 77.3765 157.678 76.8314C158.487 75.6003 159.164 74.271 159.587 72.8544Z" fill="#263238"/>
<path d="M147.557 92.9444L146.264 92.6367C146.264 92.6367 145.308 95.0646 144.688 97.6868C144.847 99.7748 145.14 101.635 145.369 102.866C146.105 101.852 146.831 100.84 147.533 99.8491C147.388 98.156 147.24 95.3545 147.557 92.9444Z" fill="#2969B1"/>
<path opacity="0.2" d="M147.525 93.2172C147.535 93.1268 147.542 93.0337 147.554 92.9444L146.261 92.6367C146.261 92.6367 146.233 92.7074 146.188 92.828C146.398 93.0124 146.647 93.1553 146.921 93.2141C147.119 93.2567 147.323 93.2489 147.525 93.2172Z" fill="black"/>
<path d="M148.25 89.5571L149.269 88.9023L151.641 90.1953C150.6 91.1478 148.843 91.3032 148.843 91.3032L148.25 89.5571Z" fill="#2969B1"/>
<path d="M146.678 89.3061L146.368 88.6113L145.172 89.3602C145.405 90.1381 145.949 90.4982 145.949 90.4982L146.678 89.3061Z" fill="#2969B1"/>
<path opacity="0.2" d="M148.25 89.5571L149.269 88.9023L151.641 90.1953C150.6 91.1478 148.843 91.3032 148.843 91.3032L148.25 89.5571Z" fill="black"/>
<path opacity="0.2" d="M146.678 89.3061L146.368 88.6113L145.172 89.3602C145.405 90.1381 145.949 90.4982 145.949 90.4982L146.678 89.3061Z" fill="black"/>
<path d="M148.838 91.3047C148.737 90.7035 148.536 90.0944 148.246 89.5582C147.723 89.4745 147.2 89.3903 146.677 89.3066C146.392 89.6699 146.141 90.0794 145.948 90.4987C145.87 91.616 146.259 92.6371 146.259 92.6371C146.843 92.9676 147.552 92.9448 147.552 92.9448C148.486 92.3648 148.838 91.3047 148.838 91.3047Z" fill="#2969B1"/>
<path d="M155.478 77.418V84.5981C154.048 86.5655 148.044 89.0651 147.696 89.0058C147.259 88.9315 147.688 85.0627 147.688 84.7275L147.695 81.8184C148.861 81.6418 150.006 81.4349 151.036 81.2193C153.087 80.7911 154.751 79.3459 155.478 77.418Z" fill="#F4C6C6"/>
<path d="M150.308 82.924C149.454 83.1604 148.577 83.2898 147.695 83.3875V81.8202C148.861 81.6436 150.006 81.4367 151.036 81.2211C152.964 80.8178 154.54 79.5104 155.326 77.7539C155.122 78.9569 154.599 80.109 153.76 80.9919C152.84 81.9595 151.594 82.568 150.308 82.924Z" fill="#803E3E"/>
<path d="M143.218 66.1172C144.291 67.2178 146.05 67.9391 147.586 67.9563C149.123 67.9734 150.61 67.4662 152.092 67.0583C152.22 67.7723 152.582 68.4421 153.11 68.9389C153.638 69.4362 154.486 69.7678 155.207 69.8525C154.995 71.2374 155 72.6561 155.223 74.0394C155.271 74.333 155.468 74.5996 155.753 74.6832C156.252 74.8288 156.583 74.3169 156.826 73.9032C157.103 73.4324 157.445 72.9834 157.909 72.6956C158.373 72.4077 158.977 72.3042 159.472 72.5355C159.876 72.7247 160.163 73.1154 160.297 73.541C160.43 73.9666 160.425 74.425 160.362 74.8667C160.256 75.603 159.983 76.3269 159.501 76.8939C159.02 77.4608 158.317 77.8573 157.574 77.8875C156.831 77.9176 156.091 77.6188 155.721 76.9729L155.688 77.108C155.634 77.3299 155.565 77.545 155.486 77.755C154.824 79.5114 153.307 80.8282 151.439 81.2195C150.501 81.416 149.458 81.6041 148.395 81.7652C147.873 81.8442 147.347 81.919 146.824 81.9808C144.826 82.2178 142.987 80.8636 142.637 78.8826C141.921 74.8381 141.683 70.1253 143.218 66.1172Z" fill="#F4C6C6"/>
<path d="M140.383 70.5857V71.5449L140.619 71.6795C140.789 72.2719 140.779 72.948 140.838 73.5654C140.896 74.1833 141.057 74.8339 141.489 75.2361C141.958 75.6736 142.627 75.7131 143.242 75.722C143.738 75.7287 144.253 75.7256 144.703 75.4964C145.233 75.2262 145.606 74.6691 145.815 74.0694C146.024 73.4698 145.99 73.1226 146.251 72.4008C146.377 72.0547 146.717 72.0662 146.717 72.0662C146.717 72.0662 147.081 72.0547 147.215 72.4013C147.494 73.1231 147.457 73.4703 147.681 74.07C147.904 74.6697 148.303 75.2267 148.87 75.4969C149.351 75.7261 149.901 75.7298 150.431 75.7225C151.09 75.7136 151.804 75.6742 152.306 75.2366C152.767 74.8344 152.94 74.1833 153.002 73.5659C153.065 72.948 153.054 72.2725 153.236 71.68L153.488 71.5455V70.5862C151.379 69.723 149.1 69.9699 147.188 71.2279H146.717H146.276C144.489 69.9688 142.356 69.7225 140.383 70.5857ZM147.687 71.5273C148.677 70.9151 149.784 70.5924 150.9 70.5924C151.438 70.5924 151.973 70.6662 152.498 70.8122C152.538 71.5392 152.564 72.5453 152.533 73.0036C152.523 73.1694 152.512 73.3346 152.495 73.4947C152.43 74.1406 152.255 74.5787 151.962 74.8344C151.585 75.1633 150.99 75.1987 150.412 75.2059L150.206 75.2075C149.822 75.2075 149.421 75.1857 149.087 75.0267C148.544 74.7684 148.263 74.1957 148.145 73.8777C147.912 73.2505 147.74 72.5718 147.686 72.063L147.649 71.7201C147.649 71.7201 147.634 71.5605 147.687 71.5273ZM141.31 70.8122C141.801 70.6662 142.302 70.5924 142.805 70.5924C143.849 70.5924 144.885 70.9151 145.811 71.5273C145.861 71.5605 145.847 71.7201 145.847 71.7201L145.813 72.063C145.762 72.5718 145.602 73.2499 145.383 73.8777C145.272 74.1957 145.01 74.7679 144.502 75.0267C144.19 75.1857 143.814 75.2075 143.455 75.2075L143.262 75.2059C142.722 75.1987 142.165 75.1633 141.812 74.8344C141.537 74.5787 141.374 74.1401 141.314 73.4947C141.298 73.3341 141.288 73.1694 141.278 73.0036C141.249 72.5453 141.272 71.5387 141.31 70.8122Z" fill="#37474F"/>
<path d="M153.492 70.5859L158.621 72.4297C158.125 72.5482 157.829 72.7145 157.617 72.9C157.562 72.9483 153.492 71.5452 153.492 71.5452V70.5859Z" fill="#37474F"/>
<path d="M146.743 72.1445L144.156 75.2781L146.53 76.1173L146.743 72.1445Z" fill="#F4C6C6"/>
<path d="M146.743 72.1445L144.156 75.2781L146.53 76.1173L146.743 72.1445Z" fill="#803E3E"/>
<path d="M150.39 72.5363C150.393 72.9287 150.076 73.2493 149.684 73.2514C149.291 73.254 148.971 72.9375 148.969 72.5451C148.966 72.1528 149.283 71.8322 149.675 71.8301C150.068 71.8275 150.388 72.1435 150.39 72.5363Z" fill="#263238"/>
<path d="M144.429 72.343C144.432 72.7353 144.115 73.0554 143.723 73.058C143.331 73.0606 143.01 72.7441 143.008 72.3518C143.005 71.9594 143.322 71.6393 143.714 71.6367C144.106 71.6347 144.427 71.9506 144.429 72.343Z" fill="#263238"/>
<path d="M144.802 69.1898C144.167 69.2615 143.533 69.3332 142.898 69.4049C142.938 69.0022 143.3 68.6452 143.697 68.5677C144.094 68.4903 144.614 68.8312 144.802 69.1898Z" fill="#263238"/>
<path d="M148.977 69.3583C149.615 69.3526 150.253 69.3469 150.892 69.3412C150.804 68.9457 150.401 68.636 149.998 68.6069C149.594 68.5783 149.12 68.98 148.977 69.3583Z" fill="#263238"/>
<path d="M149.258 77.375C148.346 77.6551 147.435 77.9357 146.523 78.2158C146.804 78.8508 147.697 79.2468 148.366 79.0634C149.035 78.8799 149.341 78.0641 149.258 77.375Z" fill="#F4C6C6"/>
<path d="M149.258 77.375C148.346 77.6551 147.435 77.9357 146.523 78.2158C146.804 78.8508 147.697 79.2468 148.366 79.0634C149.035 78.8799 149.341 78.0641 149.258 77.375Z" fill="#5E2828"/>
<path d="M147.469 79.0078C147.766 79.1092 148.084 79.1388 148.364 79.0619C148.89 78.9179 149.187 78.3837 149.252 77.8277C148.891 77.7731 148.511 77.835 148.196 78.0205C147.834 78.2335 147.574 78.6004 147.469 79.0078Z" fill="#F4C6C6"/>
<path d="M147.469 79.0078C147.766 79.1092 148.084 79.1388 148.364 79.0619C148.89 78.9179 149.187 78.3837 149.252 77.8277C148.891 77.7731 148.511 77.835 148.196 78.0205C147.834 78.2335 147.574 78.6004 147.469 79.0078Z" fill="#803E3E"/>
<path d="M147.703 89.0068C150.192 88.9636 151.713 90.9461 153.989 91.6238L158.631 86.6137L156.831 83.9391C156.472 83.4054 156.006 82.9533 155.461 82.6113L155.441 83.58C155.429 84.1552 155.118 84.6832 154.621 84.9727L147.703 89.0068Z" fill="#37474F"/>
<path d="M147.7 89.0069C146.316 88.5766 144.25 90.3065 144.25 90.3065C144.973 86.3036 147.158 84.7285 147.693 84.7285L147.7 89.0069Z" fill="#37474F"/>
</svg>
