<svg width="241" height="178" viewBox="0 0 241 178" fill="none" xmlns="http://www.w3.org/2000/svg">
<path d="M216.938 165.17H201.039V165.29H216.938V165.17Z" fill="#EBEBEB"/>
<path d="M159.97 166.473H155.797V166.593H159.97V166.473Z" fill="#EBEBEB"/>
<path d="M200.556 160.713H191.344V160.833H200.556V160.713Z" fill="#EBEBEB"/>
<path d="M46.8967 161.52H26.1641V161.64H46.8967V161.52Z" fill="#EBEBEB"/>
<path d="M54.2117 161.52H51.1719V161.64H54.2117V161.52Z" fill="#EBEBEB"/>
<path d="M109.058 163.547H64.0938V163.667H109.058V163.547Z" fill="#EBEBEB"/>
<path d="M114.755 136.037H22.068C20.5574 136.037 19.3281 134.807 19.3281 133.297V3.00937C19.3281 1.49881 20.5574 0.269531 22.068 0.269531H114.755C116.266 0.269531 117.495 1.49881 117.495 3.00937V133.297C117.495 134.807 116.266 136.037 114.755 136.037ZM22.068 0.390011C20.6232 0.390011 19.4481 1.56505 19.4481 3.00985V133.297C19.4481 134.742 20.6232 135.917 22.068 135.917H114.755C116.2 135.917 117.375 134.742 117.375 133.297V3.00937C117.375 1.56505 116.2 0.389531 114.755 0.389531L22.068 0.390011Z" fill="#EBEBEB"/>
<path d="M218.575 136.037H125.888C124.377 136.037 123.148 134.807 123.148 133.297V3.00937C123.148 1.49881 124.378 0.269531 125.888 0.269531H218.575C220.086 0.269531 221.315 1.49881 221.315 3.00937V133.297C221.315 134.807 220.086 136.037 218.575 136.037ZM125.888 0.390011C124.443 0.390011 123.268 1.56505 123.268 3.00985V133.297C123.268 134.742 124.443 135.917 125.888 135.917H218.575C220.02 135.917 221.195 134.742 221.195 133.297V3.00937C221.195 1.56505 220.02 0.389531 218.575 0.389531L125.888 0.390011Z" fill="#EBEBEB"/>
<path d="M240.984 157.443H0.984375V157.563H240.984V157.443Z" fill="#EBEBEB"/>
<path d="M127.759 26.1445H141.672V7.46869H127.759V26.1445Z" fill="#F0F0F0"/>
<path d="M126.603 26.5293H140.516V7.85345H126.603V26.5293Z" fill="#F5F5F5"/>
<path d="M144.085 9.02148H139.672V29.8703H144.085V9.02148Z" fill="#E0E0E0"/>
<path d="M136.131 9.02136L126.117 23.1684V29.8702H139.668V9.02136H136.131Z" fill="#EBEBEB"/>
<path d="M143.225 26.5284C143.225 27.2767 142.619 27.883 141.87 27.883C141.122 27.883 140.516 27.2767 140.516 26.5284C140.516 25.7806 141.122 25.1738 141.87 25.1738C142.619 25.1738 143.225 25.7801 143.225 26.5284Z" fill="#FAFAFA"/>
<path d="M143.233 13.9141H140.523V22.7187H143.233V13.9141Z" fill="#F0F0F0"/>
<path opacity="0.6" d="M143.233 13.9141H140.523V15.1553H143.233V13.9141Z" fill="#FAFAFA"/>
<path d="M122.368 24.7092V21.3147C122.786 21.3147 122.787 20.6648 122.368 20.6648C121.074 20.6648 119.779 20.6561 118.484 20.6484V25.3596C119.779 25.3596 121.073 25.3596 122.368 25.3596C122.786 25.3592 122.786 24.7092 122.368 24.7092Z" fill="#EBEBEB"/>
<path d="M122.376 21.3145H119.359V24.7042H122.376V21.3145Z" fill="#F5F5F5"/>
<path d="M119.986 25.0347H109.528C108.809 25.0347 108.227 24.1294 108.227 23.0125C108.227 21.8955 108.809 20.9902 109.528 20.9902H119.986V25.0347Z" fill="#FAFAFA"/>
<path d="M119.988 20.6642C116.564 20.6642 113.135 20.6023 109.712 20.6642C107.367 20.7065 107.241 25.2012 109.541 25.3591C111.144 25.469 112.793 25.3591 114.4 25.3591C116.262 25.3591 118.125 25.3591 119.988 25.3591C120.406 25.3591 120.407 24.7092 119.988 24.7092C116.743 24.7092 113.498 24.7092 110.253 24.7092C109.502 24.7092 108.965 24.701 108.675 23.815C108.424 23.0484 108.502 21.4841 109.53 21.3146C109.641 21.2964 109.771 21.3146 109.883 21.3146C111.652 21.3146 113.421 21.3146 115.191 21.3146C116.79 21.3146 118.389 21.3146 119.988 21.3146C120.406 21.3146 120.407 20.6642 119.988 20.6642Z" fill="#E6E6E6"/>
<path d="M122.404 20.1252V17.1084C122.776 17.1084 122.777 16.5305 122.404 16.5305C121.254 16.5305 120.104 16.5228 118.953 16.5156V20.7027C120.104 20.7027 121.254 20.7027 122.404 20.7027C122.776 20.7027 122.777 20.1252 122.404 20.1252Z" fill="#EBEBEB"/>
<path d="M122.407 17.1074H119.727V20.1199H122.407V17.1074Z" fill="#F5F5F5"/>
<path d="M120.286 20.4146H110.993C110.354 20.4146 109.836 19.6101 109.836 18.6174C109.836 17.6248 110.354 16.8203 110.993 16.8203H120.286V20.4146Z" fill="#FAFAFA"/>
<path d="M120.289 16.5302C117.246 16.5302 114.199 16.4755 111.157 16.5302C109.073 16.5676 108.961 20.5622 111.005 20.7023C112.429 20.8003 113.895 20.7023 115.323 20.7023C116.978 20.7023 118.634 20.7023 120.289 20.7023C120.66 20.7023 120.661 20.1249 120.289 20.1249C117.405 20.1249 114.521 20.1249 111.637 20.1249C110.97 20.1249 110.492 20.1172 110.235 19.33C110.011 18.6489 110.082 17.2583 110.995 17.1081C111.094 17.0918 111.21 17.1081 111.308 17.1081C112.881 17.1081 114.453 17.1081 116.025 17.1081C117.447 17.1081 118.868 17.1081 120.289 17.1081C120.661 17.1076 120.662 16.5302 120.289 16.5302Z" fill="#E6E6E6"/>
<path d="M122.368 29.3226V25.9281C122.786 25.9281 122.787 25.2782 122.368 25.2782C121.074 25.2782 119.779 25.2695 118.484 25.2618V29.973C119.779 29.973 121.073 29.973 122.368 29.973C122.786 29.9726 122.786 29.3226 122.368 29.3226Z" fill="#EBEBEB"/>
<path d="M122.376 25.9279H119.359V29.3176H122.376V25.9279Z" fill="#F5F5F5"/>
<path d="M119.986 29.6481H109.528C108.809 29.6481 108.227 28.7428 108.227 27.6259C108.227 26.5089 108.809 25.6036 109.528 25.6036H119.986V29.6481Z" fill="#FAFAFA"/>
<path d="M119.988 25.2776C116.564 25.2776 113.135 25.2157 109.712 25.2776C107.367 25.3199 107.241 29.8146 109.541 29.9725C111.144 30.0824 112.793 29.9725 114.4 29.9725C116.262 29.9725 118.125 29.9725 119.988 29.9725C120.406 29.9725 120.407 29.3226 119.988 29.3226C116.743 29.3226 113.498 29.3226 110.253 29.3226C109.502 29.3226 108.965 29.3144 108.675 28.4284C108.424 27.6618 108.502 26.0975 109.53 25.928C109.641 25.9098 109.771 25.928 109.883 25.928C111.652 25.928 113.421 25.928 115.191 25.928C116.79 25.928 118.389 25.928 119.988 25.928C120.406 25.928 120.407 25.2776 119.988 25.2776Z" fill="#E6E6E6"/>
<path d="M179.417 29.6993H62.5469V33.0809H179.417V29.6993Z" fill="#F5F5F5"/>
<path d="M173.117 41.3036V33.0822H177.228L173.117 41.3036Z" fill="#E0E0E0"/>
<path d="M175.173 41.3036L179.284 33.0822H177.228L173.117 41.3036H175.173Z" fill="#F5F5F5"/>
<path d="M68.7128 41.3036V33.0822H64.6016L68.7128 41.3036Z" fill="#E0E0E0"/>
<path d="M66.6581 41.3036L62.5469 33.0822H64.6022L68.7134 41.3036H66.6581Z" fill="#F5F5F5"/>
<path d="M166.371 20.8037V20.4922C166.371 15.553 162.367 11.5488 157.428 11.5488C152.489 11.5488 148.484 15.553 148.484 20.4922V20.8037V29.7471H157.428H166.371V20.8037Z" fill="#F0F0F0"/>
<path d="M150.438 20.4927C150.438 24.3515 153.566 27.4796 157.424 27.4796C161.283 27.4796 164.411 24.3515 164.411 20.4927C164.411 16.634 161.283 13.5059 157.424 13.5059C153.566 13.5054 150.438 16.6335 150.438 20.4927Z" fill="#FAFAFA"/>
<path d="M157.424 14.6089C153.752 14.6089 150.747 17.4443 150.465 21.0443C150.451 20.8619 150.438 20.679 150.438 20.4927C150.438 16.634 153.566 13.5059 157.424 13.5059C161.283 13.5059 164.411 16.634 164.411 20.4927C164.411 20.679 164.398 20.8619 164.383 21.0443C164.101 17.4438 161.097 14.6089 157.424 14.6089Z" fill="#E6E6E6"/>
<path d="M153.013 20.4888C153.222 20.4888 155.478 20.4888 156.686 20.4888C156.686 19.2792 156.686 17.0199 156.686 16.8154C156.686 16.4069 157.017 16.0762 157.425 16.0762C157.833 16.0762 158.164 16.4069 158.164 16.8154C158.164 17.0919 158.164 20.9515 158.164 21.228C158.164 21.636 157.833 21.9672 157.425 21.9672C157.155 21.9672 153.283 21.9672 153.013 21.9672C152.605 21.9672 152.273 21.636 152.273 21.228C152.273 20.82 152.605 20.4888 153.013 20.4888Z" fill="#E0E0E0"/>
<path d="M153.013 21.2323C152.605 21.2323 152.273 20.9011 152.273 20.4931C152.273 20.0846 152.605 19.7539 153.013 19.7539C153.289 19.7539 157.149 19.7539 157.426 19.7539C157.834 19.7539 158.165 20.0846 158.165 20.4931C158.165 20.9011 157.834 21.2323 157.426 21.2323C157.155 21.2323 153.283 21.2323 153.013 21.2323Z" fill="#F5F5F5"/>
<path d="M156.688 16.079C156.688 15.671 157.019 15.3398 157.427 15.3398C157.835 15.3398 158.166 15.671 158.166 16.079C158.166 16.3555 158.166 20.2152 158.166 20.4917C158.166 20.8997 157.835 21.2309 157.427 21.2309C157.018 21.2309 156.688 20.8997 156.688 20.4917C156.688 20.2214 156.688 16.3498 156.688 16.079Z" fill="#EBEBEB"/>
<path d="M102.25 29.781H89.0703L90.5329 13.0664H103.713L102.25 29.781Z" fill="#EBEBEB"/>
<path d="M102.25 29.781H102.88L104.342 13.0664H103.713L102.25 29.781Z" fill="#E0E0E0"/>
<path d="M101.055 28.0761H90.5625L91.727 14.7695H102.219L101.055 28.0761Z" fill="#E0E0E0"/>
<path d="M100.288 26.9825H91.5234L92.4959 15.8672H101.261L100.288 26.9825Z" fill="#FAFAFA"/>
<path d="M96.2577 23.7152C97.9243 23.7152 99.2755 22.364 99.2755 20.6974C99.2755 19.0309 97.9243 17.6797 96.2577 17.6797C94.5912 17.6797 94.5912 23.7152 96.2577 23.7152Z" fill="#E6E6E6"/>
<path d="M90.8156 29.781L91.7204 19.4355H78.6006L77.6953 29.781H90.8156Z" fill="#F0F0F0"/>
<path d="M90.8125 29.781L91.7173 19.4355H92.4239L91.5191 29.781H90.8125Z" fill="#E0E0E0"/>
<path d="M89.57 28.7264L90.291 20.4901H79.8462L79.1252 28.7264H89.57Z" fill="#FAFAFA"/>
<path d="M88.7723 28.0478L89.3742 21.168H80.6488L80.0469 28.0478H88.7723Z" fill="#EBEBEB"/>
<path d="M84.7219 26.1466C85.799 26.1466 86.6721 25.2735 86.6721 24.1963C86.6721 23.1192 85.799 22.2461 84.7219 22.2461C83.6448 22.2461 83.6448 26.1466 84.7219 26.1466Z" fill="#F5F5F5"/>
<path d="M38.6541 137.235C38.6152 137.202 38.5941 137.153 38.5917 137.102C38.548 136.159 37.9816 126.913 32.3186 120.579C27.5282 115.22 32.4415 119.044 34.5736 120.767C34.7445 120.905 34.9797 120.703 34.8679 120.514C33.365 117.973 29.5936 111.257 30.9011 109.949C32.1371 108.713 34.6898 114.848 35.8293 117.822C35.9119 118.037 36.2339 117.961 36.2099 117.731C35.8816 114.582 35.4031 107.997 37.1771 108.229C38.9339 108.458 38.4429 117.159 38.0963 121.416C38.0771 121.652 38.4131 121.716 38.4818 121.489C39.2743 118.869 40.7829 114.997 42.5536 116.023C45.1744 117.541 38.6959 122.873 39.101 128.659C39.4979 134.331 39.6031 138.053 38.6541 137.235Z" fill="#F5F5F5"/>
<path d="M41.3535 138.872C41.3415 138.856 41.3857 138.779 41.4395 138.743C47.9627 134.228 46.3566 124.291 44.3747 118.127C43.9335 116.756 43.4742 115.333 43.4065 113.868C44.7937 115.53 45.627 117.715 46.5539 119.691C46.6758 119.952 46.9796 119.86 46.9355 119.578C46.4396 116.398 46.2443 106.411 49.13 106.588C50.4347 106.668 48.9831 115.356 48.9275 117.129C48.9183 117.414 49.2716 117.522 49.3451 117.256C50.199 114.174 56.09 107.806 57.1595 109.079C57.6135 109.62 54.8612 112.613 53.9228 114.019C52.1636 116.654 50.9579 119.598 49.8366 122.542C49.7377 122.801 50.0569 123.074 50.1951 122.856C51.2391 121.209 55.1353 117.25 56.4529 119.211C57.4091 120.634 54.8579 122.694 53.6012 123.914C51.3716 126.081 49.2457 128.468 48.1652 131.348C47.4294 133.311 42.1422 139.925 41.3535 138.872Z" fill="#F5F5F5"/>
<path d="M42.1527 137.922C42.1978 137.879 42.2199 137.818 42.2194 137.756C42.2103 136.609 42.289 125.345 48.7469 117.282C54.2103 110.46 48.4964 115.426 46.0215 117.659C45.8228 117.838 45.5242 117.608 45.6476 117.371C47.3045 114.187 51.4407 105.785 49.7674 104.284C48.1853 102.864 45.4901 110.48 44.3026 114.167C44.2167 114.434 43.8207 114.362 43.8346 114.081C44.0257 110.237 44.1725 102.21 42.0341 102.608C39.9164 103.002 41.0857 113.533 41.7869 118.68C41.8258 118.965 41.4221 119.065 41.3237 118.794C40.189 115.665 38.1025 111.064 36.0202 112.426C32.9381 114.442 41.1553 120.488 41.0449 127.541C40.9369 134.452 41.0545 138.977 42.1527 137.922Z" fill="#E6E6E6"/>
<path d="M46.5175 155.179C48.4749 147.881 49.7637 137.602 49.7637 135.07H35.1641C35.1641 137.602 36.4533 147.881 38.4103 155.179C38.7698 156.52 39.989 157.45 41.3781 157.45H43.5497C44.9383 157.45 46.1575 156.521 46.5175 155.179Z" fill="#E6E6E6"/>
<path d="M206.263 156.981H193.122C191.525 156.981 190.208 155.732 190.123 154.137L188.516 124H210.87L209.262 154.137C209.177 155.732 207.86 156.981 206.263 156.981Z" fill="#E6E6E6"/>
<path d="M202.721 125.85H196.664V131.907H202.721V125.85Z" fill="#FAFAFA"/>
<path d="M202.721 133.398H196.664V139.456H202.721V133.398Z" fill="#FAFAFA"/>
<path d="M202.721 140.947H196.664V147.004H202.721V140.947Z" fill="#FAFAFA"/>
<path d="M202.721 148.496H196.664V154.553H202.721V148.496Z" fill="#FAFAFA"/>
<path d="M211.554 124.001H187.834C187.503 124.001 187.234 123.733 187.234 123.402V122.404C187.234 122.073 187.503 121.805 187.834 121.805H211.554C211.885 121.805 212.153 122.073 212.153 122.404V123.402C212.153 123.733 211.884 124.001 211.554 124.001Z" fill="#F5F5F5"/>
<path d="M207.803 148.496H204.281V154.553H207.357C207.439 154.399 207.497 154.23 207.506 154.044L207.803 148.496Z" fill="#FAFAFA"/>
<path d="M195.107 148.496H191.586L191.882 154.044C191.891 154.23 191.949 154.399 192.031 154.553H195.107V148.496H195.107Z" fill="#FAFAFA"/>
<path d="M195.104 140.947H191.18L191.503 147.005H195.104V140.947Z" fill="#FAFAFA"/>
<path d="M195.107 133.398H190.781L191.104 139.456H195.107V133.398Z" fill="#FAFAFA"/>
<path d="M195.104 125.85H190.375L190.699 131.907H195.104V125.85Z" fill="#FAFAFA"/>
<path d="M204.281 140.947V147.005H207.882L208.205 140.947H204.281Z" fill="#FAFAFA"/>
<path d="M204.281 133.398V139.456H208.285L208.607 133.398H204.281Z" fill="#FAFAFA"/>
<path d="M204.281 125.85V131.907H208.688L209.011 125.85H204.281Z" fill="#FAFAFA"/>
<path d="M118.668 177.276C170.068 177.276 211.735 174.843 211.735 171.841C211.735 168.84 170.068 166.406 118.668 166.406C67.2689 166.406 25.6016 168.84 25.6016 171.841C25.6016 174.843 67.2689 177.276 118.668 177.276Z" fill="#F5F5F5"/>
<path d="M191.307 89.799C187.91 89.799 183.897 83.5907 180.356 78.1124C178.034 74.5196 175.778 71.0329 173.377 68.5105H181.319V64.6705H171.579C173.321 62.6862 174.97 60.1364 176.663 57.5185C179.323 53.403 182.634 48.2814 185.165 48.2814H192.615V44.4414H185.165C180.544 44.4414 177.092 49.7809 173.438 55.4334C170.777 59.5489 167.467 64.6705 164.936 64.6705H156.925H93.9169H84.663H79.9057C77.3746 64.6705 74.0636 59.5489 71.4034 55.4334C67.7492 49.7804 64.2975 44.4414 59.6761 44.4414H52.226V48.2814H59.6761C62.2071 48.2814 65.5182 53.403 68.1783 57.5185C69.8708 60.1364 71.5201 62.6862 73.262 64.6705H38.75V68.5105H77.4658C75.0649 71.0334 72.8094 74.5196 70.4866 78.1124C66.9457 83.5902 62.9319 89.799 59.5345 89.799H45.4134V93.639H59.535C65.0223 93.639 69.2434 87.11 73.7118 80.1971C77.2527 74.7193 81.2665 68.5105 84.6634 68.5105H93.9174H156.926H166.179C169.577 68.5105 173.59 74.7193 177.132 80.1971C181.6 87.1096 185.821 93.639 191.308 93.639H205.43V89.799H191.307Z" fill="#263238"/>
<g opacity="0.4">
<path d="M169.814 67.5938L169.609 67.8899C172.438 69.8411 175.114 73.7747 178.067 78.3347L178.37 78.1389C175.395 73.5457 172.698 69.5819 169.814 67.5938Z" fill="white"/>
<path d="M182.107 83.7949L181.812 84.0013C183.466 86.3668 184.845 88.0381 186.151 89.2616L186.397 88.9991C185.109 87.7928 183.746 86.1392 182.107 83.7949Z" fill="white"/>
<path d="M178.984 79.7544C179.605 80.7144 180.227 81.6692 180.85 82.5965L181.149 82.3959C180.527 81.47 179.906 80.5167 179.287 79.5586L178.984 79.7544Z" fill="white"/>
<path d="M187.68 90.0703L187.469 90.3617C188.799 91.3255 190.054 91.7935 191.306 91.7935H200.831V91.4335H191.306C190.132 91.434 188.946 90.9876 187.68 90.0703Z" fill="white"/>
<path d="M205.427 91.4336H202.547V91.7936H205.427V91.4336Z" fill="white"/>
<path d="M41.63 66.3047H38.75V66.6647H41.63V66.3047Z" fill="white"/>
<path d="M55.59 66.3047H44.4219V66.6647H55.59V66.3047Z" fill="white"/>
<path d="M58.3828 66.3051V66.6651H80.7191V66.3051H79.907C79.0641 66.3051 78.2159 66.0171 77.315 65.4258L77.1172 65.7267C77.4815 65.9663 77.8391 66.1583 78.1919 66.3056L58.3828 66.3051Z" fill="white"/>
<path d="M150.52 66.3047H139.352V66.6647H150.52V66.3047Z" fill="white"/>
<path d="M175.648 66.6656V66.3056H166.652C167.005 66.1587 167.362 65.9663 167.726 65.7267L167.529 65.4258C166.627 66.0176 165.779 66.3051 164.937 66.3051H161.504H159.807H156.927H153.312V66.6651H156.927H159.807H161.504H166.18C166.826 66.6651 167.493 66.8063 168.162 67.0856L168.301 66.7535C168.22 66.7199 168.14 66.6954 168.06 66.6656H175.648Z" fill="white"/>
<path d="M136.56 66.3047H130.977V66.6647H136.56V66.3047Z" fill="white"/>
<path d="M128.18 66.3047H105.844V66.6647H128.18V66.3047Z" fill="white"/>
<path d="M181.318 66.3047H178.438V66.6647H181.318V66.3047Z" fill="white"/>
<path d="M174.394 57.71L174.092 57.5137C172.596 59.8105 170.854 62.4049 169.102 64.1257L169.354 64.3825C171.132 62.6367 172.888 60.0231 174.394 57.71Z" fill="white"/>
<path d="M185.163 46.4362H187.651V46.0762H185.163C181.497 46.0762 178.165 51.2232 175.227 55.7635L175.529 55.9589C178.418 51.4954 181.692 46.4357 185.163 46.4362Z" fill="white"/>
<path d="M192.614 46.0762H189.734V46.4362H192.614V46.0762Z" fill="white"/>
<path d="M75.7383 64.1257C73.9858 62.4049 72.2434 59.8105 70.7472 57.5137L70.4453 57.71C71.9516 60.0226 73.7074 62.6367 75.4858 64.3825L75.7383 64.1257Z" fill="white"/>
<path d="M69.3099 55.9589L69.6123 55.7635C66.6733 51.2227 63.3421 46.0757 59.6758 46.0762H57.1875V46.4362H59.6758C63.1462 46.4357 66.4208 51.4954 69.3099 55.9589Z" fill="white"/>
<path d="M55.1066 46.0762H52.2266V46.4362H55.1066V46.0762Z" fill="white"/>
<path d="M91.8887 66.3047H91.0391V66.6647H91.8887H93.9191H103.056V66.3047H93.9191H91.8887Z" fill="white"/>
<path d="M72.4766 78.1384L72.779 78.3342C75.7324 73.7747 78.4074 69.8416 81.237 67.8899L81.0326 67.5938C78.1487 69.5829 75.4516 73.5462 72.4766 78.1384Z" fill="white"/>
<path d="M84.667 66.3052H83.5141V66.4439C83.193 66.5178 82.8699 66.6181 82.5469 66.753L82.6856 67.0852C83.3542 66.8063 84.0214 66.6647 84.667 66.6647H89.0979H89.3432V66.3047H89.0979H84.667V66.3052Z" fill="white"/>
<path d="M59.5329 91.4335H50.0078V91.7935H59.5329C60.7843 91.7935 62.0395 91.325 63.3701 90.3617L63.1584 90.0703C61.8921 90.9871 60.7061 91.4335 59.5329 91.4335Z" fill="white"/>
<path d="M69.6953 82.3954L69.9944 82.596C70.6174 81.6687 71.2385 80.7135 71.8596 79.754L71.5572 79.5586C70.9376 80.5162 70.3174 81.4695 69.6953 82.3954Z" fill="white"/>
<path d="M64.4453 88.9991L64.6916 89.2616C65.9976 88.0381 67.3757 86.3668 69.0298 84.0013L68.7351 83.7949C67.0949 86.1392 65.7322 87.7928 64.4453 88.9991Z" fill="white"/>
<path d="M48.2941 91.4336H45.4141V91.7936H48.2941V91.4336Z" fill="white"/>
</g>
<path d="M59.6919 82.4434H56.1721C55.3441 82.4434 54.5708 82.8586 54.1139 83.5493L53.5988 84.3274C53.1793 84.961 52.4703 85.3421 51.7105 85.3421H42.6308C41.8162 85.3421 41.1562 86.0021 41.1562 86.8166V100.994H61.6263V85.3421L61.4458 83.9808C61.3297 83.101 60.5794 82.4434 59.6919 82.4434Z" fill="#2969B1"/>
<path opacity="0.2" d="M59.6919 82.4434H56.1721C55.3441 82.4434 54.5708 82.8586 54.1139 83.5493L53.5988 84.3274C53.1793 84.961 52.4703 85.3421 51.7105 85.3421H42.6308C41.8162 85.3421 41.1562 86.0021 41.1562 86.8166V100.994H61.6263V85.3421L61.4458 83.9808C61.3297 83.101 60.5794 82.4434 59.6919 82.4434Z" fill="white"/>
<path d="M60.0948 87.1328H42.6953V99.031H60.0948V87.1328Z" fill="#263238"/>
<path opacity="0.9" d="M60.0948 87.1328H42.6953V99.031H60.0948V87.1328Z" fill="white"/>
<path d="M61.6291 100.993H41.159L38.1566 90.058C37.9291 89.2295 38.5526 88.4121 39.4113 88.4121H56.1868C57.3609 88.4121 58.3905 89.1969 58.7015 90.3292L61.6291 100.993Z" fill="#2969B1"/>
<path opacity="0.6" d="M61.6291 100.993H41.159L38.1566 90.058C37.9291 89.2295 38.5526 88.4121 39.4113 88.4121H56.1868C57.3609 88.4121 58.3905 89.1969 58.7015 90.3292L61.6291 100.993Z" fill="white"/>
<path d="M37.0792 30.3242H40.8765C41.7698 30.3242 42.604 30.7721 43.097 31.517L43.6528 32.3565C44.1055 33.0401 44.8706 33.4509 45.6904 33.4509H55.4853C56.3637 33.4509 57.076 34.1633 57.076 35.0417V49.037C57.076 49.7546 56.4943 50.3364 55.7767 50.3364H36.2915C35.5739 50.3364 34.9922 49.7546 34.9922 49.037V33.4505L35.1866 31.9821C35.3123 31.0337 36.1216 30.3242 37.0792 30.3242Z" fill="#2969B1"/>
<path opacity="0.6" d="M37.0792 30.3242H40.8765C41.7698 30.3242 42.604 30.7721 43.097 31.517L43.6528 32.3565C44.1055 33.0401 44.8706 33.4509 45.6904 33.4509H55.4853C56.3637 33.4509 57.076 34.1633 57.076 35.0417V49.037C57.076 49.7546 56.4943 50.3364 55.7767 50.3364H36.2915C35.5739 50.3364 34.9922 49.7546 34.9922 49.037V33.4505L35.1866 31.9821C35.3123 31.0337 36.1216 30.3242 37.0792 30.3242Z" fill="white"/>
<path d="M53.1024 33.4512H51.1406V47.052H53.1024V33.4512Z" fill="#263238"/>
<path opacity="0.5" d="M53.1024 33.4512H51.1406V47.052H53.1024V33.4512Z" fill="white"/>
<path d="M52.185 34.0977H50.6797V35.2175H52.185V34.0977Z" fill="#263238"/>
<path d="M52.185 36.5352H50.6797V37.655H52.185V36.5352Z" fill="#263238"/>
<path d="M52.185 38.9746H50.6797V40.0944H52.185V38.9746Z" fill="#263238"/>
<path d="M52.185 41.4141H50.6797V42.5339H52.185V41.4141Z" fill="#263238"/>
<path d="M52.185 43.8516H50.6797V44.9714H52.185V43.8516Z" fill="#263238"/>
<path opacity="0.7" d="M52.185 34.0977H50.6797V35.2175H52.185V34.0977Z" fill="white"/>
<path opacity="0.7" d="M52.185 36.5371H50.6797V37.6569H52.185V36.5371Z" fill="white"/>
<path opacity="0.7" d="M52.185 38.9746H50.6797V40.0944H52.185V38.9746Z" fill="white"/>
<path opacity="0.7" d="M52.185 41.4141H50.6797V42.5339H52.185V41.4141Z" fill="white"/>
<path opacity="0.7" d="M52.185 43.8535H50.6797V44.9734H52.185V43.8535Z" fill="white"/>
<path d="M53.6459 35.2168H52.1406V36.3366H53.6459V35.2168Z" fill="#263238"/>
<path d="M53.6459 37.6562H52.1406V38.7761H53.6459V37.6562Z" fill="#263238"/>
<path d="M53.6459 40.0938H52.1406V41.2136H53.6459V40.0938Z" fill="#263238"/>
<path d="M53.6459 42.5332H52.1406V43.653H53.6459V42.5332Z" fill="#263238"/>
<path d="M53.6459 44.9727H52.1406V46.0925H53.6459V44.9727Z" fill="#263238"/>
<g opacity="0.8">
<path d="M53.6459 35.2168H52.1406V36.3366H53.6459V35.2168Z" fill="white"/>
<path d="M53.6459 37.6562H52.1406V38.7761H53.6459V37.6562Z" fill="white"/>
<path d="M53.6459 40.0938H52.1406V41.2136H53.6459V40.0938Z" fill="white"/>
<path d="M53.6459 42.5332H52.1406V43.653H53.6459V42.5332Z" fill="white"/>
<path d="M53.6459 44.9727H52.1406V46.0925H53.6459V44.9727Z" fill="white"/>
</g>
<path d="M50.0234 46.0918V50.552H54.3401V46.0918H50.0234ZM53.646 49.7432H50.7847V46.9016H53.646V49.7432Z" fill="#263238"/>
<path opacity="0.7" d="M50.0234 46.0918V50.552H54.3401V46.0918H50.0234ZM53.646 49.7432H50.7847V46.9016H53.646V49.7432Z" fill="white"/>
<path d="M51.2358 56.043H31.2266V60.5036L35.68 64.957H55.6893V60.4969L51.2358 56.043Z" fill="#2969B1"/>
<path opacity="0.3" d="M51.2358 56.043H31.2266V60.5036L35.68 64.957H55.6893V60.4969L51.2358 56.043Z" fill="white"/>
<path d="M55.689 64.9531H35.6797V69.4133H55.689V64.9531Z" fill="#2969B1"/>
<path opacity="0.3" d="M55.689 64.9531H35.6797V69.4133H55.689V64.9531Z" fill="white"/>
<path d="M55.689 69.4102H35.6797V73.8703H55.689V69.4102Z" fill="#2969B1"/>
<path opacity="0.6" d="M55.689 69.4102H35.6797V73.8703H55.689V69.4102Z" fill="white"/>
<path d="M55.689 60.4961H35.6797V64.9563H55.689V60.4961Z" fill="#2969B1"/>
<path d="M43.2276 73.8711H47.7185V60.4969L43.265 56.043H38.7737L43.2276 60.4969V73.8711Z" fill="#2969B1"/>
<path opacity="0.2" d="M43.2276 73.8711H47.7185V60.4969L43.265 56.043H38.7737L43.2276 60.4969V73.8711Z" fill="black"/>
<path d="M42.0312 63.6836V70.6849H48.8069V63.6836H42.0312ZM47.7173 69.4143H43.226V64.9542H47.7173V69.4143Z" fill="#263238"/>
<path opacity="0.5" d="M42.0312 63.6836V70.6849H48.8069V63.6836H42.0312ZM47.7173 69.4143H43.226V64.9542H47.7173V69.4143Z" fill="white"/>
<path d="M31.2266 56.043V60.5036L35.68 64.957V60.4969L31.2266 56.043Z" fill="#263238"/>
<path opacity="0.5" d="M31.2266 56.043V60.5036L35.68 64.957V60.4969L31.2266 56.043Z" fill="white"/>
<path d="M31.2266 60.5V64.9602L35.68 69.4136V64.9534L31.2266 60.5Z" fill="#263238"/>
<path opacity="0.6" d="M31.2266 60.5V64.9602L35.68 69.4136V64.9534L31.2266 60.5Z" fill="white"/>
<path d="M31.2266 64.957V69.4172L35.68 73.8711V69.4105L31.2266 64.957Z" fill="#263238"/>
<path opacity="0.8" d="M31.2266 64.957V69.4172L35.68 73.8711V69.4105L31.2266 64.957Z" fill="white"/>
<path d="M209.275 76.5586H187.453V105.924H209.275V76.5586Z" fill="#2969B1"/>
<path opacity="0.7" d="M209.275 76.5586H187.453V105.924H209.275V76.5586Z" fill="white"/>
<path opacity="0.7" d="M207.846 77.9844H188.875V85.6284H207.846V77.9844Z" fill="white"/>
<path opacity="0.7" d="M207.846 87.4199H188.875V95.0639H207.846V87.4199Z" fill="white"/>
<path d="M207.846 82.1094L206.076 79.9518L203.89 82.6158L201.706 79.4766L199.387 81.7959L197.112 80.5167L195.042 83.953L192.972 80.5162L190.624 81.843L188.875 80.8551V81.6735L190.624 82.6614L192.72 81.4777L195.042 85.3345L197.365 81.4772L199.509 82.6825L201.608 80.5834L203.843 83.797L206.076 81.0754L207.846 83.2326V82.1094Z" fill="#2969B1"/>
<path opacity="0.5" d="M207.846 82.1094L206.076 79.9518L203.89 82.6158L201.706 79.4766L199.387 81.7959L197.112 80.5167L195.042 83.953L192.972 80.5162L190.624 81.843L188.875 80.8551V81.6735L190.624 82.6614L192.72 81.4777L195.042 85.3345L197.365 81.4772L199.509 82.6825L201.608 80.5834L203.843 83.797L206.076 81.0754L207.846 83.2326V82.1094Z" fill="white"/>
<path d="M207.846 89.7402L206.063 90.7473L203.714 89.4205L201.644 92.8573L199.575 89.4215L197.299 90.7007L194.98 88.3809L192.797 91.5201L190.611 88.8561L188.875 90.9719V92.0951L190.611 89.9802L192.844 92.7009L195.079 89.4877L197.178 91.5873L199.321 90.382L201.644 94.2393L203.967 90.3825L206.063 91.5657L207.846 90.5591V89.7402Z" fill="#2969B1"/>
<path opacity="0.5" d="M207.846 89.7402L206.063 90.7473L203.714 89.4205L201.644 92.8573L199.575 89.4215L197.299 90.7007L194.98 88.3809L192.797 91.5201L190.611 88.8561L188.875 90.9719V92.0951L190.611 89.9802L192.844 92.7009L195.079 89.4877L197.178 91.5873L199.321 90.382L201.644 94.2393L203.967 90.3825L206.063 91.5657L207.846 90.5591V89.7402Z" fill="white"/>
<path d="M196.711 97.2108C200.335 97.2108 203.958 97.2108 207.581 97.2108C208.04 97.2108 208.041 96.498 207.581 96.498C203.958 96.498 200.335 96.498 196.711 96.498C196.253 96.498 196.252 97.2108 196.711 97.2108Z" fill="#263238"/>
<path d="M196.711 99.1522C199.86 99.1522 203.008 99.1522 206.156 99.1522C206.615 99.1522 206.615 98.4395 206.156 98.4395C203.008 98.4395 199.86 98.4395 196.711 98.4395C196.253 98.4395 196.252 99.1522 196.711 99.1522Z" fill="#263238"/>
<path d="M196.711 101.092C199.86 101.092 203.008 101.092 206.156 101.092C206.615 101.092 206.615 100.379 206.156 100.379C203.008 100.379 199.86 100.379 196.711 100.379C196.253 100.379 196.252 101.092 196.711 101.092Z" fill="#263238"/>
<path d="M196.711 103.033C200.018 103.033 203.324 103.033 206.631 103.033C207.09 103.033 207.09 102.32 206.631 102.32C203.324 102.32 200.018 102.32 196.711 102.32C196.253 102.32 196.252 103.033 196.711 103.033Z" fill="#263238"/>
<g opacity="0.4">
<path d="M196.711 97.2108C200.335 97.2108 203.958 97.2108 207.581 97.2108C208.04 97.2108 208.041 96.498 207.581 96.498C203.958 96.498 200.335 96.498 196.711 96.498C196.253 96.498 196.252 97.2108 196.711 97.2108Z" fill="white"/>
<path d="M196.711 99.1522C199.86 99.1522 203.008 99.1522 206.156 99.1522C206.615 99.1522 206.615 98.4395 206.156 98.4395C203.008 98.4395 199.86 98.4395 196.711 98.4395C196.253 98.4395 196.252 99.1522 196.711 99.1522Z" fill="white"/>
<path d="M196.711 101.092C199.86 101.092 203.008 101.092 206.156 101.092C206.615 101.092 206.615 100.379 206.156 100.379C203.008 100.379 199.86 100.379 196.711 100.379C196.253 100.379 196.252 101.092 196.711 101.092Z" fill="white"/>
<path d="M196.711 103.033C200.018 103.033 203.324 103.033 206.631 103.033C207.09 103.033 207.09 102.32 206.631 102.32C203.324 102.32 200.018 102.32 196.711 102.32C196.253 102.32 196.252 103.033 196.711 103.033Z" fill="white"/>
</g>
<path d="M208.167 31.3887H188.328V58.0844H208.167V31.3887Z" fill="#2969B1"/>
<path opacity="0.6" d="M208.167 31.3887H188.328V58.0844H208.167V31.3887Z" fill="white"/>
<path opacity="0.7" d="M206.871 32.6855H189.625V39.6345H206.871V32.6855Z" fill="white"/>
<path d="M196.797 41.7222C200.091 41.7222 203.385 41.7222 206.679 41.7222C207.096 41.7222 207.097 41.0742 206.679 41.0742C203.385 41.0742 200.091 41.0742 196.797 41.0742C196.38 41.0742 196.38 41.7222 196.797 41.7222Z" fill="#263238"/>
<path d="M196.797 43.4859C199.659 43.4859 202.521 43.4859 205.383 43.4859C205.8 43.4859 205.801 42.8379 205.383 42.8379C202.521 42.8379 199.659 42.8379 196.797 42.8379C196.38 42.8379 196.38 43.4859 196.797 43.4859Z" fill="#263238"/>
<path d="M196.797 45.2496C199.659 45.2496 202.521 45.2496 205.383 45.2496C205.8 45.2496 205.801 44.6016 205.383 44.6016C202.521 44.6016 199.659 44.6016 196.797 44.6016C196.38 44.6016 196.38 45.2496 196.797 45.2496Z" fill="#263238"/>
<path d="M196.797 47.0152C199.803 47.0152 202.809 47.0152 205.815 47.0152C206.232 47.0152 206.233 46.3672 205.815 46.3672C202.809 46.3672 199.803 46.3672 196.797 46.3672C196.38 46.3672 196.38 47.0152 196.797 47.0152Z" fill="#263238"/>
<path d="M196.797 48.7789C199.227 48.7789 201.657 48.7789 204.087 48.7789C204.504 48.7789 204.505 48.1309 204.087 48.1309C201.657 48.1309 199.227 48.1309 196.797 48.1309C196.38 48.1309 196.38 48.7789 196.797 48.7789Z" fill="#263238"/>
<path d="M196.797 50.5425C200.091 50.5425 203.385 50.5425 206.679 50.5425C207.096 50.5425 207.097 49.8945 206.679 49.8945C203.385 49.8945 200.091 49.8945 196.797 49.8945C196.38 49.8945 196.38 50.5425 196.797 50.5425Z" fill="#263238"/>
<path d="M196.797 52.3062C199.659 52.3062 202.521 52.3062 205.383 52.3062C205.8 52.3062 205.801 51.6582 205.383 51.6582C202.521 51.6582 199.659 51.6582 196.797 51.6582C196.38 51.6582 196.38 52.3062 196.797 52.3062Z" fill="#263238"/>
<path d="M196.797 54.0699C199.659 54.0699 202.521 54.0699 205.383 54.0699C205.8 54.0699 205.801 53.4219 205.383 53.4219C202.521 53.4219 199.659 53.4219 196.797 53.4219C196.38 53.4219 196.38 54.0699 196.797 54.0699Z" fill="#263238"/>
<path d="M196.797 55.8335C199.803 55.8335 202.809 55.8335 205.815 55.8335C206.232 55.8335 206.233 55.1855 205.815 55.1855C202.809 55.1855 199.803 55.1855 196.797 55.1855C196.38 55.1855 196.38 55.8335 196.797 55.8335Z" fill="#263238"/>
<g opacity="0.4">
<path d="M196.797 41.7222C200.091 41.7222 203.385 41.7222 206.679 41.7222C207.096 41.7222 207.097 41.0742 206.679 41.0742C203.385 41.0742 200.091 41.0742 196.797 41.0742C196.38 41.0742 196.38 41.7222 196.797 41.7222Z" fill="white"/>
</g>
<g opacity="0.4">
<path d="M196.797 43.4859C199.659 43.4859 202.521 43.4859 205.383 43.4859C205.8 43.4859 205.801 42.8379 205.383 42.8379C202.521 42.8379 199.659 42.8379 196.797 42.8379C196.38 42.8379 196.38 43.4859 196.797 43.4859Z" fill="white"/>
</g>
<g opacity="0.4">
<path d="M196.797 45.2496C199.659 45.2496 202.521 45.2496 205.383 45.2496C205.8 45.2496 205.801 44.6016 205.383 44.6016C202.521 44.6016 199.659 44.6016 196.797 44.6016C196.38 44.6016 196.38 45.2496 196.797 45.2496Z" fill="white"/>
</g>
<g opacity="0.4">
<path d="M196.797 47.0152C199.803 47.0152 202.809 47.0152 205.815 47.0152C206.232 47.0152 206.233 46.3672 205.815 46.3672C202.809 46.3672 199.803 46.3672 196.797 46.3672C196.38 46.3672 196.38 47.0152 196.797 47.0152Z" fill="white"/>
</g>
<g opacity="0.4">
<path d="M196.797 48.7789C199.227 48.7789 201.657 48.7789 204.087 48.7789C204.504 48.7789 204.505 48.1309 204.087 48.1309C201.657 48.1309 199.227 48.1309 196.797 48.1309C196.38 48.1309 196.38 48.7789 196.797 48.7789Z" fill="white"/>
</g>
<g opacity="0.4">
<path d="M196.797 50.5425C200.091 50.5425 203.385 50.5425 206.679 50.5425C207.096 50.5425 207.097 49.8945 206.679 49.8945C203.385 49.8945 200.091 49.8945 196.797 49.8945C196.38 49.8945 196.38 50.5425 196.797 50.5425Z" fill="white"/>
</g>
<g opacity="0.4">
<path d="M196.797 52.3062C199.659 52.3062 202.521 52.3062 205.383 52.3062C205.8 52.3062 205.801 51.6582 205.383 51.6582C202.521 51.6582 199.659 51.6582 196.797 51.6582C196.38 51.6582 196.38 52.3062 196.797 52.3062Z" fill="white"/>
</g>
<g opacity="0.4">
<path d="M196.797 54.0699C199.659 54.0699 202.521 54.0699 205.383 54.0699C205.8 54.0699 205.801 53.4219 205.383 53.4219C202.521 53.4219 199.659 53.4219 196.797 53.4219C196.38 53.4219 196.38 54.0699 196.797 54.0699Z" fill="white"/>
</g>
<g opacity="0.4">
<path d="M196.797 55.8335C199.803 55.8335 202.809 55.8335 205.815 55.8335C206.232 55.8335 206.233 55.1855 205.815 55.1855C202.809 55.1855 199.803 55.1855 196.797 55.1855C196.38 55.1855 196.38 55.8335 196.797 55.8335Z" fill="white"/>
</g>
<path d="M194.486 41.3984H189.625V46.2594H194.486V41.3984Z" fill="#2969B1"/>
<path opacity="0.3" d="M194.486 41.3984H189.625V46.2594H194.486V41.3984Z" fill="white"/>
<path d="M194.957 36.373H193.641V39.0049H194.957V36.373Z" fill="#2969B1"/>
<path d="M197.59 35.0566H196.273V39.0046H197.59V35.0566Z" fill="#2969B1"/>
<path d="M200.222 35.7148H198.906V39.0048H200.222V35.7148Z" fill="#2969B1"/>
<path d="M202.855 33.7402H201.539V39.0044H202.855V33.7402Z" fill="#2969B1"/>
<path d="M198.448 53.5684H178.609V80.264H198.448V53.5684Z" fill="#2969B1"/>
<path opacity="0.8" d="M198.448 53.5684H178.609V80.264H198.448V53.5684Z" fill="white"/>
<path d="M187.079 56.4292C190.372 56.4292 193.667 56.4292 196.96 56.4292C197.378 56.4292 197.378 55.7812 196.96 55.7812C193.667 55.7812 190.372 55.7812 187.079 55.7812C186.662 55.7812 186.661 56.4292 187.079 56.4292Z" fill="#263238"/>
<path d="M187.079 58.1929C189.94 58.1929 192.803 58.1929 195.664 58.1929C196.082 58.1929 196.082 57.5449 195.664 57.5449C192.803 57.5449 189.94 57.5449 187.079 57.5449C186.662 57.5449 186.661 58.1929 187.079 58.1929Z" fill="#263238"/>
<path d="M187.079 59.9566C189.94 59.9566 192.803 59.9566 195.664 59.9566C196.082 59.9566 196.082 59.3086 195.664 59.3086C192.803 59.3086 189.94 59.3086 187.079 59.3086C186.662 59.3086 186.661 59.9566 187.079 59.9566Z" fill="#263238"/>
<path d="M187.079 61.7222C190.084 61.7222 193.091 61.7222 196.096 61.7222C196.514 61.7222 196.514 61.0742 196.096 61.0742C193.091 61.0742 190.084 61.0742 187.079 61.0742C186.662 61.0742 186.661 61.7222 187.079 61.7222Z" fill="#263238"/>
<path d="M187.079 63.4859C189.508 63.4859 191.939 63.4859 194.368 63.4859C194.786 63.4859 194.786 62.8379 194.368 62.8379C191.939 62.8379 189.508 62.8379 187.079 62.8379C186.662 62.8379 186.661 63.4859 187.079 63.4859Z" fill="#263238"/>
<path d="M187.079 65.2496C190.372 65.2496 193.667 65.2496 196.96 65.2496C197.378 65.2496 197.378 64.6016 196.96 64.6016C193.667 64.6016 190.372 64.6016 187.079 64.6016C186.662 64.6016 186.661 65.2496 187.079 65.2496Z" fill="#263238"/>
<path d="M187.079 67.0132C189.94 67.0132 192.803 67.0132 195.664 67.0132C196.082 67.0132 196.082 66.3652 195.664 66.3652C192.803 66.3652 189.94 66.3652 187.079 66.3652C186.662 66.3652 186.661 67.0132 187.079 67.0132Z" fill="#263238"/>
<path d="M187.079 68.7769C189.94 68.7769 192.803 68.7769 195.664 68.7769C196.082 68.7769 196.082 68.1289 195.664 68.1289C192.803 68.1289 189.94 68.1289 187.079 68.1289C186.662 68.1289 186.661 68.7769 187.079 68.7769Z" fill="#263238"/>
<path d="M187.079 72.3062C189.508 72.3062 191.939 72.3062 194.368 72.3062C194.786 72.3062 194.786 71.6582 194.368 71.6582C191.939 71.6582 189.508 71.6582 187.079 71.6582C186.662 71.6582 186.661 72.3062 187.079 72.3062Z" fill="#263238"/>
<path d="M187.079 74.0718C190.372 74.0718 193.667 74.0718 196.96 74.0718C197.378 74.0718 197.378 73.4238 196.96 73.4238C193.667 73.4238 190.372 73.4238 187.079 73.4238C186.662 73.4238 186.661 74.0718 187.079 74.0718Z" fill="#263238"/>
<path d="M187.079 75.8355C189.94 75.8355 192.803 75.8355 195.664 75.8355C196.082 75.8355 196.082 75.1875 195.664 75.1875C192.803 75.1875 189.94 75.1875 187.079 75.1875C186.662 75.1875 186.661 75.8355 187.079 75.8355Z" fill="#263238"/>
<path d="M187.079 77.5992C189.94 77.5992 192.803 77.5992 195.664 77.5992C196.082 77.5992 196.082 76.9512 195.664 76.9512C192.803 76.9512 189.94 76.9512 187.079 76.9512C186.662 76.9512 186.661 77.5992 187.079 77.5992Z" fill="#263238"/>
<path d="M187.079 70.5406C190.084 70.5406 193.091 70.5406 196.096 70.5406C196.514 70.5406 196.514 69.8926 196.096 69.8926C193.091 69.8926 190.084 69.8926 187.079 69.8926C186.662 69.8926 186.661 70.5406 187.079 70.5406Z" fill="#263238"/>
<g opacity="0.4">
<path d="M187.079 56.4292C190.372 56.4292 193.667 56.4292 196.96 56.4292C197.378 56.4292 197.378 55.7812 196.96 55.7812C193.667 55.7812 190.372 55.7812 187.079 55.7812C186.662 55.7812 186.661 56.4292 187.079 56.4292Z" fill="white"/>
<path d="M187.079 58.1929C189.94 58.1929 192.803 58.1929 195.664 58.1929C196.082 58.1929 196.082 57.5449 195.664 57.5449C192.803 57.5449 189.94 57.5449 187.079 57.5449C186.662 57.5449 186.661 58.1929 187.079 58.1929Z" fill="white"/>
<path d="M187.079 59.9566C189.94 59.9566 192.803 59.9566 195.664 59.9566C196.082 59.9566 196.082 59.3086 195.664 59.3086C192.803 59.3086 189.94 59.3086 187.079 59.3086C186.662 59.3086 186.661 59.9566 187.079 59.9566Z" fill="white"/>
<path d="M187.079 61.7222C190.084 61.7222 193.091 61.7222 196.096 61.7222C196.514 61.7222 196.514 61.0742 196.096 61.0742C193.091 61.0742 190.084 61.0742 187.079 61.0742C186.662 61.0742 186.661 61.7222 187.079 61.7222Z" fill="white"/>
<path d="M187.079 63.4859C189.508 63.4859 191.939 63.4859 194.368 63.4859C194.786 63.4859 194.786 62.8379 194.368 62.8379C191.939 62.8379 189.508 62.8379 187.079 62.8379C186.662 62.8379 186.661 63.4859 187.079 63.4859Z" fill="white"/>
<path d="M187.079 65.2496C190.372 65.2496 193.667 65.2496 196.96 65.2496C197.378 65.2496 197.378 64.6016 196.96 64.6016C193.667 64.6016 190.372 64.6016 187.079 64.6016C186.662 64.6016 186.661 65.2496 187.079 65.2496Z" fill="white"/>
<path d="M187.079 67.0132C189.94 67.0132 192.803 67.0132 195.664 67.0132C196.082 67.0132 196.082 66.3652 195.664 66.3652C192.803 66.3652 189.94 66.3652 187.079 66.3652C186.662 66.3652 186.661 67.0132 187.079 67.0132Z" fill="white"/>
<path d="M187.079 68.7769C189.94 68.7769 192.803 68.7769 195.664 68.7769C196.082 68.7769 196.082 68.1289 195.664 68.1289C192.803 68.1289 189.94 68.1289 187.079 68.1289C186.662 68.1289 186.661 68.7769 187.079 68.7769Z" fill="white"/>
<path d="M187.079 72.3062C189.508 72.3062 191.939 72.3062 194.368 72.3062C194.786 72.3062 194.786 71.6582 194.368 71.6582C191.939 71.6582 189.508 71.6582 187.079 71.6582C186.662 71.6582 186.661 72.3062 187.079 72.3062Z" fill="white"/>
<path d="M187.079 74.0718C190.372 74.0718 193.667 74.0718 196.96 74.0718C197.378 74.0718 197.378 73.4238 196.96 73.4238C193.667 73.4238 190.372 73.4238 187.079 73.4238C186.662 73.4238 186.661 74.0718 187.079 74.0718Z" fill="white"/>
<path d="M187.079 75.8355C189.94 75.8355 192.803 75.8355 195.664 75.8355C196.082 75.8355 196.082 75.1875 195.664 75.1875C192.803 75.1875 189.94 75.1875 187.079 75.1875C186.662 75.1875 186.661 75.8355 187.079 75.8355Z" fill="white"/>
<path d="M187.079 77.5992C189.94 77.5992 192.803 77.5992 195.664 77.5992C196.082 77.5992 196.082 76.9512 195.664 76.9512C192.803 76.9512 189.94 76.9512 187.079 76.9512C186.662 76.9512 186.661 77.5992 187.079 77.5992Z" fill="white"/>
<path d="M187.079 70.5406C190.084 70.5406 193.091 70.5406 196.096 70.5406C196.514 70.5406 196.514 69.8926 196.096 69.8926C193.091 69.8926 190.084 69.8926 187.079 69.8926C186.662 69.8926 186.661 70.5406 187.079 70.5406Z" fill="white"/>
</g>
<path d="M181.656 65.3669L180.873 64.584C180.334 65.123 180 65.868 180 66.6907H181.107C181.107 66.1737 181.317 65.7058 181.656 65.3669Z" fill="#2969B1"/>
<path d="M182.979 68.5629C181.945 68.5629 181.107 67.7248 181.107 66.6914H180C180 68.3368 181.334 69.6703 182.979 69.6703V68.5629Z" fill="#2969B1"/>
<path opacity="0.3" d="M182.979 68.5629C181.945 68.5629 181.107 67.7248 181.107 66.6914H180C180 68.3368 181.334 69.6703 182.979 69.6703V68.5629Z" fill="white"/>
<path d="M181.658 65.3665C181.997 65.0276 182.465 64.8183 182.981 64.8183V63.7109C182.159 63.7109 181.414 64.0445 180.875 64.5836L181.658 65.3665Z" fill="#2969B1"/>
<path opacity="0.5" d="M181.658 65.3665C181.997 65.0276 182.465 64.8183 182.981 64.8183V63.7109C182.159 63.7109 181.414 64.0445 180.875 64.5836L181.658 65.3665Z" fill="black"/>
<path d="M184.848 66.6898C184.848 67.7237 184.01 68.5613 182.977 68.5613V69.6687C184.622 69.6687 185.955 68.3348 185.955 66.6898C185.955 65.0449 184.622 63.7109 182.977 63.7109V64.8183C184.01 64.8183 184.848 65.6564 184.848 66.6898Z" fill="#2969B1"/>
<path opacity="0.2" d="M184.305 68.0133L185.088 68.7962C185.627 68.2571 185.96 67.5122 185.96 66.6895H184.853C184.853 67.2064 184.644 67.6744 184.305 68.0133Z" fill="black"/>
<path d="M181.658 59.7422L180.875 60.5251C181.414 61.0641 182.159 61.3977 182.982 61.3977V60.2903C182.465 60.2903 181.997 60.0811 181.658 59.7422Z" fill="#2969B1"/>
<path d="M184.848 58.418C184.848 59.4519 184.01 60.2895 182.977 60.2895V61.3969C184.622 61.3969 185.955 60.0629 185.955 58.418H184.848Z" fill="#2969B1"/>
<path opacity="0.3" d="M184.848 58.418C184.848 59.4519 184.01 60.2895 182.977 60.2895V61.3969C184.622 61.3969 185.955 60.0629 185.955 58.418H184.848Z" fill="white"/>
<path d="M181.656 59.7413C181.317 59.4025 181.107 58.9349 181.107 58.418H180C180 59.2407 180.334 59.9852 180.873 60.5247L181.656 59.7413Z" fill="#2969B1"/>
<path opacity="0.5" d="M181.656 59.7413C181.317 59.4025 181.107 58.9349 181.107 58.418H180C180 59.2407 180.334 59.9852 180.873 60.5247L181.656 59.7413Z" fill="black"/>
<path d="M182.979 56.5468C184.013 56.5468 184.85 57.3849 184.85 58.4183H185.958C185.958 56.7729 184.624 55.4395 182.979 55.4395C181.334 55.4395 180 56.7734 180 58.4183H181.107C181.107 57.3849 181.945 56.5468 182.979 56.5468Z" fill="#2969B1"/>
<path opacity="0.2" d="M184.3 57.095L185.083 56.3121C184.544 55.773 183.799 55.4395 182.977 55.4395V56.5468C183.494 56.5468 183.962 56.7561 184.3 57.095Z" fill="black"/>
<path d="M184.305 73.6388L185.088 72.8555C185.627 73.3945 185.96 74.1395 185.96 74.9622H184.853C184.853 74.4452 184.643 73.9772 184.305 73.6388Z" fill="#2969B1"/>
<path d="M182.977 76.8325C184.01 76.8325 184.848 75.9944 184.848 74.9609H185.955C185.955 76.6064 184.622 77.9398 182.977 77.9398V76.8325Z" fill="#2969B1"/>
<path opacity="0.3" d="M182.977 76.8325C184.01 76.8325 184.848 75.9944 184.848 74.9609H185.955C185.955 76.6064 184.622 77.9398 182.977 77.9398V76.8325Z" fill="white"/>
<path d="M184.3 73.6379C183.961 73.2991 183.494 73.0898 182.977 73.0898V71.9824C183.799 71.9824 184.544 72.316 185.083 72.8551L184.3 73.6379Z" fill="#2969B1"/>
<path opacity="0.5" d="M184.3 73.6379C183.961 73.2991 183.494 73.0898 182.977 73.0898V71.9824C183.799 71.9824 184.544 72.316 185.083 72.8551L184.3 73.6379Z" fill="black"/>
<path d="M181.107 74.9613C181.107 75.9952 181.945 76.8328 182.979 76.8328V77.9402C181.333 77.9402 180 76.6063 180 74.9613C180 73.3163 181.334 71.9824 182.979 71.9824V73.0898C181.945 73.0893 181.107 73.9274 181.107 74.9613Z" fill="#2969B1"/>
<path opacity="0.2" d="M181.656 76.2847L180.873 77.0675C180.334 76.5285 180 75.7835 180 74.9608H181.107C181.107 75.4778 181.317 75.9458 181.656 76.2847Z" fill="black"/>
<path d="M138.572 109.975H126.961V106.725H138.572C139.274 106.725 139.843 107.294 139.843 107.996V108.703C139.843 109.405 139.273 109.975 138.572 109.975Z" fill="#263238"/>
<path d="M128.968 109.975H104.261C103.608 109.975 103.078 109.445 103.078 108.791V107.908C103.078 107.255 103.608 106.725 104.261 106.725H128.968C129.621 106.725 130.151 107.255 130.151 107.908V108.791C130.151 109.445 129.621 109.975 128.968 109.975Z" fill="black"/>
<path opacity="0.5" d="M128.968 109.975H104.261C103.608 109.975 103.078 109.445 103.078 108.791V107.908C103.078 107.255 103.608 106.725 104.261 106.725H128.968C129.621 106.725 130.151 107.255 130.151 107.908V108.791C130.151 109.445 129.621 109.975 128.968 109.975Z" fill="white"/>
<path d="M123.539 106.724H129.799L125.791 91.752H123.539V106.724Z" fill="#263238"/>
<path d="M128.885 106.724H116.108L114.836 91.752H124.877L128.885 106.724Z" fill="black"/>
<path opacity="0.3" d="M128.885 106.724H116.108L114.836 91.752H124.877L128.885 106.724Z" fill="white"/>
<path d="M161.07 48.7168H155.262L150.766 100.111H156.574C157.789 100.111 158.861 99.1254 158.968 97.9091L163.079 50.9186C163.185 49.7022 162.286 48.7168 161.07 48.7168Z" fill="#263238"/>
<path d="M155.233 100.111H84.9236C83.7078 100.111 82.8083 99.1254 82.9148 97.9091L87.026 50.9186C87.1326 49.7027 88.2044 48.7168 89.4203 48.7168H159.73C160.946 48.7168 161.845 49.7022 161.739 50.9186L157.627 97.9091C157.521 99.1254 156.449 100.111 155.233 100.111Z" fill="#263238"/>
<path opacity="0.7" d="M155.233 100.111H84.9236C83.7078 100.111 82.8083 99.1254 82.9148 97.9091L87.026 50.9186C87.1326 49.7027 88.2044 48.7168 89.4203 48.7168H159.73C160.946 48.7168 161.845 49.7022 161.739 50.9186L157.627 97.9091C157.521 99.1254 156.449 100.111 155.233 100.111Z" fill="white"/>
<path opacity="0.9" d="M153.358 94.1135H87.8518C86.7968 94.1135 86.0168 93.2582 86.109 92.2036L89.5246 53.1599C89.6168 52.1049 90.547 51.25 91.6016 51.25H157.108C158.163 51.25 158.943 52.1054 158.851 53.1599L155.435 92.2036C155.343 93.2582 154.413 94.1135 153.358 94.1135Z" fill="#FAFAFA"/>
<path d="M136.213 65.0342H133.922L134.323 60.4512H136.615L136.213 65.0342Z" fill="#2969B1"/>
<path opacity="0.2" d="M136.213 65.0342H133.922L134.323 60.4512H136.615L136.213 65.0342Z" fill="black"/>
<path d="M140.792 65.0347H138.5L139.101 58.1602H141.393L140.792 65.0347Z" fill="#2969B1"/>
<path d="M145.378 65.0354H143.086L143.588 59.3066H145.879L145.378 65.0354Z" fill="#2969B1"/>
<path d="M149.956 65.0352H147.664L148.466 55.8691H150.758L149.956 65.0352Z" fill="#2969B1"/>
<path opacity="0.4" d="M149.956 65.0352H147.664L148.466 55.8691H150.758L149.956 65.0352Z" fill="black"/>
<path d="M152.251 64.6116C145.53 64.6116 138.809 64.6116 132.088 64.6116C132.342 61.6971 132.597 58.783 132.853 55.8684C132.9 55.326 132.053 55.3294 132.006 55.8684C131.739 58.9236 131.472 61.9793 131.204 65.0345C131.184 65.2625 131.415 65.4579 131.628 65.4579C138.502 65.4579 145.377 65.4579 152.251 65.4579C152.796 65.4579 152.797 64.6116 152.251 64.6116Z" fill="#2969B1"/>
<path opacity="0.5" d="M152.251 64.6116C145.53 64.6116 138.809 64.6116 132.088 64.6116C132.342 61.6971 132.597 58.783 132.853 55.8684C132.9 55.326 132.053 55.3294 132.006 55.8684C131.739 58.9236 131.472 61.9793 131.204 65.0345C131.184 65.2625 131.415 65.4579 131.628 65.4579C138.502 65.4579 145.377 65.4579 152.251 65.4579C152.796 65.4579 152.797 64.6116 152.251 64.6116Z" fill="white"/>
<path d="M98.4 62.5547L96.9062 63.928C97.7693 64.8736 99.0245 65.4582 100.467 65.4582L100.637 63.5156C99.7306 63.5161 98.9419 63.1489 98.4 62.5547Z" fill="#2969B1"/>
<path opacity="0.5" d="M98.4 62.5547L96.9062 63.928C97.7693 64.8736 99.0245 65.4582 100.467 65.4582L100.637 63.5156C99.7306 63.5161 98.9419 63.1489 98.4 62.5547Z" fill="black"/>
<path d="M104.209 60.2344C104.051 62.0473 102.452 63.5171 100.639 63.5171L100.469 65.4597C103.355 65.4597 105.899 63.1201 106.151 60.2344H104.209Z" fill="#2969B1"/>
<path opacity="0.1" d="M104.209 60.2344C104.051 62.0473 102.452 63.5171 100.639 63.5171L100.469 65.4597C103.355 65.4597 105.899 63.1201 106.151 60.2344H104.209Z" fill="black"/>
<path d="M98.4009 62.5557C97.859 61.9614 97.5633 61.1411 97.6425 60.2344H95.7C95.5737 61.6773 96.0441 62.9838 96.9072 63.9294L98.4009 62.5557Z" fill="#2969B1"/>
<path d="M101.215 56.9504C103.028 56.9504 104.37 58.4201 104.211 60.2331H106.154C106.406 57.3473 104.272 55.0078 101.385 55.0078C98.4996 55.0078 95.9556 57.3473 95.7031 60.2331H97.6457C97.8041 58.4201 99.4025 56.9504 101.215 56.9504Z" fill="#2969B1"/>
<path opacity="0.2" d="M101.215 56.9504C103.028 56.9504 104.37 58.4201 104.211 60.2331H106.154C106.406 57.3473 104.272 55.0078 101.385 55.0078C98.4996 55.0078 95.9556 57.3473 95.7031 60.2331H97.6457C97.8041 58.4201 99.4025 56.9504 101.215 56.9504Z" fill="white"/>
<path opacity="0.6" d="M103.448 57.9118L104.942 56.5385C104.079 55.5929 102.824 55.0078 101.381 55.0078L101.211 56.9504C102.118 56.9499 102.906 57.3176 103.448 57.9118Z" fill="white"/>
<path d="M112.955 62.5547L111.461 63.928C112.324 64.8736 113.579 65.4582 115.022 65.4582L115.192 63.5156C114.285 63.5161 113.497 63.1489 112.955 62.5547Z" fill="#2969B1"/>
<path opacity="0.5" d="M112.955 62.5547L111.461 63.928C112.324 64.8736 113.579 65.4582 115.022 65.4582L115.192 63.5156C114.285 63.5161 113.497 63.1489 112.955 62.5547Z" fill="black"/>
<path d="M118.764 60.2344C118.605 62.0473 117.007 63.5171 115.193 63.5171L115.023 65.4597C117.909 65.4597 120.454 63.1201 120.706 60.2344H118.764Z" fill="#2969B1"/>
<path opacity="0.1" d="M118.764 60.2344C118.605 62.0473 117.007 63.5171 115.193 63.5171L115.023 65.4597C117.909 65.4597 120.454 63.1201 120.706 60.2344H118.764Z" fill="black"/>
<path d="M112.956 62.5557C112.413 61.9614 112.118 61.1411 112.197 60.2344H110.255C110.128 61.6773 110.599 62.9838 111.462 63.9294L112.956 62.5557Z" fill="#2969B1"/>
<path d="M115.77 56.9504C117.583 56.9504 118.925 58.4201 118.766 60.2331H120.708C120.961 57.3473 118.826 55.0078 115.94 55.0078C113.054 55.0078 110.51 57.3473 110.258 60.2331H112.2C112.359 58.4201 113.957 56.9504 115.77 56.9504Z" fill="#2969B1"/>
<path opacity="0.2" d="M115.77 56.9504C117.583 56.9504 118.925 58.4201 118.766 60.2331H120.708C120.961 57.3473 118.826 55.0078 115.94 55.0078C113.054 55.0078 110.51 57.3473 110.258 60.2331H112.2C112.359 58.4201 113.957 56.9504 115.77 56.9504Z" fill="white"/>
<path opacity="0.6" d="M118.003 57.9118L119.497 56.5385C118.634 55.5929 117.378 55.0078 115.936 55.0078L115.766 56.9504C116.672 56.9499 117.461 57.3176 118.003 57.9118Z" fill="white"/>
<path d="M134.823 82.0353H132.086L132.325 79.3008H135.062L134.823 82.0353ZM132.733 81.4421H134.279L134.414 79.8941H132.869L132.733 81.4421Z" fill="#2969B1"/>
<path d="M134.463 86.1994H131.727L131.966 83.4648H134.703L134.463 86.1994ZM132.374 85.6061H133.919L134.055 84.0581H132.509L132.374 85.6061Z" fill="#2969B1"/>
<path d="M134.096 90.3653H131.359L131.599 87.6307H134.336L134.096 90.3653ZM132.007 89.7725H133.552L133.688 88.2245H132.142L132.007 89.7725Z" fill="#2969B1"/>
<path d="M136.721 81.3969C136.352 81.3969 136.08 81.0983 136.112 80.7297C136.144 80.3611 136.469 80.0625 136.838 80.0625H145.991C146.359 80.0625 146.632 80.3611 146.6 80.7297C146.568 81.0983 146.243 81.3969 145.874 81.3969H136.721Z" fill="#2969B1"/>
<path opacity="0.7" d="M136.721 81.3969C136.352 81.3969 136.08 81.0983 136.112 80.7297C136.144 80.3611 136.469 80.0625 136.838 80.0625H145.991C146.359 80.0625 146.632 80.3611 146.6 80.7297C146.568 81.0983 146.243 81.3969 145.874 81.3969H136.721Z" fill="white"/>
<path d="M136.002 89.6664C135.634 89.6664 135.361 89.3679 135.393 88.9992C135.425 88.6306 135.75 88.332 136.119 88.332H143.789C144.158 88.332 144.43 88.6306 144.398 88.9992C144.366 89.3679 144.041 89.6664 143.672 89.6664H136.002Z" fill="#2969B1"/>
<path opacity="0.4" d="M136.002 89.6664C135.634 89.6664 135.361 89.3679 135.393 88.9992C135.425 88.6306 135.75 88.332 136.119 88.332H143.789C144.158 88.332 144.43 88.6306 144.398 88.9992C144.366 89.3679 144.041 89.6664 143.672 89.6664H136.002Z" fill="white"/>
<path d="M136.362 85.5004C135.993 85.5004 135.72 85.2019 135.753 84.8332C135.785 84.4646 136.11 84.166 136.478 84.166H143.555C143.924 84.166 144.196 84.4646 144.164 84.8332C144.132 85.2019 143.807 85.5004 143.438 85.5004H136.362Z" fill="#2969B1"/>
<path opacity="0.2" d="M136.362 85.5004C135.993 85.5004 135.72 85.2019 135.753 84.8332C135.785 84.4646 136.11 84.166 136.478 84.166H143.555C143.924 84.166 144.196 84.4646 144.164 84.8332C144.132 85.2019 143.807 85.5004 143.438 85.5004H136.362Z" fill="white"/>
<path d="M127.485 85.9985C126.795 85.0568 126.105 84.1155 125.415 83.1737C125.261 82.9645 124.944 82.8651 124.743 83.0873C124.012 83.8928 123.28 84.6982 122.549 85.5037C121.974 84.5581 121.399 83.6125 120.824 82.6669C120.677 82.424 120.356 82.3923 120.152 82.5805C119.395 83.2765 118.654 83.996 117.879 84.6723C117.648 84.5461 117.424 84.4016 117.199 84.2681C116.781 84.0214 116.364 83.7747 115.947 83.528C115.737 83.4037 115.492 83.4915 115.361 83.6816C114.623 84.752 113.884 85.8229 113.146 86.8937C112.595 85.8233 112.044 84.7525 111.492 83.6816C111.384 83.4709 111.102 83.4233 110.907 83.528C110.554 83.7176 110.202 83.9072 109.85 84.0968C109.634 84.2129 108.908 84.5753 108.704 84.7357C108.538 84.5845 107.909 84.2605 107.784 84.1861C107.415 83.9667 107.046 83.7473 106.676 83.5275C106.202 83.2457 105.771 83.9849 106.244 84.2667C106.859 84.6315 107.954 85.6433 108.677 85.6419C109.333 85.6405 110.263 84.9469 110.953 84.5005C111.543 85.6467 112.133 86.7925 112.723 87.9387C112.88 88.2445 113.291 88.1864 113.462 87.9387C114.26 86.7819 115.058 85.6251 115.856 84.4683C116.477 84.8355 117.098 85.2027 117.718 85.5699C117.887 85.6697 118.097 85.6318 118.237 85.5032C118.945 84.8523 119.653 84.2019 120.36 83.551C120.944 84.511 121.528 85.471 122.111 86.431C122.249 86.6566 122.594 86.7262 122.783 86.5174C123.526 85.6995 124.268 84.8816 125.011 84.0637C125.589 84.8528 126.168 85.6419 126.746 86.431C127.068 86.8697 127.811 86.4435 127.485 85.9985Z" fill="#2969B1"/>
<path d="M126.787 89.5101C119.99 89.5101 113.192 89.5101 106.395 89.5101C106.652 86.5629 106.91 83.6152 107.168 80.668C107.216 80.1194 106.36 80.1228 106.312 80.668C106.042 83.7583 105.772 86.848 105.501 89.9383C105.481 90.1692 105.713 90.366 105.929 90.366C112.882 90.366 119.834 90.366 126.787 90.366C127.337 90.3655 127.338 89.5101 126.787 89.5101Z" fill="#2969B1"/>
<path opacity="0.5" d="M126.787 89.5101C119.99 89.5101 113.192 89.5101 106.395 89.5101C106.652 86.5629 106.91 83.6152 107.168 80.668C107.216 80.1194 106.36 80.1228 106.312 80.668C106.042 83.7583 105.772 86.848 105.501 89.9383C105.481 90.1692 105.713 90.366 105.929 90.366C112.882 90.366 119.834 90.366 126.787 90.366C127.337 90.3655 127.338 89.5101 126.787 89.5101Z" fill="white"/>
<path d="M148.99 76.9423H112.594L113.406 67.6562H149.803L148.99 76.9423Z" fill="#2969B1"/>
<path opacity="0.9" d="M148.99 76.9423H112.594L113.406 67.6562H149.803L148.99 76.9423Z" fill="white"/>
<path d="M149.641 77.6503H111.828L112.765 66.9492H150.577L149.641 77.6503ZM113.367 76.2348H148.349L149.038 68.3643H114.056L113.367 76.2348Z" fill="#263238"/>
<path d="M120.82 73.5439L120.756 74.2798H117.688L118.034 70.3164H121.029L120.965 71.0527H118.881L118.806 71.9134H120.646L120.583 72.6266H118.743L118.663 73.5439H120.82Z" fill="#2969B1"/>
<path d="M123.942 74.2793L123.106 72.9036L122.045 74.2793H120.992L122.635 72.2638L121.412 70.3164H122.454L123.253 71.6018L124.26 70.3164H125.251L123.702 72.2302L125 74.2798L123.942 74.2793Z" fill="#2969B1"/>
<path d="M126.424 71.0638H125.156L125.222 70.3164H128.675L128.61 71.0638H127.342L127.06 74.2798H126.143L126.424 71.0638Z" fill="#2969B1"/>
<path d="M131.346 74.2798L130.678 73.1758H130.632H129.834L129.738 74.2798H128.82L129.167 70.3164H130.882C131.233 70.3164 131.533 70.3754 131.781 70.4921C132.03 70.6092 132.214 70.7753 132.335 70.9908C132.456 71.2058 132.504 71.4607 132.478 71.755C132.452 72.0492 132.359 72.3031 132.199 72.5162C132.039 72.7294 131.824 72.8926 131.553 73.0058L132.331 74.2798H131.346ZM131.379 71.2423C131.246 71.1233 131.042 71.0638 130.766 71.0638H130.019L129.898 72.4457H130.645C130.921 72.4457 131.135 72.3852 131.289 72.2642C131.444 72.1438 131.53 71.9738 131.549 71.755C131.569 71.5322 131.512 71.3614 131.379 71.2423Z" fill="#2969B1"/>
<path d="M135.666 73.4306H133.826L133.401 74.2798H132.461L134.574 70.3164H135.48L136.905 74.2798H135.942L135.666 73.4306ZM135.438 72.7342L134.943 71.2169L134.181 72.7342H135.438Z" fill="#2969B1"/>
<path d="M138.075 74.0852C137.764 73.9095 137.529 73.6666 137.369 73.3551C137.209 73.0436 137.147 72.6918 137.181 72.2991C137.215 71.9065 137.34 71.5546 137.554 71.2431C137.768 70.9321 138.046 70.6882 138.388 70.513C138.729 70.3374 139.104 70.25 139.512 70.25C139.855 70.25 140.161 70.3105 140.427 70.431C140.694 70.5519 140.912 70.7252 141.081 70.9522L140.444 71.4956C140.203 71.1865 139.885 71.0314 139.489 71.0314C139.243 71.0314 139.02 71.0847 138.818 71.1927C138.616 71.3002 138.452 71.4505 138.328 71.643C138.204 71.8354 138.131 72.0543 138.109 72.2996C138.088 72.5454 138.122 72.7638 138.213 72.9567C138.304 73.1487 138.441 73.299 138.624 73.407C138.807 73.5145 139.021 73.5682 139.266 73.5682C139.663 73.5682 140.009 73.4118 140.304 73.0983L140.845 73.6417C140.636 73.8721 140.387 74.0478 140.097 74.1682C139.807 74.2892 139.491 74.3492 139.147 74.3492C138.743 74.3482 138.386 74.2609 138.075 74.0852Z" fill="#2969B1"/>
<path d="M142.471 71.0638H141.203L141.268 70.3164H144.722L144.657 71.0638H143.389L143.107 74.2798H142.19L142.471 71.0638Z" fill="#2969B1"/>
<path d="M174.938 113.25H76.2344V168.437H174.938V113.25Z" fill="#2969B1"/>
<path d="M68.943 168.436H78.1484V113.249H68.943V168.436Z" fill="#2969B1"/>
<path opacity="0.3" d="M68.943 168.436H78.1484V113.249H68.943V168.436Z" fill="white"/>
<path d="M168.085 113.248H67.0156V118.132H168.085V113.248Z" fill="#2969B1"/>
<path opacity="0.6" d="M168.085 113.248H67.0156V118.132H168.085V113.248Z" fill="white"/>
<path d="M68.9421 113.25H65.0781V168.437H68.9421V113.25Z" fill="#2969B1"/>
<path opacity="0.5" d="M68.9421 113.25H65.0781V168.437H68.9421V113.25Z" fill="white"/>
<path d="M170.779 168.436H179.984V113.249H170.779V168.436Z" fill="#2969B1"/>
<path opacity="0.3" d="M170.779 168.436H179.984V113.249H170.779V168.436Z" fill="white"/>
<path d="M173.955 114.303H182.305V110.067H173.955V114.303Z" fill="#2969B1"/>
<path opacity="0.3" d="M173.955 114.303H182.305V110.067H173.955V114.303Z" fill="white"/>
<path d="M164.276 120.768H122.578V168.436H164.276V120.768Z" fill="#2969B1"/>
<path opacity="0.5" d="M164.276 120.768H122.578V168.436H164.276V120.768Z" fill="white"/>
<path d="M166.916 120.768H164.281V168.436H166.916V120.768Z" fill="#2969B1"/>
<path opacity="0.2" d="M166.916 120.768H164.281V168.436H166.916V120.768Z" fill="white"/>
<path d="M161.648 136.426H125.219V147.453H161.648V136.426Z" fill="#2969B1"/>
<path d="M161.648 123.365H125.219V134.392H161.648V123.365Z" fill="#2969B1"/>
<path d="M161.648 149.488H125.219V160.515H161.648V149.488Z" fill="#2969B1"/>
<g opacity="0.7">
<path d="M161.648 136.426H125.219V147.453H161.648V136.426Z" fill="white"/>
<path d="M161.648 123.365H125.219V134.392H161.648V123.365Z" fill="white"/>
<path d="M161.648 149.488H125.219V160.515H161.648V149.488Z" fill="white"/>
</g>
<path d="M170.778 113.25H166.914V168.437H170.778V113.25Z" fill="#2969B1"/>
<path opacity="0.1" d="M174.938 113.25H76.2344V168.437H174.938V113.25Z" fill="white"/>
<path opacity="0.5" d="M170.778 113.25H166.914V168.437H170.778V113.25Z" fill="white"/>
<path d="M173.953 110.066H61.9062V114.302H173.953V110.066Z" fill="#2969B1"/>
<path opacity="0.6" d="M173.953 110.066H61.9062V114.302H173.953V110.066Z" fill="white"/>
<path d="M143.534 127.68C143.301 127.68 142.502 127.68 142.269 127.68C141.607 127.68 141.07 128.216 141.07 128.878C141.07 129.54 141.607 130.077 142.269 130.077C142.502 130.077 143.301 130.077 143.534 130.077C144.196 130.077 144.732 129.54 144.732 128.878C144.732 128.216 144.196 127.68 143.534 127.68Z" fill="#2969B1"/>
<path d="M143.534 140.74C143.301 140.74 142.502 140.74 142.269 140.74C141.607 140.74 141.07 141.277 141.07 141.939C141.07 142.601 141.607 143.137 142.269 143.137C142.502 143.137 143.301 143.137 143.534 143.137C144.196 143.137 144.732 142.601 144.732 141.939C144.732 141.277 144.196 140.74 143.534 140.74Z" fill="#2969B1"/>
<path d="M143.534 153.803C143.301 153.803 142.502 153.803 142.269 153.803C141.607 153.803 141.07 154.339 141.07 155.001C141.07 155.663 141.607 156.2 142.269 156.2C142.502 156.2 143.301 156.2 143.534 156.2C144.196 156.2 144.732 155.663 144.732 155.001C144.732 154.339 144.196 153.803 143.534 153.803Z" fill="#2969B1"/>
<path opacity="0.3" d="M143.467 128.878C143.467 129.54 142.931 130.077 142.269 130.077C141.607 130.077 141.07 129.54 141.07 128.878C141.07 128.216 141.607 127.68 142.269 127.68C142.931 127.68 143.467 128.216 143.467 128.878Z" fill="#FAFAFA"/>
<path opacity="0.3" d="M143.467 141.939C143.467 142.601 142.931 143.137 142.269 143.137C141.607 143.137 141.07 142.601 141.07 141.939C141.07 141.277 141.607 140.74 142.269 140.74C142.931 140.74 143.467 141.277 143.467 141.939Z" fill="#FAFAFA"/>
<path opacity="0.3" d="M143.467 154.999C143.467 155.661 142.931 156.198 142.269 156.198C141.607 156.198 141.07 155.661 141.07 154.999C141.07 154.337 141.607 153.801 142.269 153.801C142.931 153.801 143.467 154.337 143.467 154.999Z" fill="#FAFAFA"/>
<path d="M101.469 61.7866C100.784 62.7557 102.296 65.8392 102.296 65.8392L95.4844 66.6639L96.8173 59.2383C96.8173 59.2383 102.278 60.6428 101.469 61.7866Z" fill="#CE7A63"/>
<path opacity="0.2" d="M101.365 63.1763C101.26 62.6113 101.256 62.0934 101.473 61.7872C101.976 61.0763 100.056 60.2646 98.5312 59.752C98.8913 60.4739 99.9103 62.3003 101.365 63.1763Z" fill="black"/>
<path d="M117.885 163.246L118.61 170.177L115.414 170.777L113.492 164.087L117.885 163.246Z" fill="#CE7A63"/>
<path d="M118.542 168.992L114.784 169.745C114.642 169.773 114.539 169.896 114.536 170.041L114.469 173.234C114.461 173.517 114.684 173.754 114.967 173.762C115.004 173.763 115.04 173.76 115.076 173.753C116.425 173.458 117.615 173.143 119.303 172.807C121.293 172.409 120.836 172.748 123.182 172.313C124.596 172.049 124.533 170.395 123.919 170.435C121.114 170.639 120.664 169.87 119.413 169.102C119.146 168.959 118.836 168.92 118.542 168.992Z" fill="#263238"/>
<path opacity="0.2" d="M114.761 168.506L118.385 168.028L117.885 163.246L113.492 164.087L114.761 168.506Z" fill="black"/>
<path d="M90.2376 161.842L88.0613 170.434L84.9922 170.002L85.8077 161.596L90.2376 161.842Z" fill="#CE7A63"/>
<path d="M88.4636 169.354L84.6404 169.085C84.4964 169.075 84.3644 169.165 84.3231 169.304L83.413 172.366C83.3305 172.637 83.4831 172.924 83.7538 173.006C83.7889 173.017 83.8244 173.024 83.8609 173.027C85.2409 173.1 86.4716 173.111 88.1876 173.234C90.2127 173.377 89.6818 173.583 92.0598 173.785C93.493 173.905 93.8703 172.293 93.2674 172.17C90.5084 171.623 90.2785 170.762 89.2748 169.691C89.0545 169.483 88.766 169.363 88.4636 169.354Z" fill="#263238"/>
<path opacity="0.2" d="M85.1797 168.049L88.5334 168.563L90.1371 162.23C88.6664 162.074 86.2587 161.832 85.7874 161.785L85.1797 168.049Z" fill="black"/>
<path d="M93.5544 96.0679C93.5544 96.0679 92.496 99.1389 92.3424 106.615C92.2507 111.083 91.8139 118.156 91.4774 123.124C91.379 124.578 91.2893 125.852 91.2187 126.827C91.1294 128.068 90.8342 129.28 90.3638 130.426C90.0365 131.223 89.6261 132.314 89.2032 133.676C88.5302 135.842 87.8237 138.693 87.3648 142.13C86.2464 150.506 84.9609 166.73 84.9609 166.73L89.1057 167.267L99.3081 129.457L110.181 96.0391L93.5544 96.0679Z" fill="#263238"/>
<path opacity="0.2" d="M104.373 114.097L103.934 110.806L100.376 107.798L99.1797 107.209C99.1797 107.209 101.95 114.203 101.256 123.357L104.373 114.097Z" fill="black"/>
<path d="M113.438 96.2195L118.426 166.445L114.204 167.164C114.204 167.164 108.557 147.73 107.602 136.987C107.488 135.704 107.441 134.545 107.478 133.557C107.534 132.094 107.319 130.634 106.906 129.236L106.313 127.231L102.985 115.97C102.286 113.606 101.202 111.373 99.6906 109.467C97.9602 107.284 95.8194 103.053 96.7079 96.0155L112.333 94.9336L113.438 96.2195Z" fill="#263238"/>
<path d="M97.8147 91.7879C97.8147 91.7879 100.241 91.2906 101.054 91.3674C101.734 91.4318 103.651 92.2199 103.651 92.2199C104.461 92.4858 104.687 93.5241 104.061 94.103C104.061 94.103 102.728 95.8108 102.063 95.9519C100.734 96.2332 96.9219 94.1937 96.9219 94.1937L97.8147 91.7879Z" fill="#CE7A63"/>
<path d="M97.6989 90.625L96.3516 94.97L97.6442 95.0775L98.8298 91.2812L97.6989 90.625Z" fill="#263238"/>
<path opacity="0.2" d="M97.6989 90.625L96.3516 94.97L97.6442 95.0775L98.8298 91.2812L97.6989 90.625Z" fill="white"/>
<path d="M89.7221 69.928C89.1039 69.0808 87.781 69.257 87.3365 70.2069C85.8245 73.4416 82.0071 82.0192 81.9922 86.1828C81.9735 91.3749 97.2327 94.4474 97.2327 94.4474L98.1548 91.4637L87.6552 85.0135L90.6754 77.8975C90.6754 77.8975 91.4266 72.2632 89.7221 69.928Z" fill="#2969B1"/>
<path opacity="0.1" d="M89.7221 69.928C89.1039 69.0808 87.781 69.257 87.3365 70.2069C85.8245 73.4416 82.0071 82.0192 81.9922 86.1828C81.9735 91.3749 97.2327 94.4474 97.2327 94.4474L98.1548 91.4637L87.6552 85.0135L90.6754 77.8975C90.6754 77.8975 91.4266 72.2632 89.7221 69.928Z" fill="black"/>
<g opacity="0.4">
<path d="M90.0368 70.4434L88.3914 70.6694L87.4453 71.3477L88.5733 82.8576L90.6786 77.8978C90.6786 77.8978 91.3314 72.9984 90.0368 70.4434Z" fill="black"/>
<path d="M93.2183 88.4279L88.8594 85.75L89.493 92.217C90.4035 92.5588 91.3146 92.8631 92.1781 93.1295L93.2183 88.4279Z" fill="black"/>
</g>
<path d="M113.207 96.1838C113.207 96.1838 105.694 98.6419 93.3889 96.6518C93.3889 96.6518 93.3889 96.6518 87.4916 71.7917C87.0505 69.9331 87.9856 67.9968 89.6584 67.0738C92.1908 65.6755 97.2001 64.3574 107.083 64.9037C109.521 65.0381 111.582 66.7661 112.142 69.1426L113.207 96.1838Z" fill="#2969B1"/>
<path d="M93.4766 65.9529L94.2278 64.1899C94.2278 64.1899 97.186 62.6956 102.211 63.3993L103.404 64.7808C103.404 64.7808 97.7817 64.9176 93.4766 65.9529Z" fill="#263238"/>
<path d="M105.028 53.0432C105.096 53.3235 105.003 53.5851 104.815 53.6274C104.627 53.6696 104.405 53.468 104.347 53.1939C104.288 52.9199 104.372 52.652 104.561 52.6127C104.75 52.5728 104.958 52.7643 105.028 53.0432Z" fill="#263238"/>
<path d="M104.773 53.8906L106.692 55.7665C106.692 55.7665 106.077 56.4567 104.959 56.3141L104.773 53.8906Z" fill="#BA4D3C"/>
<path d="M93.8335 54.2962C94.5679 58.058 94.7964 59.6684 97.0097 61.3829C100.263 63.0106 104.913 62.293 105.342 58.3978C105.73 54.8929 104.467 49.3431 100.466 48.2612C97.6135 47.4913 94.6783 49.1199 93.9103 51.8991C93.6948 52.6801 93.6684 53.5009 93.8335 54.2962Z" fill="#CE7A63"/>
<path d="M103.615 52.1595C103.667 52.16 103.715 52.1355 103.744 52.0938C103.946 51.7712 104.295 51.5682 104.682 51.5475C104.766 51.5494 104.834 51.4842 104.836 51.4016C104.834 51.3181 104.766 51.2495 104.682 51.2461C104.19 51.2615 103.744 51.5134 103.486 51.921C103.44 51.9901 103.459 52.0847 103.53 52.1322L103.53 52.1327C103.556 52.1495 103.585 52.1586 103.615 52.1595Z" fill="#263238"/>
<path opacity="0.4" d="M112.959 83.9345L112.456 74.8289L109.201 70.5209L107.42 68.8711L106.047 69.8325C106.047 69.8325 106.238 74.8509 112.959 83.9345Z" fill="black"/>
<path d="M114.011 70.9924C115.814 74.3044 116.513 76.2623 117.131 77.0845C117.213 77.194 117.347 77.2487 117.483 77.229L128.019 75.6988C128.199 75.6724 128.372 75.7804 128.429 75.9537L129.277 78.5629C129.341 78.7578 129.236 78.9676 129.042 79.0333L119.163 82.3813C117.375 83.0764 115.344 82.7269 113.904 81.4588C111.183 79.0631 109.093 76.401 107.189 72.6393C106.43 71.1402 104.67 68.3682 107.562 65.9293C109.961 63.9061 112.815 68.7945 114.011 70.9924Z" fill="#2969B1"/>
<path opacity="0.1" d="M114.011 70.9924C115.814 74.3044 116.513 76.2623 117.131 77.0845C117.213 77.194 117.347 77.2487 117.483 77.229L128.019 75.6988C128.199 75.6724 128.372 75.7804 128.429 75.9537L129.277 78.5629C129.341 78.7578 129.236 78.9676 129.042 79.0333L119.163 82.3813C117.375 83.0764 115.344 82.7269 113.904 81.4588C111.183 79.0631 109.093 76.401 107.189 72.6393C106.43 71.1402 104.67 68.3682 107.562 65.9293C109.961 63.9061 112.815 68.7945 114.011 70.9924Z" fill="white"/>
<path d="M128.324 75.9499L130.496 73.3983C130.732 73.1208 131.044 72.9187 131.394 72.8175L136.504 71.3314C136.677 71.281 136.861 71.3611 136.942 71.5215C137.041 71.7163 136.952 71.9544 136.75 72.0375L134.638 72.9019C134.487 72.9639 134.394 73.1165 134.407 73.2787L134.512 74.556C134.576 75.3389 134.142 76.0781 133.427 76.4035L131.89 77.1029C131.831 77.1264 131.772 77.1495 131.712 77.173L129.076 78.0591C128.866 78.1296 128.642 78.0039 128.592 77.7883L128.244 76.2763C128.217 76.1611 128.247 76.0397 128.324 75.9499Z" fill="#CE7A63"/>
<path d="M127.69 75.6852L128.992 78.9708C129.072 79.1733 129.309 79.265 129.504 79.1695L129.936 78.9588C130.112 78.8733 130.192 78.6669 130.121 78.485L128.879 75.3348C128.816 75.1721 128.647 75.0756 128.474 75.102L127.982 75.1773C127.744 75.2138 127.602 75.4615 127.69 75.6852Z" fill="#263238"/>
<path d="M113.375 166.166L114.03 167.901L119.006 167.132L118.868 165.287L113.375 166.166Z" fill="#2969B1"/>
<path opacity="0.2" d="M113.375 166.166L114.03 167.901L119.006 167.132L118.868 165.287L113.375 166.166Z" fill="black"/>
<path d="M84.5157 165.465L84.4375 167.287L89.4285 167.954L89.8169 166.145L84.5157 165.465Z" fill="#2969B1"/>
<path opacity="0.2" d="M84.5157 165.465L84.4375 167.287L89.4285 167.954L89.8169 166.145L84.5157 165.465Z" fill="black"/>
<path d="M96.4058 61.4957C96.4058 61.4957 96.9641 60.7037 98.6446 61.6201C98.6446 61.6201 101.029 58.9503 101.103 56.45C101.103 56.45 102.865 56.1241 102.717 54.9855C102.57 53.8469 101.731 52.3585 101.909 51.3265C102.086 50.2949 103.799 47.5853 102.343 46.3829C100.888 45.1805 100.716 46.6133 99.8926 46.7674C99.0684 46.922 94.0913 47.0996 93.4548 50.6233C93.4548 50.6233 90.9458 53.2417 93.1226 56.6074C95.2985 59.9737 96.4058 61.4957 96.4058 61.4957Z" fill="#263238"/>
<path d="M101.18 54.1013L105.535 51.6816C105.535 51.6816 106.63 54.5314 106.105 54.6749C105.58 54.8184 104.89 52.5812 104.89 52.5812L101.789 54.06L101.18 54.1013Z" fill="#2969B1"/>
<path opacity="0.7" d="M105 52.6568L105.33 52.4609C105.33 52.4609 106.23 54.475 105.983 54.6526C105.735 54.8297 105 52.6568 105 52.6568Z" fill="white"/>
<path d="M101.769 54.1882C102.432 54.6308 102.889 55.3119 103.039 56.0804C103.23 57.1013 102.269 57.5185 101.334 57.157C100.486 56.8301 99.3756 55.9047 99.6099 54.9145C99.8436 53.9247 100.952 53.6559 101.769 54.1882Z" fill="#CE7A63"/>
</svg>
