<svg width="21" height="24" viewBox="0 0 21 24" fill="none" xmlns="http://www.w3.org/2000/svg">
<g clip-path="url(#clip0_716_2431)">
<path d="M9.75 0H15.5672C16.1625 0 16.7344 0.239063 17.1562 0.660938L20.3391 3.84375C20.7609 4.26562 21 4.8375 21 5.43281V15.75C21 16.9922 19.9922 18 18.75 18H9.75C8.50781 18 7.5 16.9922 7.5 15.75V2.25C7.5 1.00781 8.50781 0 9.75 0ZM2.25 6H6V9H3V21H12V19.5H15V21.75C15 22.9922 13.9922 24 12.75 24H2.25C1.00781 24 0 22.9922 0 21.75V8.25C0 7.00781 1.00781 6 2.25 6Z" fill="#173E88"/>
</g>
<defs>
<clipPath id="clip0_716_2431">
<rect width="21" height="24" fill="white"/>
</clipPath>
</defs>
</svg>
