<svg width="37" height="37" viewBox="0 0 37 37" fill="none" xmlns="http://www.w3.org/2000/svg">
<path d="M8.11719 6.54687C8.11719 5.4423 9.01262 4.54688 10.1172 4.54688H18.4777C18.6158 4.54688 18.7277 4.6588 18.7277 4.79687V13.1574C18.7277 14.262 19.6231 15.1574 20.7277 15.1574H29.0882C29.2263 15.1574 29.3382 15.2693 29.3382 15.4074V29.8311C29.3382 30.9357 28.4428 31.8311 27.3382 31.8311H10.1172C9.01262 31.8311 8.11719 30.9357 8.11719 29.8311V6.54687Z" fill="#232323" fill-opacity="0.25"/>
<path d="M20.2461 12.6416V5.15043C20.2461 4.9277 20.5154 4.81616 20.6729 4.97365L28.9141 13.2148C29.0715 13.3723 28.96 13.6416 28.7373 13.6416H21.2461C20.6938 13.6416 20.2461 13.1939 20.2461 12.6416Z" fill="#222222"/>
</svg>
