<svg width="235" height="223" viewBox="0 0 235 223" fill="none" xmlns="http://www.w3.org/2000/svg">
<path d="M35.2474 107.642C-10.4375 134.018 -10.4366 176.783 35.2498 203.159C80.9362 229.536 155.008 229.536 200.693 203.159C246.379 176.783 246.377 134.018 200.691 107.642C155.004 81.2653 80.9324 81.2653 35.2474 107.642Z" fill="#FAFAFA"/>
<path d="M96.691 163.274L152.276 195.409C152.479 195.525 152.807 195.525 153.009 195.409L188.028 175.178C188.23 175.061 188.23 174.872 188.028 174.755L132.443 142.621C132.24 142.504 131.912 142.504 131.71 142.621L96.691 162.851C96.4884 162.968 96.4884 163.157 96.691 163.274Z" fill="#E0E0E0"/>
<path d="M150.493 126.542L62.0289 177.618C60.8812 178.28 59.0197 178.28 57.8721 177.618L31.8455 162.591C30.6973 161.928 30.6973 160.854 31.8455 160.191L120.31 109.116C121.458 108.453 123.319 108.453 124.467 109.116L150.493 124.143C151.641 124.805 151.641 125.88 150.493 126.542Z" fill="#E0E0E0"/>
<path d="M168.858 176.749L204.867 156.323C205.59 155.913 205.595 155.239 204.878 154.818L169.911 134.317C169.194 133.897 168.027 133.888 167.304 134.298L131.295 154.724C130.572 155.134 130.568 155.808 131.284 156.229L166.252 176.73C166.968 177.151 168.135 177.159 168.858 176.749Z" fill="#E0E0E0"/>
<path d="M124.09 110.032L125.789 109.051C125.789 109.051 134.812 79.615 135.652 77.9091C136.492 76.2032 134.973 75.333 133.348 76.2709L48.6468 125.11C47.022 126.048 46.5113 127.339 45.066 130.146C43.6212 132.953 35.4722 160 35.4722 160C35.3518 160.63 35.6431 161.267 36.198 161.588L55.4834 172.758L144.078 121.611L124.09 110.032Z" fill="#2969B1"/>
<path opacity="0.35" d="M124.09 110.032L125.789 109.051C125.789 109.051 134.812 79.615 135.652 77.9091C136.492 76.2032 134.973 75.333 133.348 76.2709L48.6468 125.11C47.022 126.048 46.5113 127.339 45.066 130.146C43.6212 132.953 35.4722 160 35.4722 160C35.3518 160.63 35.6431 161.267 36.198 161.588L55.4834 172.758L144.078 121.611L124.09 110.032Z" fill="white"/>
<path d="M46.1296 130.824C45.0309 132.952 36.5469 160.574 36.5469 160.574L126.862 108.431C126.862 108.431 135.82 80.3562 136.716 78.5879C137.612 76.8196 136.037 76.0117 134.412 76.9497L49.7104 125.789C48.0856 126.727 47.2283 128.697 46.1296 130.824Z" fill="#2969B1"/>
<path opacity="0.15" d="M46.1296 130.824C45.0309 132.952 36.5469 160.574 36.5469 160.574L126.862 108.431C126.862 108.431 135.82 80.3562 136.716 78.5879C137.612 76.8196 136.037 76.0117 134.412 76.9497L49.7104 125.789C48.0856 126.727 47.2283 128.697 46.1296 130.824Z" fill="black"/>
<path d="M125.142 109.428L36.5469 160.576L56.1669 171.906L144.761 120.758L125.142 109.428Z" fill="#2969B1"/>
<path d="M131.311 44.9196L45.9553 94.11C44.0837 95.1905 43.4996 96.9396 43.8293 99.245L53.929 170.133C54.2593 172.438 56.0953 173.787 57.9668 172.706L142.567 123.883C144.438 122.802 145.688 120.058 145.358 117.752L135.297 47.1367C134.967 44.8313 133.182 43.8386 131.311 44.9196Z" fill="#2969B1"/>
<path opacity="0.35" d="M131.311 44.9196L45.9553 94.11C44.0837 95.1905 43.4996 96.9396 43.8293 99.245L53.929 170.133C54.2593 172.438 56.0953 173.787 57.9668 172.706L142.567 123.883C144.438 122.802 145.688 120.058 145.358 117.752L135.297 47.1367C134.967 44.8313 133.182 43.8386 131.311 44.9196Z" fill="white"/>
<path d="M137.059 46.4241C136.388 46.162 135.583 46.235 134.758 46.7097L50.1554 95.5367C49.2583 96.0547 48.5051 96.959 47.9968 98.0135L45.2656 96.8558C45.8661 95.5459 46.9135 95.0673 47.8096 94.5451L132.407 45.7185C133.271 45.2241 134.109 45.1675 134.797 45.4737L134.796 45.4694L137.059 46.4241Z" fill="#455A64"/>
<path d="M56.6733 173.418L56.6729 173.414C55.8343 173.069 55.2113 172.199 55.0298 170.932L45.0204 100.675C44.814 99.2341 44.7468 97.9429 45.27 96.8552L48.0012 98.013C47.9292 98.1632 47.8629 98.3173 47.7972 98.4757C47.7477 98.6024 47.7036 98.7291 47.6647 98.8554C47.657 98.8736 47.6498 98.8962 47.6469 98.9139C47.5951 99.0584 47.5538 99.2072 47.5183 99.356C47.478 99.5091 47.4434 99.6666 47.4185 99.8192C47.3935 99.9363 47.3791 100.053 47.3695 100.169C47.3013 100.671 47.3013 101.179 47.3709 101.666L57.4317 172.28C57.6151 173.56 58.2497 174.439 59.0983 174.778L56.6733 173.418Z" fill="#263238"/>
<path d="M134.764 46.7142L49.4084 95.9046C47.5369 96.9851 46.9527 98.7347 47.2825 101.04L57.4335 172.284C57.7637 174.589 59.5484 175.581 61.4199 174.501L146.02 125.678C147.891 124.597 149.141 121.852 148.811 119.547L138.75 48.9313C138.42 46.6264 136.635 45.6337 134.764 46.7142Z" fill="#37474F"/>
<path d="M140.819 125.352L65.3047 168.93C64.3346 169.49 63.4097 168.976 63.2388 167.781L53.2774 97.8969C53.1065 96.7022 53.754 95.28 54.7241 94.7203L130.238 51.1425C131.208 50.5824 132.133 51.0969 132.304 52.2912L142.266 122.175C142.436 123.37 141.788 124.792 140.819 125.352Z" fill="#263238"/>
<path d="M53.2775 97.8975L63.2389 167.782C63.2456 167.829 63.2557 167.874 63.2648 167.919L138.779 124.342C139.749 123.781 140.397 122.359 140.226 121.165L130.238 51.1426L54.7237 94.7203C53.7541 95.2805 53.1061 96.7027 53.2775 97.8975Z" fill="#FAFAFA"/>
<path d="M57.1322 141.168C57.2181 141.769 56.8922 142.485 56.4045 142.766C55.9168 143.048 55.4512 142.789 55.3653 142.188C55.2794 141.587 55.6053 140.872 56.093 140.591C56.5807 140.309 57.0463 140.567 57.1322 141.168Z" fill="#263238"/>
<path d="M53.8266 124.805C53.4474 125.024 53.1939 125.58 53.2607 126.048L54.9114 137.554C54.9781 138.021 55.34 138.222 55.7192 138.003C56.0984 137.784 56.3519 137.228 56.2847 136.761L54.6339 125.255C54.5672 124.788 54.2058 124.586 53.8266 124.805Z" fill="#263238"/>
<path d="M61.6631 130.094L62.2506 130.343C62.5386 130.465 62.9744 130.447 63.224 130.303L94.1394 112.454C94.389 112.31 94.5608 111.977 94.5224 111.711L90.0176 80.2469C89.9797 79.9805 89.7152 79.6656 89.4272 79.5432L88.8397 79.2941C88.5517 79.1717 88.1159 79.1899 87.8663 79.3339L56.9509 97.1827C56.7013 97.3267 56.5295 97.6598 56.5679 97.9262L61.0731 129.39C61.1106 129.657 61.3751 129.972 61.6631 130.094Z" fill="#F0F0F0"/>
<path d="M63.2268 130.303L94.1421 112.454C94.3917 112.31 94.5636 111.977 94.5252 111.71L90.0204 80.2464C89.9824 79.98 89.7487 79.8811 89.4991 80.0251L58.5837 97.8739C58.3341 98.0179 58.1623 98.351 58.2007 98.6174L62.706 130.081C62.7434 130.348 62.9767 130.447 63.2268 130.303Z" fill="white"/>
<path d="M63.0044 130.455C62.9453 130.455 62.8887 130.443 62.8373 130.418C62.7192 130.361 62.6424 130.246 62.6208 130.093L58.1156 98.6294C58.0724 98.3261 58.2596 97.9608 58.5418 97.7981L89.4567 79.9488C89.6069 79.8619 89.7653 79.847 89.8911 79.9085C90.0092 79.9656 90.086 80.0808 90.108 80.233L94.6128 111.697C94.656 112 94.4688 112.366 94.1871 112.529L63.2717 130.377C63.1824 130.429 63.0903 130.455 63.0044 130.455ZM89.724 80.0458C89.6688 80.0458 89.6064 80.064 89.544 80.1L58.6292 97.9493C58.4117 98.0746 58.2557 98.375 58.2884 98.605L62.7936 130.068C62.8066 130.162 62.8493 130.23 62.9141 130.261C62.9852 130.296 63.085 130.284 63.1848 130.226L94.1002 112.378C94.3172 112.252 94.4732 111.951 94.4405 111.722L89.9357 80.2579C89.9228 80.1648 89.8796 80.0962 89.8152 80.065C89.7879 80.052 89.7572 80.0458 89.724 80.0458Z" fill="#E0E0E0"/>
<path d="M63.1552 130.336C62.8998 130.448 62.5144 130.455 62.2513 130.342L61.6633 130.093C61.3744 129.971 61.1109 129.656 61.0725 129.389L56.5677 97.9254C56.5489 97.7934 56.5821 97.6437 56.6512 97.5078L58.2808 98.1995C58.2117 98.3348 58.1785 98.4851 58.1973 98.6171L62.7021 130.081C62.7366 130.324 62.9325 130.428 63.1552 130.336Z" fill="#E0E0E0"/>
<path d="M85.7889 113.829L83.3323 96.676L81.4219 95.8652L83.8785 113.019L85.7889 113.829Z" fill="#2969B1"/>
<path opacity="0.2" d="M85.7889 113.829L83.3323 96.676L81.4219 95.8652L83.8785 113.019L85.7889 113.829Z" fill="black"/>
<path d="M85.7848 113.83L90.5944 111.053L88.1392 93.9004L83.3281 96.6767L85.7848 113.83Z" fill="#2969B1"/>
<path d="M88.1433 93.9006L86.2324 93.0898L81.4219 95.8662L83.3323 96.6769L88.1433 93.9006Z" fill="#2969B1"/>
<path opacity="0.25" d="M88.1433 93.9006L86.2324 93.0898L81.4219 95.8662L83.3323 96.6769L88.1433 93.9006Z" fill="white"/>
<path opacity="0.3" d="M88.1433 93.9006L83.3227 96.6107L81.4219 95.8667L83.2766 96.7768C83.3073 97.2789 85.6387 113.323 85.7894 113.831C85.7937 113.317 83.5243 97.2366 83.4172 96.7538L88.1433 93.9006Z" fill="white"/>
<path d="M76.7743 119.036L74.801 105.258L72.8906 104.447L74.8639 118.225L76.7743 119.036Z" fill="#2969B1"/>
<path opacity="0.1" d="M76.7743 119.036L74.801 105.258L72.8906 104.447L74.8639 118.225L76.7743 119.036Z" fill="white"/>
<path d="M76.7702 119.037L81.5798 116.26L79.6079 102.482L74.7969 105.259L76.7702 119.037Z" fill="#2969B1"/>
<path opacity="0.3" d="M76.7702 119.037L81.5798 116.26L79.6079 102.482L74.7969 105.259L76.7702 119.037Z" fill="white"/>
<path d="M79.6121 102.483L77.7012 101.672L72.8906 104.448L74.801 105.259L79.6121 102.483Z" fill="#2969B1"/>
<path opacity="0.55" d="M79.6121 102.483L77.7012 101.672L72.8906 104.448L74.801 105.259L79.6121 102.483Z" fill="white"/>
<path opacity="0.3" d="M74.8745 105.29L79.6116 102.482L74.7924 105.194C74.189 104.943 72.8906 104.448 72.8906 104.448C72.8906 104.448 74.1213 105.027 74.7381 105.294C74.7943 105.813 76.6586 118.51 76.7743 119.037C76.7378 118.506 74.9637 105.791 74.8745 105.29Z" fill="white"/>
<path d="M67.7544 124.243L66.0979 112.677L64.1875 111.867L65.844 123.432L67.7544 124.243Z" fill="#2969B1"/>
<path opacity="0.45" d="M67.7544 124.243L66.0979 112.677L64.1875 111.867L65.844 123.432L67.7544 124.243Z" fill="black"/>
<path d="M67.7502 124.242L72.5598 121.466L70.9048 109.9L66.0938 112.677L67.7502 124.242Z" fill="#2969B1"/>
<path opacity="0.3" d="M67.7502 124.242L72.5598 121.466L70.9048 109.9L66.0938 112.677L67.7502 124.242Z" fill="black"/>
<path d="M70.9089 109.901L68.9985 109.09L64.1875 111.867L66.0979 112.677L70.9089 109.901Z" fill="#2969B1"/>
<path opacity="0.15" d="M70.9089 109.901L68.9985 109.09L64.1875 111.867L66.0979 112.677L70.9089 109.901Z" fill="black"/>
<path opacity="0.3" d="M70.9085 109.9L66.0883 112.61L64.1875 111.866L66.0379 112.756C66.0379 112.756 67.632 123.931 67.7549 124.242C67.787 123.924 66.1857 112.752 66.1857 112.752L70.9085 109.9Z" fill="white"/>
<path d="M86.6293 86.4095L86.1387 86.1992L82.34 87.5883L83.3182 88.2575L73.5507 99.0205L70.9357 97.2191L70.4451 97.0083L62.8203 105.409L63.9949 106.212L64.4854 106.423L71.1238 99.1093L73.5522 100.739L74.288 101.056L84.907 89.3552L85.4706 89.7296L85.9611 89.9403L86.6293 86.4095Z" fill="#2969B1"/>
<path opacity="0.25" d="M86.6293 86.4095L86.1387 86.1992L82.34 87.5883L83.3182 88.2575L73.5507 99.0205L70.9357 97.2191L70.4451 97.0083L62.8203 105.409L63.9949 106.212L64.4854 106.423L71.1238 99.1093L73.5522 100.739L74.288 101.056L84.907 89.3552L85.4706 89.7296L85.9611 89.9403L86.6293 86.4095Z" fill="white"/>
<path d="M86.6304 86.4102L85.9623 89.941L84.9845 89.2719L74.2891 101.056L71.2546 98.9674L64.4866 106.424L63.3125 105.621L70.9368 97.2198L73.9714 99.3087L83.8099 88.4689L82.8317 87.7998L86.6304 86.4102Z" fill="#2969B1"/>
<path d="M71.2546 98.9668L71.125 99.1094L73.5533 100.739L74.2892 101.056L71.2546 98.9668Z" fill="#2969B1"/>
<path opacity="0.2" d="M71.2546 98.9668L71.125 99.1094L73.5533 100.739L74.2892 101.056L71.2546 98.9668Z" fill="black"/>
<path d="M83.322 88.257L83.8126 88.4677L82.8343 87.7986L82.3438 87.5879L83.322 88.257Z" fill="#2969B1"/>
<path opacity="0.2" d="M83.322 88.257L83.8126 88.4677L82.8343 87.7986L82.3438 87.5879L83.322 88.257Z" fill="black"/>
<path d="M84.9062 89.3555L84.9826 89.2715L85.9603 89.9406L85.4698 89.7299L84.9062 89.3555Z" fill="#2969B1"/>
<path opacity="0.2" d="M84.9062 89.3555L84.9826 89.2715L85.9603 89.9406L85.4698 89.7299L84.9062 89.3555Z" fill="black"/>
<path d="M62.8203 105.41L63.3114 105.621L64.4854 106.424L63.9949 106.213L62.8203 105.41Z" fill="#2969B1"/>
<path opacity="0.2" d="M62.8203 105.41L63.3114 105.621L64.4854 106.424L63.9949 106.213L62.8203 105.41Z" fill="black"/>
<path opacity="0.5" d="M65.8203 102.851L70.9558 97.3853L73.9664 99.3077L70.9318 97.2188L65.8203 102.851Z" fill="white"/>
<path opacity="0.5" d="M78.4766 94.3426L83.9399 88.4631L82.9996 87.8276L86.627 86.4102L82.8282 87.7998L83.8065 88.4689L78.4766 94.3426Z" fill="white"/>
<path d="M95.556 115.921C95.4124 115.875 95.2325 115.898 95.0501 116.004L64.1107 133.868C63.7157 134.097 63.4425 134.627 63.5035 135.05L67.1976 160.852C67.2264 161.055 67.3262 161.199 67.4693 161.267C67.3262 161.199 66.0763 160.679 65.9227 160.611C65.7768 160.546 65.6697 160.402 65.64 160.194L61.9459 134.392C61.8854 133.969 62.1581 133.439 62.5569 133.21L93.4925 115.342C93.695 115.226 93.8909 115.212 94.0401 115.277C94.1741 115.336 95.2598 115.788 95.556 115.921Z" fill="#2969B1"/>
<g opacity="0.2">
<path d="M95.5543 115.921C95.2581 115.788 94.1724 115.336 94.038 115.277C93.8882 115.212 93.6928 115.226 93.4903 115.342L62.5548 133.21C62.356 133.324 62.1885 133.513 62.0781 133.727L63.6343 134.387C63.7442 134.173 63.9112 133.983 64.109 133.868L95.0484 116.004C95.2308 115.898 95.4108 115.875 95.5543 115.921Z" fill="white"/>
</g>
<path d="M64.1098 133.869L95.0477 116.004C95.4447 115.774 95.8157 115.932 95.8767 116.356L99.5708 142.158C99.6313 142.581 99.3586 143.11 98.9617 143.339L68.0237 161.205C67.6268 161.434 67.2557 161.277 67.1948 160.853L63.5007 135.051C63.4397 134.627 63.7129 134.098 64.1098 133.869Z" fill="#2969B1"/>
<g opacity="0.5">
<path d="M64.1098 133.869L95.0477 116.004C95.4447 115.774 95.8157 115.932 95.8767 116.356L99.5708 142.158C99.6313 142.581 99.3586 143.11 98.9617 143.339L68.0237 161.205C67.6268 161.434 67.2557 161.277 67.1948 160.853L63.5007 135.051C63.4397 134.627 63.7129 134.098 64.1098 133.869Z" fill="white"/>
</g>
<path d="M63.6361 134.387L62.08 133.727C61.9691 133.941 61.9153 134.18 61.9461 134.392L65.6401 160.194C65.6699 160.403 65.7769 160.546 65.9229 160.611C66.0765 160.679 67.3264 161.198 67.4694 161.267C67.3264 161.198 67.227 161.054 67.1977 160.852L63.5036 135.05C63.4734 134.839 63.5262 134.601 63.6361 134.387Z" fill="#2969B1"/>
<path opacity="0.15" d="M63.6361 134.387L62.08 133.727C61.9691 133.941 61.9153 134.18 61.9461 134.392L65.6401 160.194C65.6699 160.403 65.7769 160.546 65.9229 160.611C66.0765 160.679 67.3264 161.198 67.4694 161.267C67.3264 161.198 67.227 161.054 67.1977 160.852L63.5036 135.05C63.4734 134.839 63.5262 134.601 63.6361 134.387Z" fill="black"/>
<path opacity="0.95" d="M86.3609 141.567L89.4482 144.634L76.2228 135.831L66.2969 154.567L67.1969 160.854C67.2574 161.277 67.6284 161.435 68.0258 161.206L98.9638 143.341C99.3607 143.111 99.6338 142.582 99.5729 142.159L99.0785 138.705L89.4228 133.588L86.3609 141.567Z" fill="#FAFAFA"/>
<path opacity="0.95" d="M85.6033 126.23C87.0462 125.397 88.394 125.97 88.6144 127.508C88.8347 129.047 87.844 130.97 86.4011 131.802C84.9582 132.635 83.6104 132.063 83.39 130.525C83.1697 128.986 84.1604 127.063 85.6033 126.23Z" fill="#FAFAFA"/>
<path d="M95.4241 116.206C95.4927 116.203 95.5162 116.353 95.5186 116.37L99.2132 142.173C99.2583 142.487 99.0394 142.911 98.7447 143.082L67.8068 160.947C67.7228 160.995 67.6671 161.003 67.6469 161.003C67.5783 161.006 67.5548 160.856 67.5519 160.838L63.8578 135.037C63.8127 134.722 64.0321 134.298 64.3263 134.127L95.2642 116.262C95.3482 116.213 95.4044 116.206 95.4241 116.206ZM95.3804 115.899C95.2762 115.903 95.1629 115.937 95.0477 116.004L64.1098 133.869C63.7129 134.098 63.4397 134.627 63.5007 135.051L67.1948 160.853C67.238 161.153 67.4372 161.32 67.6911 161.309C67.7953 161.305 67.9085 161.271 68.0237 161.205L98.9617 143.34C99.3586 143.11 99.6317 142.581 99.5708 142.158L95.8767 116.356C95.8335 116.055 95.6343 115.888 95.3804 115.899Z" fill="#2969B1"/>
<path d="M94.2802 78.8485C94.0699 78.8485 93.8659 78.7396 93.7531 78.5442C93.5856 78.2538 93.6854 77.8823 93.9763 77.7148L127.085 58.6343C127.376 58.4663 127.747 58.5661 127.915 58.857C128.083 59.1474 127.983 59.519 127.692 59.6865L94.5826 78.7669C94.487 78.8226 94.3829 78.8485 94.2802 78.8485Z" fill="#E0E0E0"/>
<path d="M94.9208 83.1828C94.711 83.1828 94.5065 83.0734 94.3937 82.8785C94.2262 82.5881 94.3261 82.2166 94.6169 82.049L127.726 62.9681C128.016 62.8006 128.388 62.8999 128.556 63.1908C128.724 63.4812 128.624 63.8527 128.333 64.0202L95.2237 83.1012C95.1277 83.1569 95.024 83.1828 94.9208 83.1828Z" fill="#E0E0E0"/>
<path d="M95.5536 87.515C95.3434 87.515 95.1394 87.4056 95.0266 87.2107C94.859 86.9203 94.9589 86.5488 95.2498 86.3813L128.359 67.3003C128.649 67.1323 129.021 67.2322 129.189 67.523C129.357 67.8134 129.257 68.185 128.966 68.3525L95.8569 87.4334C95.7605 87.4886 95.6568 87.515 95.5536 87.515Z" fill="#E0E0E0"/>
<path d="M96.1942 91.8486C95.984 91.8486 95.78 91.7391 95.6672 91.5442C95.4997 91.2534 95.5995 90.8823 95.8904 90.7148L128.999 71.6343C129.289 71.4663 129.661 71.5662 129.829 71.857C129.996 72.1474 129.896 72.519 129.606 72.6865L96.4966 91.767C96.4016 91.8222 96.2974 91.8486 96.1942 91.8486Z" fill="#E0E0E0"/>
<path d="M96.827 96.1823C96.6168 96.1823 96.4128 96.0734 96.3 95.878C96.1325 95.5876 96.2323 95.2161 96.5232 95.0486L129.633 75.9681C129.922 75.8006 130.295 75.8999 130.462 76.1908C130.63 76.4812 130.53 76.8527 130.239 77.0202L97.1294 96.1012C97.0344 96.1564 96.9302 96.1823 96.827 96.1823Z" fill="#E0E0E0"/>
<path d="M97.4677 100.515C97.2574 100.515 97.0534 100.406 96.9406 100.211C96.7731 99.9204 96.8729 99.5489 97.1638 99.3813L117.331 87.7591C117.621 87.5916 117.993 87.6909 118.16 87.9818C118.328 88.2722 118.228 88.6437 117.937 88.8113L97.7701 100.433C97.675 100.489 97.5709 100.515 97.4677 100.515Z" fill="#E0E0E0"/>
<path d="M98.7411 109.18C98.5309 109.18 98.3269 109.071 98.2141 108.876C98.0465 108.586 98.1464 108.214 98.4373 108.047L131.547 88.9661C131.837 88.7986 132.209 88.898 132.377 89.1888C132.544 89.4792 132.444 89.8508 132.153 90.0183L99.044 109.099C98.9484 109.154 98.8443 109.18 98.7411 109.18Z" fill="#E0E0E0"/>
<path d="M99.3817 113.515C99.1715 113.515 98.9675 113.405 98.8547 113.211C98.6872 112.92 98.787 112.549 99.0779 112.381L132.187 93.3001C132.477 93.1326 132.849 93.232 133.017 93.5228C133.185 93.8132 133.085 94.1848 132.794 94.3523L99.6846 113.433C99.5891 113.488 99.4849 113.515 99.3817 113.515Z" fill="#E0E0E0"/>
<path d="M100.022 117.847C99.8121 117.847 99.6081 117.737 99.4953 117.543C99.3278 117.252 99.4276 116.881 99.7185 116.713L132.828 97.6321C133.118 97.4646 133.49 97.564 133.658 97.8549C133.825 98.1453 133.726 98.5168 133.435 98.6843L100.325 117.765C100.229 117.821 100.125 117.847 100.022 117.847Z" fill="#E0E0E0"/>
<path d="M100.655 122.181C100.445 122.181 100.241 122.071 100.128 121.877C99.9606 121.586 100.06 121.215 100.351 121.047L133.46 101.966C133.75 101.799 134.122 101.898 134.29 102.189C134.458 102.479 134.358 102.851 134.067 103.018L100.958 122.099C100.862 122.154 100.758 122.181 100.655 122.181Z" fill="#E0E0E0"/>
<path d="M101.296 126.515C101.086 126.515 100.882 126.405 100.769 126.21C100.601 125.92 100.701 125.548 100.992 125.381L134.101 106.3C134.391 106.132 134.763 106.232 134.931 106.523C135.098 106.813 134.999 107.185 134.708 107.352L101.598 126.433C101.503 126.488 101.399 126.515 101.296 126.515Z" fill="#E0E0E0"/>
<path d="M101.936 130.847C101.726 130.847 101.522 130.737 101.409 130.542C101.242 130.252 101.342 129.88 101.633 129.712L134.742 110.632C135.031 110.465 135.403 110.564 135.571 110.855C135.739 111.146 135.639 111.517 135.348 111.685L102.239 130.766C102.144 130.821 102.04 130.847 101.936 130.847Z" fill="#E0E0E0"/>
<path d="M102.569 135.18C102.359 135.18 102.155 135.071 102.042 134.876C101.875 134.585 101.974 134.214 102.265 134.046L135.375 114.966C135.665 114.799 136.036 114.898 136.204 115.189C136.372 115.479 136.272 115.851 135.981 116.019L102.872 135.099C102.777 135.154 102.672 135.18 102.569 135.18Z" fill="#E0E0E0"/>
<path d="M103.21 139.513C103 139.513 102.796 139.404 102.683 139.209C102.515 138.918 102.615 138.547 102.906 138.379L115.634 131.044C115.924 130.877 116.296 130.976 116.464 131.267C116.632 131.557 116.532 131.929 116.241 132.096L103.513 139.431C103.417 139.487 103.313 139.513 103.21 139.513Z" fill="#E0E0E0"/>
<g opacity="0.2">
<path d="M42.7415 48.975L67.6823 34.587C67.9237 34.4478 68.1191 34.5606 68.1191 34.8394V67.2178C68.1191 67.4967 67.9233 67.8351 67.6823 67.9748L42.7415 82.3628C42.5 82.502 42.3047 82.3892 42.3047 82.1108V49.7324C42.3047 49.453 42.5 49.1142 42.7415 48.975Z" fill="black"/>
</g>
<path d="M67.0654 36.5891L43.9429 49.9226C43.6769 50.0762 43.4609 50.4496 43.4609 50.7568V82.2899C43.4609 82.5971 43.6779 82.9682 43.9457 83.1189L44.863 83.6392C45.1304 83.7904 45.5629 83.788 45.8293 83.6344L68.9518 70.301C69.2177 70.1474 69.4337 69.7739 69.4337 69.4667V37.9346C69.4337 37.6274 69.2168 37.2558 68.9494 37.1051L68.0321 36.5848C67.7638 36.4336 67.3313 36.4355 67.0654 36.5891Z" fill="#2969B1"/>
<path opacity="0.2" d="M45.8288 83.6347C45.5725 83.7835 45.104 83.7888 44.8621 83.6405L43.9457 83.1183C43.6789 82.969 43.4609 82.5975 43.4609 82.2903V50.7571C43.4609 50.5968 43.5209 50.4211 43.6141 50.2656L45.4894 51.3509C45.4006 51.5002 45.3473 51.6715 45.3473 51.8247V83.3563C45.3469 83.6371 45.5451 83.7994 45.8288 83.6347Z" fill="black"/>
<g opacity="0.2">
<path d="M69.4238 37.8482C69.3859 37.6058 69.1881 37.5189 68.9476 37.6566L45.827 50.9906C45.6935 51.0683 45.5735 51.1998 45.4867 51.351L43.6094 50.2658C43.6963 50.1213 43.8119 49.9965 43.9411 49.923L67.0641 36.5891C67.3291 36.4355 67.7606 36.4336 68.0294 36.5848L68.9457 37.1051C69.1881 37.2429 69.3902 37.5611 69.4238 37.8482Z" fill="white"/>
</g>
<path d="M68.9482 37.6576L45.8257 50.9911C45.5597 51.1447 45.3438 51.5181 45.3438 51.8253V78.0592V83.3579C45.3438 83.6651 45.5597 83.7895 45.8257 83.6359L68.9482 70.3024C69.2141 70.1488 69.4297 69.7754 69.4297 69.4682V37.9355C69.4297 37.6283 69.2141 37.504 68.9482 37.6576Z" fill="white"/>
<path d="M69.0442 38.0471V69.4688C69.0442 69.6373 68.9012 69.8855 68.7557 69.9695L45.7292 83.2472V78.0599V51.826C45.7292 51.6575 45.8722 51.4098 46.0181 51.3253L69.0442 38.0471ZM69.1633 37.592C69.0985 37.592 69.0255 37.6132 68.9482 37.6578L45.8257 50.9912C45.5597 51.1448 45.3438 51.5183 45.3438 51.8255V78.0594V83.3581C45.3438 83.576 45.4522 83.7018 45.6101 83.7018C45.6749 83.7018 45.7479 83.6807 45.8252 83.636L68.9477 70.3026C69.2137 70.149 69.4292 69.7756 69.4292 69.4684V37.9357C69.4297 37.7178 69.3212 37.592 69.1633 37.592Z" fill="#2969B1"/>
<path d="M51.3598 62.9715L49.5642 66.3205C48.6243 65.5659 48.1328 64.2253 48.1328 62.4214L50.6283 60.9805C50.6283 61.9184 50.9062 62.6067 51.3598 62.9715Z" fill="#2969B1"/>
<g opacity="0.3">
<path d="M51.3598 62.9715L49.5642 66.3205C48.6243 65.5659 48.1328 64.2253 48.1328 62.4214L50.6283 60.9805C50.6283 61.9184 50.9062 62.6067 51.3598 62.9715Z" fill="black"/>
</g>
<path d="M58.3331 56.5309C58.3331 60.2873 56.0497 64.652 53.2321 66.2782C51.7667 67.1245 50.5806 67.1369 49.5625 66.32L51.3582 62.971C51.8305 63.3517 52.4958 63.3747 53.2321 62.9499C54.6716 62.119 55.8375 59.8909 55.8375 57.9718C55.8375 56.0542 54.6716 55.171 53.2321 56.0019V52.675C56.0497 51.0478 58.3331 52.7744 58.3331 56.5309Z" fill="#2969B1"/>
<g opacity="0.4">
<path d="M58.3331 56.5309C58.3331 60.2873 56.0497 64.652 53.2321 66.2782C51.7667 67.1245 50.5806 67.1369 49.5625 66.32L51.3582 62.971C51.8305 63.3517 52.4958 63.3747 53.2321 62.9499C54.6716 62.119 55.8375 59.8909 55.8375 57.9718C55.8375 56.0542 54.6716 55.171 53.2321 56.0019V52.675C56.0497 51.0478 58.3331 52.7744 58.3331 56.5309Z" fill="white"/>
</g>
<path d="M53.2338 52.674C50.4162 54.3007 48.1328 58.6634 48.1328 62.4199L50.6283 60.9789C50.6283 59.0613 51.7943 56.8317 53.2338 56.0008C53.9912 55.5636 54.6709 55.6048 55.1466 56.0176L56.9202 52.6543C55.9918 51.8935 54.6853 51.8359 53.2338 52.674Z" fill="#2969B1"/>
<path d="M61.4699 50.6076L59.9829 51.4653C59.9666 51.4749 59.9531 51.498 59.9531 51.5172V53.2341C59.9531 53.2533 59.9666 53.261 59.9829 53.2514L61.4699 52.3932C61.4867 52.3836 61.4997 52.3605 61.4997 52.3413V50.6239C61.4997 50.6061 61.4862 50.598 61.4699 50.6076Z" fill="#2969B1"/>
<path opacity="0.4" d="M61.4699 50.6076L59.9829 51.4653C59.9666 51.4749 59.9531 51.498 59.9531 51.5172V53.2341C59.9531 53.2533 59.9666 53.261 59.9829 53.2514L61.4699 52.3932C61.4867 52.3836 61.4997 52.3605 61.4997 52.3413V50.6239C61.4997 50.6061 61.4862 50.598 61.4699 50.6076Z" fill="white"/>
<path d="M62.5713 50.5867C62.5334 50.5867 62.4959 50.567 62.4758 50.5315C62.445 50.4787 62.4638 50.4115 62.5166 50.3813L66.6805 47.9894C66.7338 47.9587 66.801 47.9774 66.8308 48.0298C66.8615 48.0826 66.8428 48.1502 66.79 48.18L62.626 50.5718C62.6087 50.5819 62.5895 50.5867 62.5713 50.5867Z" fill="#455A64"/>
<path d="M62.5713 51.5338C62.5334 51.5338 62.4959 51.5141 62.4758 51.4786C62.445 51.4258 62.4638 51.3581 62.5166 51.3283L66.6805 48.9365C66.7338 48.9062 66.801 48.9245 66.8308 48.9773C66.8615 49.0301 66.8428 49.0978 66.79 49.1275L62.626 51.5194C62.6087 51.529 62.5895 51.5338 62.5713 51.5338Z" fill="#455A64"/>
<path d="M61.4699 54.1194L59.9829 54.9776C59.9666 54.9872 59.9531 55.0102 59.9531 55.0294V56.7464C59.9531 56.7656 59.9666 56.7733 59.9829 56.7637L61.4699 55.9054C61.4867 55.8958 61.4997 55.8728 61.4997 55.8536V54.1366C61.4997 54.1174 61.4862 54.1098 61.4699 54.1194Z" fill="#2969B1"/>
<path d="M62.5713 54.0982C62.5334 54.0982 62.4959 54.0785 62.4758 54.043C62.445 53.9902 62.4638 53.9225 62.5166 53.8928L66.6805 51.5009C66.7338 51.4707 66.801 51.4889 66.8308 51.5417C66.8615 51.5945 66.8428 51.6617 66.79 51.692L62.626 54.0838C62.6087 54.0934 62.5895 54.0982 62.5713 54.0982Z" fill="#455A64"/>
<path d="M62.5713 55.0458C62.5334 55.0458 62.4959 55.0261 62.4758 54.9906C62.445 54.9378 62.4638 54.8701 62.5166 54.8404L66.6805 52.4485C66.7338 52.4178 66.801 52.436 66.8308 52.4888C66.8615 52.5416 66.8428 52.6089 66.79 52.6391L62.626 55.0309C62.6087 55.0415 62.5895 55.0458 62.5713 55.0458Z" fill="#455A64"/>
<path d="M61.4699 57.6313L59.9829 58.4896C59.9666 58.4992 59.9531 58.5222 59.9531 58.5414V60.2584C59.9531 60.2776 59.9666 60.2853 59.9829 60.2757L61.4699 59.4174C61.4867 59.4078 61.4997 59.3848 61.4997 59.3656V57.6486C61.4997 57.6294 61.4862 57.6217 61.4699 57.6313Z" fill="#2969B1"/>
<path opacity="0.3" d="M61.4699 57.6313L59.9829 58.4896C59.9666 58.4992 59.9531 58.5222 59.9531 58.5414V60.2584C59.9531 60.2776 59.9666 60.2853 59.9829 60.2757L61.4699 59.4174C61.4867 59.4078 61.4997 59.3848 61.4997 59.3656V57.6486C61.4997 57.6294 61.4862 57.6217 61.4699 57.6313Z" fill="black"/>
<path d="M62.5713 57.6097C62.5334 57.6097 62.4959 57.59 62.4758 57.5545C62.445 57.5017 62.4638 57.4345 62.5166 57.4042L66.6805 55.0129C66.7338 54.9821 66.801 55.0009 66.8308 55.0537C66.8615 55.1065 66.8428 55.1741 66.79 55.2039L62.626 57.5953C62.6087 57.6049 62.5895 57.6097 62.5713 57.6097Z" fill="#455A64"/>
<path d="M62.5713 58.5569C62.5334 58.5569 62.4959 58.5372 62.4758 58.5017C62.445 58.4489 62.4638 58.3817 62.5166 58.3515L66.6805 55.9601C66.7338 55.9294 66.801 55.9481 66.8308 56.0009C66.8615 56.0537 66.8428 56.1209 66.79 56.1512L62.626 58.5425C62.6087 58.5521 62.5895 58.5569 62.5713 58.5569Z" fill="#455A64"/>
<path d="M48.1337 73.5641C48.0958 73.5641 48.0583 73.5444 48.0382 73.5089C48.0079 73.4561 48.0257 73.3884 48.0785 73.3582L66.6804 62.6316C66.7337 62.6018 66.8009 62.6196 66.8311 62.6719C66.8614 62.7247 66.8436 62.7924 66.7908 62.8226L48.1889 73.5492C48.1711 73.5593 48.1519 73.5641 48.1337 73.5641Z" fill="#455A64"/>
<path d="M48.1337 75.4857C48.0958 75.4857 48.0583 75.4661 48.0382 75.4305C48.0079 75.3777 48.0257 75.3101 48.0785 75.2798L66.6804 64.5533C66.7337 64.524 66.8009 64.5413 66.8311 64.5936C66.8614 64.6464 66.8436 64.7141 66.7908 64.7443L48.1889 75.4709C48.1711 75.4809 48.1519 75.4857 48.1337 75.4857Z" fill="#455A64"/>
<path d="M48.1337 77.4085C48.0958 77.4085 48.0583 77.3888 48.0382 77.3533C48.0079 77.3005 48.0257 77.2328 48.0785 77.2026L66.6804 66.4756C66.7337 66.4453 66.8009 66.4636 66.8311 66.5159C66.8614 66.5687 66.8436 66.6364 66.7908 66.6666L48.1889 77.3936C48.1711 77.4037 48.1519 77.4085 48.1337 77.4085Z" fill="#455A64"/>
<g opacity="0.2">
<path d="M72.4368 31.8461L97.3776 17.4581C97.619 17.3189 97.8144 17.4317 97.8144 17.7105V50.0889C97.8144 50.3678 97.6186 50.7067 97.3776 50.8459L72.4368 65.2339C72.1954 65.3731 72 65.2603 72 64.9814V32.603C72 32.3241 72.1954 31.9853 72.4368 31.8461Z" fill="black"/>
</g>
<path d="M96.7607 19.4602L73.6382 32.7937C73.3722 32.9473 73.1562 33.3207 73.1562 33.6279V65.161C73.1562 65.4682 73.3732 65.8393 73.641 65.99L74.5583 66.5103C74.8257 66.661 75.2582 66.6591 75.5241 66.5055L98.6467 53.1721C98.9126 53.0185 99.1281 52.645 99.1281 52.3378V20.8057C99.1281 20.4985 98.9111 20.1269 98.6438 19.9762L97.7265 19.4559C97.4591 19.3047 97.0266 19.3066 96.7607 19.4602Z" fill="#2969B1"/>
<path opacity="0.2" d="M75.5241 66.5063C75.2678 66.6551 74.7993 66.6604 74.5574 66.5121L73.6411 65.9898C73.3742 65.8406 73.1562 65.469 73.1562 65.1618V33.6282C73.1562 33.4679 73.2163 33.2922 73.3094 33.1367L75.1847 34.222C75.0959 34.3713 75.0422 34.5422 75.0422 34.6958V66.2274C75.0422 66.5087 75.2404 66.6705 75.5241 66.5063Z" fill="black"/>
<g opacity="0.2">
<path d="M99.1191 20.7193C99.0812 20.4769 98.8834 20.39 98.6429 20.5277L75.5223 33.8617C75.3888 33.9394 75.2688 34.0709 75.182 34.2221L73.3047 33.1369C73.3916 32.9924 73.5072 32.8676 73.6364 32.7941L96.7594 19.4602C97.0244 19.3066 97.4559 19.3047 97.7252 19.4559L98.6415 19.9757C98.8834 20.114 99.086 20.4322 99.1191 20.7193Z" fill="white"/>
</g>
<path d="M98.6514 20.5286L75.5288 33.8621C75.2629 34.0157 75.0469 34.3891 75.0469 34.6963V60.9302V66.2289C75.0469 66.5361 75.2629 66.6605 75.5288 66.5069L98.6514 53.1734C98.9173 53.0198 99.1328 52.6464 99.1328 52.3392V20.807C99.1328 20.4998 98.9173 20.375 98.6514 20.5286Z" fill="white"/>
<path d="M98.7469 20.9179V52.3397C98.7469 52.5082 98.6038 52.7563 98.4579 52.8403L75.4314 66.1181V60.9307V34.6968C75.4314 34.5283 75.5744 34.2806 75.7203 34.1962L98.7469 20.9179ZM98.8659 20.4629C98.8011 20.4629 98.7281 20.484 98.6509 20.5287L75.5283 33.8621C75.2624 34.0157 75.0469 34.3891 75.0469 34.6963V60.9302V66.229C75.0469 66.4469 75.1554 66.5726 75.3133 66.5726C75.3781 66.5726 75.451 66.5515 75.5283 66.5069L98.6509 53.1735C98.9168 53.0199 99.1323 52.6464 99.1323 52.3392V20.8071C99.1323 20.5891 99.0238 20.4629 98.8659 20.4629Z" fill="#2969B1"/>
<path d="M82.9291 35.543V38.8698C81.4896 39.7007 80.3236 41.9303 80.3236 43.8479L77.8281 45.2884C77.8281 41.5324 80.1115 37.1692 82.9291 35.543Z" fill="#2969B1"/>
<path d="M81.0552 45.8402L79.2595 49.1891C78.3196 48.4346 77.8281 47.0939 77.8281 45.2901L80.3236 43.8496C80.3236 44.7866 80.6016 45.4754 81.0552 45.8402Z" fill="#2969B1"/>
<path d="M88.0284 39.3996C88.0284 43.1561 85.745 47.5207 82.9274 49.147C81.462 49.9932 80.2759 50.0057 79.2578 49.1887L81.0535 45.8398C81.5258 46.2204 82.1911 46.2434 82.9274 45.8186C84.3669 44.9878 85.5329 42.7596 85.5329 40.8406C85.5329 38.923 84.3669 38.0398 82.9274 38.8711V35.5442C85.745 33.917 88.0284 35.6431 88.0284 39.3996Z" fill="#2969B1"/>
<g opacity="0.4">
<path d="M88.0284 39.3996C88.0284 43.1561 85.745 47.5207 82.9274 49.147C81.462 49.9932 80.2759 50.0057 79.2578 49.1887L81.0535 45.8398C81.5258 46.2204 82.1911 46.2434 82.9274 45.8186C84.3669 44.9878 85.5329 42.7596 85.5329 40.8406C85.5329 38.923 84.3669 38.0398 82.9274 38.8711V35.5442C85.745 33.917 88.0284 35.6431 88.0284 39.3996Z" fill="white"/>
</g>
<path d="M84.2875 44.5216C83.8915 45.0736 83.4273 45.5315 82.9291 45.8195C82.1928 46.2448 81.5275 46.2213 81.0552 45.8406C80.602 45.4758 80.3236 44.787 80.3236 43.8496L77.8281 45.2901C77.8281 47.0939 78.3192 48.4346 79.2595 49.1891C80.2776 50.0061 81.4636 49.9936 82.9291 49.1474C83.9217 48.5742 84.8448 47.6574 85.6281 46.551L84.2875 44.5216Z" fill="#2969B1"/>
<path opacity="0.3" d="M84.2875 44.5216C83.8915 45.0736 83.4273 45.5315 82.9291 45.8195C82.1928 46.2448 81.5275 46.2213 81.0552 45.8406C80.602 45.4758 80.3236 44.787 80.3236 43.8496L77.8281 45.2901C77.8281 47.0939 78.3192 48.4346 79.2595 49.1891C80.2776 50.0061 81.4636 49.9936 82.9291 49.1474C83.9217 48.5742 84.8448 47.6574 85.6281 46.551L84.2875 44.5216Z" fill="black"/>
<path d="M91.1652 33.4768L89.6782 34.335C89.6614 34.3446 89.6484 34.3677 89.6484 34.3869V36.1038C89.6484 36.123 89.6619 36.1307 89.6782 36.1211L91.1652 35.2633C91.182 35.2537 91.195 35.2307 91.195 35.2115V33.4945C91.1955 33.4749 91.182 33.4672 91.1652 33.4768Z" fill="#2969B1"/>
<path opacity="0.4" d="M91.1652 33.4768L89.6782 34.335C89.6614 34.3446 89.6484 34.3677 89.6484 34.3869V36.1038C89.6484 36.123 89.6619 36.1307 89.6782 36.1211L91.1652 35.2633C91.182 35.2537 91.195 35.2307 91.195 35.2115V33.4945C91.1955 33.4749 91.182 33.4672 91.1652 33.4768Z" fill="white"/>
<path d="M92.2666 33.4558C92.2287 33.4558 92.1912 33.4362 92.1711 33.4006C92.1403 33.3478 92.1591 33.2806 92.2119 33.2504L96.3759 30.8586C96.4291 30.8278 96.4963 30.8466 96.5261 30.8994C96.5568 30.9522 96.5381 31.0194 96.4853 31.0496L92.3213 33.4414C92.304 33.4515 92.2853 33.4558 92.2666 33.4558Z" fill="#455A64"/>
<path d="M92.2666 34.4029C92.2287 34.4029 92.1912 34.3832 92.1711 34.3477C92.1403 34.2949 92.1591 34.2277 92.2119 34.1975L96.3759 31.8056C96.4291 31.7754 96.4963 31.7936 96.5261 31.846C96.5568 31.8988 96.5381 31.9664 96.4853 31.9962L92.3213 34.388C92.304 34.3986 92.2853 34.4029 92.2666 34.4029Z" fill="#455A64"/>
<path d="M91.1652 36.9882L89.6782 37.8464C89.6614 37.856 89.6484 37.8791 89.6484 37.8983V39.6153C89.6484 39.6345 89.6619 39.6421 89.6782 39.6325L91.1652 38.7743C91.182 38.7647 91.195 38.7417 91.195 38.7225V37.0055C91.1955 36.9868 91.182 36.9791 91.1652 36.9882Z" fill="#2969B1"/>
<path d="M92.2666 36.9673C92.2287 36.9673 92.1912 36.9477 92.1711 36.9121C92.1403 36.8593 92.1591 36.7922 92.2119 36.7619L96.3759 34.3701C96.4291 34.3398 96.4963 34.3581 96.5261 34.4109C96.5568 34.4637 96.5381 34.5309 96.4853 34.5611L92.3213 36.9529C92.304 36.963 92.2853 36.9673 92.2666 36.9673Z" fill="#455A64"/>
<path d="M92.2666 37.9148C92.2287 37.9148 92.1912 37.8951 92.1711 37.8596C92.1403 37.8068 92.1591 37.7396 92.2119 37.7094L96.3759 35.3175C96.4291 35.2868 96.4963 35.3055 96.5261 35.3583C96.5568 35.4111 96.5381 35.4783 96.4853 35.5086L92.3213 37.9004C92.304 37.91 92.2853 37.9148 92.2666 37.9148Z" fill="#455A64"/>
<path d="M91.1652 40.5005L89.6782 41.3587C89.6614 41.3683 89.6484 41.3914 89.6484 41.4106V43.1275C89.6484 43.1467 89.6619 43.1544 89.6782 43.1448L91.1652 42.2866C91.182 42.277 91.195 42.2539 91.195 42.2347V40.5178C91.1955 40.4986 91.182 40.4909 91.1652 40.5005Z" fill="#2969B1"/>
<path opacity="0.3" d="M91.1652 40.5005L89.6782 41.3587C89.6614 41.3683 89.6484 41.3914 89.6484 41.4106V43.1275C89.6484 43.1467 89.6619 43.1544 89.6782 43.1448L91.1652 42.2866C91.182 42.277 91.195 42.2539 91.195 42.2347V40.5178C91.1955 40.4986 91.182 40.4909 91.1652 40.5005Z" fill="black"/>
<path d="M92.2666 40.4788C92.2287 40.4788 92.1912 40.4591 92.1711 40.4236C92.1403 40.3708 92.1591 40.3036 92.2119 40.2734L96.3759 37.882C96.4291 37.8513 96.4963 37.87 96.5261 37.9228C96.5568 37.9756 96.5381 38.0428 96.4853 38.073L92.3213 40.4644C92.304 40.4745 92.2853 40.4788 92.2666 40.4788Z" fill="#455A64"/>
<path d="M92.2666 41.4261C92.2287 41.4261 92.1912 41.4064 92.1711 41.3709C92.1403 41.3181 92.1591 41.2504 92.2119 41.2206L96.3759 38.8293C96.4291 38.7985 96.4963 38.8173 96.5261 38.8701C96.5568 38.9229 96.5381 38.9901 96.4853 39.0203L92.3213 41.4121C92.304 41.4213 92.2853 41.4261 92.2666 41.4261Z" fill="#455A64"/>
<path d="M77.829 56.4332C77.7911 56.4332 77.7536 56.4135 77.7335 56.378C77.7032 56.3252 77.721 56.2575 77.7738 56.2273L96.3757 45.5007C96.429 45.471 96.4962 45.4887 96.5264 45.5411C96.5567 45.5939 96.5389 45.6615 96.4861 45.6918L77.8842 56.4183C77.8669 56.4284 77.8477 56.4332 77.829 56.4332Z" fill="#455A64"/>
<path d="M77.829 58.3549C77.7911 58.3549 77.7536 58.3352 77.7335 58.2997C77.7032 58.2469 77.721 58.1792 77.7738 58.149L96.3757 47.4224C96.429 47.3931 96.4962 47.4104 96.5264 47.4627C96.5567 47.5155 96.5389 47.5832 96.4861 47.6134L77.8842 58.3405C77.8669 58.3501 77.8477 58.3549 77.829 58.3549Z" fill="#455A64"/>
<path d="M77.829 60.2774C77.7911 60.2774 77.7536 60.2577 77.7335 60.2222C77.7032 60.1694 77.721 60.1017 77.7738 60.0715L96.3757 49.3445C96.429 49.3142 96.4962 49.3325 96.5264 49.3848C96.5567 49.4376 96.5389 49.5053 96.4861 49.5355L77.8842 60.2625C77.8669 60.2726 77.8477 60.2774 77.829 60.2774Z" fill="#455A64"/>
<g opacity="0.2">
<path d="M102.14 14.7172L127.081 0.329151C127.322 0.189951 127.518 0.302752 127.518 0.581632V32.96C127.518 33.2389 127.322 33.5773 127.081 33.717L102.14 48.105C101.898 48.2442 101.703 48.1314 101.703 47.8525V15.4741C101.703 15.1957 101.898 14.8568 102.14 14.7172Z" fill="black"/>
</g>
<path d="M126.464 2.33351L103.341 15.667C103.075 15.8206 102.859 16.194 102.859 16.5012V48.0348C102.859 48.342 103.076 48.713 103.344 48.8638L104.261 49.3841C104.529 49.5348 104.961 49.5329 105.227 49.3793L128.35 36.0458C128.616 35.8922 128.831 35.5188 128.831 35.2116V3.67847C128.831 3.37127 128.614 2.99975 128.347 2.84903L127.43 2.32871C127.162 2.17751 126.73 2.17991 126.464 2.33351Z" fill="#2969B1"/>
<path opacity="0.2" d="M105.227 49.3779C104.971 49.5267 104.502 49.532 104.26 49.3837L103.344 48.8614C103.077 48.7121 102.859 48.3406 102.859 48.0334V16.4993C102.859 16.339 102.919 16.1633 103.012 16.0078L104.888 17.0931C104.799 17.2419 104.745 17.4133 104.745 17.5669V49.0985C104.746 49.3798 104.944 49.5421 105.227 49.3779Z" fill="black"/>
<g opacity="0.2">
<path d="M128.822 3.59036C128.784 3.34796 128.587 3.26108 128.346 3.39884L105.225 16.7328C105.092 16.8105 104.972 16.942 104.885 17.0932L103.008 16.008C103.095 15.8635 103.21 15.7387 103.339 15.6652L126.463 2.33132C126.728 2.17772 127.159 2.1758 127.428 2.327L128.344 2.84684C128.587 2.98556 128.789 3.30332 128.822 3.59036Z" fill="white"/>
</g>
<path d="M128.354 3.39982L105.231 16.7333C104.966 16.8869 104.75 17.2603 104.75 17.5675V43.8014V49.1001C104.75 49.4073 104.966 49.5317 105.231 49.3781L128.354 36.0446C128.62 35.891 128.835 35.5176 128.835 35.2104V3.67774C128.835 3.37054 128.62 3.24622 128.354 3.39982Z" fill="white"/>
<path d="M128.45 3.78927V35.211C128.45 35.3795 128.307 35.6277 128.162 35.7117L105.135 48.9894V43.8021V17.5681C105.135 17.3997 105.278 17.152 105.424 17.0675L128.45 3.78927ZM128.569 3.33423C128.504 3.33423 128.431 3.35535 128.354 3.39999L105.231 16.7334C104.966 16.887 104.75 17.2605 104.75 17.5677V43.8016V49.1003C104.75 49.3182 104.858 49.444 105.016 49.444C105.081 49.444 105.154 49.4229 105.231 49.3782L128.354 36.0448C128.62 35.8912 128.835 35.5177 128.835 35.2106V3.67791C128.835 3.45999 128.727 3.33423 128.569 3.33423Z" fill="#2969B1"/>
<path d="M112.632 18.4138V21.7407C111.193 22.5716 110.027 24.8012 110.027 26.7188L107.531 28.1597C107.532 24.4037 109.815 20.0405 112.632 18.4138Z" fill="#2969B1"/>
<path d="M110.758 28.7115L108.963 32.0605C108.023 31.3059 107.531 29.9653 107.531 28.1614L110.027 26.7205C110.026 27.6579 110.305 28.3467 110.758 28.7115Z" fill="#2969B1"/>
<g opacity="0.3">
<path d="M110.758 28.7115L108.963 32.0605C108.023 31.3059 107.531 29.9653 107.531 28.1614L110.027 26.7205C110.026 27.6579 110.305 28.3467 110.758 28.7115Z" fill="black"/>
</g>
<path d="M117.731 22.2709C117.731 26.0273 115.448 30.3915 112.631 32.0182C111.165 32.8645 109.979 32.8769 108.961 32.06L110.757 28.711C111.229 29.0917 111.894 29.1147 112.631 28.6899C114.07 27.859 115.236 25.6309 115.236 23.7118C115.236 21.7942 114.07 20.911 112.631 21.7424V18.4145C115.448 16.7883 117.731 18.5144 117.731 22.2709Z" fill="#2969B1"/>
<g opacity="0.4">
<path d="M117.731 22.2709C117.731 26.0273 115.448 30.3915 112.631 32.0182C111.165 32.8645 109.979 32.8769 108.961 32.06L110.757 28.711C111.229 29.0917 111.894 29.1147 112.631 28.6899C114.07 27.859 115.236 25.6309 115.236 23.7118C115.236 21.7942 114.07 20.911 112.631 21.7424V18.4145C115.448 16.7883 117.731 18.5144 117.731 22.2709Z" fill="white"/>
</g>
<path d="M120.868 16.3476L119.381 17.2058C119.365 17.2154 119.352 17.2385 119.352 17.2577V18.9746C119.352 18.9938 119.365 19.0015 119.381 18.9919L120.868 18.1341C120.885 18.1245 120.898 18.1015 120.898 18.0823V16.3649C120.899 16.3461 120.885 16.3385 120.868 16.3476Z" fill="#2969B1"/>
<path opacity="0.4" d="M120.868 16.3476L119.381 17.2058C119.365 17.2154 119.352 17.2385 119.352 17.2577V18.9746C119.352 18.9938 119.365 19.0015 119.381 18.9919L120.868 18.1341C120.885 18.1245 120.898 18.1015 120.898 18.0823V16.3649C120.899 16.3461 120.885 16.3385 120.868 16.3476Z" fill="white"/>
<path d="M121.97 16.327C121.932 16.327 121.894 16.3074 121.874 16.2718C121.844 16.219 121.862 16.1518 121.915 16.1216L126.079 13.7298C126.132 13.699 126.2 13.7173 126.229 13.7706C126.26 13.8234 126.241 13.8906 126.189 13.9208L122.025 16.3126C122.007 16.3227 121.989 16.327 121.97 16.327Z" fill="#455A64"/>
<path d="M121.97 17.2742C121.932 17.2742 121.894 17.2545 121.874 17.219C121.844 17.1662 121.862 17.099 121.915 17.0688L126.079 14.6769C126.132 14.6462 126.2 14.6649 126.229 14.7173C126.26 14.7701 126.241 14.8373 126.189 14.8675L122.025 17.2593C122.007 17.2699 121.989 17.2742 121.97 17.2742Z" fill="#455A64"/>
<path d="M120.868 19.8598L119.381 20.7181C119.365 20.7277 119.352 20.7507 119.352 20.7699V22.4873C119.352 22.5065 119.365 22.5142 119.381 22.5046L120.868 21.6469C120.885 21.6373 120.898 21.6142 120.898 21.595V19.8781C120.899 19.8579 120.885 19.8502 120.868 19.8598Z" fill="#2969B1"/>
<path d="M121.97 19.8387C121.932 19.8387 121.894 19.819 121.874 19.7835C121.844 19.7307 121.862 19.6635 121.915 19.6332L126.079 17.2414C126.132 17.2107 126.2 17.2294 126.229 17.2817C126.26 17.3345 126.241 17.4017 126.189 17.432L122.025 19.8238C122.007 19.8339 121.989 19.8387 121.97 19.8387Z" fill="#455A64"/>
<path d="M121.97 20.7859C121.932 20.7859 121.894 20.7662 121.874 20.7307C121.844 20.6779 121.862 20.6107 121.915 20.5805L126.079 18.1886C126.132 18.1579 126.2 18.1766 126.229 18.2294C126.26 18.2822 126.241 18.3494 126.189 18.3797L122.025 20.7715C122.007 20.7811 121.989 20.7859 121.97 20.7859Z" fill="#455A64"/>
<path d="M120.868 23.3713L119.381 24.2295C119.365 24.2391 119.352 24.2622 119.352 24.2814V25.9983C119.352 26.0175 119.365 26.0252 119.381 26.0156L120.868 25.1579C120.885 25.1483 120.898 25.1252 120.898 25.106V23.3891C120.899 23.3694 120.885 23.3617 120.868 23.3713Z" fill="#2969B1"/>
<path opacity="0.3" d="M120.868 23.3713L119.381 24.2295C119.365 24.2391 119.352 24.2622 119.352 24.2814V25.9983C119.352 26.0175 119.365 26.0252 119.381 26.0156L120.868 25.1579C120.885 25.1483 120.898 25.1252 120.898 25.106V23.3891C120.899 23.3694 120.885 23.3617 120.868 23.3713Z" fill="black"/>
<path d="M121.97 23.3504C121.932 23.3504 121.894 23.3307 121.874 23.2952C121.844 23.2424 121.862 23.1752 121.915 23.1449L126.079 20.7531C126.132 20.7224 126.2 20.7411 126.229 20.7939C126.26 20.8467 126.241 20.9139 126.189 20.9441L122.025 23.3355C122.007 23.3456 121.989 23.3504 121.97 23.3504Z" fill="#455A64"/>
<path d="M121.97 24.2976C121.932 24.2976 121.894 24.278 121.874 24.2424C121.844 24.1896 121.862 24.1224 121.915 24.0922L126.079 21.7004C126.132 21.6696 126.2 21.6884 126.229 21.7412C126.26 21.794 126.241 21.8612 126.189 21.8914L122.025 24.2828C122.007 24.2928 121.989 24.2976 121.97 24.2976Z" fill="#455A64"/>
<path d="M107.532 39.3041C107.494 39.3041 107.457 39.2844 107.437 39.2489C107.406 39.1961 107.424 39.1284 107.477 39.0981L126.079 28.3716C126.132 28.3418 126.199 28.3596 126.23 28.4119C126.26 28.4647 126.242 28.5324 126.189 28.5626L107.587 39.2892C107.57 39.2993 107.551 39.3041 107.532 39.3041Z" fill="#455A64"/>
<path d="M107.532 41.2257C107.494 41.2257 107.457 41.206 107.437 41.1705C107.406 41.1177 107.424 41.05 107.477 41.0198L126.079 30.2932C126.132 30.264 126.199 30.2812 126.23 30.3336C126.26 30.3864 126.242 30.454 126.189 30.4843L107.587 41.2113C107.57 41.2209 107.551 41.2257 107.532 41.2257Z" fill="#455A64"/>
<path d="M107.532 43.1483C107.494 43.1483 107.457 43.1286 107.437 43.0931C107.406 43.0403 107.424 42.9726 107.477 42.9423L126.079 32.2153C126.132 32.1851 126.199 32.2033 126.23 32.2556C126.26 32.3084 126.242 32.3761 126.189 32.4063L107.587 43.1334C107.57 43.1435 107.551 43.1483 107.532 43.1483Z" fill="#455A64"/>
<path d="M135.273 156.714L140.557 126.244L143.898 126.074L136.955 156.709H136.952C136.936 156.815 136.864 156.92 136.729 157.008C136.41 157.214 135.876 157.242 135.538 157.068C135.358 156.976 135.272 156.846 135.276 156.713H135.273V156.714Z" fill="#263238"/>
<path d="M184.961 121.238H188.307L196.172 152.886H196.168C196.179 153.019 196.1 153.153 195.925 153.254C195.596 153.444 195.062 153.444 194.733 153.254C194.593 153.173 194.516 153.071 194.495 152.966L194.491 152.967L184.961 121.238Z" fill="#37474F"/>
<path d="M161.82 171.231L161.969 137.107L165.31 136.938L163.503 171.226H163.499C163.483 171.332 163.412 171.438 163.276 171.525C162.957 171.732 162.424 171.759 162.085 171.586C161.905 171.494 161.819 171.364 161.824 171.231H161.82Z" fill="#37474F"/>
<path d="M166.703 110.621H170.049L175.405 144.247H175.401C175.412 144.38 175.333 144.514 175.158 144.615C174.829 144.805 174.295 144.805 173.966 144.615C173.826 144.535 173.749 144.433 173.728 144.328L173.725 144.328L166.703 110.621Z" fill="#263238"/>
<path d="M194.592 84.2809C195.262 85.8437 195.724 87.7585 195.928 90.1541C196.31 94.6575 194.786 109.24 193.87 115.761L193.874 115.757C192.55 126.652 190.926 126.671 188.564 128.495C184.503 131.632 172.825 137.782 168.969 139.299C161.979 142.051 156.265 137.809 152.003 135.704C147.746 133.604 142.512 130.323 140.718 129.021C139.655 128.245 139.102 127.462 139.113 126.637C139.117 126.312 139.109 124.972 139.109 124.628C139.113 123.576 140.037 122.448 141.993 121.18C145.603 118.837 158.652 111.227 163.708 108.426C163.716 108.388 163.75 108.385 163.75 108.385C167.641 106.023 169.982 89.9684 172.677 81.4273C172.733 81.2453 172.79 81.0677 172.85 80.8973C172.896 80.761 172.945 80.6285 172.991 80.4999C173.161 80.0343 173.335 79.6105 173.521 79.2207" fill="#2969B1"/>
<path d="M139.109 124.627C139.113 123.575 140.037 122.447 141.993 121.179C145.603 118.837 158.652 111.227 163.708 108.426C163.716 108.388 163.75 108.384 163.75 108.384C167.64 106.022 169.982 89.9679 172.676 81.4267C172.701 81.3466 172.891 80.6904 173.24 79.8557C173.257 79.8168 173.273 79.7803 173.289 79.7419C173.338 79.6282 173.389 79.5125 173.443 79.3944C173.469 79.3378 173.494 79.2763 173.52 79.2207L173.523 79.2216C173.959 78.3024 174.559 77.2963 175.322 76.6248C175.386 76.5682 175.69 76.2701 176.203 76.0051C176.641 75.7579 177.559 75.2467 177.789 75.1123C180.432 73.5307 183.898 75.4287 188.218 77.7946C190.904 79.2677 193.196 81.0183 194.591 84.2808C195.261 85.8437 195.723 87.7584 195.927 90.1541C196.31 94.6575 194.786 109.24 193.87 115.761L193.874 115.757C192.549 126.652 190.925 126.671 188.564 128.495C184.503 131.632 172.825 137.782 168.968 139.299C161.978 142.051 156.264 137.809 152.003 135.704C147.745 133.604 142.511 130.323 140.717 129.021C139.654 128.245 139.102 127.462 139.113 126.637C139.117 126.311 139.109 124.971 139.109 124.627Z" fill="#2969B1"/>
<path opacity="0.15" d="M139.109 124.627C139.113 123.575 140.037 122.447 141.993 121.179C145.603 118.837 158.652 111.227 163.708 108.426C163.716 108.388 163.75 108.384 163.75 108.384C167.64 106.022 169.982 89.9679 172.676 81.4267C172.701 81.3466 172.891 80.6904 173.24 79.8557C173.257 79.8168 173.273 79.7803 173.289 79.7419C173.338 79.6282 173.389 79.5125 173.443 79.3944C173.469 79.3378 173.494 79.2763 173.52 79.2207L173.523 79.2216C173.959 78.3024 174.559 77.2963 175.322 76.6248C175.386 76.5682 175.69 76.2701 176.203 76.0051C176.641 75.7579 177.559 75.2467 177.789 75.1123C180.432 73.5307 183.898 75.4287 188.218 77.7946C190.904 79.2677 193.196 81.0183 194.591 84.2808C195.261 85.8437 195.723 87.7584 195.927 90.1541C196.31 94.6575 194.786 109.24 193.87 115.761L193.874 115.757C192.549 126.652 190.925 126.671 188.564 128.495C184.503 131.632 172.825 137.782 168.968 139.299C161.978 142.051 156.264 137.809 152.003 135.704C147.745 133.604 142.511 130.323 140.717 129.021C139.654 128.245 139.102 127.462 139.113 126.637C139.117 126.311 139.109 124.971 139.109 124.627Z" fill="black"/>
<path d="M152.005 133.678C147.747 131.575 142.512 128.294 140.72 126.993C138.297 125.233 138.52 123.433 141.992 121.18C146.817 118.05 166.484 106.891 166.484 106.891C166.484 106.891 191.347 121.564 190.278 124.273C189.208 126.983 173.818 135.366 168.97 137.273C161.978 140.023 156.264 135.782 152.005 133.678Z" fill="#2969B1"/>
<path opacity="0.3" d="M152.005 133.678C147.747 131.575 142.512 128.294 140.72 126.993C138.297 125.233 138.52 123.433 141.992 121.18C146.817 118.05 166.484 106.891 166.484 106.891C166.484 106.891 191.347 121.564 190.278 124.273C189.208 126.983 173.818 135.366 168.97 137.273C161.978 140.023 156.264 135.782 152.005 133.678Z" fill="white"/>
<path d="M176.203 76.0049C178.821 74.6312 182.221 76.4989 186.429 78.8038C189.124 80.2813 191.42 82.0318 192.815 85.3073L194.592 84.2806C193.197 81.0181 190.905 79.2675 188.218 77.7944C183.898 75.4285 180.432 73.531 177.79 75.1121C177.56 75.2465 176.641 75.7577 176.203 76.0049Z" fill="#2969B1"/>
<path opacity="0.3" d="M176.203 76.0049C178.821 74.6312 182.221 76.4989 186.429 78.8038C189.124 80.2813 191.42 82.0318 192.815 85.3073L194.592 84.2806C193.197 81.0181 190.905 79.2675 188.218 77.7944C183.898 75.4285 180.432 73.531 177.79 75.1121C177.56 75.2465 176.641 75.7577 176.203 76.0049Z" fill="white"/>
<path d="M163.75 108.384C163.75 108.384 166.286 109.217 175.33 113.66C179.043 115.48 181.484 117.319 184.962 119.506C190.078 122.727 189.688 125.119 189.688 125.119C192.231 123.011 194.766 98.5622 194.142 91.1639C193.926 88.6209 193.419 86.6226 192.685 85.0065C192.617 84.863 192.549 84.719 192.477 84.575C192.428 84.4766 192.378 84.3782 192.325 84.2836C192.302 84.238 192.276 84.1929 192.25 84.1473C192.049 83.7839 191.833 83.4431 191.606 83.1177C191.55 83.0342 191.493 82.955 191.436 82.8791C191.375 82.7994 191.318 82.7202 191.258 82.6444C191.201 82.5686 191.137 82.4932 191.076 82.4174C191.027 82.3569 190.974 82.2959 190.921 82.2354C190.63 81.8946 190.323 81.5769 190.002 81.2817C189.922 81.202 189.843 81.1305 189.76 81.0585C189.249 80.6121 188.708 80.2031 188.14 79.8282C188.053 79.7678 187.966 79.7111 187.879 79.6583C187.762 79.5825 187.644 79.5066 187.523 79.4351C187.425 79.3746 187.326 79.3142 187.224 79.257C186.963 79.102 186.698 78.9508 186.429 78.803C183.212 77.0433 180.468 75.5332 178.183 75.5332C176.474 75.5332 175.446 76.5134 175.322 76.6233C173.634 78.1103 172.733 81.2442 172.677 81.4257C169.982 89.9682 167.64 106.023 163.75 108.384Z" fill="#2969B1"/>
<path opacity="0.1" d="M163.75 108.384C163.75 108.384 166.286 109.217 175.33 113.66C179.043 115.48 181.484 117.319 184.962 119.506C190.078 122.727 189.688 125.119 189.688 125.119C192.231 123.011 194.766 98.5622 194.142 91.1639C193.926 88.6209 193.419 86.6226 192.685 85.0065C192.617 84.863 192.549 84.719 192.477 84.575C192.428 84.4766 192.378 84.3782 192.325 84.2836C192.302 84.238 192.276 84.1929 192.25 84.1473C192.049 83.7839 191.833 83.4431 191.606 83.1177C191.55 83.0342 191.493 82.955 191.436 82.8791C191.375 82.7994 191.318 82.7202 191.258 82.6444C191.201 82.5686 191.137 82.4932 191.076 82.4174C191.027 82.3569 190.974 82.2959 190.921 82.2354C190.63 81.8946 190.323 81.5769 190.002 81.2817C189.922 81.202 189.843 81.1305 189.76 81.0585C189.249 80.6121 188.708 80.2031 188.14 79.8282C188.053 79.7678 187.966 79.7111 187.879 79.6583C187.762 79.5825 187.644 79.5066 187.523 79.4351C187.425 79.3746 187.326 79.3142 187.224 79.257C186.963 79.102 186.698 78.9508 186.429 78.803C183.212 77.0433 180.468 75.5332 178.183 75.5332C176.474 75.5332 175.446 76.5134 175.322 76.6233C173.634 78.1103 172.733 81.2442 172.677 81.4257C169.982 89.9682 167.64 106.023 163.75 108.384Z" fill="white"/>
<path d="M158.748 135.07L154.004 128.881L146.625 134.316C151.545 137.651 156.955 141.812 158.285 143.42C158.285 143.42 162.479 141.639 162.752 139.284C163.024 136.929 160.061 135.591 158.748 135.07Z" fill="#FFA8A7"/>
<path d="M164.164 136.84C164.644 137.052 164.97 137.352 165.329 137.717C165.688 138.082 165.978 140.122 166.422 141.011C166.865 141.9 167.12 142.112 167.787 143.205C168.528 144.417 169.67 145.437 169.256 148.983C168.836 152.576 167.474 154.437 166.222 155.518C165.564 156.086 164.604 156.244 164.604 156.244C164.604 156.244 162.634 155.892 162.713 154.751C162.793 153.609 164.164 136.84 164.164 136.84Z" fill="#263238"/>
<path d="M156.775 142.024C156.89 142.36 157.472 142.801 157.721 143.046C158.558 143.871 159.1 145.097 159.539 146.176C161.613 151.278 160.007 154.368 163.233 155.826C164.157 156.193 165.846 155.73 167.832 151.9C168.845 149.944 168.951 146.289 168.135 144.796C167.319 143.302 166.415 142.399 165.852 141.237C165.289 140.076 165.038 137.764 164.167 136.839C163.656 136.296 162.93 135.982 162.244 135.723C161.681 135.509 160.498 135.31 159.926 135.113C159.308 134.899 159.008 134.635 158.746 135.071L159.48 135.697C160.651 136.812 160.426 137.049 160.532 137.74C160.643 138.46 161.022 139.172 161.285 139.86C160.468 139.148 160.061 138.469 159.362 138.732C158.708 138.978 158.57 138.976 157.716 140.14C156.861 141.304 156.673 141.726 156.775 142.024Z" fill="#2969B1"/>
<path opacity="0.4" d="M156.775 142.024C156.89 142.36 157.472 142.801 157.721 143.046C158.558 143.871 159.1 145.097 159.539 146.176C161.613 151.278 160.007 154.368 163.233 155.826C164.157 156.193 165.846 155.73 167.832 151.9C168.845 149.944 168.951 146.289 168.135 144.796C167.319 143.302 166.415 142.399 165.852 141.237C165.289 140.076 165.038 137.764 164.167 136.839C163.656 136.296 162.93 135.982 162.244 135.723C161.681 135.509 160.498 135.31 159.926 135.113C159.308 134.899 159.008 134.635 158.746 135.071L159.48 135.697C160.651 136.812 160.426 137.049 160.532 137.74C160.643 138.46 161.022 139.172 161.285 139.86C160.468 139.148 160.061 138.469 159.362 138.732C158.708 138.978 158.57 138.976 157.716 140.14C156.861 141.304 156.673 141.726 156.775 142.024Z" fill="black"/>
<path opacity="0.3" d="M167.834 151.899C168.848 149.942 168.954 146.288 168.138 144.794C167.843 144.254 167.536 143.793 167.239 143.367C167.281 143.471 167.333 143.574 167.365 143.664C167.436 143.864 167.501 144.065 167.56 144.268C167.785 145.051 167.944 145.92 167.745 146.726C167.568 147.443 167.184 149.23 166.298 149.433C165.796 149.549 165.278 149.134 164.978 148.604C164.851 148.381 164.595 147.763 164.595 147.763C164.595 147.763 163.331 148.292 162.452 149.142C161.317 150.24 161.399 150.421 161.399 150.421C161.508 150.703 161.659 151.189 161.653 151.549C161.647 151.91 161.555 152.509 161.382 152.771C161.298 152.898 161.202 153.003 161.102 153.097C161.383 154.311 161.883 155.214 163.236 155.825C164.16 156.191 165.849 155.729 167.834 151.899Z" fill="black"/>
<path d="M159.541 146.176C160.185 147.759 160.473 149.148 160.663 150.355C161.403 151.623 161.823 151.503 161.75 150.789C161.677 150.07 160.195 147.326 159.047 145.043C159.229 145.424 159.392 145.809 159.541 146.176Z" fill="#37474F"/>
<path d="M161.186 137.067C161.14 136.39 160.806 135.748 160.304 135.222C160.165 135.185 160.035 135.149 159.93 135.113C159.312 134.9 159.012 134.635 158.75 135.071L159.483 135.697C160.655 136.812 160.43 137.049 160.536 137.739C160.646 138.459 161.026 139.171 161.289 139.859C162.259 142.061 162.896 142.739 163.557 144.867C164.217 146.996 164.054 148.539 164.384 148.605C164.714 148.671 165.289 148.309 165.077 146.543C164.865 144.778 163.549 141.991 162.747 140.704C161.945 139.417 161.248 138.017 161.186 137.067Z" fill="#37474F"/>
<path d="M164.774 147.887C164.751 147.922 164.717 147.95 164.675 147.968C163.206 148.567 162.463 149.102 161.576 150.653C161.512 150.756 161.381 150.796 161.275 150.735C161.17 150.675 161.133 150.54 161.193 150.434C162.131 148.796 162.946 148.196 164.508 147.559C164.621 147.514 164.749 147.567 164.796 147.68C164.825 147.751 164.814 147.828 164.774 147.887Z" fill="#EBEBEB"/>
<path d="M164.161 146.123C164.137 146.157 164.104 146.186 164.063 146.204C162.552 146.864 161.758 147.475 160.813 149.111C160.741 149.229 160.612 149.256 160.504 149.194C160.396 149.131 160.358 148.992 160.421 148.884C161.417 147.162 162.279 146.488 163.882 145.788C163.996 145.739 164.13 145.791 164.18 145.905C164.212 145.979 164.202 146.061 164.161 146.123Z" fill="#EBEBEB"/>
<path d="M163.827 144.117C163.802 144.154 163.765 144.186 163.72 144.206C162.053 144.934 161.131 145.666 160.091 147.468C160.027 147.585 159.869 147.628 159.75 147.559C159.631 147.49 159.589 147.337 159.659 147.217C160.754 145.322 161.753 144.52 163.521 143.747C163.647 143.692 163.794 143.75 163.849 143.877C163.884 143.959 163.874 144.048 163.827 144.117Z" fill="#EBEBEB"/>
<path d="M163.221 142.465C163.196 142.501 163.16 142.533 163.116 142.552C161.481 143.265 160.589 143.968 159.566 145.739C159.501 145.851 159.349 145.896 159.232 145.828C159.114 145.761 159.075 145.611 159.142 145.494C160.215 143.635 161.188 142.859 162.92 142.103C163.043 142.048 163.188 142.105 163.242 142.229C163.278 142.309 163.267 142.397 163.221 142.465Z" fill="#EBEBEB"/>
<path d="M162.284 140.919C162.259 140.956 162.223 140.987 162.178 141.006C160.544 141.72 159.652 142.422 158.629 144.194C158.562 144.309 158.412 144.351 158.294 144.284C158.177 144.216 158.137 144.067 158.205 143.949C159.28 142.089 160.25 141.314 161.982 140.557C162.106 140.504 162.251 140.56 162.305 140.684C162.34 140.763 162.329 140.852 162.284 140.919Z" fill="#EBEBEB"/>
<path d="M162.699 107.125C162.699 107.125 143.645 111.337 136.73 113.21C129.675 115.122 130.421 120.602 133.048 123.385C138.078 128.713 152.376 138.539 152.376 138.539C152.376 138.539 156.423 136.047 156.734 132.305L152.812 126.754L167.01 125.022L169.03 122.57L162.699 107.125Z" fill="#455A64"/>
<path d="M149.37 132.814C150.375 130.474 151.268 129.756 153.753 128.086L156.732 132.304C156.421 136.047 152.373 138.537 152.373 138.537C152.373 138.537 150.724 137.404 148.352 135.701C148.636 134.75 148.981 133.718 149.37 132.814Z" fill="#37474F"/>
<path d="M150.332 121.186C151.566 122.271 152.65 123.256 153.603 124.215C154.556 125.174 156.742 125.186 158.699 124.217C161.13 123.012 163.709 120.958 165.211 119.778C162.997 117.307 163.881 113.689 163.881 113.689C164.1 116.04 165.159 117.994 166.294 118.925L167.495 119.767L167.927 123.492L167.257 124.957L152.816 126.754C148.851 121.599 147.485 119.232 144.164 118.838C144.164 118.838 146.676 117.97 150.332 121.186Z" fill="#37474F"/>
<path d="M152.757 162.126L152.957 161.448L157.58 149.466L148.862 146.201C147.726 152.365 146.33 160.491 145.008 162.626C145.008 162.626 147.371 166.289 149.703 165.862C152.034 165.435 152.642 163.534 152.757 162.126Z" fill="#FFA8A7"/>
<path d="M152.458 166.502C152.395 167.023 152.203 167.422 151.959 167.872C151.715 168.322 149.849 169.195 149.129 169.879C148.408 170.563 148.28 170.868 147.429 171.826C146.487 172.888 145.845 174.278 142.333 174.918C138.773 175.566 136.596 174.807 135.196 173.925C134.461 173.461 134.029 172.59 134.029 172.59C134.029 172.59 133.791 170.602 134.906 170.345C136.019 170.088 152.458 166.502 152.458 166.502Z" fill="#263238"/>
<path d="M145.342 160.947C145.054 161.155 144.803 161.84 144.641 162.15C144.096 163.192 143.082 164.068 142.179 164.802C137.904 168.277 134.48 167.643 134.028 171.154C133.947 172.146 134.883 173.626 139.126 174.406C141.293 174.804 144.819 173.838 146.01 172.621C147.2 171.404 147.799 170.276 148.745 169.398C149.691 168.52 151.83 167.605 152.46 166.501C152.83 165.854 152.918 165.068 152.966 164.337C153.005 163.735 153.022 161.7 153.022 161.7C152.298 163.146 151.166 162.985 150.537 163.288C149.881 163.604 149.31 164.175 148.729 164.627C149.171 163.637 149.702 163.05 149.246 162.458C148.819 161.904 148.782 161.772 147.418 161.295C146.055 160.819 145.597 160.762 145.342 160.947Z" fill="#2969B1"/>
<path opacity="0.4" d="M145.342 160.947C145.054 161.155 144.803 161.84 144.641 162.15C144.096 163.192 143.082 164.068 142.179 164.802C137.904 168.277 134.48 167.643 134.028 171.154C133.947 172.146 134.883 173.626 139.126 174.406C141.293 174.804 144.819 173.838 146.01 172.621C147.2 171.404 147.799 170.276 148.745 169.398C149.691 168.52 151.83 167.605 152.46 166.501C152.83 165.854 152.918 165.068 152.966 164.337C153.005 163.735 153.022 161.7 153.022 161.7C152.298 163.146 151.166 162.985 150.537 163.288C149.881 163.604 149.31 164.175 148.729 164.627C149.171 163.637 149.702 163.05 149.246 162.458C148.819 161.904 148.782 161.772 147.418 161.295C146.055 160.819 145.597 160.762 145.342 160.947Z" fill="black"/>
<path opacity="0.3" d="M139.126 174.407C141.293 174.805 144.819 173.839 146.01 172.622C146.44 172.183 146.792 171.755 147.112 171.346C147.026 171.416 146.942 171.497 146.866 171.553C146.695 171.679 146.522 171.8 146.344 171.916C145.661 172.36 144.877 172.765 144.048 172.811C143.31 172.85 141.489 173.006 141.036 172.218C140.779 171.771 141.024 171.154 141.443 170.712C141.619 170.526 142.136 170.101 142.136 170.101C142.136 170.101 141.26 169.046 140.19 168.454C138.809 167.689 138.66 167.821 138.66 167.821C138.422 168.007 138.001 168.294 137.655 168.394C137.307 168.493 136.708 168.58 136.407 168.492C136.262 168.449 136.133 168.387 136.013 168.319C134.935 168.942 134.218 169.684 134.028 171.156C133.947 172.147 134.883 173.627 139.126 174.407Z" fill="black"/>
<path d="M142.176 164.803C140.85 165.881 139.606 166.563 138.507 167.097C137.511 168.175 137.749 168.542 138.411 168.263C139.076 167.983 141.268 165.765 143.115 164C142.805 164.284 142.484 164.553 142.176 164.803Z" fill="#37474F"/>
<path d="M151.368 163.714C152.002 163.474 152.519 163.367 152.986 162.901C153.289 162.622 153.083 161.806 152.959 161.447L152.731 162.172C151.881 162.892 151.164 162.986 150.535 163.289C149.879 163.605 149.309 164.176 148.727 164.628C146.904 166.199 146.442 167.006 144.599 168.26C142.757 169.513 141.233 169.808 141.266 170.143C141.3 170.478 141.814 170.922 143.441 170.203C145.066 169.484 147.347 167.412 148.345 166.269C149.342 165.127 150.477 164.052 151.368 163.714Z" fill="#37474F"/>
<path d="M142.065 170.311C142.024 170.299 141.987 170.275 141.958 170.24C140.956 169.01 140.227 168.456 138.484 168.061C138.367 168.03 138.291 167.916 138.318 167.797C138.345 167.678 138.463 167.603 138.582 167.63C140.423 168.048 141.235 168.653 142.3 169.961C142.377 170.056 142.363 170.194 142.268 170.272C142.21 170.32 142.133 170.332 142.065 170.311Z" fill="#EBEBEB"/>
<path d="M143.575 169.209C143.534 169.196 143.497 169.173 143.468 169.14C142.395 167.887 141.579 167.306 139.739 166.881C139.604 166.847 139.541 166.73 139.569 166.609C139.597 166.487 139.719 166.411 139.841 166.439C141.779 166.889 142.675 167.517 143.812 168.845C143.893 168.94 143.883 169.083 143.788 169.164C143.727 169.216 143.646 169.23 143.575 169.209Z" fill="#EBEBEB"/>
<path d="M145.396 168.303C145.352 168.29 145.312 168.264 145.279 168.226C144.095 166.844 143.127 166.177 141.1 165.708C140.97 165.68 140.882 165.543 140.912 165.408C140.944 165.274 141.078 165.19 141.212 165.221C143.345 165.716 144.404 166.437 145.659 167.901C145.749 168.005 145.736 168.163 145.632 168.253C145.564 168.311 145.475 168.327 145.396 168.303Z" fill="#EBEBEB"/>
<path d="M146.795 167.239C146.752 167.226 146.712 167.201 146.681 167.164C145.521 165.809 144.587 165.16 142.595 164.7C142.469 164.671 142.382 164.538 142.412 164.406C142.443 164.274 142.574 164.193 142.706 164.223C144.797 164.706 145.824 165.409 147.053 166.846C147.141 166.948 147.129 167.103 147.026 167.191C146.96 167.247 146.873 167.263 146.795 167.239Z" fill="#EBEBEB"/>
<path d="M147.999 165.893C147.956 165.88 147.916 165.855 147.884 165.818C146.724 164.463 145.793 163.815 143.799 163.354C143.669 163.324 143.585 163.192 143.616 163.06C143.646 162.928 143.777 162.847 143.909 162.877C146.002 163.361 147.027 164.063 148.257 165.499C148.345 165.602 148.333 165.756 148.23 165.845C148.164 165.901 148.076 165.916 147.999 165.893Z" fill="#EBEBEB"/>
<path d="M146.25 157.151C148.538 159.527 154.05 159.355 154.05 159.355C154.05 159.355 155.634 156.33 158.494 149.707C160.091 146.01 160.98 144.332 161.656 139.17C166.505 136.794 175.128 133.381 183.302 127.272C189.158 122.895 190.082 116.951 189.339 109.91C188.426 101.256 163.019 108.327 163.019 108.327C164.697 113.018 164.322 117.641 167.494 119.765C167.494 119.765 157.262 127.107 153.81 129.726C152.223 130.93 151.474 131.326 150.712 134.972C148.478 145.657 146.25 157.151 146.25 157.151Z" fill="#455A64"/>
<path d="M152.837 159.33C152.695 159.323 152.543 159.313 152.383 159.301C154.143 155.997 156.796 148.904 157.785 145.848C158.107 144.852 158.772 142.047 158.967 141.28C159.902 137.609 160.036 136.275 161.044 135.932C161.299 135.845 161.856 135.518 162.725 135.087C167.153 132.892 177.869 127.448 181.569 123.971C181.679 123.868 181.778 123.759 181.883 123.654C180.016 122.577 179.439 119.73 180.114 117.706C180.837 115.54 180.79 111.627 179.648 110.015L179.98 109.78C181.311 111.659 181.177 115.806 180.5 117.835C179.866 119.734 180.458 122.443 182.18 123.354C185.633 119.672 186.523 114.598 184.741 108.612L185.131 108.496C187.061 114.98 185.926 120.435 181.847 124.268C178.103 127.786 167.348 133.249 162.905 135.451C162.071 135.865 161.468 136.164 161.237 136.29C160.279 136.81 159.927 139.333 159.374 141.451C159.172 142.222 158.507 144.998 158.162 145.999C157.093 149.103 154.503 156.112 152.837 159.33Z" fill="#37474F"/>
<path d="M150.984 144.945L152.374 144.143L155.98 189.553L154.59 190.355L150.984 144.945Z" fill="#455A64"/>
<path d="M150.986 144.945L148.906 143.744L153.203 189.553L154.592 190.355L150.986 144.945Z" fill="#37474F"/>
<path d="M113.07 123.089L114.46 122.287L110.163 163.135L108.773 163.937L113.07 123.089Z" fill="#455A64"/>
<path d="M113.069 123.09L110.989 121.889L107.383 163.135L108.772 163.937L113.069 123.09Z" fill="#37474F"/>
<path d="M175.234 130.961L176.624 130.158L180.23 175.569L178.841 176.371L175.234 130.961Z" fill="#455A64"/>
<path d="M175.237 130.961L173.156 129.76L177.453 175.569L178.843 176.371L175.237 130.961Z" fill="#37474F"/>
<path d="M137.32 109.105L138.71 108.303L134.413 149.15L133.023 149.953L137.32 109.105Z" fill="#455A64"/>
<path d="M137.319 109.106L135.239 107.905L131.633 149.151L133.022 149.953L137.319 109.106Z" fill="#37474F"/>
<path d="M188.186 130.242V128.598C188.186 128.329 187.996 128 187.763 127.866L135.178 97.4862C134.944 97.3513 134.566 97.3513 134.332 97.4862L99.626 117.557C99.3923 117.692 99.2031 118.02 99.2031 118.29V119.934C99.2031 120.203 99.3937 120.532 99.626 120.666L152.21 151.046C152.444 151.181 152.823 151.181 153.056 151.046L187.762 130.975C187.996 130.84 188.186 130.513 188.186 130.242Z" fill="#2969B1"/>
<path opacity="0.2" d="M188.186 130.242V128.598C188.186 128.329 187.996 128 187.763 127.866L135.178 97.4862C134.944 97.3513 134.566 97.3513 134.332 97.4862L99.626 117.557C99.3923 117.692 99.2031 118.02 99.2031 118.29V119.934C99.2031 120.203 99.3937 120.532 99.626 120.666L152.21 151.046C152.444 151.181 152.823 151.181 153.056 151.046L187.762 130.975C187.996 130.84 188.186 130.513 188.186 130.242Z" fill="white"/>
<path d="M152.633 148.528V151.148C152.786 151.148 152.939 151.113 153.056 151.049L187.761 130.977C187.995 130.841 188.184 130.515 188.184 130.244V128.599C188.184 128.362 188.038 128.075 187.839 127.922C187.993 128.053 187.967 128.235 187.761 128.355L153.056 148.426C152.939 148.495 152.786 148.528 152.633 148.528Z" fill="#2969B1"/>
<path d="M187.765 128.354L153.059 148.425C152.825 148.56 152.446 148.56 152.213 148.425L99.6284 118.046C99.3947 117.911 99.3947 117.692 99.6284 117.557L134.334 97.4862C134.568 97.3513 134.947 97.3513 135.181 97.4862L187.765 127.866C187.998 128.001 187.998 128.22 187.765 128.354Z" fill="#2969B1"/>
<path opacity="0.5" d="M187.765 128.354L153.059 148.425C152.825 148.56 152.446 148.56 152.213 148.425L99.6284 118.046C99.3947 117.911 99.3947 117.692 99.6284 117.557L134.334 97.4862C134.568 97.3513 134.947 97.3513 135.181 97.4862L187.765 127.866C187.998 128.001 187.998 128.22 187.765 128.354Z" fill="white"/>
<path opacity="0.2" d="M115.391 113.57L133.873 102.9C134.202 102.71 134.606 102.71 134.935 102.9L166.999 121.415C167.156 121.506 167.156 121.733 166.999 121.824L148.343 132.596L115.391 113.57Z" fill="black"/>
<path d="M118.008 112.012V112.41C118.008 112.993 118.319 113.533 118.825 113.828L147.467 130.364C147.718 130.511 148.004 130.58 148.282 130.58C148.566 130.58 148.849 130.509 149.106 130.362L164.718 121.378C165.219 121.089 165.534 120.543 165.534 119.96V119.409H165.531V119.414C165.531 119.485 165.498 119.551 165.427 119.594L148.282 129.495L118.008 112.012Z" fill="#37474F"/>
<path d="M118.008 112.011L134.99 102.207C135.292 102.033 135.664 102.033 135.966 102.207L165.428 119.219C165.573 119.303 165.573 119.511 165.428 119.595L148.286 129.493L118.008 112.011Z" fill="#455A64"/>
<path d="M148.44 128.051L157.6 122.768L130.816 107.305L121.609 112.56L148.44 128.051Z" fill="#37474F"/>
<path d="M121.609 112.561L121.959 112.761L130.817 107.707L157.249 122.971L157.599 122.769L130.817 107.305L121.609 112.561Z" fill="#263238"/>
<path d="M152.949 113.355L152.78 113.452L148.291 116.044L140.306 111.434L140.14 111.339L144.799 108.65L152.949 113.355Z" fill="#263238"/>
<path d="M152.778 113.454L148.289 116.045L140.304 111.436L144.797 108.844L152.778 113.454Z" fill="#37474F"/>
<path d="M148.286 129.492V130.581C148.006 130.581 147.721 130.509 147.469 130.363L118.827 113.827C118.32 113.535 118.008 112.993 118.008 112.408V112.01L148.286 129.492Z" fill="#263238"/>
<path d="M146.151 97.8201C148.974 96.7257 156.061 93.6071 156.061 93.6071C156.061 93.6071 162.453 82.8873 163.853 80.6385C165.528 77.9462 167.901 75.9359 171.786 76.2417L171.101 87.4747C171.101 87.4747 164.211 97.3598 162.979 98.9894C162.043 100.227 162.1 100.576 159.622 101.094C157.144 101.612 147.892 103.544 147.892 103.544L147.421 103.683C147.096 103.778 146.81 103.973 146.604 104.242C146.445 104.448 146.261 104.732 146.087 105.105C145.599 106.152 145.636 106.506 145.133 107.639C144.631 108.773 144.388 108.669 143.595 109.534C142.862 110.335 142.543 110.882 142.185 110.803C141.827 110.724 141.643 109.807 141.904 109.029C142.165 108.251 142.925 107.558 143.05 107.237C143.158 106.961 143.141 106.45 142.258 106.637C141.332 106.833 139.458 108.535 138.603 109.265C137.748 109.995 137.05 111.104 136.273 111.575C135.495 112.047 135.537 111.247 135.484 110.555C135.432 109.864 134.724 108.808 134.727 107.71C134.729 106.613 135.952 103.974 137.064 103.085C138.176 102.197 140.319 100.66 140.887 100.33C142.434 99.43 143.643 98.7921 146.151 97.8201Z" fill="#FFA8A7"/>
<path d="M172.078 76.125C170.405 75.9718 168.321 76.0472 166.578 77.4114C164.835 78.775 163.964 79.9496 161.388 84.3066C158.812 88.6635 157.523 90.8989 157.523 90.8989C157.523 90.8989 158.449 93.3272 160.609 94.6155C162.768 95.9038 165.058 96.3603 165.058 96.3603L171.579 87.489L172.078 76.125Z" fill="#2969B1"/>
<path d="M164.917 86.5382C165.601 78.9465 168.2 76.3987 172.075 76.1251C172.15 76.1203 177.483 76.3751 180.535 76.9526C184.247 77.6548 188.55 79.7558 189.826 80.5531C191.748 81.7535 192.36 84.3211 192.397 89.699C192.423 93.5198 192.209 98.4763 191.389 105.205C190.855 109.592 190.177 113.589 188.739 118.568C183.391 120.355 162.198 113.869 162.36 107.083C162.912 105.529 163.866 103.735 164.301 100.587C164.856 95.0577 164.702 88.9247 164.917 86.5382Z" fill="#263238"/>
<path d="M182.971 74.1754C183.492 72.0836 185.768 70.0325 186.858 68.257C187.909 66.5453 188.559 65.2042 188.582 63.5218C188.596 62.5254 188.072 61.1333 187.358 60.7954C188.489 57.1733 185.868 55.4885 184.657 54.9577C184.124 54.7244 182.941 54.3361 182.42 54.0697C181.646 53.6751 181.514 53.019 180.912 52.4228C179.875 51.397 178.009 51.2343 177.189 52.6052C176.524 51.5948 175.521 51.5434 174.342 51.7498C173.218 51.9466 172.624 52.8418 172.659 53.8666C171.179 52.8841 169.677 53.8681 169.466 54.7666C169.311 55.4295 169.411 56.006 168.926 56.5734C168.38 57.2127 167.447 57.1302 167.205 56.5618C166.973 57.5026 167.29 58.2567 168.327 58.2826C167.932 58.7717 167.787 59.4409 167.92 60.0802C168.099 60.9471 168.915 61.5106 169.602 61.5778C169.672 62.1092 169.657 62.5897 169.952 63.0654C170.235 63.5228 170.611 63.9836 171.084 64.2543C172.592 65.1188 174.304 65.4922 175.962 65.9689C176.618 66.1575 177.274 66.3461 177.931 66.5348C178.045 66.5679 178.646 66.65 178.71 66.759C178.71 66.7599 182.971 74.1754 182.971 74.1754Z" fill="#263238"/>
<path d="M185.744 71.6291C184.187 72.4058 183.25 71.3661 183.25 71.3661L182.827 78.3635C181.438 81.2651 176.29 81.3808 174.496 80.3944C172.703 79.408 173.019 78.3227 174.354 76.7382L174.312 75.5862C174.312 75.5862 172.785 75.4979 171.8 75.2829C170.156 74.9291 169.008 73.4872 168.67 71.6517C168.317 69.7341 168.427 66.7288 169.007 64.5059C169.155 63.9381 169.246 63.3539 169.229 62.7674C169.187 61.2098 169.533 60.3314 170.03 59.0637C171.971 57.7293 176.237 57.5488 179.998 60.245C179.365 62.5566 180.136 64.4853 181.775 65.5086C181.647 66.136 181.447 67.731 182.49 67.78C183.242 67.8155 183.363 66.8781 184.196 66.1077C185.046 65.321 186.844 65.2504 187.447 66.5258C188.291 68.3099 187.449 70.7786 185.744 71.6291Z" fill="#FFA8A7"/>
<path d="M179.658 64.1094L184.546 65.8571C184.546 65.8571 184.213 65.9761 183.763 66.6068L179.484 65.2681L179.658 64.1094Z" fill="#263238"/>
<path d="M167.971 62.4448C167.907 62.9324 168.164 63.098 168.198 63.4648C168.209 63.9635 168.108 64.8952 168.223 65.452C168.339 66.0116 168.639 66.9251 169.975 67.1895C170.475 67.2879 170.949 67.2817 171.389 67.0998C171.831 66.9255 172.191 66.5531 172.446 66.1695C172.907 65.5071 172.953 64.4728 173.592 64.5793C174.241 64.7017 173.98 65.7107 174.212 66.5099C174.444 67.3167 174.924 68.1529 176.357 68.4232C176.975 68.5465 177.657 68.4879 178.16 68.0929C178.938 67.5231 179.095 66.3985 179.395 65.6223C179.534 65.2417 179.854 65.2172 179.969 64.7391C180.036 64.2279 179.714 64.0494 179.334 63.9716C178.25 63.6448 176.819 63.3356 175.917 63.4225C174.781 63.5344 174.341 63.8204 173.738 63.7072C173.175 63.5958 172.878 63.1686 171.92 62.654C171.069 62.2038 169.566 61.9801 168.441 61.9163C168.261 61.9072 168.015 62.1428 167.971 62.4448ZM174.968 64.3662C175.041 64.2904 175.165 64.2203 175.324 64.1632C175.343 64.155 175.364 64.1478 175.385 64.1411C175.902 63.9764 176.475 63.9356 177.019 63.9865C178.077 64.0811 178.687 64.4435 178.889 64.7027C179.133 65.1063 178.731 66.2756 178.488 66.8257C178.486 66.8276 178.486 66.8295 178.486 66.8305C178.455 66.8958 178.42 66.963 178.38 67.0316V67.0326C178.359 67.0686 178.338 67.1055 178.314 67.1411C177.675 68.3459 175.633 68.0545 175.019 67.01L175.018 67.0095C174.561 66.2415 174.563 64.9264 174.968 64.3662ZM168.925 62.7846C168.995 62.739 169.091 62.6972 169.215 62.666C169.222 62.6636 169.229 62.6622 169.237 62.6607C169.317 62.6401 169.408 62.6262 169.493 62.619C169.507 62.6171 169.521 62.6166 169.534 62.6156C169.539 62.6147 169.545 62.6142 169.549 62.6147C170.484 62.5153 172.139 63.206 172.455 63.8823C172.624 64.3177 172.342 65.2192 172.052 65.775C171.971 65.9209 171.874 66.0582 171.759 66.1801C171.345 66.7734 169.978 66.9059 169.276 66.3188C168.607 65.7971 168.599 64.9043 168.595 64.4929C168.592 63.9692 168.658 62.9607 168.925 62.7846Z" fill="#37474F"/>
<path d="M174.076 65.4573L172.893 69.3626L170.492 67.8665C170.61 67.723 170.731 67.5794 170.849 67.4273C170.905 67.3577 170.966 67.2837 171.023 67.2098C171.14 67.062 171.257 66.9142 171.379 66.7663C171.697 66.3794 172.019 65.9964 172.319 65.6618C172.527 65.4314 172.775 65.1833 173.005 64.9788C173.01 64.9788 173.01 64.9745 173.01 64.9745C173.145 64.8482 173.275 64.7398 173.384 64.6572C173.423 64.627 173.466 64.5962 173.506 64.5703H173.527C173.549 64.5746 173.571 64.5746 173.593 64.579C173.963 64.6481 174.037 65.009 174.076 65.4573Z" fill="#F28F8F"/>
<path d="M174.312 75.5861C176.971 75.4753 178.996 75.3399 180.513 73.5346C181.465 72.4023 182.338 70.5312 182.338 70.5312C182.338 70.5312 181.892 72.8449 180.912 74.3607C180.156 75.529 178.505 76.4866 174.347 76.5293L174.312 75.5861Z" fill="#F28F8F"/>
<path d="M175.467 65.5986C175.414 66.0224 175.703 66.4055 176.11 66.4549C176.518 66.5043 176.891 66.201 176.944 65.7776C176.996 65.3538 176.709 64.9707 176.301 64.9213C175.893 64.8719 175.52 65.1752 175.467 65.5986Z" fill="#263238"/>
<path d="M176.656 62.4864L178.319 63.2198C178.512 62.7437 178.296 62.1936 177.837 61.991C177.378 61.7885 176.849 62.0102 176.656 62.4864Z" fill="#263238"/>
<path d="M175.959 70.2129L173.438 70.7562C173.612 71.4647 174.319 71.9169 175.016 71.7667C175.712 71.6169 176.135 70.9209 175.959 70.2129Z" fill="#B16668"/>
<path d="M174.305 71.7132C174.497 70.9682 175.215 70.4704 175.992 70.5794C175.972 71.1463 175.59 71.6426 175.015 71.766C174.772 71.8188 174.528 71.7938 174.305 71.7132Z" fill="#F28F8F"/>
<path d="M169.953 61.9289L171.783 61.8608C171.783 61.351 171.374 60.9526 170.868 60.9713C170.363 60.9901 169.954 61.4187 169.953 61.9289Z" fill="#263238"/>
<path d="M169.805 64.5744C169.79 65.0006 170.11 65.3578 170.52 65.3712C170.931 65.3851 171.276 65.0506 171.292 64.6238C171.307 64.1976 170.987 63.8405 170.577 63.8266C170.166 63.8131 169.821 64.1477 169.805 64.5744Z" fill="#263238"/>
<path d="M159.242 108.428C157.324 107.89 156.291 107.786 154.479 107.892C152.666 107.997 151.242 107.504 150.984 107.595C150.024 107.938 150.631 109.553 152.949 109.814C154.728 110.015 159.242 108.428 159.242 108.428Z" fill="#F28F8F"/>
<path d="M183.362 114.089C179.248 114.698 167.025 115.21 166.45 115.331C166.202 115.384 165.103 115.56 164.818 115.609C164.211 115.712 163.622 115.836 163.013 115.924C162.66 115.975 162.315 116.024 161.955 116.002C161.119 115.952 160.313 115.729 159.505 115.529C158.818 115.36 158.232 115.29 157.529 115.414C156.717 115.558 155.921 115.749 155.116 115.931C154.424 116.087 153.822 116.078 153.156 115.828C152.924 115.74 152.75 115.585 152.535 115.473C152.228 115.313 151.877 115.344 151.546 115.274C151.316 115.224 151.017 115.09 150.862 114.906C150.764 114.789 150.736 114.597 150.618 114.498C150.452 114.359 150.176 114.359 149.968 114.336C149.633 114.298 149.28 114.259 148.959 114.15C148.524 114.002 147.901 113.689 148.023 113.133C148.079 112.88 148.281 112.786 148.49 112.641C148.851 112.392 149.236 112.149 149.574 111.873C150.363 111.226 151.253 110.714 152.043 110.072C152.764 109.485 153.564 109.277 154.462 109.133C155.389 108.984 156.305 108.762 157.239 108.657C158.002 108.572 158.738 108.286 159.514 108.472C161.403 108.925 163.314 109.796 165.283 109.421C168.149 108.876 180.876 105.427 180.876 105.427L183.945 93.8729C183.945 93.8729 186.085 83.5294 189.338 80.4805C191.691 81.3728 193.817 83.1584 194.513 85.5589C195.336 88.3952 194.477 90.8706 192.86 97.7456C191.633 102.961 191.376 103.436 189.967 108.331C188.812 112.349 188.399 113.342 183.362 114.089Z" fill="#FFA8A7"/>
<path d="M189.164 80.166C191.623 81.3003 194.323 82.8291 194.974 86.7972C195.624 90.7654 191.883 102.833 191.883 102.833C191.883 102.833 189.574 103.126 186.224 102.117C182.873 101.109 182.125 99.5801 182.125 99.5801C182.125 99.5801 183.264 94.3433 183.914 91.9035C184.565 89.4646 185.891 83.1631 189.164 80.166Z" fill="#2969B1"/>
<path d="M147.825 129.733C147.283 129.943 146.667 129.902 146.154 129.604L117.638 113.141C117.136 112.851 116.792 112.356 116.695 111.785L113.573 93.1675C113.556 93.0614 113.547 92.9553 113.547 92.8493C113.547 92.3304 113.753 91.8345 114.12 91.4707L143.754 108.583C144.124 108.798 144.379 109.164 144.451 109.586L147.825 129.733Z" fill="#37474F"/>
<path d="M148.283 129.493L148.088 129.605C148.002 129.654 147.914 129.697 147.822 129.734L144.447 109.586C144.376 109.165 144.121 108.798 143.751 108.583L114.117 91.4709C114.232 91.3562 114.367 91.2558 114.513 91.1699L144.207 108.313C144.577 108.528 144.832 108.895 144.903 109.317L148.283 129.493Z" fill="#455A64"/>
<path d="M144.172 108.963L144.631 108.697C144.767 108.878 144.864 109.088 144.903 109.316L148.283 129.493L148.088 129.605C148.002 129.654 147.913 129.696 147.821 129.734L144.447 109.586C144.408 109.356 144.31 109.145 144.172 108.963Z" fill="#263238"/>
<path d="M131.763 112.549C131.554 111.302 130.267 109.646 128.888 108.851C127.51 108.055 126.562 108.42 126.771 109.667C126.98 110.913 128.267 112.569 129.645 113.365C131.024 114.16 131.972 113.795 131.763 112.549Z" fill="#2969B1"/>
</svg>
