<svg width="24" height="24" viewBox="0 0 24 24" fill="none" xmlns="http://www.w3.org/2000/svg">
<path d="M17.0346 7.14111C17.0413 7.658 16.978 8.17341 16.8464 8.67332C16.7322 9.09508 16.5672 9.50142 16.355 9.88342C16.1606 10.2286 15.9353 10.5554 15.6818 10.8598C15.4355 11.1542 15.1942 11.4333 14.9643 11.691L14.934 11.7238C14.7193 11.9512 14.5197 12.1697 14.3428 12.3756C14.1517 12.5975 13.9825 12.8374 13.8376 13.0918C13.6858 13.3608 13.5694 13.6482 13.4915 13.947C13.4035 14.3014 13.3615 14.6657 13.3664 15.0308V15.094C13.3516 15.4288 13.2083 15.745 12.9661 15.9767C12.724 16.2084 12.4018 16.3377 12.0666 16.3377C11.7315 16.3377 11.4093 16.2084 11.1671 15.9767C10.925 15.745 10.7816 15.4288 10.7668 15.094V15.0308C10.7616 14.441 10.8325 13.853 10.9778 13.2813C11.1131 12.765 11.3143 12.2683 11.5765 11.8034C11.8053 11.4042 12.0718 11.0277 12.3723 10.6792C12.5719 10.4468 12.7955 10.1992 13.0355 9.94785C13.2451 9.71163 13.4649 9.45521 13.6923 9.18616C13.8441 9.00339 13.9789 8.80721 14.0953 8.60006C14.2024 8.40224 14.2855 8.19233 14.3428 7.97479C14.411 7.70233 14.442 7.42189 14.435 7.14111C14.4404 6.81088 14.3771 6.48314 14.2494 6.17858C14.1283 5.88018 13.9498 5.6085 13.7239 5.379C13.5 5.1533 13.2339 4.97389 12.9407 4.851C12.6526 4.72651 12.3413 4.66451 12.0275 4.66911C11.7039 4.66368 11.3828 4.72652 11.0851 4.85353C10.4786 5.1055 9.99703 5.58802 9.7462 6.195C9.61938 6.49316 9.55656 6.81462 9.56178 7.13858V7.17395C9.56952 7.34946 9.54163 7.52472 9.4798 7.68917C9.41797 7.85361 9.32348 8.00382 9.20202 8.13076C9.08056 8.25769 8.93465 8.35871 8.77309 8.42773C8.61154 8.49674 8.43767 8.53232 8.26199 8.53232C8.08631 8.53232 7.91245 8.49674 7.75089 8.42773C7.58933 8.35871 7.44342 8.25769 7.32196 8.13076C7.2005 8.00382 7.10601 7.85361 7.04418 7.68917C6.98235 7.52472 6.95446 7.34946 6.9622 7.17395V7.13858C6.95692 6.4614 7.09197 5.79046 7.35883 5.16806C7.8718 3.95071 8.83929 2.9814 10.0557 2.46616C10.6783 2.19857 11.3498 2.06349 12.0275 2.06953C12.6977 2.06391 13.3617 2.19903 13.9765 2.46616C15.1849 2.98257 16.1427 3.95216 16.6443 5.16679C16.9082 5.79129 17.0402 6.46318 17.0346 7.14111ZM13.5761 19.5327C13.6626 19.7393 13.7072 19.9611 13.7072 20.1851C13.7072 20.4091 13.6626 20.6309 13.5761 20.8375C13.4049 21.2416 13.0833 21.5632 12.6793 21.7344L12.6729 21.7382C12.4713 21.8244 12.2543 21.8687 12.035 21.8683C11.7005 21.8713 11.3726 21.7749 11.0929 21.5914C10.8132 21.4079 10.5942 21.1456 10.4637 20.8375C10.3325 20.5313 10.2966 20.1927 10.3605 19.8658C10.4245 19.5389 10.5855 19.2388 10.8224 19.0047C10.9812 18.8524 11.1672 18.7311 11.3706 18.6472C11.581 18.5589 11.8069 18.5138 12.035 18.5146C12.2543 18.5144 12.4713 18.5587 12.6729 18.6447L12.6793 18.6485C12.8784 18.7331 13.0603 18.8534 13.2161 19.0034C13.37 19.1537 13.4924 19.3332 13.5761 19.5314V19.5327Z" fill="#173E88"/>
</svg>
