<svg width="25" height="24" viewBox="0 0 25 24" fill="none" xmlns="http://www.w3.org/2000/svg">
<path d="M4.93751 19.0711C6.33853 20.4696 8.12355 21.422 10.0668 21.8079C12.0101 22.1937 14.0243 21.9957 15.8549 21.2388C17.6854 20.4819 19.25 19.2002 20.3507 17.5557C21.4515 15.9112 22.0391 13.9778 22.0391 12C22.0391 10.0222 21.4515 8.08879 20.3507 6.4443C19.25 4.79981 17.6854 3.51808 15.8549 2.76121C14.0244 2.00433 12.0101 1.8063 10.0668 2.19215C8.12355 2.578 6.33854 3.53041 4.93751 4.92893" stroke="white" stroke-width="2"/>
<path d="M15.0273 12L15.8077 11.3746L16.3089 12L15.8077 12.6254L15.0273 12ZM3.00592 13C2.45363 13 2.00592 12.5523 2.00592 12C2.00592 11.4477 2.45363 11 3.00592 11V13ZM11.8005 6.37463L15.8077 11.3746L14.247 12.6254L10.2399 7.62537L11.8005 6.37463ZM15.8077 12.6254L11.8005 17.6254L10.2399 16.3746L14.247 11.3746L15.8077 12.6254ZM15.0273 13H3.00592V11H15.0273V13Z" fill="white"/>
</svg>
