<svg width="118" height="19" viewBox="0 0 118 19" fill="none" xmlns="http://www.w3.org/2000/svg">
<path d="M79.424 14.126C78.9853 14.126 78.5607 14.0887 78.15 14.014C77.7393 13.9487 77.352 13.846 76.988 13.706C76.624 13.566 76.2973 13.3933 76.008 13.188C75.8867 13.104 75.798 13.0013 75.742 12.88C75.6953 12.7587 75.6813 12.642 75.7 12.53C75.728 12.4087 75.7793 12.306 75.854 12.222C75.938 12.138 76.036 12.0867 76.148 12.068C76.26 12.0493 76.3813 12.0867 76.512 12.18C76.9413 12.4693 77.3893 12.6793 77.856 12.81C78.332 12.9407 78.8547 13.006 79.424 13.006C80.2453 13.006 80.8473 12.8567 81.23 12.558C81.622 12.2593 81.818 11.8673 81.818 11.382C81.818 10.9807 81.678 10.668 81.398 10.444C81.118 10.2107 80.6467 10.0287 79.984 9.898L78.5 9.59C77.6227 9.40333 76.9647 9.09533 76.526 8.666C76.0967 8.23667 75.882 7.66267 75.882 6.944C75.882 6.50533 75.9707 6.10867 76.148 5.754C76.3253 5.39 76.5773 5.07733 76.904 4.816C77.2307 4.55467 77.6133 4.354 78.052 4.214C78.5 4.074 78.9947 4.004 79.536 4.004C80.1147 4.004 80.656 4.08333 81.16 4.242C81.6733 4.40067 82.1353 4.634 82.546 4.942C82.658 5.026 82.7327 5.12867 82.77 5.25C82.8073 5.362 82.812 5.474 82.784 5.586C82.7653 5.698 82.714 5.79133 82.63 5.866C82.5553 5.94067 82.4573 5.98267 82.336 5.992C82.224 6.00133 82.098 5.95933 81.958 5.866C81.5847 5.60467 81.202 5.418 80.81 5.306C80.418 5.18467 79.9887 5.124 79.522 5.124C79.046 5.124 78.6307 5.19867 78.276 5.348C77.9307 5.49733 77.66 5.70733 77.464 5.978C77.2773 6.23933 77.184 6.54733 77.184 6.902C77.184 7.33133 77.3147 7.66733 77.576 7.91C77.8373 8.15267 78.276 8.33933 78.892 8.47L80.362 8.764C81.2953 8.96 81.986 9.26333 82.434 9.674C82.8913 10.0753 83.12 10.6167 83.12 11.298C83.12 11.7273 83.0313 12.1147 82.854 12.46C82.686 12.8053 82.4433 13.104 82.126 13.356C81.8087 13.5987 81.4213 13.79 80.964 13.93C80.5067 14.0607 79.9933 14.126 79.424 14.126ZM87.4633 14.126C86.9126 14.126 86.4506 14.028 86.0773 13.832C85.7133 13.636 85.4379 13.3513 85.2513 12.978C85.0739 12.6047 84.9853 12.1473 84.9853 11.606V8.162H84.0893C83.9213 8.162 83.7906 8.12 83.6973 8.036C83.6039 7.94267 83.5573 7.82133 83.5573 7.672C83.5573 7.51333 83.6039 7.392 83.6973 7.308C83.7906 7.224 83.9213 7.182 84.0893 7.182H84.9853V5.656C84.9853 5.44133 85.0413 5.28267 85.1533 5.18C85.2653 5.068 85.4239 5.012 85.6293 5.012C85.8346 5.012 85.9886 5.068 86.0913 5.18C86.2033 5.28267 86.2593 5.44133 86.2593 5.656V7.182H87.9533C88.1306 7.182 88.2659 7.224 88.3593 7.308C88.4526 7.392 88.4993 7.51333 88.4993 7.672C88.4993 7.82133 88.4526 7.94267 88.3593 8.036C88.2659 8.12 88.1306 8.162 87.9533 8.162H86.2593V11.494C86.2593 12.0073 86.3666 12.3947 86.5813 12.656C86.7959 12.9173 87.1506 13.048 87.6453 13.048C87.8226 13.048 87.9719 13.034 88.0933 13.006C88.2146 12.9687 88.3219 12.95 88.4153 12.95C88.4993 12.9407 88.5693 12.9687 88.6253 13.034C88.6906 13.0993 88.7233 13.2207 88.7233 13.398C88.7233 13.5287 88.6999 13.65 88.6533 13.762C88.6159 13.8647 88.5366 13.9347 88.4153 13.972C88.3033 14.0093 88.1539 14.042 87.9673 14.07C87.7806 14.1073 87.6126 14.126 87.4633 14.126ZM90.3109 14.098C90.0962 14.098 89.9329 14.042 89.8209 13.93C89.7089 13.818 89.6529 13.6547 89.6529 13.44V7.728C89.6529 7.51333 89.7089 7.35467 89.8209 7.252C89.9329 7.14 90.0869 7.084 90.2829 7.084C90.4789 7.084 90.6282 7.14 90.7309 7.252C90.8429 7.35467 90.8989 7.51333 90.8989 7.728V8.806H90.7589C90.9082 8.246 91.1882 7.82133 91.5989 7.532C92.0095 7.24267 92.5275 7.07933 93.1529 7.042C93.3022 7.03267 93.4235 7.07 93.5169 7.154C93.6102 7.22867 93.6615 7.35933 93.6709 7.546C93.6802 7.72333 93.6382 7.868 93.5449 7.98C93.4515 8.08267 93.3069 8.14333 93.1109 8.162L92.8589 8.176C92.2429 8.24133 91.7669 8.442 91.4309 8.778C91.1042 9.114 90.9409 9.576 90.9409 10.164V13.44C90.9409 13.6547 90.8849 13.818 90.7729 13.93C90.6702 14.042 90.5162 14.098 90.3109 14.098ZM97.5684 14.126C96.8964 14.126 96.3131 13.9813 95.8184 13.692C95.3238 13.4027 94.9411 12.992 94.6704 12.46C94.3998 11.928 94.2644 11.3027 94.2644 10.584C94.2644 10.0427 94.3391 9.55733 94.4884 9.128C94.6471 8.68933 94.8711 8.316 95.1604 8.008C95.4498 7.7 95.7951 7.46667 96.1964 7.308C96.6071 7.14 97.0644 7.056 97.5684 7.056C98.2404 7.056 98.8238 7.20067 99.3184 7.49C99.8131 7.77933 100.196 8.19 100.466 8.722C100.737 9.24467 100.872 9.86533 100.872 10.584C100.872 11.1253 100.793 11.6153 100.634 12.054C100.485 12.4927 100.266 12.866 99.9764 13.174C99.6871 13.482 99.3371 13.72 98.9264 13.888C98.5251 14.0467 98.0724 14.126 97.5684 14.126ZM97.5684 13.118C97.9791 13.118 98.3338 13.02 98.6324 12.824C98.9404 12.628 99.1738 12.3433 99.3324 11.97C99.5004 11.5967 99.5844 11.1347 99.5844 10.584C99.5844 9.76267 99.4024 9.13733 99.0384 8.708C98.6744 8.27867 98.1844 8.064 97.5684 8.064C97.1671 8.064 96.8124 8.162 96.5044 8.358C96.2058 8.54467 95.9724 8.82467 95.8044 9.198C95.6364 9.57133 95.5524 10.0333 95.5524 10.584C95.5524 11.4053 95.7344 12.0353 96.0984 12.474C96.4718 12.9033 96.9618 13.118 97.5684 13.118ZM103.134 14.098C102.938 14.098 102.784 14.042 102.672 13.93C102.56 13.818 102.504 13.6547 102.504 13.44V7.728C102.504 7.51333 102.56 7.35467 102.672 7.252C102.784 7.14 102.938 7.084 103.134 7.084C103.33 7.084 103.48 7.14 103.582 7.252C103.694 7.35467 103.75 7.51333 103.75 7.728V8.876L103.596 8.666C103.792 8.134 104.11 7.73267 104.548 7.462C104.996 7.19133 105.505 7.056 106.074 7.056C106.625 7.056 107.078 7.154 107.432 7.35C107.787 7.546 108.053 7.84467 108.23 8.246C108.408 8.64733 108.496 9.156 108.496 9.772V13.44C108.496 13.6547 108.44 13.818 108.328 13.93C108.226 14.042 108.072 14.098 107.866 14.098C107.661 14.098 107.502 14.042 107.39 13.93C107.278 13.818 107.222 13.6547 107.222 13.44V9.842C107.222 9.23533 107.106 8.792 106.872 8.512C106.639 8.232 106.266 8.092 105.752 8.092C105.155 8.092 104.674 8.27867 104.31 8.652C103.956 9.016 103.778 9.51067 103.778 10.136V13.44C103.778 13.8787 103.564 14.098 103.134 14.098ZM113.582 16.646C113.078 16.646 112.588 16.59 112.112 16.478C111.645 16.366 111.221 16.1933 110.838 15.96C110.717 15.8853 110.633 15.7967 110.586 15.694C110.549 15.6007 110.539 15.5027 110.558 15.4C110.586 15.2973 110.633 15.204 110.698 15.12C110.773 15.0453 110.857 14.994 110.95 14.966C111.053 14.9473 111.155 14.9707 111.258 15.036C111.669 15.2693 112.061 15.428 112.434 15.512C112.807 15.596 113.162 15.638 113.498 15.638C114.161 15.638 114.655 15.4653 114.982 15.12C115.318 14.784 115.486 14.2893 115.486 13.636V12.124H115.612C115.481 12.6467 115.187 13.062 114.73 13.37C114.282 13.678 113.759 13.832 113.162 13.832C112.546 13.832 112.009 13.692 111.552 13.412C111.095 13.1227 110.74 12.726 110.488 12.222C110.236 11.7087 110.11 11.116 110.11 10.444C110.11 9.93067 110.18 9.46867 110.32 9.058C110.469 8.638 110.675 8.28333 110.936 7.994C111.207 7.69533 111.529 7.46667 111.902 7.308C112.275 7.14 112.695 7.056 113.162 7.056C113.769 7.056 114.296 7.21 114.744 7.518C115.192 7.826 115.481 8.24133 115.612 8.764L115.458 8.96V7.728C115.458 7.51333 115.514 7.35467 115.626 7.252C115.738 7.14 115.897 7.084 116.102 7.084C116.298 7.084 116.452 7.14 116.564 7.252C116.676 7.35467 116.732 7.51333 116.732 7.728V13.468C116.732 14.5227 116.461 15.316 115.92 15.848C115.388 16.38 114.609 16.646 113.582 16.646ZM113.442 12.824C113.862 12.824 114.221 12.7307 114.52 12.544C114.828 12.348 115.061 12.0727 115.22 11.718C115.388 11.354 115.472 10.9293 115.472 10.444C115.472 9.70667 115.29 9.128 114.926 8.708C114.562 8.27867 114.067 8.064 113.442 8.064C113.022 8.064 112.658 8.162 112.35 8.358C112.051 8.54467 111.818 8.81533 111.65 9.17C111.482 9.52467 111.398 9.94933 111.398 10.444C111.398 11.172 111.58 11.7507 111.944 12.18C112.317 12.6093 112.817 12.824 113.442 12.824Z" fill="#030303"/>
<rect y="6" width="60" height="4" rx="2" fill="#D9D9D9"/>
<rect y="6" width="40" height="4" rx="2" fill="#E9C055"/>
</svg>
