<svg width="112" height="19" viewBox="0 0 112 19" fill="none" xmlns="http://www.w3.org/2000/svg">
<path d="M79.424 14.098C79.2373 14.098 79.088 14.0513 78.976 13.958C78.864 13.8647 78.7707 13.7153 78.696 13.51L75.644 4.802C75.56 4.58733 75.5693 4.40533 75.672 4.256C75.784 4.10667 75.966 4.032 76.218 4.032C76.3953 4.032 76.5353 4.074 76.638 4.158C76.7407 4.242 76.8247 4.382 76.89 4.578L79.704 12.838H79.2L82.084 4.606C82.1587 4.41 82.2473 4.26533 82.35 4.172C82.4527 4.07867 82.588 4.032 82.756 4.032C82.9333 4.032 83.0687 4.07867 83.162 4.172C83.2647 4.26533 83.3487 4.41467 83.414 4.62L86.242 12.838H85.794L88.636 4.578C88.7013 4.39133 88.7853 4.256 88.888 4.172C88.9907 4.07867 89.1353 4.032 89.322 4.032C89.5367 4.032 89.6953 4.10667 89.798 4.256C89.9007 4.40533 89.9147 4.58733 89.84 4.802L86.76 13.524C86.6947 13.72 86.606 13.8647 86.494 13.958C86.382 14.0513 86.2327 14.098 86.046 14.098C85.85 14.098 85.696 14.0513 85.584 13.958C85.472 13.8647 85.3787 13.7153 85.304 13.51L82.574 5.67H82.882L80.138 13.524C80.0633 13.72 79.97 13.8647 79.858 13.958C79.7553 14.0513 79.6107 14.098 79.424 14.098ZM93.7872 14.126C93.0499 14.126 92.4152 13.986 91.8832 13.706C91.3606 13.4167 90.9546 13.0107 90.6652 12.488C90.3759 11.956 90.2312 11.3307 90.2312 10.612C90.2312 9.90267 90.3712 9.282 90.6512 8.75C90.9406 8.218 91.3326 7.80267 91.8272 7.504C92.3312 7.20533 92.9052 7.056 93.5492 7.056C94.0066 7.056 94.4172 7.13533 94.7812 7.294C95.1546 7.44333 95.4719 7.66267 95.7332 7.952C95.9946 8.24133 96.1906 8.596 96.3212 9.016C96.4612 9.42667 96.5312 9.89333 96.5312 10.416C96.5312 10.5653 96.4846 10.682 96.3912 10.766C96.3072 10.8407 96.1812 10.878 96.0132 10.878H91.2252V10.066H95.6912L95.4532 10.262C95.4532 9.77667 95.3786 9.366 95.2292 9.03C95.0892 8.68467 94.8792 8.42333 94.5992 8.246C94.3286 8.06867 93.9879 7.98 93.5772 7.98C93.1292 7.98 92.7466 8.08733 92.4292 8.302C92.1119 8.50733 91.8692 8.80133 91.7012 9.184C91.5332 9.55733 91.4492 9.99133 91.4492 10.486V10.57C91.4492 11.41 91.6499 12.0447 92.0512 12.474C92.4526 12.9033 93.0312 13.118 93.7872 13.118C94.0859 13.118 94.3892 13.0807 94.6972 13.006C95.0146 12.9313 95.3179 12.796 95.6072 12.6C95.7472 12.516 95.8732 12.4787 95.9852 12.488C96.1066 12.488 96.2046 12.5253 96.2792 12.6C96.3539 12.6653 96.4006 12.7493 96.4192 12.852C96.4379 12.9453 96.4239 13.048 96.3772 13.16C96.3306 13.272 96.2419 13.37 96.1112 13.454C95.8032 13.6687 95.4346 13.8367 95.0052 13.958C94.5852 14.07 94.1792 14.126 93.7872 14.126ZM100.286 14.126C99.8191 14.126 99.3944 14.0327 99.0118 13.846C98.6384 13.6593 98.3444 13.4073 98.1298 13.09C97.9244 12.7727 97.8218 12.418 97.8218 12.026C97.8218 11.522 97.9478 11.1253 98.1998 10.836C98.4518 10.5467 98.8764 10.3413 99.4738 10.22C100.071 10.0893 100.874 10.024 101.882 10.024H102.54V10.836H101.91C101.191 10.836 100.622 10.8687 100.202 10.934C99.7911 10.9993 99.5018 11.116 99.3338 11.284C99.1658 11.4427 99.0818 11.6667 99.0818 11.956C99.0818 12.32 99.2078 12.6187 99.4598 12.852C99.7211 13.0853 100.076 13.202 100.524 13.202C100.878 13.202 101.191 13.118 101.462 12.95C101.732 12.7727 101.947 12.5393 102.106 12.25C102.264 11.9513 102.344 11.6107 102.344 11.228V9.618C102.344 9.06733 102.232 8.67067 102.008 8.428C101.784 8.176 101.406 8.05 100.874 8.05C100.566 8.05 100.248 8.092 99.9218 8.176C99.5951 8.26 99.2544 8.39067 98.8998 8.568C98.7598 8.63333 98.6384 8.65667 98.5358 8.638C98.4331 8.61 98.3491 8.554 98.2838 8.47C98.2278 8.37667 98.1951 8.27867 98.1858 8.176C98.1858 8.064 98.2091 7.95667 98.2558 7.854C98.3118 7.75133 98.4051 7.67667 98.5358 7.63C98.9464 7.42467 99.3524 7.28 99.7538 7.196C100.164 7.10267 100.547 7.056 100.902 7.056C101.508 7.056 102.008 7.154 102.4 7.35C102.792 7.53667 103.086 7.83067 103.282 8.232C103.478 8.624 103.576 9.128 103.576 9.744V13.44C103.576 13.6547 103.524 13.818 103.422 13.93C103.319 14.042 103.17 14.098 102.974 14.098C102.787 14.098 102.638 14.042 102.526 13.93C102.423 13.818 102.372 13.6547 102.372 13.44V12.446H102.498C102.423 12.7913 102.283 13.09 102.078 13.342C101.872 13.594 101.616 13.79 101.308 13.93C101.009 14.0607 100.668 14.126 100.286 14.126ZM106.211 14.098C106.015 14.098 105.861 14.042 105.749 13.93C105.637 13.818 105.581 13.6547 105.581 13.44V4.676C105.581 4.46133 105.637 4.30267 105.749 4.2C105.861 4.088 106.015 4.032 106.211 4.032C106.416 4.032 106.575 4.088 106.687 4.2C106.799 4.30267 106.855 4.46133 106.855 4.676V10.192H106.883L109.627 7.518C109.767 7.378 109.893 7.27067 110.005 7.196C110.117 7.12133 110.261 7.084 110.439 7.084C110.616 7.084 110.751 7.13067 110.845 7.224C110.938 7.308 110.985 7.42 110.985 7.56C110.985 7.69067 110.919 7.82133 110.789 7.952L107.877 10.78V10.15L111.055 13.216C111.185 13.3467 111.246 13.482 111.237 13.622C111.237 13.762 111.185 13.8787 111.083 13.972C110.989 14.056 110.863 14.098 110.705 14.098C110.518 14.098 110.364 14.0607 110.243 13.986C110.131 13.9113 110 13.7947 109.851 13.636L106.883 10.836H106.855V13.44C106.855 13.8787 106.64 14.098 106.211 14.098Z" fill="#030303"/>
<rect y="9" width="60" height="4" rx="2" fill="#D9D9D9"/>
<rect y="9" width="20" height="3.80952" rx="1.90476" fill="#DA5A5A"/>
</svg>
