<svg width="928" height="928" viewBox="0 0 928 928" fill="none" xmlns="http://www.w3.org/2000/svg">
<path d="M235.551 826.302C235.541 826.293 235.532 826.146 235.523 825.868C235.515 825.549 235.506 825.146 235.493 824.643C235.476 823.518 235.454 821.952 235.424 819.942C235.387 815.818 235.335 809.89 235.27 802.414L235.551 802.694C214.932 802.735 182.142 802.8 145.256 802.874C145.46 802.67 144.792 803.333 145.711 802.414V802.419V802.432V802.457V802.505V802.601V802.792V803.177V803.945V805.476C145.711 806.495 145.711 807.512 145.711 808.524C145.711 810.549 145.709 812.559 145.709 814.552C145.707 818.539 145.703 822.46 145.702 826.302L145.252 825.853C170.965 825.935 193.466 826.007 209.602 826.057C217.64 826.111 224.09 826.156 228.596 826.185C230.788 826.211 232.503 826.23 233.732 826.245C234.285 826.256 234.726 826.267 235.075 826.275C235.38 826.282 235.539 826.291 235.551 826.302C235.56 826.312 235.419 826.321 235.133 826.332C234.799 826.34 234.376 826.349 233.845 826.362C232.64 826.377 230.957 826.395 228.806 826.421C224.325 826.451 217.909 826.495 209.915 826.549C193.7 826.601 171.09 826.672 145.252 826.753L144.803 826.755V826.304C144.801 822.462 144.798 818.541 144.796 814.554C144.796 812.561 144.794 810.551 144.794 808.526C144.794 807.514 144.794 806.497 144.794 805.478V803.947V803.179V802.794V802.603V802.507V802.458V802.434V802.421V802.416C145.715 801.495 145.052 802.16 145.26 801.955C182.146 802.03 214.936 802.095 235.554 802.135H235.836L235.835 802.416C235.768 809.962 235.716 815.948 235.68 820.111C235.651 822.093 235.629 823.641 235.612 824.749C235.599 825.231 235.59 825.618 235.582 825.926C235.569 826.184 235.56 826.312 235.551 826.302Z" fill="#E0E0E0"/>
<path d="M247.793 802.414C247.782 802.403 247.77 802.249 247.757 801.959C247.748 801.616 247.735 801.2 247.722 800.693C247.702 799.519 247.674 797.921 247.641 795.903C247.598 791.714 247.537 785.799 247.462 778.525L247.793 778.856C233.737 778.889 214.617 778.936 193.542 778.986C193.128 779.396 194.097 778.425 193.998 778.527V778.533V778.546V778.57V778.618V778.716V778.913V779.305V780.088V781.649C193.998 782.688 193.998 783.72 193.997 784.747C193.995 786.799 193.993 788.828 193.993 790.827C193.987 794.823 193.982 798.698 193.976 802.41L193.538 801.972C209.201 802.056 222.685 802.128 232.349 802.18C237.115 802.23 240.935 802.271 243.654 802.301C244.923 802.323 245.935 802.341 246.703 802.356C247.403 802.377 247.774 802.395 247.793 802.414C247.811 802.432 247.473 802.449 246.807 802.468C246.063 802.481 245.081 802.499 243.849 802.523C241.154 802.553 237.368 802.594 232.644 802.644C222.906 802.696 209.32 802.768 193.538 802.852L193.1 802.854V802.414C193.095 798.702 193.089 794.827 193.083 790.831C193.082 788.832 193.08 786.803 193.08 784.75C193.08 783.724 193.08 782.69 193.078 781.653V780.092V779.309V778.917V778.72V778.622V778.574V778.549V778.536V778.531C192.978 778.627 193.95 777.657 193.542 778.069C214.617 778.119 233.737 778.165 247.793 778.199H248.127L248.123 778.529C248.049 785.888 247.988 791.872 247.945 796.109C247.91 798.095 247.882 799.667 247.863 800.825C247.839 801.889 247.817 802.436 247.793 802.414Z" fill="#E0E0E0"/>
<path d="M271.228 72.384H180.928V96.2726H271.228V72.384Z" fill="#837D7D"/>
<path d="M233.045 121.433C233.036 121.423 233.026 121.277 233.017 120.998C233.01 120.679 233 120.276 232.987 119.773C232.971 118.649 232.948 117.082 232.921 115.072C232.883 110.948 232.831 105.02 232.767 97.544L233.047 97.8242C212.428 97.8651 179.639 97.9319 142.752 98.0043C142.957 97.8001 142.288 98.4627 143.207 97.5458V97.5514V97.5644V97.5885V97.6368V97.7333V97.9263V98.3105V99.0789V100.61C143.207 101.629 143.207 102.646 143.207 103.658C143.207 105.683 143.205 107.693 143.205 109.686C143.203 113.673 143.2 117.594 143.198 121.436L142.749 120.987C168.462 121.069 190.962 121.141 207.098 121.191C215.136 121.245 221.586 121.29 226.092 121.319C228.284 121.345 229.999 121.364 231.228 121.379C231.781 121.392 232.223 121.401 232.572 121.408C232.876 121.414 233.036 121.423 233.045 121.433C233.054 121.442 232.913 121.451 232.627 121.462C232.293 121.47 231.87 121.479 231.339 121.492C230.135 121.507 228.449 121.525 226.3 121.551C221.82 121.581 215.404 121.626 207.41 121.679C191.194 121.731 168.584 121.802 142.747 121.884L142.298 121.885V121.434C142.296 117.592 142.292 113.671 142.29 109.684C142.29 107.691 142.288 105.681 142.288 103.656C142.288 102.644 142.288 101.627 142.288 100.608V99.077V98.3086V97.9245V97.7314V97.6349V97.5867V97.5625V97.5514V97.5458C143.209 96.6253 142.546 97.2897 142.754 97.0855C179.64 97.1598 212.43 97.2247 233.049 97.2656H233.331L233.329 97.5458C233.262 105.092 233.21 111.076 233.175 115.241C233.145 117.223 233.123 118.771 233.106 119.879C233.095 120.362 233.084 120.748 233.076 121.056C233.063 121.316 233.054 121.444 233.045 121.433Z" fill="#6D6B6B"/>
<path d="M834.974 139.17C834.964 139.161 834.955 139.014 834.946 138.736C834.938 138.417 834.929 138.014 834.916 137.511C834.899 136.386 834.877 134.82 834.847 132.81C834.81 128.686 834.758 122.758 834.693 115.282L834.974 115.562C814.355 115.603 781.565 115.668 744.679 115.742C744.883 115.538 744.215 116.2 745.134 115.282V115.287V115.3V115.324V115.373V115.469V115.662V116.046V116.815V118.346C745.134 119.365 745.134 120.382 745.134 121.393C745.134 123.418 745.132 125.428 745.132 127.422C745.13 131.408 745.126 135.33 745.125 139.172L744.675 138.723C770.389 138.805 792.889 138.877 809.025 138.927C817.063 138.981 823.513 139.025 828.019 139.055C830.211 139.081 831.926 139.1 833.155 139.115C833.708 139.126 834.15 139.135 834.498 139.142C834.803 139.152 834.964 139.161 834.974 139.17C834.983 139.18 834.842 139.189 834.556 139.2C834.222 139.207 833.799 139.217 833.268 139.23C832.063 139.244 830.378 139.263 828.229 139.289C823.748 139.319 817.332 139.363 809.339 139.417C793.123 139.469 770.513 139.54 744.675 139.621L744.226 139.623V139.172C744.224 135.33 744.221 131.408 744.219 127.422C744.219 125.428 744.217 123.418 744.217 121.393C744.217 120.382 744.217 119.365 744.217 118.346V116.815V116.046V115.662V115.469V115.373V115.324V115.3V115.287V115.282C745.138 114.361 744.475 115.027 744.683 114.821C781.569 114.896 814.359 114.961 834.977 115.001H835.259L835.258 115.282C835.191 122.828 835.139 128.814 835.104 132.977C835.074 134.959 835.052 136.507 835.035 137.615C835.022 138.097 835.013 138.484 835.005 138.792C834.992 139.051 834.983 139.18 834.974 139.17Z" fill="#E0E0E0"/>
<path d="M847.218 115.282C847.207 115.271 847.195 115.117 847.182 114.827C847.173 114.484 847.16 114.068 847.147 113.561C847.127 112.386 847.099 110.788 847.065 108.771C847.023 104.582 846.962 98.6668 846.887 91.3932L847.218 91.7235C833.162 91.7569 814.042 91.8033 792.967 91.8534C792.553 92.2636 793.522 91.2929 793.423 91.395V91.4006V91.4136V91.4377V91.4878V91.5862V91.7829V92.1764V92.9596V94.5205C793.423 95.558 793.423 96.5918 793.421 97.6182C793.42 99.6709 793.42 101.7 793.418 103.698C793.412 107.694 793.407 111.57 793.401 115.282L792.963 114.844C808.626 114.927 822.11 115 831.774 115.052C836.54 115.104 840.36 115.143 843.079 115.172C844.348 115.194 845.36 115.213 846.128 115.228C846.826 115.246 847.199 115.265 847.218 115.282C847.236 115.3 846.898 115.317 846.232 115.336C845.488 115.349 844.506 115.367 843.274 115.391C840.579 115.421 836.792 115.462 832.069 115.512C822.331 115.564 808.745 115.636 792.963 115.72L792.525 115.722V115.282C792.519 111.57 792.514 107.694 792.508 103.698C792.506 101.7 792.505 99.6709 792.505 97.6182C792.505 96.5918 792.505 95.558 792.503 94.5205V92.9596V92.1764V91.7829V91.5862V91.4878V91.4377V91.4136V91.4006V91.395C792.403 91.4915 793.375 90.5208 792.967 90.9329C814.042 90.983 833.162 91.0294 847.218 91.0628H847.552L847.548 91.3932C847.474 98.7522 847.413 104.736 847.37 108.973C847.335 110.959 847.307 112.531 847.288 113.689C847.262 114.756 847.24 115.306 847.218 115.282Z" fill="#E0E0E0"/>
<path d="M139.482 362.874C139.473 362.865 139.464 362.718 139.454 362.44C139.447 362.121 139.438 361.718 139.425 361.215C139.408 360.09 139.386 358.524 139.356 356.514C139.319 352.39 139.267 346.461 139.202 338.986L139.482 339.266C118.864 339.307 86.0739 339.372 49.1877 339.446C49.3919 339.242 48.7237 339.904 49.6424 338.986V338.991V339.004V339.028V339.076V339.173V339.366V339.75V340.519V342.05C49.6424 343.069 49.6424 344.086 49.6424 345.097C49.6424 347.122 49.6406 349.132 49.6406 351.126C49.6387 355.112 49.635 359.034 49.6332 362.876L49.184 362.427C74.897 362.508 97.3973 362.581 113.533 362.631C121.572 362.685 128.021 362.729 132.528 362.759C134.72 362.785 136.436 362.804 137.663 362.818C138.216 362.83 138.658 362.841 139.007 362.848C139.311 362.856 139.473 362.865 139.482 362.874C139.491 362.883 139.35 362.893 139.065 362.904C138.73 362.911 138.307 362.921 137.776 362.933C136.572 362.948 134.887 362.967 132.737 362.993C128.257 363.023 121.841 363.067 113.847 363.121C97.6312 363.173 75.0214 363.243 49.184 363.325L48.7349 363.327V362.876C48.733 359.034 48.7293 355.112 48.7274 351.126C48.7274 349.132 48.7256 347.122 48.7256 345.097C48.7256 344.086 48.7256 343.069 48.7256 342.05V340.519V339.75V339.366V339.173V339.076V339.028V339.004V338.991V338.986C49.6462 338.065 48.9836 338.731 49.1914 338.525C86.0776 338.599 118.868 338.664 139.486 338.705H139.768L139.766 338.986C139.699 346.532 139.647 352.516 139.612 356.681C139.582 358.663 139.56 360.209 139.543 361.319C139.53 361.801 139.521 362.187 139.514 362.495C139.501 362.755 139.491 362.883 139.482 362.874Z" fill="#E0E0E0"/>
<path d="M151.726 338.986C151.715 338.974 151.704 338.82 151.691 338.531C151.682 338.187 151.669 337.772 151.656 337.265C151.635 336.09 151.607 334.492 151.574 332.475C151.531 328.286 151.47 322.371 151.396 315.097L151.726 315.427C137.671 315.461 118.55 315.507 97.4753 315.557C97.0614 315.967 98.0302 314.997 97.9318 315.099V315.104V315.117V315.141V315.192V315.29V315.487V315.88V316.663V318.226C97.9318 319.264 97.9318 320.297 97.93 321.324C97.9281 323.377 97.9281 325.405 97.9263 327.404C97.9207 331.4 97.9151 335.275 97.9096 338.987L97.4715 338.549C113.134 338.633 126.618 338.705 136.282 338.757C141.049 338.809 144.868 338.848 147.587 338.878C148.857 338.9 149.868 338.919 150.637 338.934C151.335 338.95 151.708 338.967 151.726 338.986C151.745 339.004 151.407 339.021 150.741 339.039C149.996 339.052 149.015 339.071 147.782 339.095C145.087 339.125 141.301 339.166 136.577 339.216C126.839 339.268 113.253 339.34 97.4715 339.424L97.0335 339.425V338.986C97.028 335.274 97.0224 331.398 97.0168 327.402C97.015 325.403 97.015 323.375 97.0131 321.322C97.0131 320.296 97.0131 319.262 97.0113 318.224V316.662V315.878V315.485V315.288V315.19V315.14V315.115V315.102V315.097C96.911 315.193 97.8836 314.223 97.4753 314.635C118.55 314.685 137.671 314.731 151.726 314.765L152.06 314.767L152.057 315.097C151.982 322.456 151.921 328.44 151.878 332.677C151.843 334.663 151.815 336.235 151.797 337.393C151.771 338.46 151.748 339.01 151.726 338.986Z" fill="#E0E0E0"/>
<path d="M741.791 710.777C734.612 706.269 726.388 703.439 717.956 702.574C714.063 702.173 709.807 702.288 706.683 704.647C706.021 705.148 705.373 705.889 705.523 706.705C705.633 707.307 706.139 707.743 706.626 708.114C716.32 715.512 730.989 716.446 741.791 710.777Z" fill="#B8D8BD"/>
<path d="M741.179 710.102C735.783 705.891 730.355 701.652 725.783 696.557C721.212 691.462 717.498 685.413 716.132 678.708C715.718 676.674 715.59 674.35 716.895 672.735C729.167 682.319 738.807 694.714 741.179 710.102Z" fill="#B8D8BD"/>
<path d="M741.663 710.685C740.739 703.972 740.407 697.071 741.949 690.473C743.491 683.875 747.081 677.559 752.716 673.795C754.837 678.75 753.924 684.461 752.432 689.641C750.123 697.646 746.502 705.271 741.756 712.118" fill="#B8D8BD"/>
<path d="M753.694 732.24C746.392 733.127 740.032 736.977 734.579 741.916C729.126 746.853 725.251 753.506 723.645 760.685C730.807 760.244 736.884 755.192 741.292 749.527C745.7 743.862 748.753 737.649 753.594 732.352" fill="#B8D8BD"/>
<path d="M756.305 735.687C750.424 721.199 752.554 703.741 761.749 691.093C765.91 705.891 764.383 722.608 756.305 735.687Z" fill="#B8D8BD"/>
<path d="M772.2 754.614C765.572 754.202 758.835 755.782 753.079 759.095C747.324 762.408 742.576 767.441 739.603 773.378C739.198 774.186 738.842 775.212 739.384 775.934C739.854 776.561 740.763 776.621 741.546 776.571C747.97 776.155 753.664 772.289 758.362 767.888C763.059 763.488 767.152 758.402 772.345 754.598" fill="#B8D8BD"/>
<path d="M771.693 753.582C768.275 742.643 768.061 730.724 771.086 719.669C772.282 715.304 774.286 710.709 778.323 708.662C778.668 708.487 779.069 708.331 779.431 708.467C779.774 708.597 779.973 708.947 780.131 709.278C781.567 712.277 781.985 715.685 781.836 719.007C781.688 722.329 780.999 725.601 780.313 728.857C779.041 734.876 778.366 741.346 775.064 746.537C774.281 747.769 773.59 749.1 772.965 750.42C772.339 751.739 772.335 752.203 771.762 753.254" fill="#B8D8BD"/>
<path d="M813.767 759.852C810.651 747.996 813.958 733.621 821.43 723.899C821.982 723.183 822.709 722.416 823.609 722.5C824.985 722.626 825.343 724.46 825.28 725.841C824.74 737.959 820.697 749.898 813.767 759.852Z" fill="#B8D8BD"/>
<path d="M817.561 762.445C831.967 766.194 848.493 762.549 860.473 753.716C853.372 750.117 845.002 749.091 837.242 750.865C829.482 752.64 822.39 756.118 817.561 762.445Z" fill="#B8D8BD"/>
<path d="M820.759 754.55C828.827 741.396 844.294 732.81 859.705 732.029C857.929 738.297 852.778 743.169 846.967 746.112C841.156 749.056 834.667 750.338 828.272 751.58C825.785 752.064 822.371 752.595 820.759 754.55Z" fill="#B8D8BD"/>
<path d="M814.569 716.24C816.753 708.754 818.951 701.204 819.55 693.431C820.15 685.657 819.042 677.542 815.007 670.87C807.471 685.452 806.709 702.49 814.342 717.023" fill="#B8D8BD"/>
<path d="M839.94 703.417C848.754 687.399 866.733 674.604 884.928 672.811C877.91 690.287 858.769 703.791 839.94 703.417Z" fill="#B8D8BD"/>
<path d="M834.396 706.555C847.541 708.558 858.738 716.952 871.021 722.042C873.647 723.129 876.481 723.998 879.3 723.627C882.12 723.257 884.902 721.366 885.533 718.593C886.058 716.292 885.009 713.847 883.358 712.16C881.706 710.473 879.523 709.419 877.344 708.511C863.966 702.942 849.619 702.802 835.527 706.18" fill="#B8D8BD"/>
<path d="M826.791 715.774C829.766 716.626 830.783 718.166 833.14 720.173C841.134 726.98 850.722 731.906 860.913 734.44C861.975 734.703 863.367 734.809 863.892 733.849C864.35 733.012 863.769 731.999 863.174 731.253C858.903 725.909 852.813 722.257 846.405 719.868C839.996 717.481 834.443 714.605 826.792 715.223" fill="#B8D8BD"/>
<path d="M818.208 660.098C828.897 670.074 843.951 675.196 858.504 673.808C859.167 673.745 859.889 673.639 860.338 673.149C861.351 672.046 860.135 670.343 858.953 669.422C847.106 660.183 832.756 656.354 818.208 660.098Z" fill="#B8D8BD"/>
<path d="M828.383 656.373C842.511 645.78 861.884 642.584 878.666 648.076C872.333 654.318 863.549 657.676 854.705 658.596C845.863 659.517 837.008 658.535 828.383 656.373Z" fill="#B8D8BD"/>
<path d="M824.339 630.788C823.175 618.963 823.93 609.627 823.11 597.747C823.045 596.799 822.841 595.655 821.952 595.314C820.716 594.837 819.686 596.357 819.279 597.619C815.758 608.571 817.683 621.131 824.322 630.528" fill="#B8D8BD"/>
<path d="M823.489 632.094C831.503 627.137 837.516 620.665 843.077 613.055C846.945 607.762 850.208 601.42 849.328 594.922C843.895 594.813 838.732 597.81 835.198 601.938C831.664 606.066 829.563 611.227 827.995 616.43C826.427 621.634 825.33 626.981 823.489 632.094Z" fill="#B8D8BD"/>
<path d="M842.734 626.747C860.323 620.242 876.734 610.567 890.939 598.322C885.18 596.002 878.588 597.391 872.832 599.714C859.679 605.025 848.933 613.985 842.483 626.619" fill="#B8D8BD"/>
<path d="M828.899 638.564C837.797 639.537 846.837 640.17 855.666 638.694C864.345 637.245 872.545 633.804 880.655 630.39C881.327 630.108 882.058 629.769 882.354 629.102C882.673 628.378 882.333 627.495 881.745 626.964C881.158 626.433 880.377 626.179 879.614 625.966C870.798 623.499 861.284 624.653 852.609 627.579C843.934 630.504 836.824 633.978 828.899 638.564Z" fill="#B8D8BD"/>
<path d="M778.087 660.5C772.016 648.245 772.41 633.943 777.655 621.313C781.346 626.938 781.797 634.102 781.122 640.797C780.446 647.492 778.408 654.383 778.276 661.109" fill="#B8D8BD"/>
<path d="M753.833 648.267C738.675 647.978 723.512 654.437 713.218 665.569C720.783 666.757 728.577 664.806 735.459 661.447C742.341 658.086 748.456 653.371 754.516 648.691" fill="#B8D8BD"/>
<path d="M737.526 642.814C730.111 642.213 722.975 641.294 715.846 643.481C708.715 645.665 702.227 650.625 699.32 657.492C706.256 658.273 713.289 656.534 719.647 653.653C726.002 650.773 731.784 646.783 737.526 642.814Z" fill="#B8D8BD"/>
<path d="M761.669 643.063C754.999 638.692 748.148 634.242 740.381 632.43C732.613 630.619 723.612 631.957 718.194 637.813C724.482 641.502 732.11 641.938 739.401 641.933C746.691 641.927 755.63 641.846 762.502 644.277" fill="#B8D8BD"/>
<path d="M761.71 643.416C750.305 632.217 745.982 612.098 750.57 596.788C759.535 610.409 763.549 627.215 761.71 643.416Z" fill="#B8D8BD"/>
<path d="M793.071 611.686C795.222 606.686 796.734 601.437 798.665 596.348C800.595 591.259 802.993 586.249 806.64 582.207C810.287 578.164 815.328 575.156 820.764 574.887C817.36 590.297 807.126 604.065 793.351 611.765" fill="#B8D8BD"/>
<path d="M787.395 618.297C783.835 613.397 779.722 606.747 774.897 603.091C770.069 599.434 763.785 597.22 757.894 598.625C763.883 609.334 775.205 616.884 787.395 618.297Z" fill="#B8D8BD"/>
<path d="M788.529 612.092C786.196 606.164 783.846 600.173 782.904 593.872C781.961 587.571 782.534 580.841 785.756 575.345C792.016 587.179 794.032 599.883 788.85 612.228" fill="#B8D8BD"/>
<path d="M793.128 575.345C796.675 563.613 807.416 554.976 819.014 551.013C820.476 550.514 822.024 550.096 823.552 550.332C825.079 550.568 826.577 551.613 826.896 553.123C827.319 555.119 825.671 556.908 824.12 558.233C815.088 565.956 804.474 571.817 793.128 575.345Z" fill="#B8D8BD"/>
<path d="M793.254 565.752C793.705 558.186 794.177 550.514 796.638 543.348C799.099 536.18 803.839 529.457 810.738 526.321C811.911 533.96 808.541 541.56 804.476 548.134C800.411 554.708 795.511 560.913 793.069 568.246" fill="#B8D8BD"/>
<path d="M793.071 570.958C790.14 562.407 789.837 551.548 784.717 544.099C781.138 538.893 775.407 535.346 772.324 529.83C770.275 534.981 770.903 540.916 773.046 546.028C775.188 551.139 778.729 555.54 782.517 559.586C786.304 563.634 789.548 566.678 793.071 570.958Z" fill="#B8D8BD"/>
<path d="M793.128 822.743C792.9 822.743 792.703 765.708 792.686 695.367C792.672 625.002 792.842 567.979 793.071 567.979C793.299 567.979 793.496 625.002 793.511 695.367C793.527 765.708 793.355 822.743 793.128 822.743Z" fill="#B8D8BD"/>
<path d="M842.969 651.894C842.986 651.95 842.221 652.232 840.826 652.7C839.285 653.219 837.303 653.887 834.924 654.691C829.948 656.386 823.112 658.841 815.692 661.881C808.346 665.033 801.417 667.59 797.473 671.009C795.502 672.696 794.37 674.522 793.811 675.853C793.245 677.191 793.145 678.012 793.069 677.997C793.041 677.993 793.05 677.789 793.093 677.399C793.158 677.015 793.258 676.44 793.512 675.736C793.993 674.329 795.094 672.377 797.085 670.573C799.067 668.765 801.829 667.141 804.99 665.662C808.153 664.186 811.657 662.646 815.378 661.116C822.819 658.067 829.708 655.691 834.742 654.134C837.256 653.349 839.309 652.772 840.731 652.39C842.158 652.02 842.953 651.84 842.969 651.894Z" fill="#B8D8BD"/>
<path d="M859.306 611.765C859.324 611.788 859.117 612.007 858.704 612.408C858.218 612.864 857.613 613.432 856.874 614.126C855.174 615.67 852.862 617.771 850.043 620.333C844.142 625.585 836.143 632.71 827.301 640.582C818.424 648.483 810.753 656.033 805.435 661.718C802.774 664.557 800.677 666.909 799.248 668.55C798.579 669.313 798.034 669.936 797.596 670.437C797.213 670.864 797 671.081 796.978 671.063C796.955 671.046 797.124 670.794 797.466 670.333C797.811 669.875 798.314 669.192 799.001 668.346C800.357 666.636 802.393 664.222 805.007 661.324C810.228 655.522 817.858 647.885 826.752 639.967C835.659 632.083 843.766 625.002 849.656 619.897C852.548 617.417 854.92 615.381 856.663 613.885C857.444 613.237 858.083 612.708 858.595 612.281C859.044 611.923 859.287 611.743 859.306 611.765Z" fill="#B8D8BD"/>
<path d="M817.718 648.616C817.486 648.512 819.341 644.231 821.187 638.817C823.053 633.403 823.93 628.833 824.166 628.87C824.381 628.893 823.856 633.596 821.969 639.08C821.039 641.818 820.014 644.225 819.207 645.934C818.399 647.644 817.82 648.661 817.718 648.616Z" fill="#B8D8BD"/>
<path d="M793.178 683.138C793.132 683.171 792.647 682.603 791.81 681.549C790.882 680.36 789.708 678.852 788.306 677.056C785.363 673.251 781.292 667.999 776.732 662.251C772.168 656.503 767.976 651.347 764.939 647.616C763.506 645.844 762.307 644.357 761.359 643.184C760.522 642.13 760.08 641.528 760.123 641.491C760.166 641.454 760.691 641.985 761.602 642.976C762.515 643.965 763.809 645.422 765.385 647.241C768.538 650.879 772.807 655.983 777.378 661.738C781.946 667.494 785.945 672.807 788.772 676.705C790.186 678.654 791.311 680.244 792.068 681.358C792.827 682.472 793.225 683.103 793.178 683.138Z" fill="#B8D8BD"/>
<path d="M782.25 669.107C782.117 669.251 779.199 665.792 777.671 660.536C776.545 656.831 776.495 653.444 776.634 651.894L776.998 651.924C776.834 652.584 776.716 652.932 776.651 652.922C776.586 652.911 776.582 652.544 776.636 651.866L777 651.896C777.133 653.433 777.365 656.703 778.462 660.302C779.938 665.395 782.471 668.967 782.25 669.107Z" fill="#B8D8BD"/>
<path d="M768.143 651.36C768.037 651.475 767.098 650.29 764.947 649.504C762.81 648.678 759.598 648.496 756.071 648.798C752.543 649.058 749.39 649.685 747.135 650.24C744.878 650.799 743.501 651.239 743.458 651.122C743.421 651.025 744.733 650.389 746.979 649.678C749.221 648.973 752.417 648.24 756.01 647.974C759.575 647.666 762.959 647.941 765.166 648.962C767.4 649.953 768.215 651.339 768.143 651.36Z" fill="#B8D8BD"/>
<path d="M764.798 647.059C764.735 647.187 762.937 646.313 759.9 645.276C756.871 644.233 752.554 643.139 747.682 642.761C742.807 642.397 738.374 642.824 735.221 643.394C732.064 643.958 730.152 644.55 730.11 644.414C730.091 644.361 730.553 644.166 731.409 643.861C732.259 643.544 733.523 643.182 735.108 642.822C738.271 642.096 742.781 641.567 747.745 641.939C752.706 642.325 757.085 643.531 760.101 644.728C761.612 645.322 762.807 645.873 763.599 646.315C764.396 646.746 764.822 647.007 764.798 647.059Z" fill="#B8D8BD"/>
<path d="M793.071 628.87C792.85 628.926 791.252 623.371 789.5 616.465C787.748 609.555 786.506 603.911 786.727 603.855C786.948 603.799 788.546 609.353 790.298 616.263C792.05 623.169 793.29 628.815 793.071 628.87Z" fill="#B8D8BD"/>
<path d="M793.297 628.87C793.052 628.95 792.024 625.238 789.338 621.443C786.725 617.567 783.39 615.622 783.512 615.429C783.555 615.342 784.476 615.682 785.762 616.589C787.05 617.486 788.642 619.004 790.014 620.969C792.8 624.919 793.498 628.856 793.297 628.87Z" fill="#B8D8BD"/>
<path d="M793.128 792.338C793.039 792.351 792.872 790.966 792.228 788.544C791.593 786.122 790.396 782.686 788.418 778.67C784.477 770.617 777.306 760.407 768.195 750.18C763.681 745.023 759.299 740.156 755.581 735.498C751.858 730.845 748.798 726.411 746.563 722.489C744.321 718.571 742.862 715.208 742.01 712.836C741.593 711.646 741.285 710.718 741.116 710.076C740.936 709.437 740.854 709.1 740.882 709.09C740.956 709.066 741.37 710.395 742.311 712.721C743.25 715.044 744.779 718.343 747.068 722.196C749.351 726.051 752.437 730.418 756.175 735.021C759.908 739.631 764.295 744.471 768.816 749.638C777.952 759.893 785.105 770.231 788.943 778.418C790.873 782.503 791.996 786.003 792.54 788.468C792.803 789.704 792.982 790.665 793.045 791.33C793.126 791.987 793.156 792.334 793.128 792.338Z" fill="#B8D8BD"/>
<path d="M838.166 741.467C838.194 741.528 837.331 741.964 835.805 742.792C834.291 743.642 832.143 744.952 829.682 746.84C827.221 748.723 824.469 751.198 821.642 754.175C818.819 757.155 815.913 760.619 812.945 764.329C807.013 771.771 801.465 778.358 798.143 783.616C796.456 786.224 795.229 788.423 794.427 789.966C793.616 791.504 793.188 792.369 793.128 792.341C793.102 792.33 793.178 792.1 793.347 791.671C793.524 791.246 793.761 790.61 794.14 789.823C794.858 788.23 796.014 785.973 797.651 783.304C800.877 777.92 806.382 771.244 812.304 763.813C815.278 760.095 818.22 756.626 821.094 753.649C823.975 750.678 826.8 748.219 829.335 746.374C831.869 744.525 834.086 743.278 835.659 742.51C836.44 742.116 837.078 741.877 837.501 741.695C837.927 741.518 838.155 741.441 838.166 741.467Z" fill="#B8D8BD"/>
<path d="M839.048 757.97C839.057 758.091 837.143 758.323 834.059 758.694C830.985 759.091 826.707 759.605 822.227 761.025C817.761 762.48 814.051 764.694 811.633 766.586C809.19 768.473 808.039 770.034 807.926 769.943C807.887 769.915 808.125 769.488 808.665 768.794C809.199 768.094 810.072 767.161 811.265 766.133C813.644 764.082 817.392 761.734 821.976 760.24C826.568 758.787 830.903 758.365 834.003 758.113C837.112 757.888 839.038 757.862 839.048 757.97Z" fill="#B8D8BD"/>
<path d="M809.381 768.13C809.121 767.983 811.369 764.548 813.114 759.928C814.751 755.266 815.133 751.179 815.428 751.225C815.534 751.238 815.53 752.261 815.345 753.902C815.15 755.537 814.756 757.812 813.889 760.208C813.017 762.601 811.874 764.6 810.996 765.992C810.105 767.384 809.472 768.185 809.381 768.13Z" fill="#B8D8BD"/>
<path d="M852.752 697.16C852.763 697.186 852.487 697.333 851.954 697.585C851.334 697.865 850.56 698.218 849.61 698.65C848.584 699.09 847.336 699.649 845.931 700.389C844.521 701.117 842.876 701.865 841.163 702.895C840.293 703.389 839.385 703.905 838.441 704.443C837.498 704.987 836.562 705.631 835.569 706.253C833.563 707.47 831.553 708.97 829.407 710.499C825.209 713.686 820.794 717.457 816.545 721.811C812.336 726.21 808.717 730.75 805.677 735.056C804.22 737.253 802.791 739.314 801.644 741.361C801.055 742.376 800.443 743.33 799.934 744.291C799.429 745.253 798.945 746.179 798.481 747.064C797.512 748.811 796.82 750.481 796.14 751.914C795.448 753.343 794.932 754.607 794.528 755.648C794.129 756.613 793.802 757.398 793.542 758.028C793.308 758.57 793.173 758.85 793.145 758.84C793.117 758.831 793.201 758.532 793.384 757.972C793.607 757.328 793.885 756.52 794.227 755.533C794.587 754.47 795.062 753.183 795.715 751.73C796.358 750.271 797.016 748.577 797.957 746.802C798.408 745.904 798.882 744.963 799.374 743.987C799.873 743.011 800.474 742.042 801.053 741.014C802.184 738.939 803.602 736.849 805.051 734.623C808.08 730.262 811.71 725.67 815.953 721.238C820.237 716.848 824.702 713.062 828.956 709.887C831.13 708.361 833.17 706.872 835.206 705.674C836.213 705.059 837.162 704.424 838.119 703.894C839.079 703.37 840.001 702.865 840.885 702.383C842.626 701.381 844.298 700.664 845.733 699.974C847.164 699.27 848.433 698.753 849.484 698.355C850.46 697.98 851.258 697.674 851.893 697.431C852.448 697.227 852.743 697.134 852.752 697.16Z" fill="#B8D8BD"/>
<path d="M817.108 721.043C817.035 721.03 817.433 719.647 819.068 718.124C820.664 716.604 823.574 715.195 826.965 715.093C830.345 715.004 833.275 715.948 835.276 716.717C837.288 717.507 838.457 718.148 838.418 718.242C838.372 718.358 837.119 717.907 835.085 717.266C833.058 716.646 830.194 715.828 826.993 715.915C823.802 716.013 821.046 717.242 819.45 718.564C817.815 719.881 817.24 721.123 817.108 721.043Z" fill="#B8D8BD"/>
<path d="M811.779 726.539C811.553 726.413 813.563 723.465 814.021 719.243C814.548 715.028 813.27 711.696 813.518 711.626C813.609 711.589 814.056 712.363 814.444 713.751C814.834 715.132 815.092 717.142 814.84 719.337C814.58 721.531 813.867 723.428 813.169 724.683C812.473 725.945 811.859 726.596 811.779 726.539Z" fill="#B8D8BD"/>
<path d="M753.735 800.51C754.963 822.306 761.532 844.473 771.634 866.886H815.567C825.202 844.695 831.317 822.563 832.403 800.51H753.735Z" fill="#2F3E46"/>
<path d="M825.285 835.781C825.285 836.009 810.82 836.193 792.982 836.193C775.136 836.193 760.674 836.009 760.674 835.781C760.674 835.553 775.136 835.369 792.982 835.369C810.82 835.369 825.285 835.553 825.285 835.781Z" fill="#FAFAFA"/>
<path d="M824.302 843.676C824.302 843.905 810.742 844.088 794.017 844.088C777.287 844.088 763.729 843.905 763.729 843.676C763.729 843.45 777.287 843.264 794.017 843.264C810.742 843.264 824.302 843.45 824.302 843.676Z" fill="#FAFAFA"/>
<path d="M772.345 814.821C772.573 814.821 772.757 819.352 772.757 824.94C772.757 830.53 772.573 835.061 772.345 835.061C772.118 835.061 771.933 830.53 771.933 824.94C771.933 819.352 772.117 814.821 772.345 814.821Z" fill="#FAFAFA"/>
<path d="M795.883 814.821C796.111 814.821 796.295 819.513 796.295 825.3C796.295 831.089 796.111 835.781 795.883 835.781C795.654 835.781 795.47 831.089 795.47 825.3C795.47 819.513 795.656 814.821 795.883 814.821Z" fill="#FAFAFA"/>
<path d="M817.98 814.643C818.208 814.643 818.392 819.43 818.392 825.332C818.392 831.236 818.208 836.02 817.98 836.02C817.752 836.02 817.568 831.236 817.568 825.332C817.568 819.43 817.754 814.643 817.98 814.643Z" fill="#FAFAFA"/>
<path d="M831.009 814.821C831.009 815.049 814.043 815.233 793.121 815.233C772.191 815.233 755.229 815.048 755.229 814.821C755.229 814.593 772.191 814.409 793.121 814.409C814.043 814.409 831.009 814.593 831.009 814.821Z" fill="#FAFAFA"/>
<path d="M862.619 866.886C862.619 867.153 680.812 867.368 456.596 867.368C232.303 867.368 50.5352 867.151 50.5352 866.886C50.5352 866.618 232.303 866.403 456.596 866.403C680.812 866.403 862.619 866.618 862.619 866.886Z" fill="#263238"/>
<path d="M682.91 152.493H328.768V866.886H682.91V152.493Z" fill="#455A64"/>
<path d="M682.91 152.493C682.912 156.702 683.099 450.047 683.366 866.886V867.342H682.91C573.406 867.352 453.608 867.361 328.82 867.37H328.768H328.286V866.888C328.334 591.002 328.378 339.572 328.41 152.495V152.136H328.768C547.151 152.355 680.066 152.489 682.91 152.493C680.07 152.496 547.151 152.63 328.768 152.851L329.126 152.493C329.16 339.57 329.202 591.001 329.251 866.886L328.768 866.403H328.82C453.61 866.412 573.406 866.422 682.91 866.431L682.455 866.888C682.719 450.047 682.906 156.698 682.91 152.493Z" fill="#263238"/>
<path d="M651.063 185.292H361.976V866.886H651.063V185.292Z" fill="#E0E0E0"/>
<path d="M361.976 866.886L590.356 826.38V185.292H361.976V866.886Z" fill="#F5F5F5"/>
<path d="M365.257 866.886L567.788 826.38H651.063V866.886H365.257Z" fill="#F5F5F5"/>
<path d="M387.048 536.696C384.569 536.696 382.557 534.686 382.557 532.204V476.025C382.557 473.545 384.567 471.534 387.048 471.534C389.528 471.534 391.54 473.544 391.54 476.025V532.204C391.54 534.686 389.53 536.696 387.048 536.696Z" fill="#E0E0E0"/>
<path d="M578.118 536.696C575.638 536.696 573.627 534.686 573.627 532.204V476.025C573.627 473.545 575.637 471.534 578.118 471.534C580.598 471.534 582.61 473.544 582.61 476.025V532.204C582.61 534.686 580.598 536.696 578.118 536.696Z" fill="#E0E0E0"/>
<path d="M581.37 533.271H384.264V494.323H389.832V527.703H575.802V494.323H581.37V533.271Z" fill="white"/>
<path d="M590.355 185.292C590.355 185.292 590.388 186.053 590.405 187.538C590.416 189.043 590.431 191.244 590.453 194.128C590.473 199.941 590.505 208.479 590.544 219.47C590.581 241.497 590.633 273.335 590.698 312.675C590.735 391.392 590.783 500.101 590.839 620.173C590.817 695.23 590.798 765.84 590.782 826.382V826.739L590.431 826.802C523.169 838.832 466.892 848.897 427.407 855.96C407.68 859.458 392.152 862.211 381.536 864.094C376.247 865.017 372.186 865.726 369.424 866.208C368.065 866.438 367.03 866.613 366.313 866.734C365.615 866.847 365.257 866.889 365.257 866.889C365.257 866.889 365.606 866.804 366.302 866.667C367.015 866.531 368.047 866.333 369.402 866.075C372.158 865.564 376.211 864.813 381.49 863.833C392.097 861.897 407.611 859.065 427.32 855.466C466.79 848.32 523.047 838.136 590.282 825.965L589.933 826.382C589.917 765.841 589.896 695.232 589.876 620.173C589.932 500.101 589.982 391.393 590.017 312.675C590.082 273.335 590.134 241.497 590.171 219.47C590.21 208.479 590.241 199.941 590.262 194.128C590.282 191.244 590.299 189.041 590.31 187.538C590.323 186.053 590.355 185.292 590.355 185.292Z" fill="#263238"/>
<path d="M651.063 866.886C651.059 862.557 650.87 581.006 650.6 185.292L651.061 185.752C561.123 185.76 463.384 185.767 362.02 185.774H361.974L362.456 185.292C362.403 451.132 362.352 691.976 362.317 866.886L361.974 866.542C540.504 866.754 648.371 866.884 651.063 866.886C648.373 866.889 540.504 867.017 361.976 867.229H361.632V866.884C361.597 691.973 361.547 451.13 361.493 185.29V184.807H361.978H362.024C463.388 184.815 561.126 184.822 651.064 184.83H651.527V185.292C651.256 581.006 651.066 862.559 651.063 866.886Z" fill="#263238"/>
<path d="M328.768 152.493C328.956 152.303 336.543 159.492 345.712 168.547C354.884 177.606 362.165 185.101 361.978 185.292C361.79 185.481 354.205 178.295 345.034 169.236C335.862 160.178 328.581 152.682 328.768 152.493Z" fill="#263238"/>
<path d="M682.193 152.829C682.386 153.014 675.573 160.431 666.978 169.393C658.379 178.36 651.256 185.476 651.063 185.292C650.87 185.106 657.681 177.692 666.28 168.725C674.875 159.761 682 152.643 682.193 152.829Z" fill="#263238"/>
<path d="M575.302 130.458H418.58C411.965 130.458 406.603 125.096 406.603 118.481V51.8974C406.603 45.2826 411.965 39.9207 418.58 39.9207H575.302C581.917 39.9207 587.279 45.2826 587.279 51.8974V118.48C587.279 125.096 581.917 130.458 575.302 130.458Z" fill="white"/>
<path d="M575.302 130.458C575.267 130.334 577.225 130.662 580.388 129.205C581.938 128.469 583.716 127.166 585.13 125.076C585.819 124.025 586.394 122.784 586.741 121.384C587.114 119.981 587.118 118.442 587.094 116.785C587.056 103.55 587.005 84.4554 586.94 60.8656C586.932 57.9146 586.927 54.8949 586.919 51.8065C586.917 48.8053 585.655 45.7559 583.396 43.59C581.156 41.3906 577.979 40.1824 574.694 40.3086C571.345 40.3123 567.934 40.3178 564.463 40.3216C550.581 40.3364 535.749 40.3513 520.144 40.3661C488.926 40.3772 454.61 40.3902 418.591 40.4051C414.237 40.3642 410.066 43.022 408.24 46.9011C407.253 48.8369 407.024 50.9453 407.084 53.1558C407.084 55.3644 407.084 57.5657 407.082 59.7594C407.08 68.5328 407.076 77.1761 407.075 85.6711C407.071 94.1641 407.067 102.509 407.063 110.679C407.062 112.722 407.062 114.755 407.06 116.774C407.054 117.791 407.047 118.795 407.13 119.745C407.266 120.699 407.44 121.657 407.808 122.548C409.133 126.175 412.388 128.927 416.061 129.729C417.875 130.172 419.827 129.966 421.759 130.018C423.686 130.02 425.599 130.022 427.502 130.024C431.305 130.028 435.056 130.031 438.753 130.035C446.147 130.044 453.326 130.052 460.268 130.059C474.147 130.08 487.078 130.1 498.884 130.119C522.473 130.184 541.566 130.235 554.799 130.273C561.379 130.312 566.494 130.343 570.002 130.364C571.719 130.384 573.034 130.401 573.955 130.412C574.846 130.425 575.302 130.458 575.302 130.458C575.302 130.458 574.846 130.492 573.955 130.508C573.034 130.519 571.719 130.536 570.002 130.557C566.496 130.577 561.379 130.609 554.799 130.647C541.566 130.685 522.473 130.737 498.884 130.802C487.078 130.82 474.147 130.839 460.268 130.861C453.326 130.868 446.147 130.878 438.753 130.885C435.056 130.889 431.305 130.892 427.502 130.896C425.601 130.898 423.686 130.9 421.759 130.902C419.855 130.85 417.877 131.074 415.868 130.601C411.906 129.744 408.398 126.785 406.96 122.873C406.564 121.911 406.369 120.879 406.225 119.849C406.132 118.797 406.141 117.784 406.145 116.779C406.143 114.758 406.143 112.726 406.141 110.684C406.137 102.512 406.134 94.1697 406.13 85.6766C406.128 77.1836 406.124 68.5383 406.122 59.765C406.122 57.5712 406.122 55.37 406.121 53.1614C406.052 50.9768 406.303 48.5399 407.372 46.4853C409.348 42.2815 413.875 39.3973 418.591 39.4437C454.61 39.4567 488.926 39.4697 520.144 39.4826C535.749 39.4975 550.581 39.5142 564.463 39.5272C567.934 39.5328 571.344 39.5365 574.694 39.5402C578.114 39.4121 581.559 40.7169 583.916 43.0629C586.312 45.3736 587.643 48.6253 587.634 51.8083C587.63 54.8986 587.626 57.9201 587.623 60.873C587.558 84.4628 587.506 103.557 587.469 116.792C587.48 118.429 587.459 120.039 587.062 121.473C586.691 122.91 586.084 124.177 585.368 125.245C583.894 127.37 582.06 128.671 580.471 129.391C578.875 130.128 577.537 130.338 576.654 130.436C575.759 130.48 575.302 130.458 575.302 130.458Z" fill="#263238"/>
<path d="M574.952 122.414H418.929C416.767 122.414 415.015 120.662 415.015 118.5V51.8789C415.015 49.7167 416.767 47.9646 418.929 47.9646H574.952C577.114 47.9646 578.866 49.7167 578.866 51.8789V118.5C578.866 120.662 577.114 122.414 574.952 122.414Z" fill="#173E88"/>
<path d="M455.67 96.215V101.469H434.241V73.1783H455.154V78.4327H440.605V84.576H453.454V89.6689H440.605V96.215H455.67Z" fill="white"/>
<path d="M477.922 101.467L471.238 91.6474L464.677 101.467H457.322L467.562 87.0816L457.836 73.1783H465.112L471.474 82.3525L477.721 73.1783H484.641L474.995 86.8385L485.314 101.467H477.922Z" fill="white"/>
<path d="M487.835 73.1783H494.24V101.467H487.835V73.1783Z" fill="white"/>
<path d="M506.532 78.5143H497.677V73.1783H521.794V78.5143H512.937V101.467H506.532V78.5143Z" fill="white"/>
<path d="M533.89 89.2198V81.7419H554.452L544.17 71.4615H555.386L569.406 85.4799L555.152 99.734H544.638L554.296 89.6856L533.89 89.2198Z" fill="white"/>
<path d="M263.58 326.522C263.58 326.79 240.924 327.005 212.983 327.005C185.034 327.005 162.383 326.788 162.383 326.522C162.383 326.257 185.034 326.04 212.983 326.04C240.924 326.038 263.58 326.255 263.58 326.522Z" fill="#263238"/>
<path d="M212.982 333.605C212.982 333.872 196.669 334.089 176.552 334.089C156.427 334.089 140.119 333.872 140.119 333.605C140.119 333.338 156.427 333.122 176.552 333.122C196.669 333.122 212.982 333.339 212.982 333.605Z" fill="#263238"/>
<path d="M147.882 643.494C147.882 643.761 132.249 643.976 112.971 643.976C93.6853 643.976 78.0559 643.759 78.0559 643.494C78.0559 643.228 93.6853 643.011 112.971 643.011C132.251 643.009 147.882 643.226 147.882 643.494Z" fill="#263238"/>
<path d="M149.907 631.35C149.907 631.617 139.259 631.833 126.126 631.833C112.99 631.833 102.344 631.615 102.344 631.35C102.344 631.083 112.99 630.867 126.126 630.867C139.259 630.866 149.907 631.083 149.907 631.35Z" fill="#263238"/>
<path d="M852.257 206.073H709.961V472.636H852.257V206.073Z" fill="#173E88"/>
<path d="M852.303 472.682H709.913V206.027H852.303V472.682ZM710.007 472.588H852.208V206.118H710.007V472.588Z" fill="#263238"/>
<path d="M834.716 225.749H726.006V454.74H834.716V225.749Z" fill="#EBEBEB"/>
<path d="M834.716 454.74C834.716 454.74 834.697 454.349 834.688 453.606C834.68 452.844 834.671 451.75 834.66 450.319C834.647 447.411 834.628 443.15 834.602 437.626C834.573 426.55 834.53 410.428 834.476 390.139C834.422 349.589 834.346 292.405 834.257 225.747L834.714 226.204C801.048 226.211 764.277 226.22 726.021 226.23H726.004L726.487 225.747C726.437 314.43 726.392 395.116 726.357 454.738L726.002 454.384C759.501 454.464 786.632 454.529 805.419 454.575C814.814 454.614 822.115 454.644 827.097 454.664C829.567 454.681 831.458 454.694 832.758 454.703C834.04 454.716 834.716 454.74 834.716 454.74C834.716 454.74 834.09 454.764 832.834 454.777C831.547 454.787 829.68 454.8 827.236 454.816C822.273 454.837 814.997 454.867 805.638 454.906C786.801 454.95 759.596 455.015 726.006 455.095H725.652V454.74C725.618 395.118 725.572 314.432 725.523 225.749V225.266H726.008H726.025C764.28 225.276 801.051 225.285 834.717 225.292H835.176V225.749C835.087 292.532 835.011 349.821 834.957 390.447C834.903 410.692 834.86 426.778 834.831 437.83C834.807 443.313 834.786 447.543 834.773 450.429C834.76 451.838 834.753 452.912 834.745 453.662C834.734 454.386 834.716 454.74 834.716 454.74Z" fill="#263238"/>
<path d="M794.63 263.127V266.343H786.534L794.63 263.127Z" fill="#173E88"/>
<path d="M794.63 269.398H788.282V278.098H794.63V269.398Z" fill="#E0E0E0"/>
<path d="M788.282 269.398H784.784V273.159H788.282V269.398Z" fill="#E0E0E0"/>
<path d="M798.126 271.867H794.63V275.629H798.126V271.867Z" fill="#E0E0E0"/>
<path d="M784.786 268.34H780.997V274.218H784.786V268.34Z" fill="#E0E0E0"/>
<path d="M780.996 269.398H779.442V273.159H780.996V269.398Z" fill="#263238"/>
<path d="M779.442 268.606H776.82V273.955H779.442V268.606Z" fill="#263238"/>
<path d="M815.55 266.343H786.536V269.398H818.917C818.915 267.713 817.406 266.343 815.55 266.343Z" fill="#173E88"/>
<path d="M791.534 284.098C778.85 284.098 768.566 293.43 768.566 304.943V435.703H814.502V304.943C814.502 293.43 804.22 284.098 791.534 284.098Z" fill="#173E88"/>
<path d="M805.201 315.392H777.863V381.007H805.201V315.392Z" fill="white"/>
<g opacity="0.3">
<path d="M791.534 293.58V288.721C781.664 288.721 773.661 295.986 773.661 304.943H779.013C779.013 298.666 784.618 293.58 791.534 293.58Z" fill="white"/>
</g>
<path d="M763.189 435.703H735.731L743.673 381.009H755.245L763.189 435.703Z" fill="#263238"/>
<path d="M752.955 375.678H745.964V381.007H752.955V375.678Z" fill="#263238"/>
<path d="M811.761 252.984L785.185 263.545L786.536 266.343L816.198 254.558C815.448 253.01 813.464 252.305 811.761 252.984Z" fill="#173E88"/>
<path d="M796.209 278.098H786.857V284.575H796.209V278.098Z" fill="#173E88"/>
<path d="M747.703 296.112V375.68H751.216V296.112C751.216 283.298 762.703 272.875 776.82 272.875V269.686C760.763 269.686 747.703 281.538 747.703 296.112Z" fill="#263238"/>
<path d="M814.502 424.97C814.502 425.237 804.218 425.453 791.536 425.453C778.848 425.453 768.566 425.236 768.566 424.97C768.566 424.703 778.848 424.488 791.536 424.488C804.218 424.488 814.502 424.703 814.502 424.97Z" fill="#263238"/>
<path d="M814.502 416.433C814.502 416.7 804.218 416.915 791.536 416.915C778.848 416.915 768.566 416.698 768.566 416.433C768.566 416.167 778.848 415.95 791.536 415.95C804.218 415.95 814.502 416.167 814.502 416.433Z" fill="#263238"/>
<path d="M824.051 271.932C824.242 272.117 806.067 291.203 783.459 314.553C760.843 337.911 742.359 356.692 742.168 356.506C741.977 356.32 760.149 337.241 782.764 313.881C805.372 290.529 823.86 271.746 824.051 271.932Z" fill="white"/>
<path d="M804.921 277.604C805.105 277.797 794.776 287.864 781.857 300.086C768.932 312.311 758.31 322.061 758.126 321.866C757.942 321.673 768.267 311.608 781.192 299.382C794.114 287.162 804.738 277.411 804.921 277.604Z" fill="white"/>
<path d="M844.012 462.836C844.012 462.836 843.29 462.864 841.843 462.885C840.369 462.899 838.218 462.923 835.402 462.953C829.701 463 821.336 463.068 810.578 463.157C788.95 463.302 757.72 463.512 719.211 463.768L718.849 463.77V463.408C718.818 398.556 718.773 311.724 718.727 216.536V216.231V215.747H719.209C763.224 215.756 805.441 215.767 844.011 215.775H844.465V216.23C844.376 288.302 844.3 349.997 844.246 393.7C844.192 415.486 844.15 432.782 844.122 444.659C844.098 450.555 844.079 455.102 844.066 458.2C844.053 459.716 844.044 460.873 844.038 461.674C844.031 462.454 844.012 462.836 844.012 462.836C844.012 462.836 843.994 462.417 843.985 461.622C843.979 460.808 843.97 459.635 843.957 458.094C843.944 454.976 843.925 450.397 843.899 444.46C843.869 432.561 843.829 415.23 843.775 393.398C843.721 349.769 843.645 288.181 843.556 216.231L844.011 216.686C805.441 216.695 763.223 216.705 719.209 216.714L719.692 216.231V216.536C719.644 311.724 719.601 398.556 719.569 463.408L719.208 463.048C757.625 462.953 788.78 462.875 810.356 462.823C821.148 462.812 829.541 462.805 835.261 462.799C838.105 462.803 840.278 462.807 841.767 462.808C843.24 462.816 844.012 462.836 844.012 462.836Z" fill="#263238"/>
<path d="M722.198 259.534H716.373V284.096H722.198V259.534Z" fill="#263238"/>
<path d="M722.198 387.65H716.373V412.212H722.198V387.65Z" fill="#263238"/>
<path d="M725.768 225.877C725.551 226.033 723.912 224.125 722.107 221.617C720.301 219.108 719.013 216.948 719.23 216.792C719.447 216.636 721.086 218.544 722.892 221.053C724.696 223.561 725.986 225.723 725.768 225.877Z" fill="#263238"/>
<path d="M844.185 216.413C844.369 216.608 842.327 218.826 839.627 221.369C836.924 223.912 834.588 225.816 834.404 225.621C834.22 225.426 836.262 223.208 838.964 220.665C841.664 218.123 844.003 216.22 844.185 216.413Z" fill="#263238"/>
<path d="M844.012 462.836C843.838 463.039 841.603 461.381 839.023 459.137C836.442 456.893 834.493 454.909 834.667 454.709C834.842 454.507 837.076 456.164 839.658 458.408C842.238 460.654 844.189 462.636 844.012 462.836Z" fill="#263238"/>
<path d="M725.763 454.9C725.971 455.067 724.66 457.057 722.836 459.343C721.01 461.632 719.362 463.35 719.154 463.183C718.946 463.016 720.256 461.029 722.081 458.74C723.907 456.453 725.555 454.735 725.763 454.9Z" fill="#263238"/>
<path d="M241.798 267.877L224.756 269.931C219.153 277.539 211.445 283.742 202.042 287.539C175 298.462 144.222 285.395 133.3 258.353C122.377 231.312 135.443 200.533 162.485 189.611C189.527 178.688 220.305 191.755 231.228 218.798C235.788 230.09 236.154 242.028 233.078 252.906L233.093 252.88L241.798 267.877Z" fill="white"/>
<path d="M241.798 267.877C241.798 267.877 241.646 267.568 241.291 266.932C240.907 266.245 240.376 265.295 239.691 264.07C238.216 261.459 236.074 257.672 233.297 252.763C233.234 252.652 233.091 252.611 232.98 252.674C232.943 252.694 232.913 252.728 232.893 252.761L232.878 252.787L233.307 252.969C235.198 246.397 236.443 237.247 234.121 226.84C233.013 221.653 230.883 216.257 227.74 211.037C224.608 205.816 220.359 200.791 214.992 196.602C209.639 192.41 203.18 189.062 196.012 187.135C188.855 185.201 180.99 184.709 173.146 186.042C165.303 187.356 157.563 190.635 150.791 195.567C144.02 200.493 138.224 207.159 134.449 215.04C132.405 218.921 131.176 223.117 130.13 227.271C129.332 231.484 128.786 235.729 128.983 239.933C129.2 248.337 131.42 256.453 135.117 263.506C138.87 270.542 144.087 276.475 150.017 280.95C155.947 285.44 162.565 288.486 169.167 290.149C182.445 293.482 195.307 291.303 204.815 286.717C214.457 282.166 220.94 275.596 224.947 270.068L224.788 270.161C230.322 269.43 234.591 268.868 237.535 268.48C238.914 268.29 239.979 268.146 240.753 268.04C241.462 267.942 241.798 267.877 241.798 267.877C241.798 267.877 241.389 267.903 240.642 267.979C239.849 268.062 238.758 268.175 237.345 268.324C234.431 268.641 230.205 269.102 224.728 269.699C224.663 269.707 224.604 269.744 224.569 269.792C220.524 275.217 214.051 281.644 204.509 286.065C195.093 290.523 182.428 292.587 169.393 289.261C162.912 287.602 156.422 284.586 150.616 280.163C144.811 275.755 139.709 269.926 136.041 263.019C132.429 256.095 130.267 248.138 130.061 239.907C129.87 235.788 130.41 231.631 131.191 227.503C132.221 223.435 133.422 219.322 135.427 215.521C142.856 199.979 158.011 189.67 173.326 187.07C181.012 185.75 188.727 186.213 195.756 188.091C202.798 189.96 209.153 193.226 214.429 197.324C219.721 201.421 223.923 206.341 227.033 211.463C230.153 216.586 232.291 221.89 233.418 227C235.781 237.245 234.641 246.301 232.854 252.841C232.818 252.965 232.889 253.095 233.013 253.132C233.117 253.162 233.229 253.114 233.282 253.025L233.297 252.999L232.893 252.997C235.742 257.782 237.939 261.471 239.454 264.014C240.192 265.243 240.764 266.195 241.178 266.884C241.57 267.531 241.798 267.877 241.798 267.877Z" fill="#263238"/>
<path d="M190.769 215.066L187.991 242.208C187.764 244.428 185.917 246.13 183.686 246.176C181.333 246.224 179.356 244.42 179.188 242.073L177.229 214.609C177.081 212.531 178.789 210.792 180.871 210.901L187.504 211.252C189.483 211.356 190.971 213.095 190.769 215.066Z" fill="#173E88"/>
<path d="M175.88 261.199C176.901 264.725 180.585 266.756 184.111 265.735C187.638 264.714 189.668 261.03 188.648 257.503C187.627 253.977 183.943 251.946 180.416 252.967C176.89 253.988 174.859 257.674 175.88 261.199Z" fill="#173E88"/>
<path d="M272.787 785.725L242.388 831.965L314.624 874.18C318.233 867.032 288.959 831.34 288.959 831.34L305.004 806.014L272.787 785.725Z" fill="#263238"/>
<path d="M268.452 815.155C266.83 814.721 264.946 815.729 264.445 817.33C263.944 818.932 264.951 820.857 266.566 821.321C268.179 821.783 270.479 820.643 270.796 818.995C271.115 817.347 269.807 815.151 268.131 815.088" fill="#E0E0E0"/>
<path d="M242.388 831.965L245.885 825.831L313.798 869.074C313.798 869.074 316.175 872.368 314.473 874.41L242.388 831.965Z" fill="#E0E0E0"/>
<path d="M290.345 831.655C290.128 832 288.27 831.13 285.872 831.251C283.471 831.308 281.683 832.314 281.44 831.984C281.154 831.726 282.914 829.923 285.82 829.831C288.725 829.71 290.611 831.377 290.345 831.655Z" fill="#E0E0E0"/>
<path d="M296.091 839.216C295.973 839.606 294.094 839.313 292.025 840.105C289.931 840.837 288.686 842.273 288.344 842.052C287.981 841.913 288.944 839.705 291.535 838.769C294.118 837.811 296.279 838.877 296.091 839.216Z" fill="#E0E0E0"/>
<path d="M295.095 850.8C294.731 850.688 295.269 848.639 297.303 847.236C299.328 845.818 301.437 846.03 301.414 846.41C301.444 846.817 299.768 847.227 298.114 848.404C296.435 849.541 295.466 850.969 295.095 850.8Z" fill="#E0E0E0"/>
<path d="M294.685 822.77C294.349 823.006 293.014 821.573 290.943 820.543C288.89 819.472 286.949 819.235 286.941 818.825C286.886 818.45 289.163 818.03 291.589 819.276C294.02 820.504 295.019 822.594 294.685 822.77Z" fill="#E0E0E0"/>
<path d="M297.973 813.195C297.892 813.344 296.372 812.746 294.367 811.063C293.37 810.224 292.277 809.097 291.262 807.689C290.755 806.983 290.269 806.209 289.829 805.372C289.621 804.964 289.352 804.517 289.235 803.884C289.059 803.288 289.384 802.223 290.171 801.913C290.865 801.573 291.659 801.716 292.188 802.009C292.73 802.302 293.099 802.662 293.435 802.989C294.126 803.654 294.723 804.363 295.234 805.075C296.247 806.51 296.904 807.959 297.29 809.214C298.06 811.746 297.862 813.398 297.7 813.396C297.472 813.418 297.301 811.837 296.346 809.559C295.867 808.425 295.165 807.132 294.181 805.855C293.686 805.22 293.12 804.593 292.48 804.001C291.832 803.353 291.184 802.967 290.789 803.191C290.642 803.281 290.603 803.325 290.631 803.642C290.675 803.945 290.867 804.329 291.071 804.734C291.466 805.524 291.897 806.261 292.344 806.942C293.239 808.305 294.194 809.435 295.058 810.326C296.785 812.113 298.09 813.008 297.973 813.195Z" fill="#E0E0E0"/>
<path d="M297.218 813.431C297.062 813.412 297.101 811.74 298.306 809.379C298.907 808.212 299.827 806.907 301.114 805.706C301.76 805.111 302.496 804.544 303.319 804.049C304.159 803.583 305.234 802.928 306.693 803.57C307.424 803.962 307.691 804.866 307.615 805.461C307.569 806.09 307.37 806.536 307.211 807.005C306.851 807.926 306.351 808.745 305.789 809.442C304.664 810.847 303.287 811.759 302.06 812.277C299.555 813.323 297.836 812.885 297.877 812.748C297.862 812.501 299.49 812.54 301.622 811.371C302.673 810.795 303.829 809.903 304.753 808.641C305.215 808.013 305.618 807.297 305.908 806.512C306.244 805.678 306.318 804.89 305.984 804.801C305.627 804.585 304.681 804.806 304.026 805.246C303.276 805.677 302.595 806.167 301.984 806.683C300.768 807.724 299.84 808.858 299.174 809.884C297.836 811.95 297.441 813.49 297.218 813.431Z" fill="#E0E0E0"/>
<path d="M86.2295 794.904L48.6066 835.484L112.871 889.057C117.613 882.606 94.6409 842.564 94.6409 842.564L114.652 820.241L86.2295 794.904Z" fill="#263238"/>
<path d="M77.0889 823.214C75.5615 822.518 73.5366 823.199 72.7775 824.697C72.0184 826.195 72.6939 828.258 74.2084 828.982C75.7229 829.706 78.1803 828.962 78.7649 827.388C79.3514 825.814 78.4253 823.433 76.7809 823.095" fill="#E0E0E0"/>
<path d="M48.6049 835.484L53.0667 830.012L112.897 883.887C112.897 883.887 114.697 887.528 112.681 889.262L48.6049 835.484Z" fill="#E0E0E0"/>
<path d="M95.9552 843.105C95.6824 843.411 93.9953 842.245 91.6103 841.965C89.2328 841.625 87.3044 842.321 87.1188 841.956C86.8812 841.653 88.9117 840.168 91.7941 840.556C94.6764 840.918 96.2614 842.875 95.9552 843.105Z" fill="#E0E0E0"/>
<path d="M100.371 851.512C100.189 851.876 98.3847 851.276 96.2131 851.716C94.0286 852.091 92.5624 853.301 92.2617 853.029C91.9258 852.832 93.2417 850.812 95.9515 850.319C98.6575 849.799 100.614 851.208 100.371 851.512Z" fill="#E0E0E0"/>
<path d="M97.4734 862.771C97.1337 862.6 98.0023 860.668 100.241 859.621C102.473 858.558 104.517 859.114 104.432 859.486C104.393 859.892 102.672 860.02 100.848 860.907C99.0046 861.752 97.8112 863.001 97.4734 862.771Z" fill="#E0E0E0"/>
<path d="M101.701 835.061C101.332 835.237 100.252 833.604 98.3791 832.245C96.5324 830.849 94.656 830.293 94.7172 829.888C94.7246 829.509 97.0409 829.472 99.2254 831.102C101.421 832.715 102.061 834.942 101.701 835.061Z" fill="#E0E0E0"/>
<path d="M106.527 826.159C106.423 826.293 105.022 825.452 103.322 823.461C102.477 822.468 101.584 821.176 100.816 819.619C100.434 818.839 100.081 817.997 99.786 817.096C99.6486 816.658 99.4574 816.174 99.4463 815.53C99.3702 814.914 99.8676 813.915 100.694 813.741C101.434 813.522 102.193 813.793 102.666 814.17C103.153 814.548 103.457 814.964 103.734 815.342C104.305 816.113 104.779 816.909 105.163 817.698C105.926 819.281 106.334 820.818 106.507 822.121C106.848 824.745 106.378 826.341 106.221 826.311C105.992 826.297 106.085 824.71 105.519 822.304C105.235 821.107 104.756 819.715 103.997 818.294C103.613 817.586 103.158 816.872 102.624 816.183C102.093 815.437 101.518 814.949 101.091 815.107C100.931 815.17 100.885 815.209 100.861 815.526C100.855 815.832 100.979 816.243 101.115 816.675C101.375 817.52 101.677 818.318 102.006 819.064C102.663 820.554 103.418 821.827 104.123 822.85C105.536 824.897 106.675 825.994 106.527 826.159Z" fill="#E0E0E0"/>
<path d="M105.744 826.269C105.592 826.224 105.907 824.582 107.487 822.453C108.273 821.401 109.396 820.267 110.863 819.296C111.598 818.815 112.418 818.379 113.311 818.025C114.216 817.704 115.386 817.236 116.718 818.112C117.375 818.619 117.489 819.556 117.314 820.129C117.164 820.742 116.895 821.15 116.661 821.584C116.154 822.434 115.525 823.156 114.855 823.754C113.513 824.953 112.004 825.625 110.709 825.933C108.064 826.551 106.442 825.835 106.505 825.707C106.531 825.462 108.131 825.768 110.425 824.968C111.555 824.574 112.845 823.884 113.964 822.793C114.523 822.251 115.04 821.61 115.456 820.883C115.924 820.116 116.128 819.352 115.814 819.209C115.499 818.938 114.526 818.999 113.81 819.326C113.001 819.626 112.245 819.998 111.559 820.406C110.187 821.232 109.086 822.197 108.257 823.097C106.599 824.909 105.955 826.364 105.744 826.269Z" fill="#E0E0E0"/>
<path d="M319.746 307.151L310.804 380.818C309.024 393.366 306.452 411.954 326.42 413.864C343.872 414.215 350.543 398.515 352.193 386.802C352.974 381.247 353.639 376.614 353.757 376.048C353.757 376.048 372.794 376.946 376.788 358.546C378.719 349.654 381.204 331.014 383.257 314.126C385.461 295.988 373.344 279.204 355.443 275.549L353.663 275.186C334.241 272.387 322.005 287.658 319.746 307.151Z" fill="#FFCBB3"/>
<path d="M353.806 376.053C353.806 376.053 342.038 374.361 331.237 364.049C331.237 364.049 334.344 378.719 353.091 380.818L353.806 376.053Z" fill="#EB996E"/>
<path d="M351.005 320.398C350.58 320.453 348.915 318.801 345.999 317.63C343.098 316.437 340.578 316.385 340.353 316.064C340.238 315.915 340.743 315.707 341.847 315.717C342.937 315.72 344.667 315.997 346.48 316.734C348.291 317.473 349.648 318.451 350.351 319.176C351.072 319.909 351.211 320.379 351.005 320.398Z" fill="#263238"/>
<path d="M345.645 323.701C345.422 325.026 344.117 325.932 342.729 325.724C341.344 325.518 340.398 324.278 340.619 322.953C340.841 321.628 342.146 320.722 343.532 320.928C344.921 321.133 345.867 322.374 345.645 323.701Z" fill="#263238"/>
<path d="M355.96 340.396C355.979 340.233 357.803 340.287 360.734 340.506C361.473 340.578 362.187 340.574 362.41 340.106C362.688 339.618 362.544 338.776 362.365 337.863C362.042 335.971 361.705 333.989 361.35 331.912C359.98 323.456 359.145 316.565 359.487 316.511C359.828 316.459 361.215 323.271 362.584 331.725C362.905 333.805 363.214 335.791 363.503 337.688C363.609 338.566 363.889 339.596 363.297 340.606C362.993 341.107 362.38 341.391 361.892 341.421C361.398 341.467 360.99 341.393 360.628 341.341C357.722 340.91 355.938 340.561 355.96 340.396Z" fill="#263238"/>
<path d="M336.749 304.583C336.957 303.851 339.52 304.033 342.486 303.476C345.463 302.983 347.816 301.929 348.252 302.547C348.447 302.844 348.07 303.543 347.139 304.297C346.216 305.049 344.715 305.802 342.933 306.119C341.151 306.433 339.49 306.24 338.375 305.848C337.248 305.457 336.662 304.928 336.749 304.583Z" fill="#263238"/>
<path d="M369.04 311.958C369.448 311.442 371.785 312.419 374.713 312.937C377.635 313.506 380.139 313.43 380.363 314.063C380.458 314.364 379.901 314.796 378.81 315.095C377.729 315.394 376.109 315.509 374.355 315.184C372.601 314.857 371.111 314.165 370.183 313.493C369.249 312.818 368.856 312.207 369.04 311.958Z" fill="#263238"/>
<path d="M318.434 321.379C318.128 321.177 305.763 315.056 303.831 328.436C301.899 341.816 315.73 340.996 315.809 340.615C315.889 340.235 318.434 321.379 318.434 321.379Z" fill="#FFCBB3"/>
<path d="M312.456 334.956C312.402 334.904 312.2 335.086 311.778 335.21C311.368 335.331 310.691 335.357 310.03 334.995C308.692 334.273 307.825 331.857 308.109 329.436C308.25 328.215 308.673 327.09 309.243 326.194C309.792 325.273 310.524 324.681 311.255 324.659C311.986 324.598 312.43 325.095 312.537 325.496C312.664 325.895 312.539 326.151 312.606 326.185C312.639 326.224 312.925 326.003 312.897 325.433C312.881 325.16 312.769 324.821 312.493 324.518C312.209 324.212 311.756 324.009 311.253 323.991C310.21 323.913 309.145 324.728 308.519 325.713C307.836 326.695 307.331 327.953 307.172 329.325C306.869 332.033 307.884 334.756 309.738 335.595C310.644 335.977 311.47 335.806 311.921 335.548C312.385 335.275 312.498 334.988 312.456 334.956Z" fill="#EB996E"/>
<path d="M378.763 321.732C378.425 321.99 376.157 321.487 373.056 321.997C369.956 322.484 367.766 323.705 367.41 323.558C367.236 323.495 367.562 323.076 368.514 322.528C369.452 321.986 371.078 321.342 373.01 321.03C374.942 320.72 376.605 320.834 377.577 321.069C378.57 321.305 378.93 321.613 378.763 321.732Z" fill="#263238"/>
<path d="M372.423 327.896C372.2 329.221 370.896 330.127 369.507 329.919C368.123 329.713 367.176 328.473 367.397 327.148C367.62 325.823 368.924 324.917 370.311 325.123C371.699 325.329 372.646 326.571 372.423 327.896Z" fill="#263238"/>
<path d="M410.618 300.679C410.512 299.904 410.048 299.217 409.43 298.736C408.084 297.688 406.392 297.586 404.773 297.35C400.746 296.763 396.876 295.214 393.515 292.923C394.851 292.45 396.122 291.828 397.247 290.963C399.567 289.178 401.154 286.192 400.569 283.322C400.46 282.784 400.23 282.205 399.729 281.978C398.936 281.618 398.108 282.335 397.447 282.905C395.28 284.775 393.413 285.458 390.625 284.807C388.893 284.402 387.243 283.79 385.976 282.752C385.927 282.687 385.886 282.619 385.838 282.554C385.265 281.785 384.704 281.05 384.149 280.338C384.149 280.338 384.147 280.334 384.146 280.33L384.147 280.334C379.977 274.97 376.287 271.151 372.271 268.897C366.385 265.595 356.131 263.24 349.438 264.101C342.744 264.964 336.251 269.463 334.494 275.98C331.261 272.44 325.806 271.763 321.155 272.969L321.051 272.906C315.9 274.025 312.43 278.866 310.327 283.701C310.212 283.964 310.106 284.235 309.996 284.501C307.99 286.925 305.434 288.894 302.534 290.117C302.021 290.332 301.433 290.601 301.303 291.141C301.175 291.676 301.576 292.186 301.979 292.561C303.049 293.56 304.354 294.293 305.75 294.733C305.145 295.869 304.467 296.96 303.671 297.983C302.994 298.851 302.186 299.894 302.546 300.936C302.825 301.741 303.745 302.177 304.599 302.164C305.451 302.149 306.253 301.782 307.025 301.424C306.305 302.667 305.587 303.913 304.866 305.156C306.609 305.696 308.471 305.793 310.269 305.49C310.709 310.323 311.262 315.847 312.06 319.186C314.121 319.445 315.986 319.837 317.107 321.142C318.631 322.916 319.026 325.934 322.034 325.195C323.566 324.82 325.294 321.933 325.973 320.509C330.487 311.066 332.927 300.64 333.091 290.176C335.411 288.265 338.104 286.806 340.971 285.906L340.726 286.076C346.159 284.942 352.271 283.925 356.89 287.004C360.472 289.393 362.209 293.655 364.661 297.194C369.307 303.9 375.476 307.979 383.516 309.373C383.52 315.082 381.998 322.126 381.595 327.4L387.531 319.577L387.529 319.62C387.969 319.052 388.348 318.471 388.717 317.888L388.839 317.714L388.843 317.69C389.43 316.752 389.996 315.811 390.701 314.9C390.716 314.919 390.731 314.934 390.745 314.952C393.26 317.823 397.939 314.535 396.094 311.194C395.729 310.531 395.267 309.922 394.717 309.399C395.857 310.785 397.717 311.619 399.485 311.316C401.254 311.014 402.796 309.462 402.878 307.669C402.934 306.446 402.208 305.251 401.176 304.631C403.446 305.104 405.855 304.907 408.003 304.026C409.404 303.45 410.85 302.385 410.618 300.679Z" fill="#263238"/>
<path d="M340.075 278.879C340.105 278.931 339.232 279.271 337.987 280.345C336.753 281.416 335.273 283.365 334.331 286.156C333.854 287.543 333.464 289.111 333.243 290.826C333.015 292.539 332.914 294.391 332.796 296.344C332.671 298.295 332.545 300.357 332.146 302.465C331.947 303.519 331.68 304.581 331.311 305.631C330.94 306.661 330.513 307.777 329.594 308.584C328.861 309.245 327.751 309.436 326.853 309.128C325.943 308.844 325.18 308.241 324.663 307.487C323.646 305.936 323.575 304.124 323.48 302.522L323.865 302.621C323.044 303.942 322.211 305.245 321.095 306.227C319.997 307.218 318.579 307.784 317.22 307.73C316.543 307.704 315.882 307.51 315.346 307.146C314.796 306.784 314.432 306.244 314.208 305.693C313.996 305.134 313.926 304.542 314.026 303.991C314.128 303.443 314.412 302.946 314.811 302.621L314.985 302.823C313.339 304.273 311.71 304.956 310.6 305.306C310.039 305.481 309.597 305.572 309.299 305.628C308.998 305.676 308.842 305.693 308.84 305.68C308.838 305.667 308.991 305.626 309.284 305.555C309.575 305.477 310.008 305.364 310.555 305.169C311.639 304.779 313.222 304.069 314.807 302.625L314.982 302.827C314.271 303.41 314.083 304.57 314.501 305.576C314.713 306.073 315.049 306.556 315.533 306.866C316.014 307.183 316.617 307.356 317.237 307.374C318.486 307.411 319.809 306.879 320.839 305.934C321.892 304.995 322.701 303.725 323.514 302.4L323.859 301.838L323.898 302.498C323.994 304.096 324.093 305.841 325.021 307.24C325.485 307.916 326.186 308.462 326.983 308.709C327.777 308.972 328.673 308.814 329.312 308.25C330.114 307.552 330.541 306.498 330.902 305.485C331.264 304.462 331.528 303.421 331.727 302.385C332.126 300.312 332.259 298.265 332.395 296.318C332.525 294.369 332.638 292.509 332.885 290.776C333.124 289.042 333.536 287.455 334.039 286.052C335.032 283.231 336.586 281.264 337.875 280.217C339.177 279.161 340.075 278.879 340.075 278.879Z" fill="#455A64"/>
<path d="M395.313 304.43C395.317 304.436 395.261 304.473 395.148 304.538C395.011 304.614 394.844 304.705 394.639 304.817C394.417 304.943 394.135 305.088 393.786 305.219C393.44 305.362 393.045 305.539 392.576 305.668C390.74 306.266 387.863 306.724 384.424 306.071C381.016 305.435 377.052 303.686 373.726 300.472C370.354 297.316 367.599 292.957 365.513 288.101C364.452 285.672 363.646 283.22 362.705 280.928C361.773 278.638 360.693 276.49 359.279 274.723C357.883 272.951 356.179 271.553 354.336 270.776C353.42 270.369 352.469 270.182 351.551 270.085C350.626 270.015 349.733 270.089 348.896 270.249C347.222 270.579 345.814 271.299 344.713 272.082C343.609 272.875 342.822 273.762 342.261 274.536C341.194 276.138 341.005 277.229 340.94 277.203C340.932 277.201 340.945 277.136 340.981 277.01C341.025 276.86 341.077 276.676 341.142 276.451C341.298 275.965 341.606 275.269 342.12 274.441C342.67 273.638 343.453 272.715 344.568 271.886C345.68 271.063 347.113 270.306 348.833 269.944C349.693 269.77 350.615 269.684 351.575 269.747C352.527 269.836 353.527 270.028 354.476 270.442C356.391 271.234 358.158 272.667 359.593 274.473C361.05 276.275 362.156 278.459 363.1 280.766C364.054 283.073 364.86 285.522 365.914 287.929C367.984 292.747 370.697 297.058 374.003 300.178C377.264 303.36 381.13 305.099 384.482 305.769C387.859 306.45 390.695 306.047 392.524 305.507C394.368 304.956 395.287 304.373 395.313 304.43Z" fill="#455A64"/>
<path d="M398.064 296.47C398.075 296.498 397.817 296.631 397.336 296.849C396.859 297.075 396.139 297.337 395.23 297.597C394.322 297.864 393.212 298.079 391.967 298.22C390.719 298.337 389.339 298.365 387.897 298.233C386.456 298.087 385.105 297.793 383.904 297.439C382.709 297.062 381.66 296.639 380.821 296.201C379.981 295.77 379.322 295.375 378.899 295.063C378.468 294.757 378.24 294.577 378.256 294.553C378.303 294.484 379.262 295.145 380.955 295.922C381.798 296.318 382.839 296.704 384.018 297.053C385.202 297.379 386.529 297.654 387.939 297.799C389.352 297.927 390.705 297.912 391.93 297.819C393.153 297.704 394.248 297.524 395.152 297.298C396.963 296.86 398.032 296.394 398.064 296.47Z" fill="#455A64"/>
<path d="M375.708 662.722C371.905 657.109 366.794 650.136 360.051 641.938C348.505 627.9 331.977 610.318 324.941 602.927C317.239 593.411 296.375 563.879 289.271 555.753C280.236 545.423 265.475 535.636 265.475 535.636L177.064 545.426L171.496 550.599C172.686 557.735 176.403 580.334 184.317 590.557C193.987 603.048 219.37 626.027 231.864 629.642C239.392 631.821 247.731 635.047 255.241 638.241C269.244 647.926 315.887 680.387 319.538 685.636C320.321 686.761 319.529 687.525 319.529 687.525C319.529 687.525 301.043 706.743 291.871 725.971C281.11 748.529 256.143 799.862 256.143 799.862L300.483 822.522C300.483 822.522 357.078 731.108 364.574 719.671C367.525 715.169 373.223 703.986 377.911 694.497C382.963 684.279 382.1 672.156 375.708 662.722Z" fill="#263238"/>
<path d="M264.842 575.325L199.656 552.826C199.656 552.826 201.215 580.126 205.118 587.029L163.939 677.941C163.939 677.941 123.411 733.018 111.826 748.048C96.8053 767.532 72.1947 808.06 72.1947 808.06L108.231 834.304L197.553 727.921C197.553 727.921 207.427 723.608 211.02 717.858L278.74 633.815L264.842 575.325Z" fill="#263238"/>
<path d="M462.157 423.307L460.68 410.707L467.81 401.971C467.81 401.971 475.481 397.631 476.45 396.353C476.45 396.353 477.81 397.423 477.291 399.675C477.291 399.675 479.756 396.527 481.398 396.705C483.041 396.883 484.145 399.704 484.564 401.676C484.564 401.676 486.188 402.346 487.85 403.842C489.511 405.337 489.86 407.221 489.86 407.221L489.401 409.757C489.401 409.757 491.467 409.426 492.465 411.29C493.464 413.151 493.067 415.97 493.067 415.97C493.067 415.97 495.03 414.89 495.968 416.47C496.905 418.049 497.17 418.999 496.749 420.339C496.328 421.678 490.021 432.27 487.853 433.922C485.684 435.574 467.643 449.714 467.643 449.714L451.995 433.298L462.157 423.307Z" fill="#FFCBB3"/>
<path d="M494.433 420.945C494.507 421.006 493.592 422.288 491.719 424.003C490.782 424.857 489.602 425.805 488.195 426.724C487.51 427.166 486.647 427.726 485.563 427.667C484.531 427.619 483.479 426.978 483.011 425.961C482.517 424.968 482.669 423.747 483.224 422.912C483.763 422.062 484.494 421.494 485.158 420.985C486.495 419.979 487.753 419.152 488.837 418.504C491.008 417.21 492.454 416.611 492.501 416.702C492.556 416.808 491.211 417.585 489.143 418.985C488.111 419.686 486.903 420.551 485.611 421.574C484.975 422.08 484.319 422.63 483.898 423.324C483.468 424.003 483.378 424.864 483.74 425.616C484.08 426.358 484.845 426.83 485.613 426.878C486.374 426.939 487.107 426.527 487.796 426.097C489.19 425.234 490.381 424.352 491.348 423.571C493.278 421.999 494.34 420.861 494.433 420.945Z" fill="#EB996E"/>
<path d="M485.053 401.878C485.132 401.974 483.82 403.077 481.909 405.05C480.956 406.039 479.858 407.251 478.735 408.673C478.169 409.385 477.612 410.139 477.029 410.955C476.45 411.754 475.654 412.7 474.423 412.964C473.824 413.099 473.135 412.984 472.623 412.63C472.105 412.281 471.777 411.767 471.576 411.247C471.159 410.178 471.402 409.029 471.795 408.173C472.192 407.29 472.714 406.572 473.161 405.9C473.607 405.246 474.03 404.623 474.434 404.031C476.001 401.752 477.016 400.373 477.111 400.434C477.204 400.495 476.357 401.984 474.913 404.341C474.236 405.529 473.209 406.9 472.48 408.467C472.144 409.261 471.986 410.148 472.317 410.965C472.617 411.787 473.388 412.388 474.262 412.171C475.151 411.989 475.826 411.26 476.396 410.482C476.979 409.688 477.573 408.906 478.159 408.201C479.336 406.781 480.496 405.592 481.511 404.641C483.549 402.746 484.993 401.8 485.053 401.878Z" fill="#EB996E"/>
<path d="M488.731 409.131C488.8 409.228 487.812 410.039 486.393 411.54C484.95 412.984 483.102 415.317 480.366 417.038C479.691 417.494 479.132 417.981 478.373 418.35C477.998 418.528 477.521 418.647 477.055 418.539C476.602 418.417 476.302 418.222 475.986 418.016C475.687 417.8 475.385 417.583 475.162 417.223C474.978 416.917 474.83 416.603 474.735 416.288C474.531 415.657 474.492 415.039 474.538 414.491C474.631 413.385 475.071 412.574 475.442 412.106C475.823 411.633 476.121 411.468 476.149 411.501C476.279 411.577 475.164 412.505 475.106 414.519C475.099 415.007 475.167 415.544 475.366 416.071C475.459 416.336 475.594 416.592 475.756 416.837C475.877 417.034 476.133 417.223 476.394 417.396C476.652 417.561 476.972 417.728 477.217 417.786C477.462 417.836 477.738 417.776 478.033 417.633C478.622 417.342 479.254 416.815 479.889 416.382C482.56 414.708 484.405 412.511 485.988 411.132C487.54 409.712 488.675 409.044 488.731 409.131Z" fill="#EB996E"/>
<path d="M492.931 415.542C492.994 415.633 491.545 416.755 489.149 418.498C487.877 419.406 486.458 420.423 484.917 421.524C484.112 422.058 483.321 422.763 482.187 423.144C481.619 423.322 480.984 423.378 480.355 423.196C479.724 423.025 479.139 422.515 478.896 421.889C478.365 420.625 478.865 419.289 479.505 418.404C480.162 417.489 480.86 416.759 481.513 416.015C482.835 414.556 484.117 413.314 485.273 412.366C486.424 411.41 487.443 410.748 488.169 410.334C488.895 409.92 489.331 409.756 489.353 409.799C489.422 409.916 487.816 410.814 485.648 412.797C484.563 413.782 483.345 415.039 482.07 416.509C481.446 417.245 480.736 418.023 480.16 418.847C479.587 419.658 479.266 420.685 479.641 421.574C479.971 422.457 481.064 422.684 481.953 422.39C482.863 422.108 483.675 421.444 484.498 420.913C486.073 419.864 487.527 418.897 488.828 418.031C491.304 416.407 492.868 415.449 492.931 415.542Z" fill="#EB996E"/>
<path d="M477.46 399.471C477.736 399.582 476.212 402.889 473.269 406.169C472.896 406.577 472.53 406.971 472.137 407.327C471.96 407.505 471.71 407.685 471.563 407.826C471.502 407.888 471.435 407.945 471.366 407.999C471.339 408.04 471.314 408.099 471.301 408.181C471.3 408.992 471.274 409.985 471.125 410.666C470.85 412.108 470.392 412.901 470.303 412.863C470.186 412.823 470.442 411.976 470.561 410.59C470.635 409.862 470.594 409.153 470.566 408.086C470.583 407.934 470.626 407.759 470.726 407.596L471.047 407.255C471.253 407.052 471.415 406.937 471.597 406.75C471.957 406.41 472.309 406.024 472.669 405.631C474.091 404.027 475.275 402.468 476.101 401.327C476.929 400.185 477.352 399.428 477.46 399.471Z" fill="#EB996E"/>
<path d="M475.182 418.524C475.067 418.554 474.85 418.005 474.262 417.283C473.677 416.574 472.738 415.594 471.697 414.617C470.645 413.645 469.525 413.029 468.636 412.78C467.755 412.515 467.153 412.55 467.139 412.427C467.114 412.335 467.731 412.078 468.757 412.223C469.776 412.344 471.116 412.977 472.237 414.02C473.349 415.065 474.204 416.089 474.733 416.963C475.253 417.843 475.284 418.508 475.182 418.524Z" fill="#EB996E"/>
<path d="M124.261 462.964C124.261 462.964 125.475 473.191 124.953 476.187C124.434 479.182 121.208 488.447 121.672 492.61C121.672 492.61 118.738 494.474 117.693 490.921C116.648 487.369 116.566 481.94 117.132 479.453C117.698 476.966 115.785 476.777 114.385 478.004C112.986 479.232 105.005 489.095 105.005 489.095C105.005 489.095 97.6238 501.621 95.7566 501.94C93.8895 502.258 93.2343 500.008 92.8557 499.184C92.4771 498.358 98.3921 486.998 98.3921 486.998L102.195 481.773C102.195 481.773 89.2309 497.367 87.2079 497.538C85.1848 497.709 84.6707 496.291 84.641 495.097C84.6113 493.906 90.4021 487.079 90.4021 487.079L97.5514 477.358L81.4543 493.312C81.4543 493.312 79.7412 494.626 78.5181 493.464C77.2968 492.302 78.3046 489.772 78.3046 489.772L93.4756 471.855C93.4756 471.855 76.4004 475.398 75.6005 474.639C74.8005 473.879 73.9338 472.59 74.8748 472.088C75.8158 471.587 93.7596 464.215 93.7596 464.215L109.326 452.491L113.422 449.406L126.462 460.407L124.261 462.964Z" fill="#FFCBB3"/>
<path d="M105.577 447.742L147.164 387.898C152.268 380.866 160.277 376.517 168.954 376.066L245.441 372.08C245.441 372.08 256.434 358.872 262.967 360.237C269.5 361.601 279.632 368.221 276.837 380.374C274.042 392.527 257.444 417.171 238.307 419.478L174.078 419.291L129.697 465.205L105.577 447.742Z" fill="#455A64"/>
<path d="M251.705 543.944L289.271 555.755C294.128 550.625 306.932 521.722 306.932 521.722L251.705 543.944Z" fill="#E0E0E0"/>
<path d="M305.95 366.705L263.207 362.234L240.315 414.476L221.625 492.001C221.625 492.001 159.282 529.589 147.125 545.736C141.017 553.849 159.746 574.781 159.746 574.781C159.746 574.781 179.145 602.931 197.749 599.46C216.354 595.991 258.611 564.788 279.612 549.636C285.802 545.17 296.763 537.095 303.519 527.169C314.124 511.586 318.972 492.809 318.972 492.809L305.95 366.705Z" fill="#455A64"/>
<path d="M352.031 387.412L371.794 409.792C372.74 411.397 357.183 466.838 349.863 480.624C347.013 485.994 326.641 509.171 315.899 528.813V590.579L289.274 555.757L293.345 549.799L318.974 492.813L353.715 452.177L352.649 415.165L352.031 387.412Z" fill="#455A64"/>
<path d="M422.864 448.129L375.519 418.985L371.792 409.792L348.49 477.321C348.49 477.321 416.08 494.032 429.436 488.054C442.791 482.076 482.044 446.596 482.044 446.596L457.883 423.988L422.864 448.129Z" fill="#455A64"/>
<path d="M305.95 366.705L310.262 360.844C310.262 360.844 322.229 371.063 330.27 381.464C335.62 388.387 342.655 401.111 342.655 401.111L352.434 388.112L353.715 452.175L318.974 492.811L306.374 370.792L305.95 366.705Z" fill="#E0E0E0"/>
<path d="M309.87 486.519C309.837 486.526 309.703 486.109 309.475 485.309C309.226 484.412 308.905 483.25 308.504 481.805C307.669 478.761 306.361 474.383 304.672 468.996C302.933 463.586 300.878 457.19 298.603 450.106C296.331 442.99 293.833 435.156 291.709 426.778C290.689 422.58 289.671 418.482 289.235 414.378C288.773 410.278 289.302 406.236 290.325 402.613C292.468 395.341 296.052 389.541 298.443 384.458C300.975 379.42 302.392 375.072 302.966 371.985C303.096 371.226 303.213 370.539 303.319 369.927C303.365 369.35 303.406 368.843 303.441 368.401C303.514 367.575 303.567 367.139 303.603 367.139C303.636 367.139 303.647 367.575 303.636 368.411C303.627 368.86 303.617 369.372 303.604 369.957C303.525 370.58 303.436 371.278 303.337 372.05C302.875 375.192 301.529 379.65 299.061 384.753C296.73 389.901 293.228 395.735 291.184 402.854C290.21 406.408 289.718 410.287 290.178 414.283C290.612 418.274 291.631 422.372 292.647 426.544C294.759 434.879 297.227 442.712 299.451 449.837C301.689 456.96 303.718 463.376 305.325 468.798C306.932 474.217 308.142 478.633 308.868 481.712C309.256 483.245 309.492 484.451 309.664 485.266C309.831 486.079 309.902 486.512 309.87 486.519Z" fill="#263238"/>
<path d="M237.228 475.999C237.163 475.982 237.284 475.238 237.557 473.911C237.874 472.382 238.262 470.503 238.721 468.291C239.693 463.547 240.924 456.971 241.954 449.659C242.978 442.342 243.604 435.681 243.977 430.852C244.148 428.599 244.29 426.687 244.409 425.13C244.515 423.779 244.604 423.031 244.671 423.033C244.738 423.034 244.775 423.786 244.786 425.145C244.801 426.503 244.762 428.469 244.66 430.895C244.459 435.748 243.94 442.448 242.911 449.794C241.878 457.138 240.536 463.722 239.389 468.442C238.817 470.802 238.314 472.701 237.924 474.004C237.536 475.305 237.293 476.016 237.228 475.999Z" fill="#455A64"/>
<path d="M251.959 463.159C251.714 463.3 249.45 459.653 246.243 455.474C243.051 451.279 240.118 448.148 240.317 447.947C240.487 447.762 243.769 450.628 247.011 454.885C250.267 459.132 252.18 463.042 251.959 463.159Z" fill="#455A64"/>
<path d="M258.611 447.741C258.611 447.981 254.19 447.825 249.181 445.835C244.159 443.877 240.818 440.978 240.981 440.804C241.152 440.562 244.658 443.04 249.535 444.937C254.396 446.873 258.65 447.45 258.611 447.741Z" fill="#455A64"/>
<path d="M313.135 499.581C313.152 499.611 312.894 499.787 312.385 500.096C311.871 500.393 311.132 500.873 310.123 501.382C308.133 502.455 305.158 503.847 301.331 505.179C293.736 507.865 282.368 509.957 270.063 508.011C257.752 506.109 247.533 500.779 241.003 496.062C237.707 493.707 235.235 491.549 233.605 489.984C232.778 489.216 232.187 488.562 231.774 488.135C231.367 487.701 231.165 487.464 231.189 487.439C231.243 487.384 232.165 488.226 233.858 489.706C235.556 491.177 238.078 493.241 241.393 495.502C247.965 500.031 258.086 505.183 270.209 507.056C282.327 508.971 293.538 507.024 301.114 504.53C304.93 503.292 307.923 502.009 309.954 501.044C311.986 500.083 313.096 499.511 313.135 499.581Z" fill="#455A64"/>
<path d="M305.585 512.952C305.626 513.004 305.149 513.438 304.249 514.183C303.356 514.936 301.997 515.942 300.271 517.115C296.817 519.457 291.761 522.329 285.781 524.585C279.799 526.842 274.1 528.023 269.953 528.502C267.88 528.748 266.191 528.867 265.024 528.876C263.856 528.897 263.212 528.877 263.209 528.81C263.199 528.646 265.77 528.481 269.857 527.824C273.942 527.176 279.536 525.905 285.44 523.68C291.342 521.452 296.383 518.715 299.902 516.538C303.421 514.363 305.486 512.824 305.585 512.952Z" fill="#263238"/>
<path d="M314.907 532.538C314.622 532.531 314.605 528.362 313.835 523.312C313.094 518.257 311.88 514.268 312.151 514.177C312.381 514.084 314.031 518.008 314.791 523.169C315.574 528.325 315.152 532.559 314.907 532.538Z" fill="#455A64"/>
<path d="M252.585 415.596C252.473 415.432 255.452 413.777 259.33 410.005C263.196 406.284 267.808 400.15 270.243 392.273C272.674 384.393 272.322 376.723 271.225 371.471C270.148 366.17 268.621 363.125 268.804 363.052C268.856 363.028 269.276 363.763 269.89 365.164C270.508 366.564 271.262 368.657 271.893 371.326C273.179 376.623 273.658 384.478 271.165 392.557C268.671 400.633 263.849 406.848 259.799 410.501C257.772 412.351 255.97 413.654 254.671 414.462C253.375 415.273 252.613 415.644 252.585 415.596Z" fill="#263238"/>
<path d="M315.895 528.812C315.867 528.795 316.082 528.392 316.52 527.64C316.962 526.892 317.604 525.783 318.486 524.387C320.24 521.592 322.844 517.586 326.118 512.681C332.608 502.837 341.897 489.431 350.932 473.898C352.078 471.964 353.137 470.017 354.169 468.089C355.24 466.181 356.172 464.241 357.107 462.346C358.093 460.472 358.82 458.529 359.654 456.676C360.09 455.756 360.342 454.785 360.691 453.859C360.988 452.918 361.402 452.014 361.595 451.073C362.627 447.376 362.909 443.658 363.05 440.223C363.173 436.776 363.056 433.556 362.85 430.624C362.421 424.759 361.708 420.037 361.263 416.772C361.048 415.215 360.875 413.966 360.743 413.01C360.632 412.149 360.591 411.694 360.623 411.689C360.656 411.683 360.762 412.129 360.934 412.979C361.113 413.927 361.345 415.169 361.632 416.713C362.193 419.963 363.011 424.675 363.529 430.57C363.78 433.515 363.939 436.759 363.85 440.247C363.741 443.732 363.496 447.461 362.454 451.303C362.258 452.276 361.849 453.187 361.551 454.148C361.202 455.091 360.946 456.088 360.509 457.016C359.68 458.89 358.945 460.863 357.961 462.751C357.024 464.663 356.09 466.621 355.017 468.538C353.984 470.477 352.92 472.436 351.771 474.375C342.703 489.964 333.319 503.314 326.686 513.06C323.404 517.859 320.728 521.774 318.803 524.587C317.927 525.892 317.224 526.939 316.687 527.739C316.196 528.461 315.925 528.83 315.895 528.812Z" fill="#263238"/>
<path d="M373.565 428.753C373.685 428.801 373.032 430.75 371.825 433.838C370.621 436.928 368.85 441.156 366.747 445.759C364.643 450.364 362.605 454.47 361.059 457.402C359.513 460.336 358.468 462.105 358.351 462.046C358.228 461.983 359.058 460.106 360.444 457.099C361.963 453.811 363.817 449.796 365.868 445.357C367.881 440.902 369.702 436.875 371.194 433.573C372.562 430.555 373.438 428.701 373.565 428.753Z" fill="#263238"/>
<path d="M380.213 441.169C380.304 441.283 378.8 442.623 376.438 444.853C374.075 447.081 370.886 450.236 367.601 453.937C364.32 457.643 361.571 461.188 359.643 463.801C357.712 466.415 356.562 468.068 356.439 467.99C356.335 467.925 357.284 466.138 359.082 463.41C360.879 460.68 363.566 457.036 366.877 453.296C370.192 449.562 373.487 446.455 375.981 444.345C378.476 442.229 380.137 441.075 380.213 441.169Z" fill="#263238"/>
<path d="M427.572 469.041C427.311 469.095 426.284 465.106 425.278 460.136C424.272 455.164 423.671 451.092 423.933 451.038C424.194 450.984 425.221 454.971 426.227 459.943C427.231 464.915 427.834 468.989 427.572 469.041Z" fill="#263238"/>
<path d="M431.726 467.085C431.451 467.142 430.408 463.011 428.691 458.065C426.993 453.111 425.267 449.215 425.52 449.093C425.742 448.976 427.882 452.727 429.606 457.751C431.346 462.766 431.975 467.04 431.726 467.085Z" fill="#263238"/>
<path d="M164.089 398.314C164.278 398.157 167.764 402.253 170.928 408.049C174.117 413.834 175.698 418.975 175.464 419.05C175.195 419.152 173.23 414.222 170.08 408.515C166.96 402.795 163.859 398.489 164.089 398.314Z" fill="#263238"/>
<path d="M169.52 392.531C169.778 392.46 171.415 397.577 173.178 403.96C174.941 410.345 176.162 415.577 175.904 415.647C175.646 415.718 174.009 410.601 172.246 404.216C170.485 397.835 169.263 392.602 169.52 392.531Z" fill="#263238"/>
<path d="M233.975 516.814C233.969 516.748 234.984 516.601 236.824 516.391C238.834 516.165 241.453 515.87 244.606 515.513C251.174 514.76 260.232 513.594 270.182 511.952C280.133 510.302 289.085 508.485 295.546 507.083C298.645 506.404 301.219 505.842 303.196 505.409C305.004 505.016 306.012 504.828 306.028 504.893C306.045 504.958 305.069 505.268 303.287 505.775C301.507 506.287 298.914 506.965 295.698 507.752C289.267 509.325 280.313 511.254 270.339 512.908C260.367 514.556 251.273 515.615 244.676 516.194C241.378 516.486 238.706 516.679 236.855 516.768C235.005 516.861 233.98 516.881 233.975 516.814Z" fill="#263238"/>
<path d="M261.88 492.003C261.934 491.87 264.053 492.616 267.49 493.765C270.928 494.915 275.698 496.432 281.035 497.859C286.375 499.283 291.266 500.348 294.82 501.062C298.372 501.779 300.583 502.189 300.562 502.33C300.546 502.453 298.3 502.282 294.699 501.734C291.101 501.189 286.156 500.225 280.785 498.793C275.416 497.356 270.649 495.726 267.258 494.407C263.866 493.089 261.833 492.118 261.88 492.003Z" fill="#263238"/>
<path d="M231.187 543.017L215.238 551.13L185.37 520.699L202.094 515.92" fill="#455A64"/>
<path d="M202.094 515.92C202.105 515.961 201.703 516.118 200.932 516.378C200.029 516.668 198.919 517.022 197.577 517.451C194.501 518.375 190.381 519.611 185.477 521.085L185.654 520.417C190.032 524.843 195.229 530.1 200.819 535.753C206.229 541.306 211.268 546.477 215.526 550.846L215.053 550.768C219.776 548.442 223.748 546.488 226.709 545.031C228.021 544.413 229.108 543.903 229.988 543.487C230.751 543.144 231.165 542.978 231.185 543.017C231.204 543.054 230.827 543.294 230.101 543.708C229.248 544.175 228.195 544.753 226.922 545.451C224.001 546.985 220.083 549.044 215.422 551.492L215.16 551.629L214.947 551.414C210.658 547.076 205.582 541.941 200.131 536.428C194.583 530.734 189.425 525.439 185.08 520.979L184.601 520.487L185.257 520.309C190.197 518.969 194.351 517.844 197.449 517.004C198.813 516.66 199.945 516.374 200.864 516.142C201.658 515.959 202.083 515.881 202.094 515.92Z" fill="#263238"/>
<path d="M231.187 543.017C231.003 543.21 225.387 538.188 218.642 531.802C211.896 525.411 206.578 520.075 206.762 519.882C206.946 519.689 212.562 524.71 219.307 531.1C226.052 537.488 231.371 542.824 231.187 543.017Z" fill="#263238"/>
<path d="M313.577 505.023L314.07 505.097C312.532 504.344 310.462 505.329 309.978 507.037C309.494 508.743 310.696 510.747 312.372 511.04C314.048 511.334 315.8 509.865 315.912 508.087C316.003 506.623 314.913 505.4 313.577 505.023Z" fill="#263238"/>
<path d="M293.343 538.32C293.228 538.194 295.457 536.145 298.419 532.273C301.418 528.437 305.099 522.776 308.634 516.233C312.131 509.667 314.798 503.462 316.327 498.841C317.905 494.231 318.382 491.239 318.551 491.265C318.618 491.274 318.538 492.027 318.337 493.39C318.113 494.745 317.697 496.697 316.977 499.047C315.6 503.769 313.007 510.073 309.484 516.69C305.923 523.283 302.116 528.934 298.95 532.7C297.389 534.599 295.997 536.03 294.994 536.969C293.972 537.887 293.387 538.368 293.343 538.32Z" fill="#263238"/>
<path d="M288.562 732.884C288.541 732.873 288.682 732.539 288.977 731.903C289.306 731.21 289.748 730.28 290.308 729.102C291.494 726.661 293.346 723.14 295.863 718.768C298.424 714.421 301.689 709.239 305.785 703.565C307.851 700.742 310.099 697.778 312.589 694.757C313.84 693.249 315.134 691.715 316.506 690.185C317.198 689.426 317.899 688.66 318.608 687.886C318.955 687.496 319.38 687.127 319.557 686.778C319.755 686.41 319.661 686.202 319.367 686.031L319.262 685.97L319.193 685.892C316.94 683.357 313.907 681.13 310.989 678.775C308.003 676.456 304.885 674.114 301.67 671.733C295.239 666.978 288.413 662.093 281.37 657.093C272.143 650.548 263.207 644.31 254.981 638.62L255.066 638.666C250.1 636.638 245.781 633.813 241.376 631.779C236.998 629.652 232.444 628.657 228.173 627.49C219.568 625.231 212.618 621.131 207.762 616.836C202.822 612.619 199.435 608.703 197.206 605.973C196.107 604.59 195.298 603.499 194.774 602.743C194.54 602.395 194.349 602.111 194.193 601.879C194.067 601.682 194.008 601.578 194.019 601.57C194.03 601.563 194.11 601.652 194.258 601.832C194.431 602.053 194.642 602.32 194.9 602.651C195.465 603.373 196.311 604.432 197.441 605.778C199.735 608.436 203.176 612.274 208.13 616.398C210.608 618.447 213.473 620.572 216.874 622.324C220.283 624.097 224.121 625.637 228.377 626.734C232.609 627.861 237.267 628.852 241.737 630.997C246.228 633.048 250.54 635.845 255.413 637.814L255.458 637.833L255.499 637.861C263.749 643.529 272.695 649.754 281.926 656.304C288.974 661.306 295.798 666.202 302.227 670.977C305.44 673.368 308.558 675.723 311.544 678.06C314.494 680.471 317.439 682.603 319.882 685.378L319.707 685.239C320.065 685.415 320.334 685.681 320.466 686.089C320.579 686.499 320.461 686.895 320.307 687.173C319.974 687.759 319.559 688.069 319.219 688.463C318.512 689.229 317.812 689.987 317.118 690.736C315.746 692.249 314.449 693.767 313.196 695.26C310.698 698.251 308.437 701.188 306.355 703.983C302.227 709.603 298.916 714.729 296.297 719.027C293.723 723.352 291.804 726.826 290.544 729.224C289.935 730.377 289.454 731.286 289.096 731.962C288.768 732.582 288.584 732.895 288.562 732.884Z" fill="#455A64"/>
<path d="M345.567 398.121L340.539 397.967L337.872 402.299L339.696 406.917L344.637 407.554L347.436 401.64L345.567 398.121Z" fill="#94BDEB"/>
<path d="M339.062 402.787L330.286 397.835C330.286 397.835 333.352 392.648 340.754 397.835L339.062 402.787Z" fill="#94BDEB"/>
<path d="M340.754 397.835C340.721 397.878 340.208 397.585 339.303 397.013C338.367 396.566 336.949 395.673 335.027 395.811C334.087 395.902 333.074 396.189 332.105 396.804C331.146 397.423 330.182 398.22 329.254 399.19C327.359 401.078 325.485 403.526 322.744 405.495L322.174 405.904L322.033 405.202C321.433 402.216 320.488 399.018 319.323 395.762C316.288 387.412 312.636 380.194 310.058 374.96C308.822 372.473 307.786 370.395 306.975 368.763C306.26 367.293 305.891 366.464 305.95 366.432C306.01 366.4 306.491 367.169 307.307 368.587C308.122 370.005 309.282 372.069 310.665 374.647C313.402 379.812 317.166 387.002 320.232 395.438C321.409 398.726 322.352 401.974 322.935 405.026L322.224 404.734C324.82 402.915 326.728 400.525 328.703 398.632C329.67 397.663 330.704 396.843 331.754 396.21C332.816 395.579 333.963 395.285 335.004 395.233C337.141 395.181 338.555 396.211 339.466 396.748C340.338 397.418 340.788 397.793 340.754 397.835Z" fill="#263238"/>
<path d="M352.432 402.561C352.529 402.566 352.597 403.37 352.107 404.589C351.636 405.785 350.478 407.394 348.495 408.264L347.825 408.559L347.84 407.806C347.851 407.262 347.861 406.698 347.818 406.123C347.562 401.393 345.277 398.073 345.535 397.939C345.632 397.869 346.333 398.591 347.102 400.013C347.866 401.425 348.637 403.582 348.781 406.063C348.826 406.674 348.811 407.275 348.787 407.852L348.132 407.392C349.852 406.685 350.981 405.35 351.556 404.322C352.146 403.281 352.298 402.537 352.432 402.561Z" fill="#263238"/>
<path d="M340.754 405.117C340.788 405.122 340.769 405.438 340.704 406.033C340.615 406.739 340.505 407.598 340.374 408.634C340.067 410.889 339.579 414.148 338.924 418.164C337.616 426.199 335.63 437.279 332.768 449.377C329.895 461.478 326.556 472.252 323.707 479.887C322.292 483.707 321.062 486.768 320.127 488.846C319.696 489.798 319.338 490.587 319.044 491.237C318.787 491.779 318.638 492.057 318.606 492.044C318.575 492.031 318.666 491.727 318.864 491.163C319.111 490.496 319.414 489.685 319.778 488.707C320.604 486.589 321.734 483.499 323.063 479.661C325.737 471.988 328.959 461.225 331.827 449.156C334.681 437.088 336.771 426.047 338.25 418.049C338.969 414.161 339.561 410.959 340.002 408.574C340.205 407.55 340.374 406.702 340.513 406.004C340.637 405.417 340.721 405.111 340.754 405.117Z" fill="#263238"/>
<g opacity="0.3">
<path d="M342.187 405.957C339.134 408.66 337.335 412.528 334.431 415.39C327.515 422.207 316.257 421.728 306.91 419.098C297.561 416.468 288.354 412.121 278.664 412.735C267.592 413.435 258.067 420.453 249.255 427.19C244.73 430.65 239.437 433.647 234.912 437.107L230.459 455.355C237.965 457.168 246.274 451.992 251.631 446.429C256.987 440.869 261.449 434.172 268.162 430.36C274.708 426.644 282.617 426.16 290.111 426.871C297.604 427.582 304.969 429.389 312.476 429.922C319.984 430.455 327.914 429.579 334.178 425.405C340.442 421.23 344.488 413.123 342.187 405.957Z" fill="black"/>
</g>
<path d="M337.872 402.299C338.709 405.545 335.685 407.234 332.812 408.96C329.939 410.686 325.468 410.428 322.126 410.195C306.032 409.068 292.925 396.412 276.843 395.126C265.655 394.231 253.786 399.571 244.233 405.465C234.682 411.36 226.469 419.181 217.234 425.559C195.155 440.804 190.192 438.454 168.183 442.73L161.108 459.202L179.703 463.809C179.703 463.809 224.041 452.216 238.073 437.895C252.37 423.303 260.436 410.389 270.768 407.804C292.851 402.277 316.637 421.013 329.832 418.32C342.43 415.748 345.79 405.115 345.79 405.115L337.872 402.299Z" fill="#94BDEB"/>
<g opacity="0.3">
<path d="M190.613 526.041L182.283 528.812L208.278 555.803L228.559 544.356L215.604 550.065L190.613 526.041Z" fill="black"/>
</g>
<g opacity="0.3">
<path d="M300.34 511.23C281.59 520.762 260.061 522.82 239.116 524.719C256.939 528.812 282.247 525.315 300.34 511.23Z" fill="black"/>
</g>
<path d="M353.791 347.133C352.918 346.552 352.031 345.966 351.034 345.643C350.038 345.32 348.898 345.29 347.983 345.799C346.723 346.5 345.533 348.356 345.533 350.183C347.597 353.054 349.479 353.158 352.642 353.041C353.063 351.402 354.095 349.115 354.088 347.425" fill="#EB996E"/>
<path d="M352.852 353.345C352.883 353.444 351.732 353.859 349.86 353.481C348.939 353.284 347.859 352.868 346.836 352.122C346.339 351.745 345.799 351.328 345.4 350.658C344.969 349.995 344.962 349.013 345.272 348.308C345.869 346.907 346.877 345.817 348.111 345.27C349.364 344.73 350.634 344.928 351.51 345.287C353.303 346.061 353.9 347.167 353.819 347.209C353.709 347.337 352.924 346.448 351.285 345.932C350.48 345.693 349.44 345.617 348.481 346.081C347.532 346.532 346.654 347.523 346.174 348.657C345.645 349.784 346.454 350.704 347.373 351.411C348.26 352.117 349.206 352.555 350.03 352.818C351.701 353.334 352.84 353.186 352.852 353.345Z" fill="#263238"/>
<path d="M353.713 478.566C353.716 478.549 353.956 478.579 354.42 478.653C354.93 478.74 355.61 478.856 356.476 479.004C358.334 479.34 360.983 479.819 364.366 480.429C371.272 481.667 381.174 483.442 393.387 485.632C399.519 486.662 406.239 487.872 413.485 488.715C417.103 489.073 420.902 489.507 424.679 488.915C428.472 488.343 431.893 486.144 435.393 484.026C438.916 481.922 442.24 479.375 445.635 476.725C449.024 474.076 452.411 471.276 455.859 468.425C462.736 462.695 469.776 456.665 476.934 450.429C478.542 449.022 480.14 447.623 481.725 446.234L481.714 446.949C473.337 439.102 465.24 431.514 457.565 424.326L458.144 424.369C445.282 433.203 433.446 441.331 423.083 448.449L422.873 448.592L422.659 448.458C408.307 439.542 396.514 432.214 388.258 427.084C384.203 424.534 381.018 422.533 378.798 421.138C377.753 420.466 376.937 419.94 376.337 419.556C375.784 419.194 375.517 418.983 375.517 418.983C375.517 418.983 375.827 419.128 376.399 419.458C377.011 419.818 377.848 420.312 378.919 420.943C381.165 422.296 384.385 424.237 388.489 426.711C396.787 431.772 408.639 439.002 423.064 447.801L422.641 447.812C432.981 440.657 444.787 432.487 457.617 423.608L457.923 423.396L458.196 423.651C465.878 430.83 473.985 438.408 482.371 446.244L482.76 446.607L482.359 446.958C480.773 448.348 479.173 449.75 477.565 451.157C470.401 457.396 463.354 463.427 456.461 469.152C453.003 472.001 449.605 474.8 446.199 477.451C442.801 480.092 439.408 482.675 435.852 484.785C432.357 486.883 428.825 489.156 424.81 489.752C420.85 490.353 417.028 489.884 413.39 489.511C406.098 488.627 399.394 487.378 393.26 486.305C381.007 484.093 371.118 482.157 364.288 480.801C360.92 480.112 358.282 479.574 356.432 479.197C355.574 479.01 354.899 478.863 354.394 478.752C353.943 478.646 353.709 478.583 353.713 478.566Z" fill="#263238"/>
</svg>
